<svg width="200" height="200" viewBox="0 0 200 200" fill="none" xmlns="http://www.w3.org/2000/svg">
<path d="M69 150V33C69 27.4772 73.4772 23 79 23H157C162.523 23 167 27.4772 167 33V150C167 155.523 162.523 160 157 160H79C73.4772 160 69 155.523 69 150Z" fill="#222222" stroke="#222222" stroke-width="2"/>
<path d="M32 167V50C32 44.4772 36.4772 40 42 40H120C125.523 40 130 44.4772 130 50V167C130 172.523 125.523 177 120 177H42C36.4772 177 32 172.523 32 167Z" fill="#222222" stroke="#F5F5F5" stroke-width="7.5"/>
</svg>
