<svg width="208" height="106" viewBox="0 0 208 106" fill="none" xmlns="http://www.w3.org/2000/svg">
<path d="M17.6029 61.9884C10.8664 65.7309 10.1913 35.6942 10.3526 33.3835C10.4896 31.4208 11.8374 13.7889 17.9991 17.8133C20.2671 19.2946 23.4406 25.0635 24.655 27.0445C24.9379 27.506 27.1794 31.828 28.5773 32.5119C31.1023 33.7472 34.3486 24.5505 34.639 23.9146C37.8025 16.9878 40.6365 9.43095 45.6927 3.59009C52.9611 -4.80616 52.4032 15.5124 52.5468 19.0019C52.6852 22.366 53.6229 22.8399 56.5087 20.7055C61.8923 16.7237 66.4217 11.7026 71.9997 7.94818C74.5674 6.21993 81.7253 1.23745 82.8949 7.27466C84.1345 13.6729 80.9557 19.7571 80.0424 25.8956C79.1699 31.7594 89.6954 24.8974 90.7791 24.39C100.571 19.8052 110.36 15.4134 120.573 11.8308C122.293 11.2274 132.246 7.9212 134.32 7.23504C136.291 6.58302 138.191 5.49778 140.263 5.37295C140.962 5.33083 139.314 6.41305 138.758 6.83885C135.408 9.40342 132.05 11.8927 128.893 14.7032C125.785 17.4686 119.559 22.1194 118.453 26.4898C117.986 28.3324 120.107 27.934 121.147 27.8567C124.527 27.6056 129.345 26.3097 132.379 25.539C143.112 22.8127 153.688 19.4429 164.451 16.8426C168.254 15.9236 170.857 15.3243 174.652 15.1984C175.842 15.159 178.585 14.9553 178.119 16.0503C177.398 17.7442 175.073 18.1277 173.464 19.0217C170.347 20.7533 168.853 21.5347 165.837 23.4194C164.199 24.4432 157.601 27.7107 157.161 29.9763C156.931 31.1579 168.035 28.301 168.214 28.2529C174.057 26.6828 179.761 24.8434 185.825 24.3504C186.619 24.2859 190.334 23.7048 191.055 24.6278C191.527 25.2326 188.198 27.8305 187.964 28.035C186.201 29.5809 184.114 30.8554 182.457 32.5119C180.774 34.195 184.602 34.2021 185.35 34.3344C189.15 35.007 192.629 35.9468 195.928 38.019C196.608 38.4465 200.083 40.2995 200.048 41.4658C199.995 43.2335 196.466 45.916 195.452 47.0125C191.732 51.0383 188.857 55.9013 183.804 58.4425C180.326 60.1917 176.511 60.8382 172.81 59.4924C172.167 59.2587 170.055 57.7459 172.018 58.9774C175.622 61.2387 177.625 65.6961 179.446 69.3378C179.954 70.3526 181.893 74.2009 182.16 75.9145C182.359 77.1902 181.021 76.2262 180.793 76.1126C177.528 74.4798 168.92 66.1928 165.144 68.8029C159.964 72.383 170.258 87.5481 169.7 92.7724C168.769 101.491 153.206 89.7092 151.238 88.2756C144.8 83.5878 135.874 73.5689 128.16 81.2829C123.506 85.9361 120.327 91.8492 115.64 96.5362C111.629 100.547 105.755 105.96 99.4755 104.123C91.4547 101.777 94.5409 87.1526 90.4622 81.2432C85.3919 73.8973 77.7241 85.8218 74.5353 89.3255C71.0514 93.1536 58.1995 106.821 57.4992 93.8025C57.2465 89.1053 58.2232 83.5747 55.9936 79.1831C53.7642 74.7917 48.4466 77.6346 45.455 79.3415C40.9667 81.9025 37.2119 85.5124 33.2127 88.7312C33.0977 88.8238 27.1549 93.7193 27.6463 90.9895C28.1516 88.1819 30.6713 85.5046 31.9845 83.0657C33.7 79.8799 35.203 76.3031 35.2927 72.6261C35.4588 65.8187 16.82 78.5959 15.1663 79.5198C13.6537 80.3649 11.0151 83.0819 10.3526 81.481C9.83598 80.2325 11.9487 79.297 12.8288 78.2718C15.1822 75.5304 17.2443 72.5828 18.9895 69.417C20.3842 66.8871 18.079 65.7291 18.6726 63.0582" stroke="#FF7B7B" stroke-width="3" stroke-linecap="round"/>
<path d="M30.8343 49C30.7276 49 30.6343 48.9733 30.5543 48.92C30.4876 48.8667 30.4543 48.7733 30.4543 48.64V47.98C30.4543 47.8867 30.4276 47.8333 30.3743 47.82C30.321 47.8067 30.261 47.8333 30.1943 47.9C29.9943 48.0867 29.761 48.28 29.4943 48.48C29.2276 48.68 28.901 48.8533 28.5143 49C28.141 49.1333 27.6943 49.2 27.1743 49.2C26.361 49.2 25.6343 49 24.9943 48.6C24.3543 48.2 23.8476 47.6 23.4743 46.8C23.101 46 22.9143 45 22.9143 43.8C22.9143 42.68 23.1076 41.7 23.4943 40.86C23.8943 40.02 24.4343 39.3667 25.1143 38.9C25.7943 38.4333 26.5543 38.2 27.3943 38.2C27.981 38.2 28.481 38.2933 28.8943 38.48C29.321 38.6667 29.7143 38.9267 30.0743 39.26C30.1943 39.34 30.281 39.3733 30.3343 39.36C30.3876 39.3333 30.4143 39.2467 30.4143 39.1V34.48C30.4143 34.2667 30.5076 34.16 30.6943 34.16H32.7143C32.9143 34.16 33.0143 34.2733 33.0143 34.5V48.62C33.0143 48.7533 32.981 48.8533 32.9143 48.92C32.861 48.9733 32.7543 49 32.5943 49H30.8343ZM30.4143 41.02C30.0676 40.6733 29.721 40.4067 29.3743 40.22C29.041 40.02 28.6543 39.92 28.2143 39.92C27.7076 39.92 27.2476 40.06 26.8343 40.34C26.4343 40.6067 26.121 41.0267 25.8943 41.6C25.6676 42.16 25.5543 42.88 25.5543 43.76C25.5543 44.6533 25.6676 45.38 25.8943 45.94C26.121 46.4867 26.4276 46.8867 26.8143 47.14C27.2143 47.3933 27.661 47.52 28.1543 47.52C28.581 47.52 28.961 47.42 29.2943 47.22C29.641 47.02 29.9143 46.7667 30.1143 46.46C30.3143 46.1533 30.4143 45.8467 30.4143 45.54V41.02ZM38.1432 48.56C38.1432 48.72 38.1032 48.8333 38.0232 48.9C37.9565 48.9667 37.8365 49 37.6632 49H35.9232C35.7765 49 35.6765 48.9733 35.6232 48.92C35.5699 48.8533 35.5432 48.76 35.5432 48.64V38.74C35.5432 38.5133 35.6432 38.4 35.8432 38.4H37.8632C38.0499 38.4 38.1432 38.5067 38.1432 38.72V48.56ZM38.1832 36.44C38.1832 36.7467 38.0232 36.9 37.7032 36.9H35.8832C35.7365 36.9 35.6365 36.8667 35.5832 36.8C35.5299 36.7333 35.5032 36.6333 35.5032 36.5V34.54C35.5032 34.2867 35.6099 34.16 35.8232 34.16H37.8832C38.0832 34.16 38.1832 34.2733 38.1832 34.5V36.44ZM44.5404 40.22C44.4071 40.22 44.3404 40.2933 44.3404 40.44V45.78C44.3404 46.3 44.4471 46.66 44.6604 46.86C44.8737 47.06 45.2071 47.16 45.6604 47.16H46.8404C46.9204 47.16 46.9871 47.1867 47.0404 47.24C47.0937 47.2933 47.1204 47.36 47.1204 47.44L47.1004 48.48C47.1004 48.6933 46.9737 48.8267 46.7204 48.88C46.5204 48.9067 46.2871 48.9333 46.0204 48.96C45.7537 48.9733 45.4871 48.9867 45.2204 49C44.9671 49 44.7337 49 44.5204 49C43.6271 49 42.9404 48.7933 42.4604 48.38C41.9804 47.9533 41.7404 47.3133 41.7404 46.46V40.48C41.7404 40.3067 41.6604 40.22 41.5004 40.22H40.1604C39.9471 40.22 39.8404 40.12 39.8404 39.92V38.66C39.8404 38.4867 39.9404 38.4 40.1404 38.4H41.6204C41.7404 38.4 41.8004 38.3333 41.8004 38.2L42.0604 35.12C42.0737 34.9067 42.1671 34.8 42.3404 34.8H44.1204C44.3071 34.8 44.4004 34.9133 44.4004 35.14V38.2C44.4004 38.32 44.4604 38.38 44.5804 38.38H46.8404C47.0404 38.38 47.1404 38.4733 47.1404 38.66V39.92C47.1404 40.12 47.0271 40.22 46.8004 40.22H44.5404ZM53.3677 38.2C54.1677 38.2 54.8611 38.34 55.4477 38.62C56.0344 38.8867 56.5144 39.24 56.8877 39.68C57.2744 40.1067 57.5677 40.56 57.7677 41.04C57.8477 41.28 57.7811 41.4067 57.5677 41.42L55.8077 41.64C55.6744 41.6667 55.5811 41.6067 55.5277 41.46C55.3544 41.1667 55.1744 40.9067 54.9877 40.68C54.8011 40.4533 54.5877 40.2733 54.3477 40.14C54.1077 40.0067 53.8144 39.94 53.4677 39.94C52.9344 39.94 52.4611 40.0867 52.0477 40.38C51.6477 40.66 51.3344 41.08 51.1077 41.64C50.8944 42.2 50.7877 42.8867 50.7877 43.7C50.7877 44.5267 50.9011 45.22 51.1277 45.78C51.3677 46.34 51.6944 46.7667 52.1077 47.06C52.5211 47.34 53.0144 47.48 53.5877 47.48C54.1877 47.48 54.6811 47.3267 55.0677 47.02C55.4544 46.7 55.8144 46.26 56.1477 45.7C56.1877 45.6467 56.2277 45.6133 56.2677 45.6C56.3077 45.5867 56.3744 45.5933 56.4677 45.62L57.7277 45.96C57.8611 46 57.9011 46.1133 57.8477 46.3C57.7144 46.6067 57.5211 46.9333 57.2677 47.28C57.0277 47.6267 56.7277 47.9467 56.3677 48.24C56.0077 48.52 55.5744 48.7533 55.0677 48.94C54.5744 49.1133 54.0077 49.2 53.3677 49.2C52.3544 49.2 51.4544 48.9733 50.6677 48.52C49.8811 48.0533 49.2611 47.4133 48.8077 46.6C48.3677 45.7733 48.1477 44.82 48.1477 43.74C48.1477 42.6467 48.3744 41.6867 48.8277 40.86C49.2811 40.02 49.9011 39.3667 50.6877 38.9C51.4744 38.4333 52.3677 38.2 53.3677 38.2ZM60.0248 49C59.7714 49 59.6448 48.88 59.6448 48.64V34.5C59.6448 34.2733 59.7448 34.16 59.9448 34.16H61.9248C62.0981 34.16 62.1848 34.26 62.1848 34.46V39.66C62.1848 39.74 62.2048 39.7867 62.2448 39.8C62.2848 39.8133 62.3381 39.7933 62.4048 39.74C62.8448 39.3667 63.2514 39.0733 63.6248 38.86C63.9981 38.6333 64.3714 38.4667 64.7448 38.36C65.1181 38.2533 65.5048 38.2 65.9048 38.2C66.9314 38.2 67.7181 38.48 68.2648 39.04C68.8114 39.6 69.0848 40.3667 69.0848 41.34V48.58C69.0848 48.86 68.9448 49 68.6648 49H66.8248C66.7048 49 66.6181 48.9733 66.5648 48.92C66.5114 48.8667 66.4848 48.7733 66.4848 48.64V41.76C66.4848 41.24 66.3448 40.84 66.0648 40.56C65.7981 40.2667 65.3848 40.12 64.8248 40.12C64.5048 40.12 64.2048 40.1733 63.9248 40.28C63.6581 40.3733 63.3914 40.52 63.1248 40.72C62.8581 40.92 62.5648 41.1733 62.2448 41.48V48.6C62.2448 48.8667 62.0981 49 61.8048 49H60.0248ZM80.3404 38.2C81.1404 38.2 81.8337 38.34 82.4204 38.62C83.0071 38.8867 83.4871 39.24 83.8604 39.68C84.2471 40.1067 84.5404 40.56 84.7404 41.04C84.8204 41.28 84.7537 41.4067 84.5404 41.42L82.7804 41.64C82.6471 41.6667 82.5537 41.6067 82.5004 41.46C82.3271 41.1667 82.1471 40.9067 81.9604 40.68C81.7737 40.4533 81.5604 40.2733 81.3204 40.14C81.0804 40.0067 80.7871 39.94 80.4404 39.94C79.9071 39.94 79.4337 40.0867 79.0204 40.38C78.6204 40.66 78.3071 41.08 78.0804 41.64C77.8671 42.2 77.7604 42.8867 77.7604 43.7C77.7604 44.5267 77.8737 45.22 78.1004 45.78C78.3404 46.34 78.6671 46.7667 79.0804 47.06C79.4937 47.34 79.9871 47.48 80.5604 47.48C81.1604 47.48 81.6537 47.3267 82.0404 47.02C82.4271 46.7 82.7871 46.26 83.1204 45.7C83.1604 45.6467 83.2004 45.6133 83.2404 45.6C83.2804 45.5867 83.3471 45.5933 83.4404 45.62L84.7004 45.96C84.8337 46 84.8737 46.1133 84.8204 46.3C84.6871 46.6067 84.4937 46.9333 84.2404 47.28C84.0004 47.6267 83.7004 47.9467 83.3404 48.24C82.9804 48.52 82.5471 48.7533 82.0404 48.94C81.5471 49.1133 80.9804 49.2 80.3404 49.2C79.3271 49.2 78.4271 48.9733 77.6404 48.52C76.8537 48.0533 76.2337 47.4133 75.7804 46.6C75.3404 45.7733 75.1204 44.82 75.1204 43.74C75.1204 42.6467 75.3471 41.6867 75.8004 40.86C76.2537 40.02 76.8737 39.3667 77.6604 38.9C78.4471 38.4333 79.3404 38.2 80.3404 38.2ZM89.2174 48.56C89.2174 48.72 89.1841 48.8333 89.1174 48.9C89.0508 48.9667 88.9308 49 88.7574 49H86.9974C86.7308 49 86.5974 48.88 86.5974 48.64L86.6574 34.5C86.6574 34.2733 86.7574 34.16 86.9574 34.16H88.9374C89.1241 34.16 89.2174 34.2667 89.2174 34.48V48.56ZM97.5941 47.9C97.1408 48.3 96.6475 48.62 96.1141 48.86C95.5808 49.0867 94.9741 49.2 94.2941 49.2C93.2675 49.2 92.4608 48.9333 91.8741 48.4C91.3008 47.8533 91.0141 47.1467 91.0141 46.28C91.0141 45.5467 91.2341 44.9133 91.6741 44.38C92.1141 43.8333 92.7541 43.4067 93.5941 43.1C94.4341 42.7933 95.4408 42.6133 96.6141 42.56L97.6141 42.5C97.6941 42.4867 97.7675 42.46 97.8341 42.42C97.9008 42.38 97.9341 42.3067 97.9341 42.2V41.74C97.9341 41.1533 97.7608 40.7 97.4141 40.38C97.0675 40.0467 96.5875 39.88 95.9741 39.88C95.5075 39.88 95.0675 39.9867 94.6541 40.2C94.2541 40.4 93.9075 40.7333 93.6141 41.2C93.5741 41.28 93.5275 41.3333 93.4741 41.36C93.4341 41.3867 93.3541 41.3867 93.2341 41.36L91.5541 40.94C91.4875 40.9133 91.4341 40.8733 91.3941 40.82C91.3675 40.7667 91.3941 40.66 91.4741 40.5C91.8341 39.74 92.4008 39.1667 93.1741 38.78C93.9608 38.3933 94.9341 38.2 96.0941 38.2C97.1208 38.2 97.9475 38.34 98.5741 38.62C99.2141 38.9 99.6808 39.2933 99.9741 39.8C100.267 40.2933 100.414 40.88 100.414 41.56V48.6C100.414 48.7467 100.387 48.8533 100.334 48.92C100.294 48.9733 100.207 49 100.074 49H98.3741C98.2541 49 98.1675 48.9533 98.1141 48.86C98.0608 48.7667 98.0275 48.6533 98.0141 48.52L97.9741 47.92C97.9475 47.6933 97.8208 47.6867 97.5941 47.9ZM97.9341 44.16C97.9341 43.92 97.8341 43.8067 97.6341 43.82L96.8141 43.88C96.3875 43.9067 95.9741 43.9733 95.5741 44.08C95.1875 44.1733 94.8408 44.3067 94.5341 44.48C94.2408 44.64 94.0008 44.8467 93.8141 45.1C93.6408 45.34 93.5541 45.6267 93.5541 45.96C93.5541 46.4133 93.7141 46.7733 94.0341 47.04C94.3675 47.3067 94.8141 47.44 95.3741 47.44C95.7341 47.44 96.0675 47.38 96.3741 47.26C96.6808 47.14 96.9475 46.9867 97.1741 46.8C97.4008 46.6133 97.5808 46.42 97.7141 46.22C97.8608 46.0067 97.9341 45.7933 97.9341 45.58V44.16ZM109.386 41.02C109.133 40.6867 108.8 40.4067 108.386 40.18C107.973 39.9533 107.466 39.84 106.866 39.84C106.293 39.84 105.813 39.9533 105.426 40.18C105.04 40.4067 104.846 40.7267 104.846 41.14C104.846 41.34 104.926 41.5333 105.086 41.72C105.246 41.9067 105.6 42.0733 106.146 42.22L108.526 42.86C109.566 43.1133 110.306 43.5133 110.746 44.06C111.2 44.5933 111.426 45.2 111.426 45.88C111.426 46.5733 111.226 47.1667 110.826 47.66C110.44 48.1533 109.893 48.5333 109.186 48.8C108.493 49.0667 107.7 49.2 106.806 49.2C105.66 49.2 104.68 48.9933 103.866 48.58C103.053 48.1533 102.48 47.6267 102.146 47C102.106 46.92 102.086 46.8467 102.086 46.78C102.086 46.7 102.12 46.6333 102.186 46.58L103.366 45.98C103.473 45.9133 103.56 45.8867 103.626 45.9C103.693 45.9133 103.746 45.9467 103.786 46C103.986 46.28 104.213 46.5333 104.466 46.76C104.733 46.9867 105.053 47.1667 105.426 47.3C105.813 47.4333 106.28 47.4933 106.826 47.48C107.24 47.48 107.613 47.4267 107.946 47.32C108.293 47.2133 108.566 47.0667 108.766 46.88C108.966 46.68 109.066 46.44 109.066 46.16C109.066 45.8933 108.953 45.66 108.726 45.46C108.5 45.26 108.093 45.0867 107.506 44.94L105.466 44.46C104.453 44.22 103.706 43.86 103.226 43.38C102.76 42.9 102.526 42.3 102.526 41.58C102.526 40.9133 102.7 40.3267 103.046 39.82C103.406 39.3133 103.913 38.92 104.566 38.64C105.22 38.3467 105.993 38.2 106.886 38.2C107.873 38.2 108.726 38.38 109.446 38.74C110.166 39.1 110.693 39.5467 111.026 40.08C111.08 40.1467 111.113 40.22 111.126 40.3C111.153 40.38 111.12 40.4467 111.026 40.5L109.786 41.12C109.706 41.16 109.633 41.1733 109.566 41.16C109.5 41.1333 109.44 41.0867 109.386 41.02ZM119.875 41.02C119.621 40.6867 119.288 40.4067 118.875 40.18C118.461 39.9533 117.955 39.84 117.355 39.84C116.781 39.84 116.301 39.9533 115.915 40.18C115.528 40.4067 115.335 40.7267 115.335 41.14C115.335 41.34 115.415 41.5333 115.575 41.72C115.735 41.9067 116.088 42.0733 116.635 42.22L119.015 42.86C120.055 43.1133 120.795 43.5133 121.235 44.06C121.688 44.5933 121.915 45.2 121.915 45.88C121.915 46.5733 121.715 47.1667 121.315 47.66C120.928 48.1533 120.381 48.5333 119.675 48.8C118.981 49.0667 118.188 49.2 117.295 49.2C116.148 49.2 115.168 48.9933 114.355 48.58C113.541 48.1533 112.968 47.6267 112.635 47C112.595 46.92 112.575 46.8467 112.575 46.78C112.575 46.7 112.608 46.6333 112.675 46.58L113.855 45.98C113.961 45.9133 114.048 45.8867 114.115 45.9C114.181 45.9133 114.235 45.9467 114.275 46C114.475 46.28 114.701 46.5333 114.955 46.76C115.221 46.9867 115.541 47.1667 115.915 47.3C116.301 47.4333 116.768 47.4933 117.315 47.48C117.728 47.48 118.101 47.4267 118.435 47.32C118.781 47.2133 119.055 47.0667 119.255 46.88C119.455 46.68 119.555 46.44 119.555 46.16C119.555 45.8933 119.441 45.66 119.215 45.46C118.988 45.26 118.581 45.0867 117.995 44.94L115.955 44.46C114.941 44.22 114.195 43.86 113.715 43.38C113.248 42.9 113.015 42.3 113.015 41.58C113.015 40.9133 113.188 40.3267 113.535 39.82C113.895 39.3133 114.401 38.92 115.055 38.64C115.708 38.3467 116.481 38.2 117.375 38.2C118.361 38.2 119.215 38.38 119.935 38.74C120.655 39.1 121.181 39.5467 121.515 40.08C121.568 40.1467 121.601 40.22 121.615 40.3C121.641 40.38 121.608 40.4467 121.515 40.5L120.275 41.12C120.195 41.16 120.121 41.1733 120.055 41.16C119.988 41.1333 119.928 41.0867 119.875 41.02ZM133.943 38.4C134.049 38.4 134.129 38.4333 134.183 38.5C134.236 38.5533 134.263 38.62 134.263 38.7V39.96C134.263 40.1333 134.163 40.22 133.963 40.22H132.103C131.969 40.22 131.903 40.2867 131.903 40.42V48.66C131.903 48.8867 131.803 49 131.603 49H129.583C129.396 49 129.303 48.8933 129.303 48.68V40.4C129.303 40.28 129.256 40.22 129.163 40.22H127.543C127.343 40.22 127.243 40.1333 127.243 39.96V38.7C127.243 38.62 127.263 38.5533 127.303 38.5C127.356 38.4333 127.443 38.4 127.563 38.4H129.083C129.229 38.4 129.303 38.3133 129.303 38.14V36.84C129.303 35.9867 129.536 35.3267 130.003 34.86C130.483 34.3933 131.169 34.16 132.063 34.16H133.963C134.216 34.16 134.343 34.28 134.343 34.52L134.363 35.64C134.363 35.72 134.336 35.7867 134.283 35.84C134.243 35.8933 134.176 35.92 134.083 35.92H132.903C132.556 35.92 132.289 36.04 132.103 36.28C131.929 36.52 131.843 36.8267 131.843 37.2V38.2C131.843 38.3333 131.916 38.4 132.063 38.4H133.943ZM140.263 49.2C139.223 49.2 138.31 48.9667 137.523 48.5C136.737 48.0333 136.117 47.3933 135.663 46.58C135.223 45.7533 135.003 44.8133 135.003 43.76C135.003 42.6533 135.23 41.6867 135.683 40.86C136.15 40.02 136.777 39.3667 137.563 38.9C138.363 38.4333 139.27 38.2 140.283 38.2C141.337 38.2 142.257 38.44 143.043 38.92C143.83 39.3867 144.443 40.04 144.883 40.88C145.323 41.7067 145.543 42.66 145.543 43.74C145.543 44.8067 145.317 45.7533 144.863 46.58C144.423 47.3933 143.81 48.0333 143.023 48.5C142.237 48.9667 141.317 49.2 140.263 49.2ZM140.283 47.42C140.857 47.42 141.337 47.28 141.723 47C142.11 46.7067 142.403 46.2867 142.603 45.74C142.803 45.18 142.903 44.5 142.903 43.7C142.903 42.8867 142.797 42.2 142.583 41.64C142.383 41.08 142.09 40.6533 141.703 40.36C141.317 40.0667 140.843 39.92 140.283 39.92C139.737 39.92 139.263 40.0667 138.863 40.36C138.463 40.6533 138.157 41.08 137.943 41.64C137.743 42.2 137.643 42.8867 137.643 43.7C137.643 44.5 137.743 45.18 137.943 45.74C138.157 46.2867 138.463 46.7067 138.863 47C139.263 47.28 139.737 47.42 140.283 47.42ZM147.876 49C147.743 49 147.649 48.9733 147.596 48.92C147.543 48.8533 147.516 48.76 147.516 48.64V38.74C147.516 38.5133 147.609 38.4 147.796 38.4H149.736C149.923 38.4 150.016 38.5 150.016 38.7V39.92C150.016 40 150.043 40.0533 150.096 40.08C150.149 40.0933 150.209 40.06 150.276 39.98C150.569 39.5933 150.883 39.2733 151.216 39.02C151.563 38.7533 151.909 38.5533 152.256 38.42C152.616 38.2733 152.963 38.2 153.296 38.2C153.776 38.2 154.016 38.3067 154.016 38.52V40.44C154.016 40.6267 153.929 40.7067 153.756 40.68C153.556 40.6267 153.343 40.5933 153.116 40.58C152.903 40.5533 152.703 40.54 152.516 40.54C152.263 40.54 151.989 40.5933 151.696 40.7C151.416 40.8067 151.156 40.96 150.916 41.16C150.676 41.3467 150.483 41.5533 150.336 41.78C150.189 42.0067 150.116 42.24 150.116 42.48V48.6C150.116 48.8667 149.963 49 149.656 49H147.876ZM160.038 36.4C159.932 36.28 159.932 36.1467 160.038 36C160.425 35.56 160.878 35.1933 161.398 34.9C161.918 34.5933 162.485 34.36 163.098 34.2C163.725 34.04 164.372 33.96 165.038 33.96C166.158 33.96 167.118 34.1267 167.918 34.46C168.718 34.78 169.332 35.2267 169.758 35.8C170.198 36.3733 170.418 37.04 170.418 37.8C170.418 38.4533 170.212 39.0733 169.798 39.66C169.385 40.2333 168.785 40.6467 167.998 40.9C167.852 40.9533 167.778 41.0133 167.778 41.08C167.778 41.1467 167.852 41.2 167.998 41.24C168.545 41.4 169.038 41.6533 169.478 42C169.918 42.3333 170.258 42.7333 170.498 43.2C170.752 43.6667 170.878 44.1933 170.878 44.78C170.878 45.6733 170.652 46.4533 170.198 47.12C169.745 47.7867 169.065 48.3 168.158 48.66C167.265 49.02 166.138 49.2 164.778 49.2C164.058 49.2 163.358 49.1067 162.678 48.92C162.012 48.7333 161.398 48.4667 160.838 48.12C160.292 47.76 159.825 47.3333 159.438 46.84C159.358 46.7467 159.325 46.66 159.338 46.58C159.365 46.4867 159.425 46.4067 159.518 46.34L160.838 45.38C160.945 45.3133 161.025 45.2867 161.078 45.3C161.145 45.3 161.198 45.3267 161.238 45.38C161.652 45.7933 162.045 46.1267 162.418 46.38C162.792 46.62 163.185 46.8 163.598 46.92C164.012 47.0267 164.465 47.08 164.958 47.08C165.918 47.08 166.658 46.8733 167.178 46.46C167.712 46.0467 167.978 45.5067 167.978 44.84C167.978 44.32 167.832 43.88 167.538 43.52C167.245 43.16 166.858 42.8867 166.378 42.7C165.912 42.5 165.405 42.4 164.858 42.4L163.118 42.38C162.905 42.38 162.798 42.2933 162.798 42.12V40.54C162.798 40.3933 162.905 40.3067 163.118 40.28L164.518 40.24C165.105 40.2267 165.625 40.12 166.078 39.92C166.532 39.72 166.885 39.4533 167.138 39.12C167.405 38.7733 167.538 38.3867 167.538 37.96C167.538 37.6 167.425 37.2733 167.198 36.98C166.985 36.6867 166.685 36.46 166.298 36.3C165.925 36.1267 165.492 36.04 164.998 36.04C164.358 36.04 163.772 36.16 163.238 36.4C162.705 36.64 162.178 37.0133 161.658 37.52C161.578 37.6 161.512 37.6467 161.458 37.66C161.405 37.66 161.332 37.62 161.238 37.54L160.038 36.4ZM178.862 33.94C179.716 33.94 180.502 34.12 181.222 34.48C181.942 34.8267 182.569 35.3333 183.102 36C183.649 36.6667 184.069 37.4733 184.362 38.42C184.656 39.3667 184.802 40.4333 184.802 41.62C184.802 43.1933 184.542 44.5467 184.022 45.68C183.516 46.8 182.816 47.6667 181.922 48.28C181.029 48.88 180.002 49.18 178.842 49.18C177.696 49.18 176.669 48.88 175.762 48.28C174.856 47.6667 174.142 46.8 173.622 45.68C173.116 44.56 172.862 43.2133 172.862 41.64C172.862 40.44 173.009 39.3733 173.302 38.44C173.609 37.4933 174.029 36.6867 174.562 36.02C175.109 35.34 175.742 34.8267 176.462 34.48C177.196 34.12 177.996 33.94 178.862 33.94ZM178.842 47.06C179.482 47.06 180.022 46.88 180.462 46.52C180.902 46.1467 181.236 45.5667 181.462 44.78C181.689 43.98 181.802 42.9333 181.802 41.64C181.802 40.3067 181.682 39.2333 181.442 38.42C181.216 37.5933 180.882 36.9933 180.442 36.62C180.002 36.2333 179.469 36.04 178.842 36.04C178.216 36.04 177.682 36.2333 177.242 36.62C176.802 36.9933 176.462 37.5933 176.222 38.42C175.982 39.2467 175.862 40.32 175.862 41.64C175.862 42.92 175.982 43.96 176.222 44.76C176.462 45.56 176.802 46.1467 177.242 46.52C177.682 46.88 178.216 47.06 178.842 47.06ZM41.7528 73C41.5128 73 41.3928 72.88 41.3928 72.64V62.74C41.3928 62.5133 41.4861 62.4 41.6728 62.4H43.6528C43.8395 62.4 43.9328 62.5 43.9328 62.7V63.74C43.9328 63.82 43.9528 63.8733 43.9928 63.9C44.0328 63.9133 44.0861 63.8867 44.1528 63.82C44.5261 63.4867 44.8861 63.2 45.2328 62.96C45.5928 62.72 45.9595 62.5333 46.3328 62.4C46.7195 62.2533 47.1261 62.18 47.5528 62.18C48.2995 62.18 48.9128 62.3533 49.3928 62.7C49.8728 63.0467 50.2061 63.4867 50.3928 64.02C50.4195 64.0733 50.4595 64.0933 50.5128 64.08C50.5661 64.0667 50.6195 64.0333 50.6728 63.98C51.0195 63.6333 51.3861 63.3267 51.7728 63.06C52.1595 62.7933 52.5595 62.5867 52.9728 62.44C53.3861 62.28 53.7995 62.2 54.2128 62.2C55.1595 62.2 55.9061 62.4867 56.4528 63.06C56.9995 63.62 57.2728 64.3867 57.2728 65.36V72.58C57.2728 72.86 57.1328 73 56.8528 73H55.0128C54.8928 73 54.8061 72.9733 54.7528 72.92C54.6995 72.8667 54.6728 72.7733 54.6728 72.64V65.76C54.6728 65.24 54.5395 64.84 54.2728 64.56C54.0195 64.2667 53.6328 64.12 53.1128 64.12C52.8061 64.12 52.5128 64.18 52.2328 64.3C51.9528 64.4067 51.6995 64.5467 51.4728 64.72C51.2461 64.8933 51.0461 65.0667 50.8728 65.24C50.7795 65.3333 50.7128 65.4267 50.6728 65.52C50.6461 65.6 50.6328 65.7 50.6328 65.82V72.58C50.6328 72.86 50.4928 73 50.2128 73H48.3728C48.2661 73 48.1795 72.9733 48.1128 72.92C48.0595 72.8667 48.0328 72.7733 48.0328 72.64V65.76C48.0328 65.24 47.9061 64.84 47.6528 64.56C47.3995 64.2667 47.0061 64.12 46.4728 64.12C46.0195 64.12 45.5995 64.2333 45.2128 64.46C44.8395 64.6867 44.4328 65.0267 43.9928 65.48V72.6C43.9928 72.8667 43.8395 73 43.5328 73H41.7528ZM62.2741 72.56C62.2741 72.72 62.2341 72.8333 62.1541 72.9C62.0874 72.9667 61.9674 73 61.7941 73H60.0541C59.9074 73 59.8074 72.9733 59.7541 72.92C59.7007 72.8533 59.6741 72.76 59.6741 72.64V62.74C59.6741 62.5133 59.7741 62.4 59.9741 62.4H61.9941C62.1807 62.4 62.2741 62.5067 62.2741 62.72V72.56ZM62.3141 60.44C62.3141 60.7467 62.1541 60.9 61.8341 60.9H60.0141C59.8674 60.9 59.7674 60.8667 59.7141 60.8C59.6607 60.7333 59.6341 60.6333 59.6341 60.5V58.54C59.6341 58.2867 59.7407 58.16 59.9541 58.16H62.0141C62.2141 58.16 62.3141 58.2733 62.3141 58.5V60.44ZM65.1513 73C64.9113 73 64.7913 72.88 64.7913 72.64V62.74C64.7913 62.5133 64.8846 62.4 65.0713 62.4H67.0713C67.2446 62.4 67.3313 62.5 67.3313 62.7V63.74C67.3313 63.82 67.3513 63.8733 67.3913 63.9C67.4313 63.9133 67.4846 63.8867 67.5513 63.82C67.9379 63.4867 68.3113 63.2 68.6712 62.96C69.0313 62.72 69.4046 62.5333 69.7913 62.4C70.1779 62.2667 70.5979 62.2 71.0513 62.2C72.0379 62.2 72.8113 62.4867 73.3713 63.06C73.9446 63.62 74.2313 64.3667 74.2313 65.3V72.58C74.2313 72.86 74.0913 73 73.8112 73H71.9713C71.8513 73 71.7646 72.9733 71.7113 72.92C71.6579 72.8667 71.6313 72.7733 71.6313 72.64V65.76C71.6313 65.24 71.4913 64.84 71.2113 64.56C70.9313 64.2667 70.5113 64.12 69.9513 64.12C69.6313 64.12 69.3313 64.1733 69.0513 64.28C68.7846 64.3733 68.5179 64.52 68.2513 64.72C67.9846 64.92 67.6979 65.1733 67.3913 65.48V72.6C67.3913 72.8667 67.2379 73 66.9313 73H65.1513ZM80.7272 71.3C81.1939 71.3 81.6339 71.1733 82.0472 70.92C82.4739 70.6667 82.8805 70.3333 83.2672 69.92V62.8C83.2672 62.5333 83.4205 62.4 83.7272 62.4H85.5272C85.7672 62.4 85.8872 62.5267 85.8872 62.78L85.8472 72.68C85.8472 72.8933 85.7539 73 85.5672 73H83.6072C83.4205 73 83.3272 72.9 83.3272 72.7V71.64C83.3272 71.5733 83.3072 71.5333 83.2672 71.52C83.2405 71.4933 83.1939 71.5133 83.1272 71.58C82.5005 72.1667 81.9072 72.5867 81.3472 72.84C80.7872 73.08 80.2072 73.2 79.6072 73.2C79.0072 73.2 78.4739 73.0733 78.0072 72.82C77.5405 72.5667 77.1739 72.2 76.9072 71.72C76.6405 71.24 76.5072 70.68 76.5072 70.04V62.82C76.5072 62.54 76.6472 62.4 76.9272 62.4H78.7672C78.9939 62.4 79.1072 62.5267 79.1072 62.78V69.6C79.1072 70.1067 79.2472 70.52 79.5272 70.84C79.8205 71.1467 80.2205 71.3 80.7272 71.3ZM92.265 64.22C92.1317 64.22 92.065 64.2933 92.065 64.44V69.78C92.065 70.3 92.1717 70.66 92.385 70.86C92.5983 71.06 92.9317 71.16 93.385 71.16H94.565C94.645 71.16 94.7117 71.1867 94.765 71.24C94.8183 71.2933 94.845 71.36 94.845 71.44L94.825 72.48C94.825 72.6933 94.6983 72.8267 94.445 72.88C94.245 72.9067 94.0117 72.9333 93.745 72.96C93.4783 72.9733 93.2117 72.9867 92.945 73C92.6917 73 92.4583 73 92.245 73C91.3517 73 90.665 72.7933 90.185 72.38C89.705 71.9533 89.465 71.3133 89.465 70.46V64.48C89.465 64.3067 89.385 64.22 89.225 64.22H87.885C87.6717 64.22 87.565 64.12 87.565 63.92V62.66C87.565 62.4867 87.665 62.4 87.865 62.4H89.345C89.465 62.4 89.525 62.3333 89.525 62.2L89.785 59.12C89.7983 58.9067 89.8917 58.8 90.065 58.8H91.845C92.0317 58.8 92.125 58.9133 92.125 59.14V62.2C92.125 62.32 92.185 62.38 92.305 62.38H94.565C94.765 62.38 94.865 62.4733 94.865 62.66V63.92C94.865 64.12 94.7517 64.22 94.525 64.22H92.265ZM98.5723 68.52C98.5723 69.0667 98.699 69.56 98.9523 70C99.2057 70.4267 99.5523 70.7667 99.9923 71.02C100.446 71.26 100.939 71.38 101.472 71.38C102.019 71.38 102.512 71.2667 102.952 71.04C103.406 70.8133 103.832 70.4467 104.232 69.94C104.286 69.8733 104.332 69.84 104.372 69.84C104.412 69.8267 104.479 69.8467 104.572 69.9L105.792 70.44C105.966 70.52 105.986 70.64 105.852 70.8C105.452 71.3867 105.019 71.86 104.552 72.22C104.099 72.5667 103.592 72.82 103.032 72.98C102.486 73.1267 101.866 73.2 101.172 73.2C100.159 73.2 99.2523 72.9733 98.4523 72.52C97.6523 72.0667 97.019 71.44 96.5523 70.64C96.099 69.8267 95.8723 68.8933 95.8723 67.84C95.8723 66.68 96.1057 65.68 96.5723 64.84C97.0523 64 97.6923 63.3533 98.4923 62.9C99.2923 62.4333 100.172 62.2 101.132 62.2C102.146 62.2 103.026 62.42 103.772 62.86C104.532 63.3 105.126 63.9333 105.552 64.76C105.979 65.5733 106.192 66.5667 106.192 67.74C106.192 67.8733 106.179 67.98 106.152 68.06C106.139 68.14 106.046 68.1867 105.872 68.2H98.7923C98.7123 68.2 98.6523 68.2267 98.6123 68.28C98.5857 68.3333 98.5723 68.4133 98.5723 68.52ZM103.312 66.72C103.446 66.72 103.532 66.7067 103.572 66.68C103.626 66.64 103.652 66.56 103.652 66.44C103.652 66.0267 103.559 65.62 103.372 65.22C103.186 64.82 102.912 64.4933 102.552 64.24C102.192 63.9733 101.752 63.84 101.232 63.84C100.699 63.84 100.232 63.9733 99.8323 64.24C99.4323 64.4933 99.1257 64.84 98.9123 65.28C98.7123 65.7067 98.6123 66.1867 98.6123 66.72H103.312ZM114.572 65.02C114.319 64.6867 113.985 64.4067 113.572 64.18C113.159 63.9533 112.652 63.84 112.052 63.84C111.479 63.84 110.999 63.9533 110.612 64.18C110.225 64.4067 110.032 64.7267 110.032 65.14C110.032 65.34 110.112 65.5333 110.272 65.72C110.432 65.9067 110.785 66.0733 111.332 66.22L113.712 66.86C114.752 67.1133 115.492 67.5133 115.932 68.06C116.385 68.5933 116.612 69.2 116.612 69.88C116.612 70.5733 116.412 71.1667 116.012 71.66C115.625 72.1533 115.079 72.5333 114.372 72.8C113.679 73.0667 112.885 73.2 111.992 73.2C110.845 73.2 109.865 72.9933 109.052 72.58C108.239 72.1533 107.665 71.6267 107.332 71C107.292 70.92 107.272 70.8467 107.272 70.78C107.272 70.7 107.305 70.6333 107.372 70.58L108.552 69.98C108.659 69.9133 108.745 69.8867 108.812 69.9C108.879 69.9133 108.932 69.9467 108.972 70C109.172 70.28 109.399 70.5333 109.652 70.76C109.919 70.9867 110.239 71.1667 110.612 71.3C110.999 71.4333 111.465 71.4933 112.012 71.48C112.425 71.48 112.799 71.4267 113.132 71.32C113.479 71.2133 113.752 71.0667 113.952 70.88C114.152 70.68 114.252 70.44 114.252 70.16C114.252 69.8933 114.139 69.66 113.912 69.46C113.685 69.26 113.279 69.0867 112.692 68.94L110.652 68.46C109.639 68.22 108.892 67.86 108.412 67.38C107.945 66.9 107.712 66.3 107.712 65.58C107.712 64.9133 107.885 64.3267 108.232 63.82C108.592 63.3133 109.099 62.92 109.752 62.64C110.405 62.3467 111.179 62.2 112.072 62.2C113.059 62.2 113.912 62.38 114.632 62.74C115.352 63.1 115.879 63.5467 116.212 64.08C116.265 64.1467 116.299 64.22 116.312 64.3C116.339 64.38 116.305 64.4467 116.212 64.5L114.972 65.12C114.892 65.16 114.819 65.1733 114.752 65.16C114.685 65.1333 114.625 65.0867 114.572 65.02ZM127.48 73.2C126.44 73.2 125.527 72.9667 124.74 72.5C123.953 72.0333 123.333 71.3933 122.88 70.58C122.44 69.7533 122.22 68.8133 122.22 67.76C122.22 66.6533 122.447 65.6867 122.9 64.86C123.367 64.02 123.993 63.3667 124.78 62.9C125.58 62.4333 126.487 62.2 127.5 62.2C128.553 62.2 129.473 62.44 130.26 62.92C131.047 63.3867 131.66 64.04 132.1 64.88C132.54 65.7067 132.76 66.66 132.76 67.74C132.76 68.8067 132.533 69.7533 132.08 70.58C131.64 71.3933 131.027 72.0333 130.24 72.5C129.453 72.9667 128.533 73.2 127.48 73.2ZM127.5 71.42C128.073 71.42 128.553 71.28 128.94 71C129.327 70.7067 129.62 70.2867 129.82 69.74C130.02 69.18 130.12 68.5 130.12 67.7C130.12 66.8867 130.013 66.2 129.8 65.64C129.6 65.08 129.307 64.6533 128.92 64.36C128.533 64.0667 128.06 63.92 127.5 63.92C126.953 63.92 126.48 64.0667 126.08 64.36C125.68 64.6533 125.373 65.08 125.16 65.64C124.96 66.2 124.86 66.8867 124.86 67.7C124.86 68.5 124.96 69.18 125.16 69.74C125.373 70.2867 125.68 70.7067 126.08 71C126.48 71.28 126.953 71.42 127.5 71.42ZM135.093 73C134.853 73 134.733 72.88 134.733 72.64V62.74C134.733 62.5133 134.826 62.4 135.013 62.4H137.013C137.186 62.4 137.273 62.5 137.273 62.7V63.74C137.273 63.82 137.293 63.8733 137.333 63.9C137.373 63.9133 137.426 63.8867 137.493 63.82C137.879 63.4867 138.253 63.2 138.613 62.96C138.973 62.72 139.346 62.5333 139.733 62.4C140.119 62.2667 140.539 62.2 140.993 62.2C141.979 62.2 142.753 62.4867 143.313 63.06C143.886 63.62 144.173 64.3667 144.173 65.3V72.58C144.173 72.86 144.033 73 143.753 73H141.913C141.793 73 141.706 72.9733 141.653 72.92C141.599 72.8667 141.573 72.7733 141.573 72.64V65.76C141.573 65.24 141.433 64.84 141.153 64.56C140.873 64.2667 140.453 64.12 139.893 64.12C139.573 64.12 139.273 64.1733 138.993 64.28C138.726 64.3733 138.459 64.52 138.193 64.72C137.926 64.92 137.639 65.1733 137.333 65.48V72.6C137.333 72.8667 137.179 73 136.873 73H135.093ZM151.249 62.2C152.049 62.2 152.742 62.34 153.329 62.62C153.915 62.8867 154.395 63.24 154.769 63.68C155.155 64.1067 155.449 64.56 155.649 65.04C155.729 65.28 155.662 65.4067 155.449 65.42L153.689 65.64C153.555 65.6667 153.462 65.6067 153.409 65.46C153.235 65.1667 153.055 64.9067 152.869 64.68C152.682 64.4533 152.469 64.2733 152.229 64.14C151.989 64.0067 151.695 63.94 151.349 63.94C150.815 63.94 150.342 64.0867 149.929 64.38C149.529 64.66 149.215 65.08 148.989 65.64C148.775 66.2 148.669 66.8867 148.669 67.7C148.669 68.5267 148.782 69.22 149.009 69.78C149.249 70.34 149.575 70.7667 149.989 71.06C150.402 71.34 150.895 71.48 151.469 71.48C152.069 71.48 152.562 71.3267 152.949 71.02C153.335 70.7 153.695 70.26 154.029 69.7C154.069 69.6467 154.109 69.6133 154.149 69.6C154.189 69.5867 154.255 69.5933 154.349 69.62L155.609 69.96C155.742 70 155.782 70.1133 155.729 70.3C155.595 70.6067 155.402 70.9333 155.149 71.28C154.909 71.6267 154.609 71.9467 154.249 72.24C153.889 72.52 153.455 72.7533 152.949 72.94C152.455 73.1133 151.889 73.2 151.249 73.2C150.235 73.2 149.335 72.9733 148.549 72.52C147.762 72.0533 147.142 71.4133 146.689 70.6C146.249 69.7733 146.029 68.82 146.029 67.74C146.029 66.6467 146.255 65.6867 146.709 64.86C147.162 64.02 147.782 63.3667 148.569 62.9C149.355 62.4333 150.249 62.2 151.249 62.2ZM159.608 68.52C159.608 69.0667 159.734 69.56 159.988 70C160.241 70.4267 160.588 70.7667 161.028 71.02C161.481 71.26 161.974 71.38 162.508 71.38C163.054 71.38 163.548 71.2667 163.988 71.04C164.441 70.8133 164.868 70.4467 165.268 69.94C165.321 69.8733 165.368 69.84 165.408 69.84C165.448 69.8267 165.514 69.8467 165.608 69.9L166.828 70.44C167.001 70.52 167.021 70.64 166.888 70.8C166.488 71.3867 166.054 71.86 165.588 72.22C165.134 72.5667 164.628 72.82 164.068 72.98C163.521 73.1267 162.901 73.2 162.208 73.2C161.194 73.2 160.288 72.9733 159.488 72.52C158.688 72.0667 158.054 71.44 157.588 70.64C157.134 69.8267 156.908 68.8933 156.908 67.84C156.908 66.68 157.141 65.68 157.608 64.84C158.088 64 158.728 63.3533 159.528 62.9C160.328 62.4333 161.208 62.2 162.168 62.2C163.181 62.2 164.061 62.42 164.808 62.86C165.568 63.3 166.161 63.9333 166.588 64.76C167.014 65.5733 167.228 66.5667 167.228 67.74C167.228 67.8733 167.214 67.98 167.188 68.06C167.174 68.14 167.081 68.1867 166.908 68.2H159.828C159.748 68.2 159.688 68.2267 159.648 68.28C159.621 68.3333 159.608 68.4133 159.608 68.52ZM164.348 66.72C164.481 66.72 164.568 66.7067 164.608 66.68C164.661 66.64 164.688 66.56 164.688 66.44C164.688 66.0267 164.594 65.62 164.408 65.22C164.221 64.82 163.948 64.4933 163.588 64.24C163.228 63.9733 162.788 63.84 162.268 63.84C161.734 63.84 161.268 63.9733 160.868 64.24C160.468 64.4933 160.161 64.84 159.948 65.28C159.748 65.7067 159.648 66.1867 159.648 66.72H164.348Z" fill="black"/>
</svg>
