<svg width="204" height="204" viewBox="0 0 204 204" fill="none" xmlns="http://www.w3.org/2000/svg">
<rect x="0.5" y="0.5" width="203" height="203" fill="#EDE7E2" stroke="black"/>
<path d="M76.6448 184.073C75.8013 184.028 75.2399 183.735 74.5468 183.231C70.4567 180.256 66.3232 177.179 62.4907 173.878C53.9044 166.485 46.4546 157.49 43.195 146.486C40.8317 138.508 40.5408 129.325 43.3428 121.414C44.5532 117.996 47.5727 112.839 51.9712 113.361C56.0594 113.847 59.9819 117.847 62.6385 120.63C65.5165 123.647 67.7489 127.233 70.0258 130.707C71.1617 132.44 72.0068 134.765 73.3944 136.306C73.8477 136.81 73.5648 134.305 73.5717 134.194C73.832 129.978 76.17 125.851 78.3735 122.374C82.5715 115.749 88.5028 110.52 95.4382 106.86C105.556 101.522 128.486 96.8971 125.165 115.725C122.021 133.545 110.53 149.716 101.54 164.969C97.7915 171.329 94.9904 175.995 91.715 182.448C89.6345 186.546 88.5333 190.249 87.0166 194.445" stroke="#FF7B7B" stroke-width="3" stroke-linecap="round"/>
<path d="M131.695 106.417C130.159 106.513 133.493 106.87 133.616 106.89C143.652 108.563 153.751 116.877 159.412 124.871C165.961 134.117 168.27 146.417 166.652 157.538C165.144 167.897 156.594 179.763 147.534 184.989C139.387 189.688 127.564 188.589 118.767 187.22C114.482 186.553 110.978 185.755 107.125 183.91C104.127 182.474 102.17 180.149 99.7819 177.956" stroke="#E25151" stroke-width="3" stroke-linecap="round"/>
<path d="M132.493 112.534C131.445 113.121 130.776 112.176 130.735 111.086C130.624 108.137 131.061 104.695 132.345 102.014C133.654 99.2837 135.342 99.5216 137.812 99.7687" stroke="#71461A" stroke-width="3" stroke-linecap="round"/>
<path d="M137.812 113.066C137.683 112.717 137.52 111.953 137.753 111.618C138.687 110.274 141.431 108.224 142.244 107.629C145.944 104.924 150.669 101.834 154.744 99.7687C157.385 98.4295 163.56 95.4184 163.52 98.3799C163.513 98.8907 163.226 99.0878 163.077 99.2369" stroke="#258F30" stroke-width="3" stroke-linecap="round"/>
<path d="M139.674 114.396C139.385 114.461 137.356 115.194 138.684 115.194C140.459 115.194 141.095 115.234 142.865 114.1C151.301 108.695 158.351 101.578 165.47 94.7158" stroke="#258F30" stroke-width="3" stroke-linecap="round"/>
<path d="M51.1142 133.544C52.7593 132.886 57.2251 126.334 54.9852 131.505C53.5998 134.703 51.8217 138.04 51.2619 141.522C50.5749 145.795 58.3782 136.452 59.1516 135.73C63.203 131.949 60.8334 139.295 60.4813 140.709C60.2691 141.562 56.6587 151.731 60.0381 149.796C62.2479 148.53 67.0293 144.837 66.4208 150.475C65.7301 156.874 65.2603 152.179 64.3227 157.715C63.9633 159.838 67.7281 155.045 69.1688 153.445C70.8072 151.626 74.631 146.215 77.6347 146.471C80.4524 146.712 76.285 155.059 75.98 155.779C75.7634 156.291 73.889 160.541 73.5126 161.482C73.0756 162.575 72.9096 162.971 73.7047 161.911C77.1722 157.287 72.3284 163.405 77.0437 157.301C78.2834 155.696 80.6979 151.831 82.9388 151.244C84.7002 150.782 81.2989 159.596 81.225 159.783C80.3523 161.995 79.6141 163.622 78.6837 165.782C78.1562 167.007 76.2548 170.04 77.5165 169.609C80.4078 168.619 84.3702 159.353 87.5485 162.531" stroke="#FF7B7B" stroke-width="3" stroke-linecap="round"/>
<path d="M81.6978 130.618C79.9328 132.487 83.4507 128.93 83.589 128.845C85.2862 127.804 89.8139 125.62 91.0649 128.727C92.2002 131.547 87.2247 138.347 92.3356 132.362C95.6429 128.488 99.2365 122.864 103.756 120.276C105.392 119.339 102.622 123.91 101.644 125.521C100.349 127.651 96.8952 132.852 95.4973 135.405C95.2969 135.771 94.7161 136.785 95.0836 136.587C97.1071 135.498 97.9885 133.025 99.3978 131.209C101.659 128.296 104.04 125.198 106.49 122.433C107.738 121.024 108.78 118.779 110.656 118.621C110.957 118.596 110.819 119.23 110.745 119.522C110.387 120.926 108.778 123.765 108.233 124.767C105.166 130.41 101.945 135.958 99.0876 141.714C98.1311 143.641 96.2278 146.719 95.8815 149.027C95.5374 151.321 98.2323 145.028 99.4569 143.059C101.217 140.229 103.056 137.395 105.352 134.962C106.033 134.24 107.064 133.22 108.056 132.79C108.903 132.423 108.861 132.85 108.588 133.588C106.493 139.237 102.284 144.384 99.516 149.766" stroke="#FF7B7B" stroke-width="3" stroke-linecap="round"/>
<path d="M116.536 166.787C116.17 167.003 115.74 167.446 115.325 167.54C114.807 167.658 115.542 166.484 115.798 166.018C117.147 163.554 119.603 159.587 120.91 157.493C124.855 151.174 128.943 144.952 133.32 138.922C134.935 136.697 138.768 131.643 140.59 129.407C140.683 129.292 144.503 124.606 145.465 124.236C145.788 124.111 146.032 124.794 145.982 125.137C145.577 127.954 142.276 135.032 141.609 136.528C137.279 146.235 132.273 155.653 128.164 165.457C127.788 166.353 125.165 173.185 128.666 168.693C132.408 163.892 135.329 158.436 138.713 153.386C140.958 150.036 143.314 146.758 145.849 143.62C147.638 141.406 147.301 142.124 146.559 144.122C145.952 145.755 140.108 158.804 141.772 159.636C142.69 160.095 148.809 154.631 148.834 155.942C148.88 158.381 147.668 160.738 147.8 163.27C147.861 164.454 148.132 166.119 148.922 167.112C150.574 169.185 149.675 166.978 151.641 168.382" stroke="#E25151" stroke-width="3" stroke-linecap="round"/>
<path d="M141.801 112.534C140.173 112.534 140.633 113.145 142.141 112.061C143.662 110.968 145.123 109.719 146.529 108.486C147.612 107.536 146.731 108.139 146.012 108.604C145.338 109.04 142.921 110.673 142.244 111.13C141.55 111.6 139.54 113.104 140.265 112.682C143.012 111.079 145.581 108.892 148.051 106.905C151.899 103.809 145.453 108.802 144.461 109.697C142.427 111.53 147.518 106.898 147.947 106.565C149.69 105.216 153.647 100.891 156.103 101.157C156.517 101.203 157.223 101.363 156.428 101.098" stroke="#258F30" stroke-width="3" stroke-linecap="round"/>
<path d="M3.63797 20.48C3.63797 20.3867 3.66464 20.3133 3.71797 20.26C3.7713 20.1933 3.85797 20.16 3.97797 20.16H15.218C15.338 20.16 15.4246 20.1933 15.478 20.26C15.5313 20.3133 15.558 20.3867 15.558 20.48V22.04C15.558 22.2267 15.4513 22.32 15.238 22.32H11.398C11.2513 22.32 11.178 22.3867 11.178 22.52V34.66C11.178 34.8867 11.078 35 10.878 35H8.49797C8.3113 35 8.21797 34.8933 8.21797 34.68V22.56C8.21797 22.4 8.14464 22.32 7.99797 22.32H3.97797C3.7513 22.32 3.63797 22.2267 3.63797 22.04V20.48ZM17.9369 35C17.6835 35 17.5569 34.88 17.5569 34.64V20.5C17.5569 20.2733 17.6569 20.16 17.8569 20.16H19.8369C20.0102 20.16 20.0969 20.26 20.0969 20.46V25.66C20.0969 25.74 20.1169 25.7867 20.1569 25.8C20.1969 25.8133 20.2502 25.7933 20.3169 25.74C20.7569 25.3667 21.1635 25.0733 21.5369 24.86C21.9102 24.6333 22.2835 24.4667 22.6569 24.36C23.0302 24.2533 23.4169 24.2 23.8169 24.2C24.8435 24.2 25.6302 24.48 26.1769 25.04C26.7235 25.6 26.9969 26.3667 26.9969 27.34V34.58C26.9969 34.86 26.8569 35 26.5769 35H24.7369C24.6169 35 24.5302 34.9733 24.4769 34.92C24.4235 34.8667 24.3969 34.7733 24.3969 34.64V27.76C24.3969 27.24 24.2569 26.84 23.9769 26.56C23.7102 26.2667 23.2969 26.12 22.7369 26.12C22.4169 26.12 22.1169 26.1733 21.8369 26.28C21.5702 26.3733 21.3035 26.52 21.0369 26.72C20.7702 26.92 20.4769 27.1733 20.1569 27.48V34.6C20.1569 34.8667 20.0102 35 19.7169 35H17.9369ZM31.5528 30.52C31.5528 31.0667 31.6795 31.56 31.9328 32C32.1861 32.4267 32.5328 32.7667 32.9728 33.02C33.4261 33.26 33.9195 33.38 34.4528 33.38C34.9995 33.38 35.4928 33.2667 35.9328 33.04C36.3861 32.8133 36.8128 32.4467 37.2128 31.94C37.2661 31.8733 37.3128 31.84 37.3528 31.84C37.3928 31.8267 37.4595 31.8467 37.5528 31.9L38.7728 32.44C38.9461 32.52 38.9661 32.64 38.8328 32.8C38.4328 33.3867 37.9995 33.86 37.5328 34.22C37.0795 34.5667 36.5728 34.82 36.0128 34.98C35.4661 35.1267 34.8461 35.2 34.1528 35.2C33.1395 35.2 32.2328 34.9733 31.4328 34.52C30.6328 34.0667 29.9995 33.44 29.5328 32.64C29.0795 31.8267 28.8528 30.8933 28.8528 29.84C28.8528 28.68 29.0861 27.68 29.5528 26.84C30.0328 26 30.6728 25.3533 31.4728 24.9C32.2728 24.4333 33.1528 24.2 34.1128 24.2C35.1261 24.2 36.0061 24.42 36.7528 24.86C37.5128 25.3 38.1061 25.9333 38.5328 26.76C38.9595 27.5733 39.1728 28.5667 39.1728 29.74C39.1728 29.8733 39.1595 29.98 39.1328 30.06C39.1195 30.14 39.0261 30.1867 38.8528 30.2H31.7728C31.6928 30.2 31.6328 30.2267 31.5928 30.28C31.5661 30.3333 31.5528 30.4133 31.5528 30.52ZM36.2928 28.72C36.4261 28.72 36.5128 28.7067 36.5528 28.68C36.6061 28.64 36.6328 28.56 36.6328 28.44C36.6328 28.0267 36.5395 27.62 36.3528 27.22C36.1661 26.82 35.8928 26.4933 35.5328 26.24C35.1728 25.9733 34.7328 25.84 34.2128 25.84C33.6795 25.84 33.2128 25.9733 32.8128 26.24C32.4128 26.4933 32.1061 26.84 31.8928 27.28C31.6928 27.7067 31.5928 28.1867 31.5928 28.72H36.2928ZM51.5322 35.2C50.2122 35.2 49.0589 34.8933 48.0722 34.28C47.0989 33.6533 46.3455 32.7733 45.8122 31.64C45.2789 30.5067 45.0122 29.1733 45.0122 27.64C45.0122 26.0533 45.2922 24.6867 45.8522 23.54C46.4122 22.3933 47.1922 21.5133 48.1922 20.9C49.1922 20.2733 50.3589 19.96 51.6922 19.96C52.7189 19.96 53.6455 20.16 54.4722 20.56C55.2989 20.96 55.9722 21.4733 56.4922 22.1C57.0255 22.7267 57.3522 23.4 57.4722 24.12C57.5122 24.2933 57.5189 24.4067 57.4922 24.46C57.4655 24.5133 57.3922 24.5533 57.2722 24.58L55.0522 24.92C54.9455 24.92 54.8722 24.9 54.8322 24.86C54.8055 24.82 54.7789 24.7467 54.7522 24.64C54.6722 24.1733 54.4922 23.7467 54.2122 23.36C53.9455 22.9733 53.5922 22.6667 53.1522 22.44C52.7122 22.2 52.2055 22.08 51.6322 22.08C50.8855 22.08 50.2455 22.2733 49.7122 22.66C49.1922 23.0467 48.7922 23.64 48.5122 24.44C48.2455 25.24 48.1122 26.2667 48.1122 27.52C48.1122 28.84 48.2522 29.9067 48.5322 30.72C48.8122 31.5333 49.2255 32.1333 49.7722 32.52C50.3189 32.8933 50.9655 33.08 51.7122 33.08C52.2189 33.08 52.6589 33 53.0322 32.84C53.4189 32.68 53.7455 32.4733 54.0122 32.22C54.2789 31.9533 54.4855 31.66 54.6322 31.34C54.7922 31.0067 54.8989 30.6733 54.9522 30.34L54.9722 29.54C55.0255 29.3667 54.9655 29.28 54.7922 29.28H52.0722C51.9789 29.28 51.9055 29.26 51.8522 29.22C51.8122 29.18 51.7922 29.1 51.7922 28.98V27.7C51.7922 27.54 51.8855 27.46 52.0722 27.46L57.2722 27.48C57.4322 27.48 57.5522 27.52 57.6322 27.6C57.7122 27.6667 57.7522 27.76 57.7522 27.88V34.72C57.7522 34.8133 57.7255 34.8867 57.6722 34.94C57.6322 34.98 57.5722 35 57.4922 35H56.9122C56.8055 35 56.7122 34.98 56.6322 34.94C56.5655 34.9 56.4989 34.82 56.4322 34.7L55.9922 33.12C55.9655 33.0667 55.9322 33.04 55.8922 33.04C55.8655 33.04 55.8322 33.0733 55.7922 33.14C55.5389 33.4733 55.2255 33.8 54.8522 34.12C54.4922 34.44 54.0389 34.7 53.4922 34.9C52.9589 35.1 52.3055 35.2 51.5322 35.2ZM62.3536 30.52C62.3536 31.0667 62.4803 31.56 62.7336 32C62.9869 32.4267 63.3336 32.7667 63.7736 33.02C64.2269 33.26 64.7203 33.38 65.2536 33.38C65.8003 33.38 66.2936 33.2667 66.7336 33.04C67.1869 32.8133 67.6136 32.4467 68.0136 31.94C68.0669 31.8733 68.1136 31.84 68.1536 31.84C68.1936 31.8267 68.2603 31.8467 68.3536 31.9L69.5736 32.44C69.7469 32.52 69.7669 32.64 69.6336 32.8C69.2336 33.3867 68.8003 33.86 68.3336 34.22C67.8803 34.5667 67.3736 34.82 66.8136 34.98C66.2669 35.1267 65.6469 35.2 64.9536 35.2C63.9403 35.2 63.0336 34.9733 62.2336 34.52C61.4336 34.0667 60.8003 33.44 60.3336 32.64C59.8803 31.8267 59.6536 30.8933 59.6536 29.84C59.6536 28.68 59.8869 27.68 60.3536 26.84C60.8336 26 61.4736 25.3533 62.2736 24.9C63.0736 24.4333 63.9536 24.2 64.9136 24.2C65.9269 24.2 66.8069 24.42 67.5536 24.86C68.3136 25.3 68.9069 25.9333 69.3336 26.76C69.7603 27.5733 69.9736 28.5667 69.9736 29.74C69.9736 29.8733 69.9603 29.98 69.9336 30.06C69.9203 30.14 69.8269 30.1867 69.6536 30.2H62.5736C62.4936 30.2 62.4336 30.2267 62.3936 30.28C62.3669 30.3333 62.3536 30.4133 62.3536 30.52ZM67.0936 28.72C67.2269 28.72 67.3136 28.7067 67.3536 28.68C67.4069 28.64 67.4336 28.56 67.4336 28.44C67.4336 28.0267 67.3403 27.62 67.1536 27.22C66.9669 26.82 66.6936 26.4933 66.3336 26.24C65.9736 25.9733 65.5336 25.84 65.0136 25.84C64.4803 25.84 64.0136 25.9733 63.6136 26.24C63.2136 26.4933 62.9069 26.84 62.6936 27.28C62.4936 27.7067 62.3936 28.1867 62.3936 28.72H67.0936ZM72.2333 35C71.9933 35 71.8733 34.88 71.8733 34.64V24.74C71.8733 24.5133 71.9666 24.4 72.1533 24.4H74.1533C74.3266 24.4 74.4133 24.5 74.4133 24.7V25.74C74.4133 25.82 74.4333 25.8733 74.4733 25.9C74.5133 25.9133 74.5666 25.8867 74.6333 25.82C75.0199 25.4867 75.3933 25.2 75.7533 24.96C76.1133 24.72 76.4866 24.5333 76.8733 24.4C77.2599 24.2667 77.6799 24.2 78.1333 24.2C79.1199 24.2 79.8933 24.4867 80.4533 25.06C81.0266 25.62 81.3133 26.3667 81.3133 27.3V34.58C81.3133 34.86 81.1733 35 80.8933 35H79.0533C78.9333 35 78.8466 34.9733 78.7933 34.92C78.7399 34.8667 78.7133 34.7733 78.7133 34.64V27.76C78.7133 27.24 78.5733 26.84 78.2933 26.56C78.0133 26.2667 77.5933 26.12 77.0333 26.12C76.7133 26.12 76.4133 26.1733 76.1333 26.28C75.8666 26.3733 75.5999 26.52 75.3333 26.72C75.0666 26.92 74.7799 27.1733 74.4733 27.48V34.6C74.4733 34.8667 74.3199 35 74.0133 35H72.2333ZM87.8092 33.3C88.2759 33.3 88.7159 33.1733 89.1292 32.92C89.5559 32.6667 89.9626 32.3333 90.3492 31.92V24.8C90.3492 24.5333 90.5026 24.4 90.8092 24.4H92.6092C92.8492 24.4 92.9692 24.5267 92.9692 24.78L92.9292 34.68C92.9292 34.8933 92.8359 35 92.6492 35H90.6892C90.5026 35 90.4092 34.9 90.4092 34.7V33.64C90.4092 33.5733 90.3892 33.5333 90.3492 33.52C90.3226 33.4933 90.2759 33.5133 90.2092 33.58C89.5826 34.1667 88.9892 34.5867 88.4292 34.84C87.8692 35.08 87.2892 35.2 86.6892 35.2C86.0892 35.2 85.5559 35.0733 85.0892 34.82C84.6226 34.5667 84.2559 34.2 83.9892 33.72C83.7226 33.24 83.5892 32.68 83.5892 32.04V24.82C83.5892 24.54 83.7292 24.4 84.0092 24.4H85.8492C86.0759 24.4 86.1892 24.5267 86.1892 24.78V31.6C86.1892 32.1067 86.3292 32.52 86.6092 32.84C86.9026 33.1467 87.3026 33.3 87.8092 33.3ZM98.067 34.56C98.067 34.72 98.027 34.8333 97.947 34.9C97.8804 34.9667 97.7604 35 97.587 35H95.847C95.7004 35 95.6004 34.9733 95.547 34.92C95.4937 34.8533 95.467 34.76 95.467 34.64V24.74C95.467 24.5133 95.567 24.4 95.767 24.4H97.787C97.9737 24.4 98.067 24.5067 98.067 24.72V34.56ZM98.107 22.44C98.107 22.7467 97.947 22.9 97.627 22.9H95.807C95.6604 22.9 95.5604 22.8667 95.507 22.8C95.4537 22.7333 95.427 22.6333 95.427 22.5V20.54C95.427 20.2867 95.5337 20.16 95.747 20.16H97.807C98.007 20.16 98.107 20.2733 98.107 20.5V22.44ZM100.944 35C100.704 35 100.584 34.88 100.584 34.64V24.74C100.584 24.5133 100.678 24.4 100.864 24.4H102.864C103.038 24.4 103.124 24.5 103.124 24.7V25.74C103.124 25.82 103.144 25.8733 103.184 25.9C103.224 25.9133 103.278 25.8867 103.344 25.82C103.731 25.4867 104.104 25.2 104.464 24.96C104.824 24.72 105.198 24.5333 105.584 24.4C105.971 24.2667 106.391 24.2 106.844 24.2C107.831 24.2 108.604 24.4867 109.164 25.06C109.738 25.62 110.024 26.3667 110.024 27.3V34.58C110.024 34.86 109.884 35 109.604 35H107.764C107.644 35 107.558 34.9733 107.504 34.92C107.451 34.8667 107.424 34.7733 107.424 34.64V27.76C107.424 27.24 107.284 26.84 107.004 26.56C106.724 26.2667 106.304 26.12 105.744 26.12C105.424 26.12 105.124 26.1733 104.844 26.28C104.578 26.3733 104.311 26.52 104.044 26.72C103.778 26.92 103.491 27.1733 103.184 27.48V34.6C103.184 34.8667 103.031 35 102.724 35H100.944ZM114.58 30.52C114.58 31.0667 114.707 31.56 114.96 32C115.213 32.4267 115.56 32.7667 116 33.02C116.453 33.26 116.947 33.38 117.48 33.38C118.027 33.38 118.52 33.2667 118.96 33.04C119.413 32.8133 119.84 32.4467 120.24 31.94C120.293 31.8733 120.34 31.84 120.38 31.84C120.42 31.8267 120.487 31.8467 120.58 31.9L121.8 32.44C121.973 32.52 121.993 32.64 121.86 32.8C121.46 33.3867 121.027 33.86 120.56 34.22C120.107 34.5667 119.6 34.82 119.04 34.98C118.493 35.1267 117.873 35.2 117.18 35.2C116.167 35.2 115.26 34.9733 114.46 34.52C113.66 34.0667 113.027 33.44 112.56 32.64C112.107 31.8267 111.88 30.8933 111.88 29.84C111.88 28.68 112.113 27.68 112.58 26.84C113.06 26 113.7 25.3533 114.5 24.9C115.3 24.4333 116.18 24.2 117.14 24.2C118.153 24.2 119.033 24.42 119.78 24.86C120.54 25.3 121.133 25.9333 121.56 26.76C121.987 27.5733 122.2 28.5667 122.2 29.74C122.2 29.8733 122.187 29.98 122.16 30.06C122.147 30.14 122.053 30.1867 121.88 30.2H114.8C114.72 30.2 114.66 30.2267 114.62 30.28C114.593 30.3333 114.58 30.4133 114.58 30.52ZM119.32 28.72C119.453 28.72 119.54 28.7067 119.58 28.68C119.633 28.64 119.66 28.56 119.66 28.44C119.66 28.0267 119.567 27.62 119.38 27.22C119.193 26.82 118.92 26.4933 118.56 26.24C118.2 25.9733 117.76 25.84 117.24 25.84C116.707 25.84 116.24 25.9733 115.84 26.24C115.44 26.4933 115.133 26.84 114.92 27.28C114.72 27.7067 114.62 28.1867 114.62 28.72H119.32ZM126.7 34.56C126.7 34.72 126.667 34.8333 126.6 34.9C126.533 34.9667 126.413 35 126.24 35H124.48C124.213 35 124.08 34.88 124.08 34.64L124.14 20.5C124.14 20.2733 124.24 20.16 124.44 20.16H126.42C126.607 20.16 126.7 20.2667 126.7 20.48V34.56ZM130.077 38.3C129.677 38.3 129.377 38.28 129.177 38.24C128.977 38.2133 128.877 38.12 128.877 37.96V36.68C128.877 36.6 128.917 36.5267 128.997 36.46C129.077 36.4067 129.23 36.38 129.457 36.38H130.777C131.043 36.38 131.283 36.3067 131.497 36.16C131.723 36.0133 131.903 35.8333 132.037 35.62C132.183 35.4067 132.277 35.1867 132.317 34.96C132.37 34.72 132.357 34.5067 132.277 34.32L128.437 24.84C128.397 24.72 128.403 24.62 128.457 24.54C128.51 24.4467 128.603 24.4 128.737 24.4H130.817C130.91 24.4 130.99 24.4267 131.057 24.48C131.137 24.5333 131.19 24.6067 131.217 24.7L133.697 31.28C133.737 31.4 133.79 31.46 133.857 31.46C133.923 31.46 133.983 31.3867 134.037 31.24L136.497 24.68C136.537 24.6 136.583 24.5333 136.637 24.48C136.703 24.4267 136.783 24.4 136.877 24.4H138.337C138.443 24.4 138.523 24.4467 138.577 24.54C138.63 24.62 138.63 24.7067 138.577 24.8L134.377 35.32C134.123 35.9467 133.857 36.4533 133.577 36.84C133.31 37.2267 133.01 37.5267 132.677 37.74C132.343 37.9533 131.963 38.1 131.537 38.18C131.123 38.26 130.637 38.3 130.077 38.3ZM163.47 20.16C163.644 20.16 163.764 20.2133 163.83 20.32C163.897 20.4133 163.91 20.5333 163.87 20.68L159.77 34.62C159.69 34.8733 159.51 35 159.23 35H157.39C157.084 35 156.897 34.88 156.83 34.64L154.07 25C154.044 24.8933 154.01 24.84 153.97 24.84C153.944 24.8267 153.91 24.8867 153.87 25.02L151.09 34.62C151.01 34.8733 150.824 35 150.53 35H148.65C148.357 35 148.17 34.88 148.09 34.64L144.03 20.7C143.99 20.54 144.004 20.4133 144.07 20.32C144.137 20.2133 144.257 20.16 144.43 20.16H146.51C146.657 20.16 146.764 20.1867 146.83 20.24C146.897 20.28 146.944 20.3533 146.97 20.46L149.79 30.44C149.83 30.5867 149.87 30.66 149.91 30.66C149.95 30.66 149.99 30.6 150.03 30.48L152.85 20.46C152.877 20.3667 152.924 20.2933 152.99 20.24C153.057 20.1867 153.17 20.16 153.33 20.16H155.13C155.277 20.16 155.384 20.1867 155.45 20.24C155.517 20.28 155.564 20.3533 155.59 20.46L158.45 30.54C158.477 30.6467 158.51 30.7067 158.55 30.72C158.604 30.72 158.644 30.6667 158.67 30.56L161.47 20.46C161.497 20.3533 161.544 20.28 161.61 20.24C161.69 20.1867 161.804 20.16 161.95 20.16H163.47ZM170.526 33.9C170.072 34.3 169.579 34.62 169.046 34.86C168.512 35.0867 167.906 35.2 167.226 35.2C166.199 35.2 165.392 34.9333 164.806 34.4C164.232 33.8533 163.946 33.1467 163.946 32.28C163.946 31.5467 164.166 30.9133 164.606 30.38C165.046 29.8333 165.686 29.4067 166.526 29.1C167.366 28.7933 168.372 28.6133 169.546 28.56L170.546 28.5C170.626 28.4867 170.699 28.46 170.766 28.42C170.832 28.38 170.866 28.3067 170.866 28.2V27.74C170.866 27.1533 170.692 26.7 170.346 26.38C169.999 26.0467 169.519 25.88 168.906 25.88C168.439 25.88 167.999 25.9867 167.586 26.2C167.186 26.4 166.839 26.7333 166.546 27.2C166.506 27.28 166.459 27.3333 166.406 27.36C166.366 27.3867 166.286 27.3867 166.166 27.36L164.486 26.94C164.419 26.9133 164.366 26.8733 164.326 26.82C164.299 26.7667 164.326 26.66 164.406 26.5C164.766 25.74 165.332 25.1667 166.106 24.78C166.892 24.3933 167.866 24.2 169.026 24.2C170.052 24.2 170.879 24.34 171.506 24.62C172.146 24.9 172.612 25.2933 172.906 25.8C173.199 26.2933 173.346 26.88 173.346 27.56V34.6C173.346 34.7467 173.319 34.8533 173.266 34.92C173.226 34.9733 173.139 35 173.006 35H171.306C171.186 35 171.099 34.9533 171.046 34.86C170.992 34.7667 170.959 34.6533 170.946 34.52L170.906 33.92C170.879 33.6933 170.752 33.6867 170.526 33.9ZM170.866 30.16C170.866 29.92 170.766 29.8067 170.566 29.82L169.746 29.88C169.319 29.9067 168.906 29.9733 168.506 30.08C168.119 30.1733 167.772 30.3067 167.466 30.48C167.172 30.64 166.932 30.8467 166.746 31.1C166.572 31.34 166.486 31.6267 166.486 31.96C166.486 32.4133 166.646 32.7733 166.966 33.04C167.299 33.3067 167.746 33.44 168.306 33.44C168.666 33.44 168.999 33.38 169.306 33.26C169.612 33.14 169.879 32.9867 170.106 32.8C170.332 32.6133 170.512 32.42 170.646 32.22C170.792 32.0067 170.866 31.7933 170.866 31.58V30.16ZM176.198 35C176.065 35 175.971 34.9733 175.918 34.92C175.865 34.8533 175.838 34.76 175.838 34.64V24.74C175.838 24.5133 175.931 24.4 176.118 24.4H178.058C178.245 24.4 178.338 24.5 178.338 24.7V25.92C178.338 26 178.365 26.0533 178.418 26.08C178.471 26.0933 178.531 26.06 178.598 25.98C178.891 25.5933 179.205 25.2733 179.538 25.02C179.885 24.7533 180.231 24.5533 180.578 24.42C180.938 24.2733 181.285 24.2 181.618 24.2C182.098 24.2 182.338 24.3067 182.338 24.52V26.44C182.338 26.6267 182.251 26.7067 182.078 26.68C181.878 26.6267 181.665 26.5933 181.438 26.58C181.225 26.5533 181.025 26.54 180.838 26.54C180.585 26.54 180.311 26.5933 180.018 26.7C179.738 26.8067 179.478 26.96 179.238 27.16C178.998 27.3467 178.805 27.5533 178.658 27.78C178.511 28.0067 178.438 28.24 178.438 28.48V34.6C178.438 34.8667 178.285 35 177.978 35H176.198ZM184.421 35C184.181 35 184.061 34.88 184.061 34.64V24.74C184.061 24.5133 184.154 24.4 184.341 24.4H186.321C186.507 24.4 186.601 24.5 186.601 24.7V25.74C186.601 25.82 186.621 25.8733 186.661 25.9C186.701 25.9133 186.754 25.8867 186.821 25.82C187.194 25.4867 187.554 25.2 187.901 24.96C188.261 24.72 188.627 24.5333 189.001 24.4C189.387 24.2533 189.794 24.18 190.221 24.18C190.967 24.18 191.581 24.3533 192.061 24.7C192.541 25.0467 192.874 25.4867 193.061 26.02C193.087 26.0733 193.127 26.0933 193.181 26.08C193.234 26.0667 193.287 26.0333 193.341 25.98C193.687 25.6333 194.054 25.3267 194.441 25.06C194.827 24.7933 195.227 24.5867 195.641 24.44C196.054 24.28 196.467 24.2 196.881 24.2C197.827 24.2 198.574 24.4867 199.121 25.06C199.667 25.62 199.941 26.3867 199.941 27.36V34.58C199.941 34.86 199.801 35 199.521 35H197.681C197.561 35 197.474 34.9733 197.421 34.92C197.367 34.8667 197.341 34.7733 197.341 34.64V27.76C197.341 27.24 197.207 26.84 196.941 26.56C196.687 26.2667 196.301 26.12 195.781 26.12C195.474 26.12 195.181 26.18 194.901 26.3C194.621 26.4067 194.367 26.5467 194.141 26.72C193.914 26.8933 193.714 27.0667 193.541 27.24C193.447 27.3333 193.381 27.4267 193.341 27.52C193.314 27.6 193.301 27.7 193.301 27.82V34.58C193.301 34.86 193.161 35 192.881 35H191.041C190.934 35 190.847 34.9733 190.781 34.92C190.727 34.8667 190.701 34.7733 190.701 34.64V27.76C190.701 27.24 190.574 26.84 190.321 26.56C190.067 26.2667 189.674 26.12 189.141 26.12C188.687 26.12 188.267 26.2333 187.881 26.46C187.507 26.6867 187.101 27.0267 186.661 27.48V34.6C186.661 34.8667 186.507 35 186.201 35H184.421ZM14.0512 57.9C13.5978 58.3 13.1045 58.62 12.5712 58.86C12.0378 59.0867 11.4312 59.2 10.7512 59.2C9.72451 59.2 8.91784 58.9333 8.33117 58.4C7.75784 57.8533 7.47117 57.1467 7.47117 56.28C7.47117 55.5467 7.69117 54.9133 8.13117 54.38C8.57117 53.8333 9.21117 53.4067 10.0512 53.1C10.8912 52.7933 11.8978 52.6133 13.0712 52.56L14.0712 52.5C14.1512 52.4867 14.2245 52.46 14.2912 52.42C14.3578 52.38 14.3912 52.3067 14.3912 52.2V51.74C14.3912 51.1533 14.2178 50.7 13.8712 50.38C13.5245 50.0467 13.0445 49.88 12.4312 49.88C11.9645 49.88 11.5245 49.9867 11.1112 50.2C10.7112 50.4 10.3645 50.7333 10.0712 51.2C10.0312 51.28 9.98451 51.3333 9.93117 51.36C9.89117 51.3867 9.81117 51.3867 9.69117 51.36L8.01117 50.94C7.94451 50.9133 7.89117 50.8733 7.85117 50.82C7.82451 50.7667 7.85117 50.66 7.93117 50.5C8.29117 49.74 8.85784 49.1667 9.63117 48.78C10.4178 48.3933 11.3912 48.2 12.5512 48.2C13.5778 48.2 14.4045 48.34 15.0312 48.62C15.6712 48.9 16.1378 49.2933 16.4312 49.8C16.7245 50.2933 16.8712 50.88 16.8712 51.56V58.6C16.8712 58.7467 16.8445 58.8533 16.7912 58.92C16.7512 58.9733 16.6645 59 16.5312 59H14.8312C14.7112 59 14.6245 58.9533 14.5712 58.86C14.5178 58.7667 14.4845 58.6533 14.4712 58.52L14.4312 57.92C14.4045 57.6933 14.2778 57.6867 14.0512 57.9ZM14.3912 54.16C14.3912 53.92 14.2912 53.8067 14.0912 53.82L13.2712 53.88C12.8445 53.9067 12.4312 53.9733 12.0312 54.08C11.6445 54.1733 11.2978 54.3067 10.9912 54.48C10.6978 54.64 10.4578 54.8467 10.2712 55.1C10.0978 55.34 10.0112 55.6267 10.0112 55.96C10.0112 56.4133 10.1712 56.7733 10.4912 57.04C10.8245 57.3067 11.2712 57.44 11.8312 57.44C12.1912 57.44 12.5245 57.38 12.8312 57.26C13.1378 57.14 13.4045 56.9867 13.6312 56.8C13.8578 56.6133 14.0378 56.42 14.1712 56.22C14.3178 56.0067 14.3912 55.7933 14.3912 55.58V54.16ZM19.7235 59C19.4835 59 19.3635 58.88 19.3635 58.64V48.74C19.3635 48.5133 19.4568 48.4 19.6435 48.4H21.6435C21.8168 48.4 21.9035 48.5 21.9035 48.7V49.74C21.9035 49.82 21.9235 49.8733 21.9635 49.9C22.0035 49.9133 22.0568 49.8867 22.1235 49.82C22.5102 49.4867 22.8835 49.2 23.2435 48.96C23.6035 48.72 23.9768 48.5333 24.3635 48.4C24.7502 48.2667 25.1702 48.2 25.6235 48.2C26.6102 48.2 27.3835 48.4867 27.9435 49.06C28.5168 49.62 28.8035 50.3667 28.8035 51.3V58.58C28.8035 58.86 28.6635 59 28.3835 59H26.5435C26.4235 59 26.3368 58.9733 26.2835 58.92C26.2302 58.8667 26.2035 58.7733 26.2035 58.64V51.76C26.2035 51.24 26.0635 50.84 25.7835 50.56C25.5035 50.2667 25.0835 50.12 24.5235 50.12C24.2035 50.12 23.9035 50.1733 23.6235 50.28C23.3568 50.3733 23.0902 50.52 22.8235 50.72C22.5568 50.92 22.2702 51.1733 21.9635 51.48V58.6C21.9635 58.8667 21.8102 59 21.5035 59H19.7235ZM38.6195 59C38.5128 59 38.4195 58.9733 38.3395 58.92C38.2728 58.8667 38.2395 58.7733 38.2395 58.64V57.98C38.2395 57.8867 38.2128 57.8333 38.1595 57.82C38.1061 57.8067 38.0461 57.8333 37.9795 57.9C37.7795 58.0867 37.5461 58.28 37.2795 58.48C37.0128 58.68 36.6861 58.8533 36.2995 59C35.9261 59.1333 35.4795 59.2 34.9595 59.2C34.1461 59.2 33.4195 59 32.7795 58.6C32.1395 58.2 31.6328 57.6 31.2595 56.8C30.8861 56 30.6995 55 30.6995 53.8C30.6995 52.68 30.8928 51.7 31.2795 50.86C31.6795 50.02 32.2195 49.3667 32.8995 48.9C33.5795 48.4333 34.3395 48.2 35.1795 48.2C35.7661 48.2 36.2661 48.2933 36.6795 48.48C37.1061 48.6667 37.4995 48.9267 37.8595 49.26C37.9795 49.34 38.0661 49.3733 38.1195 49.36C38.1728 49.3333 38.1995 49.2467 38.1995 49.1V44.48C38.1995 44.2667 38.2928 44.16 38.4795 44.16H40.4995C40.6995 44.16 40.7995 44.2733 40.7995 44.5V58.62C40.7995 58.7533 40.7661 58.8533 40.6995 58.92C40.6461 58.9733 40.5395 59 40.3795 59H38.6195ZM38.1995 51.02C37.8528 50.6733 37.5061 50.4067 37.1595 50.22C36.8261 50.02 36.4395 49.92 35.9995 49.92C35.4928 49.92 35.0328 50.06 34.6195 50.34C34.2195 50.6067 33.9061 51.0267 33.6795 51.6C33.4528 52.16 33.3395 52.88 33.3395 53.76C33.3395 54.6533 33.4528 55.38 33.6795 55.94C33.9061 56.4867 34.2128 56.8867 34.5995 57.14C34.9995 57.3933 35.4461 57.52 35.9395 57.52C36.3661 57.52 36.7461 57.42 37.0795 57.22C37.4261 57.02 37.6995 56.7667 37.8995 56.46C38.0995 56.1533 38.1995 55.8467 38.1995 55.54V51.02ZM53.388 48.4C53.4947 48.4 53.5747 48.4333 53.628 48.5C53.6814 48.5533 53.708 48.62 53.708 48.7V49.96C53.708 50.1333 53.608 50.22 53.408 50.22H51.548C51.4147 50.22 51.348 50.2867 51.348 50.42V58.66C51.348 58.8867 51.248 59 51.048 59H49.028C48.8414 59 48.748 58.8933 48.748 58.68V50.4C48.748 50.28 48.7014 50.22 48.608 50.22H46.988C46.788 50.22 46.688 50.1333 46.688 49.96V48.7C46.688 48.62 46.708 48.5533 46.748 48.5C46.8014 48.4333 46.888 48.4 47.008 48.4H48.528C48.6747 48.4 48.748 48.3133 48.748 48.14V46.84C48.748 45.9867 48.9814 45.3267 49.448 44.86C49.928 44.3933 50.6147 44.16 51.508 44.16H53.408C53.6614 44.16 53.788 44.28 53.788 44.52L53.808 45.64C53.808 45.72 53.7814 45.7867 53.728 45.84C53.688 45.8933 53.6214 45.92 53.528 45.92H52.348C52.0014 45.92 51.7347 46.04 51.548 46.28C51.3747 46.52 51.288 46.8267 51.288 47.2V48.2C51.288 48.3333 51.3614 48.4 51.508 48.4H53.388ZM55.7391 59C55.6058 59 55.5125 58.9733 55.4591 58.92C55.4058 58.8533 55.3791 58.76 55.3791 58.64V48.74C55.3791 48.5133 55.4725 48.4 55.6591 48.4H57.5991C57.7858 48.4 57.8791 48.5 57.8791 48.7V49.92C57.8791 50 57.9058 50.0533 57.9591 50.08C58.0125 50.0933 58.0725 50.06 58.1391 49.98C58.4325 49.5933 58.7458 49.2733 59.0791 49.02C59.4258 48.7533 59.7725 48.5533 60.1191 48.42C60.4791 48.2733 60.8258 48.2 61.1591 48.2C61.6391 48.2 61.8791 48.3067 61.8791 48.52V50.44C61.8791 50.6267 61.7925 50.7067 61.6191 50.68C61.4191 50.6267 61.2058 50.5933 60.9791 50.58C60.7658 50.5533 60.5658 50.54 60.3791 50.54C60.1258 50.54 59.8525 50.5933 59.5591 50.7C59.2791 50.8067 59.0191 50.96 58.7791 51.16C58.5391 51.3467 58.3458 51.5533 58.1991 51.78C58.0525 52.0067 57.9791 52.24 57.9791 52.48V58.6C57.9791 58.8667 57.8258 59 57.5191 59H55.7391ZM66.2018 58.56C66.2018 58.72 66.1618 58.8333 66.0818 58.9C66.0151 58.9667 65.8951 59 65.7218 59H63.9818C63.8351 59 63.7351 58.9733 63.6818 58.92C63.6285 58.8533 63.6018 58.76 63.6018 58.64V48.74C63.6018 48.5133 63.7018 48.4 63.9018 48.4H65.9218C66.1085 48.4 66.2018 48.5067 66.2018 48.72V58.56ZM66.2418 46.44C66.2418 46.7467 66.0818 46.9 65.7618 46.9H63.9418C63.7951 46.9 63.6951 46.8667 63.6418 46.8C63.5885 46.7333 63.5618 46.6333 63.5618 46.5V44.54C63.5618 44.2867 63.6685 44.16 63.8818 44.16H65.9418C66.1418 44.16 66.2418 44.2733 66.2418 44.5V46.44ZM70.879 54.52C70.879 55.0667 71.0057 55.56 71.259 56C71.5123 56.4267 71.859 56.7667 72.299 57.02C72.7523 57.26 73.2457 57.38 73.779 57.38C74.3257 57.38 74.819 57.2667 75.259 57.04C75.7123 56.8133 76.139 56.4467 76.539 55.94C76.5923 55.8733 76.639 55.84 76.679 55.84C76.719 55.8267 76.7857 55.8467 76.879 55.9L78.099 56.44C78.2723 56.52 78.2923 56.64 78.159 56.8C77.759 57.3867 77.3257 57.86 76.859 58.22C76.4057 58.5667 75.899 58.82 75.339 58.98C74.7923 59.1267 74.1723 59.2 73.479 59.2C72.4657 59.2 71.559 58.9733 70.759 58.52C69.959 58.0667 69.3257 57.44 68.859 56.64C68.4057 55.8267 68.179 54.8933 68.179 53.84C68.179 52.68 68.4123 51.68 68.879 50.84C69.359 50 69.999 49.3533 70.799 48.9C71.599 48.4333 72.479 48.2 73.439 48.2C74.4523 48.2 75.3323 48.42 76.079 48.86C76.839 49.3 77.4323 49.9333 77.859 50.76C78.2857 51.5733 78.499 52.5667 78.499 53.74C78.499 53.8733 78.4857 53.98 78.459 54.06C78.4457 54.14 78.3523 54.1867 78.179 54.2H71.099C71.019 54.2 70.959 54.2267 70.919 54.28C70.8923 54.3333 70.879 54.4133 70.879 54.52ZM75.619 52.72C75.7523 52.72 75.839 52.7067 75.879 52.68C75.9323 52.64 75.959 52.56 75.959 52.44C75.959 52.0267 75.8657 51.62 75.679 51.22C75.4923 50.82 75.219 50.4933 74.859 50.24C74.499 49.9733 74.059 49.84 73.539 49.84C73.0057 49.84 72.539 49.9733 72.139 50.24C71.739 50.4933 71.4323 50.84 71.219 51.28C71.019 51.7067 70.919 52.1867 70.919 52.72H75.619ZM80.7587 59C80.5187 59 80.3987 58.88 80.3987 58.64V48.74C80.3987 48.5133 80.492 48.4 80.6787 48.4H82.6787C82.852 48.4 82.9387 48.5 82.9387 48.7V49.74C82.9387 49.82 82.9587 49.8733 82.9987 49.9C83.0387 49.9133 83.092 49.8867 83.1587 49.82C83.5453 49.4867 83.9187 49.2 84.2787 48.96C84.6387 48.72 85.012 48.5333 85.3987 48.4C85.7853 48.2667 86.2053 48.2 86.6587 48.2C87.6453 48.2 88.4187 48.4867 88.9787 49.06C89.552 49.62 89.8387 50.3667 89.8387 51.3V58.58C89.8387 58.86 89.6987 59 89.4187 59H87.5787C87.4587 59 87.372 58.9733 87.3187 58.92C87.2653 58.8667 87.2387 58.7733 87.2387 58.64V51.76C87.2387 51.24 87.0987 50.84 86.8187 50.56C86.5387 50.2667 86.1187 50.12 85.5587 50.12C85.2387 50.12 84.9387 50.1733 84.6587 50.28C84.392 50.3733 84.1253 50.52 83.8587 50.72C83.592 50.92 83.3053 51.1733 82.9987 51.48V58.6C82.9987 58.8667 82.8453 59 82.5387 59H80.7587ZM99.6546 59C99.5479 59 99.4546 58.9733 99.3746 58.92C99.3079 58.8667 99.2746 58.7733 99.2746 58.64V57.98C99.2746 57.8867 99.2479 57.8333 99.1946 57.82C99.1413 57.8067 99.0813 57.8333 99.0146 57.9C98.8146 58.0867 98.5813 58.28 98.3146 58.48C98.0479 58.68 97.7213 58.8533 97.3346 59C96.9613 59.1333 96.5146 59.2 95.9946 59.2C95.1813 59.2 94.4546 59 93.8146 58.6C93.1746 58.2 92.6679 57.6 92.2946 56.8C91.9213 56 91.7346 55 91.7346 53.8C91.7346 52.68 91.9279 51.7 92.3146 50.86C92.7146 50.02 93.2546 49.3667 93.9346 48.9C94.6146 48.4333 95.3746 48.2 96.2146 48.2C96.8013 48.2 97.3013 48.2933 97.7146 48.48C98.1413 48.6667 98.5346 48.9267 98.8946 49.26C99.0146 49.34 99.1013 49.3733 99.1546 49.36C99.2079 49.3333 99.2346 49.2467 99.2346 49.1V44.48C99.2346 44.2667 99.3279 44.16 99.5146 44.16H101.535C101.735 44.16 101.835 44.2733 101.835 44.5V58.62C101.835 58.7533 101.801 58.8533 101.735 58.92C101.681 58.9733 101.575 59 101.415 59H99.6546ZM99.2346 51.02C98.8879 50.6733 98.5413 50.4067 98.1946 50.22C97.8613 50.02 97.4746 49.92 97.0346 49.92C96.5279 49.92 96.0679 50.06 95.6546 50.34C95.2546 50.6067 94.9413 51.0267 94.7146 51.6C94.4879 52.16 94.3746 52.88 94.3746 53.76C94.3746 54.6533 94.4879 55.38 94.7146 55.94C94.9413 56.4867 95.2479 56.8867 95.6346 57.14C96.0346 57.3933 96.4813 57.52 96.9746 57.52C97.4013 57.52 97.7813 57.42 98.1146 57.22C98.4613 57.02 98.7346 56.7667 98.9346 56.46C99.1346 56.1533 99.2346 55.8467 99.2346 55.54V51.02ZM106.964 58.56C106.964 58.72 106.93 58.8333 106.864 58.9C106.797 58.9667 106.677 59 106.504 59H104.744C104.477 59 104.344 58.88 104.344 58.64L104.404 44.5C104.404 44.2733 104.504 44.16 104.704 44.16H106.684C106.87 44.16 106.964 44.2667 106.964 44.48V58.56ZM110.34 62.3C109.94 62.3 109.64 62.28 109.44 62.24C109.24 62.2133 109.14 62.12 109.14 61.96V60.68C109.14 60.6 109.18 60.5267 109.26 60.46C109.34 60.4067 109.494 60.38 109.72 60.38H111.04C111.307 60.38 111.547 60.3067 111.76 60.16C111.987 60.0133 112.167 59.8333 112.3 59.62C112.447 59.4067 112.54 59.1867 112.58 58.96C112.634 58.72 112.62 58.5067 112.54 58.32L108.7 48.84C108.66 48.72 108.667 48.62 108.72 48.54C108.774 48.4467 108.867 48.4 109 48.4H111.08C111.174 48.4 111.254 48.4267 111.32 48.48C111.4 48.5333 111.454 48.6067 111.48 48.7L113.96 55.28C114 55.4 114.054 55.46 114.12 55.46C114.187 55.46 114.247 55.3867 114.3 55.24L116.76 48.68C116.8 48.6 116.847 48.5333 116.9 48.48C116.967 48.4267 117.047 48.4 117.14 48.4H118.6C118.707 48.4 118.787 48.4467 118.84 48.54C118.894 48.62 118.894 48.7067 118.84 48.8L114.64 59.32C114.387 59.9467 114.12 60.4533 113.84 60.84C113.574 61.2267 113.274 61.5267 112.94 61.74C112.607 61.9533 112.227 62.1 111.8 62.18C111.387 62.26 110.9 62.3 110.34 62.3ZM128.634 50.22C128.501 50.22 128.434 50.2933 128.434 50.44V55.78C128.434 56.3 128.541 56.66 128.754 56.86C128.967 57.06 129.301 57.16 129.754 57.16H130.934C131.014 57.16 131.081 57.1867 131.134 57.24C131.187 57.2933 131.214 57.36 131.214 57.44L131.194 58.48C131.194 58.6933 131.067 58.8267 130.814 58.88C130.614 58.9067 130.381 58.9333 130.114 58.96C129.847 58.9733 129.581 58.9867 129.314 59C129.061 59 128.827 59 128.614 59C127.721 59 127.034 58.7933 126.554 58.38C126.074 57.9533 125.834 57.3133 125.834 56.46V50.48C125.834 50.3067 125.754 50.22 125.594 50.22H124.254C124.041 50.22 123.934 50.12 123.934 49.92V48.66C123.934 48.4867 124.034 48.4 124.234 48.4H125.714C125.834 48.4 125.894 48.3333 125.894 48.2L126.154 45.12C126.167 44.9067 126.261 44.8 126.434 44.8H128.214C128.401 44.8 128.494 44.9133 128.494 45.14V48.2C128.494 48.32 128.554 48.38 128.674 48.38H130.934C131.134 48.38 131.234 48.4733 131.234 48.66V49.92C131.234 50.12 131.121 50.22 130.894 50.22H128.634ZM134.941 54.52C134.941 55.0667 135.068 55.56 135.321 56C135.575 56.4267 135.921 56.7667 136.361 57.02C136.815 57.26 137.308 57.38 137.841 57.38C138.388 57.38 138.881 57.2667 139.321 57.04C139.775 56.8133 140.201 56.4467 140.601 55.94C140.655 55.8733 140.701 55.84 140.741 55.84C140.781 55.8267 140.848 55.8467 140.941 55.9L142.161 56.44C142.335 56.52 142.355 56.64 142.221 56.8C141.821 57.3867 141.388 57.86 140.921 58.22C140.468 58.5667 139.961 58.82 139.401 58.98C138.855 59.1267 138.235 59.2 137.541 59.2C136.528 59.2 135.621 58.9733 134.821 58.52C134.021 58.0667 133.388 57.44 132.921 56.64C132.468 55.8267 132.241 54.8933 132.241 53.84C132.241 52.68 132.475 51.68 132.941 50.84C133.421 50 134.061 49.3533 134.861 48.9C135.661 48.4333 136.541 48.2 137.501 48.2C138.515 48.2 139.395 48.42 140.141 48.86C140.901 49.3 141.495 49.9333 141.921 50.76C142.348 51.5733 142.561 52.5667 142.561 53.74C142.561 53.8733 142.548 53.98 142.521 54.06C142.508 54.14 142.415 54.1867 142.241 54.2H135.161C135.081 54.2 135.021 54.2267 134.981 54.28C134.955 54.3333 134.941 54.4133 134.941 54.52ZM139.681 52.72C139.815 52.72 139.901 52.7067 139.941 52.68C139.995 52.64 140.021 52.56 140.021 52.44C140.021 52.0267 139.928 51.62 139.741 51.22C139.555 50.82 139.281 50.4933 138.921 50.24C138.561 49.9733 138.121 49.84 137.601 49.84C137.068 49.84 136.601 49.9733 136.201 50.24C135.801 50.4933 135.495 50.84 135.281 51.28C135.081 51.7067 134.981 52.1867 134.981 52.72H139.681ZM150.301 57.9C149.848 58.3 149.355 58.62 148.821 58.86C148.288 59.0867 147.681 59.2 147.001 59.2C145.975 59.2 145.168 58.9333 144.581 58.4C144.008 57.8533 143.721 57.1467 143.721 56.28C143.721 55.5467 143.941 54.9133 144.381 54.38C144.821 53.8333 145.461 53.4067 146.301 53.1C147.141 52.7933 148.148 52.6133 149.321 52.56L150.321 52.5C150.401 52.4867 150.475 52.46 150.541 52.42C150.608 52.38 150.641 52.3067 150.641 52.2V51.74C150.641 51.1533 150.468 50.7 150.121 50.38C149.775 50.0467 149.295 49.88 148.681 49.88C148.215 49.88 147.775 49.9867 147.361 50.2C146.961 50.4 146.615 50.7333 146.321 51.2C146.281 51.28 146.235 51.3333 146.181 51.36C146.141 51.3867 146.061 51.3867 145.941 51.36L144.261 50.94C144.195 50.9133 144.141 50.8733 144.101 50.82C144.075 50.7667 144.101 50.66 144.181 50.5C144.541 49.74 145.108 49.1667 145.881 48.78C146.668 48.3933 147.641 48.2 148.801 48.2C149.828 48.2 150.655 48.34 151.281 48.62C151.921 48.9 152.388 49.2933 152.681 49.8C152.975 50.2933 153.121 50.88 153.121 51.56V58.6C153.121 58.7467 153.095 58.8533 153.041 58.92C153.001 58.9733 152.915 59 152.781 59H151.081C150.961 59 150.875 58.9533 150.821 58.86C150.768 58.7667 150.735 58.6533 150.721 58.52L150.681 57.92C150.655 57.6933 150.528 57.6867 150.301 57.9ZM150.641 54.16C150.641 53.92 150.541 53.8067 150.341 53.82L149.521 53.88C149.095 53.9067 148.681 53.9733 148.281 54.08C147.895 54.1733 147.548 54.3067 147.241 54.48C146.948 54.64 146.708 54.8467 146.521 55.1C146.348 55.34 146.261 55.6267 146.261 55.96C146.261 56.4133 146.421 56.7733 146.741 57.04C147.075 57.3067 147.521 57.44 148.081 57.44C148.441 57.44 148.775 57.38 149.081 57.26C149.388 57.14 149.655 56.9867 149.881 56.8C150.108 56.6133 150.288 56.42 150.421 56.22C150.568 56.0067 150.641 55.7933 150.641 55.58V54.16ZM160.294 48.2C161.094 48.2 161.787 48.34 162.374 48.62C162.96 48.8867 163.44 49.24 163.814 49.68C164.2 50.1067 164.494 50.56 164.694 51.04C164.774 51.28 164.707 51.4067 164.494 51.42L162.734 51.64C162.6 51.6667 162.507 51.6067 162.454 51.46C162.28 51.1667 162.1 50.9067 161.914 50.68C161.727 50.4533 161.514 50.2733 161.274 50.14C161.034 50.0067 160.74 49.94 160.394 49.94C159.86 49.94 159.387 50.0867 158.974 50.38C158.574 50.66 158.26 51.08 158.034 51.64C157.82 52.2 157.714 52.8867 157.714 53.7C157.714 54.5267 157.827 55.22 158.054 55.78C158.294 56.34 158.62 56.7667 159.034 57.06C159.447 57.34 159.94 57.48 160.514 57.48C161.114 57.48 161.607 57.3267 161.994 57.02C162.38 56.7 162.74 56.26 163.074 55.7C163.114 55.6467 163.154 55.6133 163.194 55.6C163.234 55.5867 163.3 55.5933 163.394 55.62L164.654 55.96C164.787 56 164.827 56.1133 164.774 56.3C164.64 56.6067 164.447 56.9333 164.194 57.28C163.954 57.6267 163.654 57.9467 163.294 58.24C162.934 58.52 162.5 58.7533 161.994 58.94C161.5 59.1133 160.934 59.2 160.294 59.2C159.28 59.2 158.38 58.9733 157.594 58.52C156.807 58.0533 156.187 57.4133 155.734 56.6C155.294 55.7733 155.074 54.82 155.074 53.74C155.074 52.6467 155.3 51.6867 155.754 50.86C156.207 50.02 156.827 49.3667 157.614 48.9C158.4 48.4333 159.294 48.2 160.294 48.2ZM166.951 59C166.697 59 166.571 58.88 166.571 58.64V44.5C166.571 44.2733 166.671 44.16 166.871 44.16H168.851C169.024 44.16 169.111 44.26 169.111 44.46V49.66C169.111 49.74 169.131 49.7867 169.171 49.8C169.211 49.8133 169.264 49.7933 169.331 49.74C169.771 49.3667 170.177 49.0733 170.551 48.86C170.924 48.6333 171.297 48.4667 171.671 48.36C172.044 48.2533 172.431 48.2 172.831 48.2C173.857 48.2 174.644 48.48 175.191 49.04C175.737 49.6 176.011 50.3667 176.011 51.34V58.58C176.011 58.86 175.871 59 175.591 59H173.751C173.631 59 173.544 58.9733 173.491 58.92C173.437 58.8667 173.411 58.7733 173.411 58.64V51.76C173.411 51.24 173.271 50.84 172.991 50.56C172.724 50.2667 172.311 50.12 171.751 50.12C171.431 50.12 171.131 50.1733 170.851 50.28C170.584 50.3733 170.317 50.52 170.051 50.72C169.784 50.92 169.491 51.1733 169.171 51.48V58.6C169.171 58.8667 169.024 59 168.731 59H166.951ZM180.566 54.52C180.566 55.0667 180.693 55.56 180.946 56C181.2 56.4267 181.546 56.7667 181.986 57.02C182.44 57.26 182.933 57.38 183.466 57.38C184.013 57.38 184.506 57.2667 184.946 57.04C185.4 56.8133 185.826 56.4467 186.226 55.94C186.28 55.8733 186.326 55.84 186.366 55.84C186.406 55.8267 186.473 55.8467 186.566 55.9L187.786 56.44C187.96 56.52 187.98 56.64 187.846 56.8C187.446 57.3867 187.013 57.86 186.546 58.22C186.093 58.5667 185.586 58.82 185.026 58.98C184.48 59.1267 183.86 59.2 183.166 59.2C182.153 59.2 181.246 58.9733 180.446 58.52C179.646 58.0667 179.013 57.44 178.546 56.64C178.093 55.8267 177.866 54.8933 177.866 53.84C177.866 52.68 178.1 51.68 178.566 50.84C179.046 50 179.686 49.3533 180.486 48.9C181.286 48.4333 182.166 48.2 183.126 48.2C184.14 48.2 185.02 48.42 185.766 48.86C186.526 49.3 187.12 49.9333 187.546 50.76C187.973 51.5733 188.186 52.5667 188.186 53.74C188.186 53.8733 188.173 53.98 188.146 54.06C188.133 54.14 188.04 54.1867 187.866 54.2H180.786C180.706 54.2 180.646 54.2267 180.606 54.28C180.58 54.3333 180.566 54.4133 180.566 54.52ZM185.306 52.72C185.44 52.72 185.526 52.7067 185.566 52.68C185.62 52.64 185.646 52.56 185.646 52.44C185.646 52.0267 185.553 51.62 185.366 51.22C185.18 50.82 184.906 50.4933 184.546 50.24C184.186 49.9733 183.746 49.84 183.226 49.84C182.693 49.84 182.226 49.9733 181.826 50.24C181.426 50.4933 181.12 50.84 180.906 51.28C180.706 51.7067 180.606 52.1867 180.606 52.72H185.306ZM190.446 59C190.313 59 190.22 58.9733 190.166 58.92C190.113 58.8533 190.086 58.76 190.086 58.64V48.74C190.086 48.5133 190.18 48.4 190.366 48.4H192.306C192.493 48.4 192.586 48.5 192.586 48.7V49.92C192.586 50 192.613 50.0533 192.666 50.08C192.72 50.0933 192.78 50.06 192.846 49.98C193.14 49.5933 193.453 49.2733 193.786 49.02C194.133 48.7533 194.48 48.5533 194.826 48.42C195.186 48.2733 195.533 48.2 195.866 48.2C196.346 48.2 196.586 48.3067 196.586 48.52V50.44C196.586 50.6267 196.5 50.7067 196.326 50.68C196.126 50.6267 195.913 50.5933 195.686 50.58C195.473 50.5533 195.273 50.54 195.086 50.54C194.833 50.54 194.56 50.5933 194.266 50.7C193.986 50.8067 193.726 50.96 193.486 51.16C193.246 51.3467 193.053 51.5533 192.906 51.78C192.76 52.0067 192.686 52.24 192.686 52.48V58.6C192.686 58.8667 192.533 59 192.226 59H190.446Z" fill="black"/>
</svg>
