<svg width="204" height="204" viewBox="0 0 204 204" fill="none" xmlns="http://www.w3.org/2000/svg">
<rect x="0.5" y="0.5" width="203" height="203" fill="#EDE7E2" stroke="black"/>
<path d="M115.301 50.0544C120.893 49.1394 126.829 48.8603 132.48 48.8994C132.618 48.9004 140.084 49.1981 136.953 50.2894C135.202 50.8996 133.103 50.9417 131.295 51.1116C127.257 51.491 123.2 51.6737 119.167 52.11C117.522 52.2881 115.286 52.3763 113.774 53.2259C113.439 53.414 113.204 53.814 113.715 54.0285C114.546 54.3773 116.666 54.453 117.298 54.4788C121.196 54.6382 125.097 54.5559 128.995 54.7725C129.678 54.8104 132.907 54.9565 134.016 55.3598C134.481 55.5287 133.247 56.0495 132.764 56.1526C124.374 57.9418 115.624 57.6913 107.255 59.5884C100.802 61.051 120.48 59.1093 127.096 59.0206C130.924 58.9693 135.056 58.7955 138.852 59.51C142.815 60.256 136.567 61.824 136.092 62.0355" stroke="white" stroke-width="3" stroke-linecap="round"/>
<path d="M131.511 62.5641C121.738 63.3301 111.809 63.8868 102.263 65.9117" stroke="white" stroke-width="3" stroke-linecap="round"/>
<path d="M94.5104 71.1975C94.1765 71.2098 93.8127 71.2278 93.4924 71.3345C91.7335 71.9208 97.1641 70.8138 98.9935 70.5123C110.848 68.5585 122.632 66.5135 134.623 65.5593C137.09 65.363 140.436 65.145 142.943 64.972C143.976 64.9009 147.021 65.0351 146.037 64.7175C145.062 64.403 143.986 64.7023 142.963 64.7567C140.496 64.8878 138.266 65.1108 135.798 65.4615C123.294 67.2382 110.845 70.3467 98.8662 74.3396C98.5098 74.4584 97.0853 74.918 96.5366 75.1814C96.027 75.426 96.488 75.3869 96.8303 75.3869C100.233 75.3869 103.689 75.0077 107.069 74.6724C119.883 73.401 132.662 71.455 145.44 69.8467C145.648 69.8204 148.218 69.4929 148.885 69.3964C148.993 69.3807 149.317 69.3304 149.208 69.3377C148.904 69.358 148.601 69.3975 148.298 69.4356C142.968 70.1061 137.678 71.1399 132.411 72.1763C118.086 74.9951 103.267 77.7619 89.4596 82.6499C89.4495 82.6535 88.1561 83.0966 89.1268 82.9827C89.6708 82.9189 93.2553 82.2783 93.2575 82.278C98.891 81.2901 104.531 80.3471 110.172 79.4002C118.936 77.9289 127.624 75.8985 136.424 74.6626C137.821 74.4664 133.683 75.3274 132.313 75.661C127.189 76.9086 122.078 78.2286 116.985 79.5959C108.849 81.7801 100.772 84.2144 92.8464 87.0743C90.3583 87.972 86.7955 89.3386 84.3109 90.559C83.6182 90.8992 82.9444 91.2829 82.3043 91.714C81.7285 92.1018 80.7587 92.732 82.1378 92.7222C86.7731 92.6891 91.8707 90.8899 96.3506 89.8933C104.267 88.1325 112.159 86.2667 120.058 84.4314C126.476 82.9403 132.889 81.4296 139.302 79.919C143.348 78.966 137.736 80.2305 137.648 80.2518C127.048 82.8035 116.637 86.2914 106.599 90.5296C102.605 92.2162 98.6409 93.9745 94.8432 96.0698C93.9831 96.5444 94.0012 96.4648 94.5104 96.0405" stroke="white" stroke-width="3" stroke-linecap="round"/>
<path d="M85.5247 99.7405C86.3943 99.6438 84.1389 98.9202 84.3892 100.005C84.7807 101.701 88.7427 99.9181 88.8234 99.8971C106.937 95.1852 161.001 80.0512 142.836 84.5586C125.308 88.9079 107.814 93.7834 90.4776 98.8399C90.3566 98.8752 89.9994 98.9833 90.1252 98.977C90.3783 98.9643 90.624 98.8846 90.8691 98.8204C92.4702 98.4008 94.5102 97.7797 96.0178 97.2738C103.689 94.6996 111.193 91.6205 118.727 88.6796C124.5 86.4262 130.256 84.0832 136.131 82.1017C137.939 81.4917 139.916 81.1596 141.691 80.4769C143.228 79.8856 138.463 81.1394 136.855 81.4949C134.112 82.1011 131.358 82.6686 128.633 83.3547C128.234 83.4551 127.837 83.5628 127.439 83.6679C127.051 83.7702 126.231 84.3216 126.264 83.9224C126.33 83.1326 131.388 81.2544 131.794 81.0642C135.401 79.3773 138.945 77.5712 142.532 75.8469C143.814 75.231 147.35 73.1334 146.497 74.271C146.007 74.9238 143.221 75.4677 142.523 75.7295C139.968 76.6874 137.414 77.65 134.878 78.6562C134.813 78.6821 130.468 80.2134 131.315 80.839C132.621 81.8048 135.574 81.3735 137.07 81.4361C139.043 81.5188 141.635 81.4404 143.394 82.5129C145.267 83.6548 140.84 85.6627 140.408 85.9094C129.016 92.4193 116.503 96.8296 104.925 103.02C100.994 105.121 95.9309 107.331 92.6898 110.527C92.5897 110.626 92.3927 110.924 92.5332 110.919C92.9962 110.903 93.4236 110.658 93.8546 110.488C95.2585 109.935 99.8311 107.869 100.687 107.493C113.593 101.818 127.038 96.2219 140.898 93.3486C141.271 93.2712 141.642 93.1478 142.023 93.1431C142.802 93.1334 140.573 93.7123 139.831 93.9457C134.356 95.6667 128.875 97.3004 123.523 99.3881C117.422 101.768 111.403 104.404 105.454 107.141C104.059 107.782 101.262 109.098 99.7962 109.901C99.275 110.186 97.8121 111.008 98.4062 111.017C99.7184 111.037 100.952 110.372 102.204 109.979C112.652 106.703 97.6674 111.337 110.152 107.454C116.953 105.338 123.777 103.265 130.669 101.463C131.179 101.33 137.795 99.0957 138.402 100.308C139.013 101.532 132.328 105.015 131.922 105.261C128.5 107.33 125.038 109.332 121.644 111.447C121 111.848 118.555 113.347 117.689 114.08C116.92 114.732 117.726 114.5 118.179 114.404C120.334 113.946 134.76 108.272 135.602 110.273C136.199 111.689 129.798 115.314 129.122 115.784C127.558 116.872 125.72 118.141 124.169 119.278C123.377 119.86 122.414 120.317 121.889 121.148C121.652 121.523 122.77 120.993 123.181 120.825C125.59 119.838 124.353 120.278 127.076 119.219C129.125 118.423 131.851 116.988 134.114 116.988C134.692 116.988 133.722 118.128 133.292 118.515C131.554 120.082 129.514 121.505 128.359 123.605C127.986 124.283 127.662 125.818 128.946 125.092C129.376 124.849 130.161 123.796 130.649 123.761C131.397 123.708 129.517 124.744 128.946 125.229C128.422 125.675 127.038 127.206 127.478 126.678C128.584 125.351 128.845 123.638 129.475 122.078C129.663 121.612 130.622 120.143 129.847 119.728C128.561 119.041 126.362 119.755 125.089 120.042C123.054 120.5 121.021 121.248 118.942 121.49C118.486 121.544 117.4 121.76 117.572 121.334C118.156 119.882 120.283 119.754 121.722 119.141C126.273 117.204 128.345 116.53 132.901 114.638C133.966 114.196 137.087 113.035 135.935 112.974C134.294 112.888 132.678 113.426 131.06 113.718C128.087 114.255 126.363 114.629 123.386 115.284C121.313 115.741 115.934 117.931 113.754 116.557C112.315 115.649 116.904 113.588 117.063 113.483" stroke="white" stroke-width="3" stroke-linecap="round"/>
<path d="M101.91 114.541C101.809 114.524 102.067 114.398 102.165 114.364C104.306 113.625 106.505 112.995 108.664 112.328C116.671 109.856 124.688 107.415 132.646 104.791C135.549 103.834 139.361 103.133 141.955 101.405C143.604 100.305 138.367 103.095 136.64 104.067C133.891 105.613 131.21 107.253 128.623 109.059C127.7 109.704 124.786 111.815 127.85 110.743C130.468 109.826 133.023 108.727 135.641 107.806C137.814 107.042 140.37 105.8 142.709 105.653C143.337 105.613 140.655 107.698 140.594 107.747C139.885 108.319 139.112 108.944 138.46 109.588C138.082 109.962 136.988 110.88 137.521 110.88C138.038 110.88 139.767 109.311 140.164 109.049C140.584 108.771 144.086 106.448 141.593 107.16C141.125 107.294 138.127 108.631 138.206 107.297C138.333 105.158 140.057 102.639 141.103 100.856C141.829 99.6203 145.401 94.8682 141.583 95.9132C140.176 96.2983 138.823 96.8214 137.374 97.0487C136.144 97.2416 134.433 97.2262 136.229 95.9426C138.336 94.4358 140.585 93.1433 142.669 91.5965C142.804 91.4964 145.213 89.9452 145.058 89.4626C144.992 89.2573 144.62 89.4455 144.412 89.5018C143.653 89.7068 142.91 89.9677 142.16 90.2066C140.161 90.844 134.244 92.9931 136.238 92.3404C140.1 91.0766 151.292 86.2264 147.466 87.5931C136.518 91.503 125.885 96.2921 114.733 99.6426C109.336 101.264 103.873 102.401 98.3279 103.362C95.2705 103.892 92.2263 104.497 89.4107 105.858C82.2802 109.305 104.215 100.199 111.425 96.9214" stroke="white" stroke-width="3" stroke-linecap="round"/>
<path d="M46.9387 149.074C49.0419 151.265 51.1055 153.557 53.2816 155.701C55.252 157.642 57.7146 159.594 60.3782 160.468C63.8821 161.617 67.9692 161.14 71.5762 160.947C81.5004 160.419 91.1052 156.89 100.344 153.44C103.598 152.225 106.709 150.664 109.957 149.446C110.924 149.083 112.007 149.008 112.932 148.546C114 148.012 113.231 147.584 112.678 146.862C111.088 144.786 109.738 142.542 108.253 140.392C107.015 138.599 105.747 136.618 103.31 136.966C101.123 137.278 98.9507 138.299 96.8988 139.051C91.393 141.069 85.8305 142.56 80.1606 144.043C74.0051 145.653 67.8873 147.439 61.5822 148.369C58.007 148.897 54.7571 149.675 51.3435 150.836" stroke="white" stroke-width="3" stroke-linecap="round"/>
<path d="M53.2816 151.893C53.1288 152.046 52.3352 152.685 52.9684 152.559C56.0121 151.95 58.8243 150.137 61.8563 149.368C63.9546 148.836 60.5929 150.716 60.3684 150.856C58.8675 151.788 57.2359 152.702 55.9636 153.949C55.3129 154.586 57.6195 153.17 58.3716 152.657C59.304 152.02 60.6369 151.084 61.5822 150.464C62.3584 149.955 64.2292 148.333 64.088 149.25C63.8749 150.636 61.7268 152.409 60.8774 153.45C60.4098 154.022 59.1076 155.683 59.7811 155.378C61.7065 154.506 63.4514 152.782 65.106 151.502C65.7813 150.979 67.198 149.869 67.9153 149.338C68.6242 148.814 70.155 147.116 70.196 147.997C70.238 148.901 67.3792 151.316 66.8679 151.913C65.6958 153.282 63.9103 154.878 63.1875 156.572C62.6681 157.789 65.245 154.902 66.2023 153.988C68.0581 152.216 69.9533 150.482 71.9579 148.878C74.8207 146.588 67.1265 154.394 64.6753 157.12C64.4804 157.337 63.9014 157.992 64.1076 157.786C64.8761 157.017 65.6215 156.226 66.3785 155.446C67.5283 154.262 68.6291 153.127 69.7947 151.962C70.3416 151.415 70.7553 150.602 71.4979 150.386C71.9561 150.252 71.088 151.252 70.8225 151.648C70.0465 152.808 69.5973 153.381 68.7767 154.536C68.2053 155.34 66.6375 157.68 67.5042 157.208C69.5219 156.111 71.3113 154.108 73.0053 152.598C73.988 151.722 75.3722 150.461 76.3921 149.593C76.6314 149.389 78.3464 147.685 78.9664 147.762C79.259 147.799 78.7295 148.308 78.5553 148.546C77.9692 149.346 77.3498 150.121 76.7542 150.914C75.3666 152.763 73.342 154.851 72.5844 157.081C72.2521 158.059 74.5317 156.241 75.2468 155.495C77.7199 152.917 80.0031 150.166 82.5588 147.665C84.561 145.705 81.988 149.016 81.9812 149.025C80.6478 150.829 79.0817 152.585 78.0267 154.575C77.0338 156.449 78.6657 155.537 79.4656 154.859C82.0907 152.634 84.2045 149.795 86.621 147.351C86.8187 147.151 88.1625 145.825 88.5395 145.492C88.6167 145.423 88.5023 145.702 88.4416 145.785C86.9606 147.823 85.4886 149.865 84.076 151.952C83.472 152.844 81.7931 155.429 82.7252 154.888C84.6838 153.753 86.2763 151.445 87.776 149.818C89.9081 147.505 92.0768 145.236 94.3342 143.044C94.4468 142.935 94.778 142.601 94.667 142.712C93.8625 143.516 93.3521 144.063 92.5723 144.983C90.3593 147.592 88.2112 150.327 86.3273 153.185C86.2889 153.244 85.0638 155.14 84.9961 155.593C84.8109 156.832 86.8479 153.9 87.6879 152.97C90.3225 150.054 92.9642 147.136 95.7438 144.356C96.0285 144.071 96.8986 143.27 96.703 143.622C96.1348 144.645 95.388 145.558 94.7355 146.529C94.1569 147.391 91.1388 150.947 91.8088 152.255C92.3401 153.293 97.6377 147.507 97.8972 147.234C99.2985 145.758 103.133 141.078 102.165 142.868C101.4 144.282 100.247 145.513 99.4438 146.921C99.2263 147.302 97.6869 150.009 99.5221 149.329C102.064 148.387 104.201 145.66 106.051 143.779C107.01 142.804 105.125 144.752 105.082 144.806C104.711 145.276 103.181 146.974 103.849 147.684C104.632 148.516 106.706 146.594 107.206 146.187C107.862 145.652 109.488 143.809 107.823 145.394C104.909 148.166 108.561 147.074 108.841 145.394C108.991 144.492 107.564 144.523 107.059 144.415C106.011 144.19 105.863 143.637 105.434 142.78C105.084 142.08 104.976 142.417 104.416 142.242C104.08 142.137 104.627 141.137 104.602 140.891C104.5 139.864 101.144 142.429 100.814 142.692C99.9078 143.415 100.497 143.268 100.403 142.907C100.31 142.549 99.5636 142.502 99.5417 142.261C99.4735 141.512 104.845 138.55 100.197 140.695C98.4471 141.503 96.7423 142.436 94.9509 143.152C93.9833 143.539 93.8714 143.318 94.5104 142.575C95.164 141.814 95.9729 141.14 96.5562 140.323C97.1934 139.431 94.6929 141.48 93.7371 142.017C89.0714 144.637 83.7406 145.662 79.0056 148.076C76.0285 149.593 85.4568 146.321 88.6374 145.296C91.4606 144.386 94.2657 143.425 97.1141 142.594C97.7953 142.396 102.191 140.635 102.87 141.596C103.25 142.134 101.856 142.562 103.672 142.457C104.334 142.419 107.724 142.344 106.903 141.008C106.707 140.691 104.99 138.575 105.336 139.56C106.051 141.588 108.615 142.869 109.839 144.611C111.032 146.309 111.239 147.681 109.154 146.04C108.093 145.204 106.933 144.488 105.904 143.612C104.66 142.554 103.845 141.134 102.674 140.01C101.097 138.496 103.302 139.576 104.387 139.785C105.262 139.953 106.082 139.892 106.942 139.687C107.114 139.646 106.935 139.666 106.628 139.853C105.786 140.369 105.071 141.089 104.495 141.889C102.371 144.841 104.175 146.56 107.255 147.058C108.82 147.311 107.709 147.714 106.785 148.252C104.386 149.648 101.983 150.841 99.3361 151.697C95.6567 152.887 92.3098 153.91 89.0093 155.936C87.268 157.004 85.1836 157.785 83.1069 157.6C80.516 157.368 77.886 157.76 75.286 157.805C70.2863 157.892 65.4634 157.669 60.6229 156.474C59.6474 156.233 58.9923 155.634 57.9409 155.593C57.0523 155.559 57.8237 156.141 58.3324 156.298C59.9013 156.781 61.1325 157.219 62.8057 157.287C64.2335 157.344 65.4523 158.254 66.8484 158.099C68.984 157.862 71.5129 158.683 73.6219 157.913C74.9684 157.422 76.1464 156.64 77.2828 155.779C77.9437 155.278 79.9522 154.105 79.123 154.105C77.3476 154.105 75.7448 156.824 74.6008 154.536" stroke="white" stroke-width="3" stroke-linecap="round"/>
<path d="M64.7341 157.179C64.4734 157.642 64.3233 157.838 63.814 157.923C62.1369 158.202 59.417 158.453 57.9115 157.521C57.1498 157.05 56.9482 156.38 56.551 155.632C56.0911 154.767 58.5825 155.957 59.0959 156.122" stroke="white" stroke-width="3" stroke-linecap="round"/>
<path d="M65.0864 157.707C64.9555 158.306 65.0313 158.536 65.7129 158.588C68.6059 158.811 71.8178 158.446 74.6595 158.246C78.8667 157.95 83.1777 157.707 87.2474 156.494C90.7667 155.445 94.1497 153.836 97.6427 152.676C98.3286 152.448 100.687 152.093 100.325 151.188" stroke="white" stroke-width="3" stroke-linecap="round"/>
<path d="M86.2294 154.184C87.806 153.862 89.0433 152.989 90.4188 152.148C93.877 150.033 97.5007 147.987 100.736 145.531C101.777 144.74 100.625 145.419 100.403 145.57C99.4755 146.201 98.5764 146.69 97.5448 147.136C95.3429 148.087 92.098 150.205 91.0355 152.392C90.7538 152.972 92.3219 152.112 92.866 151.766C94.7767 150.55 96.4114 148.891 98.3866 147.782C98.6827 147.616 97.5069 148.601 97.6819 148.193C98.0475 147.34 100.679 143.906 97.9951 144.219C94.3023 144.649 90.7143 147.186 87.1202 148.164C84.1208 148.979 80.5655 149.594 77.6156 148.232C77.0061 147.951 76.724 147.564 76.0103 147.684C75.3715 147.792 74.1135 148.192 75.1685 147.283C75.6162 146.897 76.4219 146.934 76.9598 146.823C78.5286 146.498 79.9826 146.092 81.4722 145.55" stroke="white" stroke-width="3" stroke-linecap="round"/>
<path d="M21.5671 136.388C21.3715 136.764 20.7927 137.028 20.8624 137.445C21.0859 138.786 23.6627 140.857 24.582 141.635C27.2404 143.884 30.6927 143.733 33.881 142.986C38.9194 141.805 43.6813 139.401 48.1133 136.76C51.4547 134.769 54.5117 132.381 57.7255 130.202C61.3159 127.768 65.135 125.7 68.7571 123.321C70.1373 122.414 72.0557 121.084 72.3005 119.268C72.5064 117.741 70.6761 116.967 69.5597 116.498C63.6005 113.994 57.6924 115.78 51.9308 117.966C45.0905 120.563 38.7951 124.147 32.4714 127.814C28.6334 130.039 25.1436 132.749 21.4888 135.214C21.1199 135.462 19.8387 135.997 20.0401 136.702C20.2709 137.509 24.9706 133.969 25.3063 133.726C28.7729 131.215 31.9856 128.357 35.4863 125.895C35.9539 125.566 37.2042 124.884 36.1519 125.954C34.251 127.886 32.08 129.578 29.946 131.24C27.319 133.284 19.3992 139.067 22.5264 137.925C24.4773 137.213 26.2498 135.573 27.8807 134.362C32.3699 131.03 36.8184 127.601 41.5159 124.564C41.5739 124.526 47.3155 121.153 47.3498 121.49C47.4842 122.812 42.8262 125.883 42.1424 126.443C37.599 130.165 24.1496 141.521 28.8889 138.052C35.1584 133.464 40.86 128.279 47.4086 124.016C50.122 122.249 52.9526 120.349 55.9245 119.024C56.4888 118.772 56.1624 119.08 55.944 119.259C54.462 120.471 52.834 121.545 51.2848 122.665C43.5781 128.236 35.924 133.902 28.1547 139.384C27.6997 139.705 24.2699 142.068 27.0976 139.932C32.4096 135.919 37.86 132.09 43.454 128.479C47.0654 126.148 50.743 123.826 54.6911 122.097C54.9334 121.991 56.3013 121.427 56.7271 121.373C57.2835 121.302 56.7635 121.846 56.7075 121.901C54.5858 123.991 51.753 125.577 49.3271 127.265C44.8431 130.387 40.3483 133.481 36.1029 136.927C35.4648 137.444 33.5323 138.967 34.2236 138.522C35.0577 137.986 35.7681 137.278 36.5532 136.672C40.8258 133.376 45.3363 130.44 49.9927 127.716C53.3779 125.735 56.8798 123.655 60.5152 122.146C60.9325 121.973 61.6504 121.654 60.9166 122.322C59.9951 123.161 58.1557 124.396 57.3046 124.975C52.3769 128.33 47.4442 131.608 42.7199 135.253C42.0178 135.795 38.4683 138.621 37.3559 139.423C37.0275 139.659 36.7154 139.952 36.3281 140.069C36.1898 140.111 36.4214 139.788 36.514 139.677C39.0482 136.645 43.0032 134.46 46.3025 132.434C50.188 130.047 54.2231 127.784 58.2933 125.719C58.5296 125.599 59.2138 125.355 59.0763 125.582C58.8071 126.026 57.409 127.289 57.2361 127.442C54.4453 129.904 51.4236 132.113 48.4265 134.313C46.799 135.508 45.0315 137.079 43.1408 137.876C40.7283 138.893 47.1335 134.483 49.2292 132.913C54.5172 128.953 60.2058 125.595 65.5367 121.735C66.6327 120.941 67.1383 120.387 65.9674 119.65C65.1094 119.11 63.8379 118.742 62.8351 118.632C62.51 118.596 60.3201 118.733 61.6409 118.201C63.466 117.466 65.492 116.733 67.4356 116.42C68.0068 116.328 68.8732 116.243 69.1976 116.87C69.3208 117.108 69.0989 117.839 69.2954 117.957C69.4348 118.04 70.05 118.067 69.9513 118.084C69.0416 118.242 68.1826 118.467 67.3084 118.769C65.7087 119.322 64.6529 119.51 63.0113 119.474C61.2366 119.434 63.6858 118.652 64.225 118.613C65.332 118.532 64.283 119.282 63.951 119.454C62.7246 120.09 60.4868 121.169 59.0763 120.56C57.59 119.919 62.7486 118.046 62.2674 118.877C61.3752 120.418 57.5771 121.702 60.2607 119.131C62.3867 117.095 62.871 118.56 65.2137 119.229C66.0152 119.458 69.0197 119.12 69.5499 118.475C69.7938 118.179 70.4599 117.261 70.1568 117.497C68.924 118.456 67.836 119.735 66.77 120.864C66.7552 120.88 64.7572 123.364 64.4795 123.017C63.8045 122.173 64.9121 121.951 65.5367 121.676C66.7878 121.125 68.6194 119.792 70.01 119.758C70.3068 119.751 68.8236 121.824 68.6984 122.009C67.608 123.619 68.311 122.244 69.2954 121.432C70.8272 120.167 69.6477 120.656 68.5319 121.392C66.2355 122.907 64.1926 124.768 61.915 126.306C60.6871 127.136 59.5284 127.492 58.1171 127.833C57.7732 127.916 56.4481 128.602 57.2361 127.814C58.6566 126.393 60.0067 124.909 61.1515 123.252C61.6524 122.527 63.2028 120.587 62.8742 119.533C62.6984 118.968 58.4149 119.814 58.9099 119.014C59.2335 118.491 61.1667 116.877 61.0242 116.988C59.0169 118.549 56.9523 119.559 55.0631 121.353C48.9317 127.178 42.9216 133.311 35.9561 138.15C34.023 139.493 28.4745 143.76 30.0341 141.997C30.8608 141.063 34.6196 140.304 33.372 140.304C32.3995 140.304 30.1507 141.964 29.3098 141.243C28.8015 140.808 28.6753 139.376 29.1434 139.002C29.7331 138.53 30.4708 138.075 31.2283 137.945C31.4491 137.907 29.6331 138.872 29.2804 138.992C28.7703 139.165 24.7974 139.444 25.5217 137.778C25.5811 137.642 30.04 136.53 26.7061 138.542C25.9151 139.019 25.2662 138.603 25.3259 139.041C25.4216 139.743 24.6428 138.997 24.7386 138.326" stroke="white" stroke-width="3" stroke-linecap="round"/>
<path d="M127.82 157.294C128.032 156.572 128.293 155.931 128.857 155.398C132.989 151.496 138.248 147.842 143.347 145.382C148.151 143.066 148.68 145.225 150.518 149.027C152.185 152.477 154.512 157.317 159.17 156.331C161.986 155.735 164.166 153.641 166.771 152.553C168.585 151.796 169.878 152.215 171.69 152.598C174.255 153.139 176.795 152.871 179.379 152.642C182.69 152.349 184.777 152.78 187.824 153.828" stroke="#9B18A6" stroke-width="3" stroke-linecap="round"/>
<path d="M152.888 121.025C152.694 120.983 151.023 120.785 151.199 120.255C151.582 119.106 154.177 115.702 154.251 115.603C156.305 112.863 160.067 108.109 162.341 105.557C164.261 103.403 166.065 100.437 168.06 103.335C169.238 105.047 170.223 106.333 172.445 106.595C180.908 107.592 186.682 98.3609 192.091 93.2899" stroke="#9B18A6" stroke-width="3" stroke-linecap="round"/>
<path d="M57.1483 97.0235C56.0701 98.5775 55.6633 98.7292 53.6518 98.0014C50.0161 96.6858 46.1812 94.8309 43.4585 92.0158C38.7394 87.1363 40.7144 80.7987 39.1026 74.8293C37.7363 69.7689 32.7978 74.1801 29.739 71.5699C26.9073 69.1535 25.3012 65.8988 21.9459 64.2212" stroke="#9B18A6" stroke-width="3" stroke-linecap="round"/>
<path d="M59.5485 56.2206C59.0045 56.1919 57.4181 56.1279 58.3781 55.4205C60.0282 54.2047 60.1909 55.2202 60.23 57.0206C60.33 61.6181 60.2318 66.3508 61.2968 70.8587C62.4156 75.5943 64.9122 74.7626 68.4084 76.6368C73.8312 79.5439 72.1816 87.5582 71.5494 92.4898" stroke="#9B18A6" stroke-width="3" stroke-linecap="round"/>
<path d="M23.5459 113.558C23.3773 115.245 22.1749 114.952 20.968 114.062C16.8062 110.993 15.929 108.072 15.2194 103.394C15.0608 102.348 15.0631 99.8957 13.9749 99.2459C13.1892 98.7766 11.9618 99.4628 11.1302 99.4533C9.84784 99.4385 9.47997 98.1928 8.87823 97.2902" stroke="#9B18A6" stroke-width="3" stroke-linecap="round"/>
<path d="M56.4485 114.767C46.2663 115.305 34.1893 116.922 27.5918 125.589C22.8797 131.78 22.6963 141.318 28.9063 146.658C32.0351 149.348 36.032 151.014 39.901 152.309C46.5802 154.543 53.6141 156.181 60.5515 157.37C75.0287 159.851 90.6356 159 104.629 154.52C112.031 152.15 122.518 148.327 125.144 139.999C127.467 132.633 120.644 128.192 114.997 125.577C106.692 121.731 97.7579 118.171 88.8554 115.971C79.1384 113.569 70.0634 114.012 60.2076 114.988" stroke="black" stroke-width="3" stroke-linecap="round"/>
<path d="M77.6764 127.813C77.6402 127.198 77.2808 127.062 76.7673 126.806C75.0401 125.942 72.0054 126.154 70.2564 126.142C65.7106 126.111 61.5669 126.699 57.3207 128.329C52.3674 130.231 45.1886 132.998 44.2621 139.09C43.3803 144.888 56.9642 145.364 60.011 145.527C68.1307 145.964 75.9503 145.108 83.6959 142.641C86.3468 141.796 94.8848 139.904 94.4449 135.847C94.0618 132.314 89.6993 129.947 86.767 128.894C82.2061 127.256 77.1062 127.276 72.3694 126.486" stroke="black" stroke-width="3" stroke-linecap="round"/>
<path d="M77.4552 109.902C77.2023 109.951 76.1098 110.355 75.9074 110C75.7126 109.659 75.8307 108.235 75.8337 108.158C75.97 104.613 76.2575 101.026 77.0867 97.5682C79.6255 86.9825 84.812 76.2825 91.2632 67.5814C95.3339 62.091 100.125 57.027 105.317 52.5818C110.861 47.8348 117.328 43.5345 124.849 43.0489C138.638 42.1589 149.749 53.5452 153.485 65.9967C156.935 77.4958 154.904 89.4334 150.77 100.394C147.598 108.805 143.449 116.442 138.105 123.673C135.701 126.925 132.869 129.838 130.525 133.12" stroke="black" stroke-width="3" stroke-linecap="round"/>
<path d="M25.2701 136.879C23.8312 135.994 23.4558 137.052 22.764 138.476C20.2792 143.592 17.7999 150.595 23.3291 154.643C28.1411 158.166 33.6178 160.42 38.2918 164.249C43.3636 168.405 48.8598 172.505 50.9204 178.893" stroke="black" stroke-width="3" stroke-linecap="round"/>
<path d="M125.66 141.744C124.741 141.744 124.241 141.661 123.486 142.309C119.634 145.611 116.17 150.004 113.842 154.52C111.673 158.73 109.339 162.956 108.916 167.75C108.665 170.598 109.26 173.379 109.076 176.239" stroke="black" stroke-width="3" stroke-linecap="round"/>
<path d="M52.2471 179.998C58.1246 185.596 65.6074 185.869 73.4382 186.62C82.0495 187.445 91.204 188.469 99.5553 185.698C103.878 184.264 108.276 182.525 110.845 178.672" stroke="black" stroke-width="3" stroke-linecap="round"/>
<path d="M7.93484 20.48C7.93484 20.3867 7.96151 20.3133 8.01484 20.26C8.06818 20.1933 8.15484 20.16 8.27484 20.16H19.5148C19.6348 20.16 19.7215 20.1933 19.7748 20.26C19.8282 20.3133 19.8548 20.3867 19.8548 20.48V22.04C19.8548 22.2267 19.7482 22.32 19.5348 22.32H15.6948C15.5482 22.32 15.4748 22.3867 15.4748 22.52V34.66C15.4748 34.8867 15.3748 35 15.1748 35H12.7948C12.6082 35 12.5148 34.8933 12.5148 34.68V22.56C12.5148 22.4 12.4415 22.32 12.2948 22.32H8.27484C8.04818 22.32 7.93484 22.2267 7.93484 22.04V20.48ZM22.2338 35C21.9804 35 21.8538 34.88 21.8538 34.64V20.5C21.8538 20.2733 21.9538 20.16 22.1538 20.16H24.1338C24.3071 20.16 24.3938 20.26 24.3938 20.46V25.66C24.3938 25.74 24.4138 25.7867 24.4538 25.8C24.4938 25.8133 24.5471 25.7933 24.6138 25.74C25.0538 25.3667 25.4604 25.0733 25.8338 24.86C26.2071 24.6333 26.5804 24.4667 26.9538 24.36C27.3271 24.2533 27.7138 24.2 28.1138 24.2C29.1404 24.2 29.9271 24.48 30.4738 25.04C31.0204 25.6 31.2938 26.3667 31.2938 27.34V34.58C31.2938 34.86 31.1538 35 30.8737 35H29.0338C28.9138 35 28.8271 34.9733 28.7738 34.92C28.7204 34.8667 28.6938 34.7733 28.6938 34.64V27.76C28.6938 27.24 28.5538 26.84 28.2738 26.56C28.0071 26.2667 27.5938 26.12 27.0338 26.12C26.7138 26.12 26.4138 26.1733 26.1338 26.28C25.8671 26.3733 25.6004 26.52 25.3338 26.72C25.0671 26.92 24.7738 27.1733 24.4538 27.48V34.6C24.4538 34.8667 24.3071 35 24.0138 35H22.2338ZM35.8497 30.52C35.8497 31.0667 35.9764 31.56 36.2297 32C36.483 32.4267 36.8297 32.7667 37.2697 33.02C37.723 33.26 38.2164 33.38 38.7497 33.38C39.2964 33.38 39.7897 33.2667 40.2297 33.04C40.683 32.8133 41.1097 32.4467 41.5097 31.94C41.563 31.8733 41.6097 31.84 41.6497 31.84C41.6897 31.8267 41.7564 31.8467 41.8497 31.9L43.0697 32.44C43.243 32.52 43.263 32.64 43.1297 32.8C42.7297 33.3867 42.2964 33.86 41.8297 34.22C41.3764 34.5667 40.8697 34.82 40.3097 34.98C39.763 35.1267 39.143 35.2 38.4497 35.2C37.4364 35.2 36.5297 34.9733 35.7297 34.52C34.9297 34.0667 34.2964 33.44 33.8297 32.64C33.3764 31.8267 33.1497 30.8933 33.1497 29.84C33.1497 28.68 33.383 27.68 33.8497 26.84C34.3297 26 34.9697 25.3533 35.7697 24.9C36.5697 24.4333 37.4497 24.2 38.4097 24.2C39.423 24.2 40.303 24.42 41.0497 24.86C41.8097 25.3 42.403 25.9333 42.8297 26.76C43.2564 27.5733 43.4697 28.5667 43.4697 29.74C43.4697 29.8733 43.4564 29.98 43.4297 30.06C43.4164 30.14 43.323 30.1867 43.1497 30.2H36.0697C35.9897 30.2 35.9297 30.2267 35.8897 30.28C35.863 30.3333 35.8497 30.4133 35.8497 30.52ZM40.5897 28.72C40.723 28.72 40.8097 28.7067 40.8497 28.68C40.903 28.64 40.9297 28.56 40.9297 28.44C40.9297 28.0267 40.8364 27.62 40.6497 27.22C40.463 26.82 40.1897 26.4933 39.8297 26.24C39.4697 25.9733 39.0297 25.84 38.5097 25.84C37.9764 25.84 37.5097 25.9733 37.1097 26.24C36.7097 26.4933 36.403 26.84 36.1897 27.28C35.9897 27.7067 35.8897 28.1867 35.8897 28.72H40.5897ZM49.8691 20.5C49.8691 20.2733 49.9691 20.16 50.1691 20.16H52.5491C52.7357 20.16 52.8291 20.2667 52.8291 20.48V32.56C52.8291 32.72 52.9024 32.8 53.0491 32.8H59.6091C59.8224 32.8 59.9291 32.8933 59.9291 33.08V34.7C59.9291 34.78 59.9024 34.8533 59.8491 34.92C59.7957 34.9733 59.7091 35 59.5891 35H50.2491C50.1024 35 50.0024 34.9733 49.9491 34.92C49.8957 34.8533 49.8691 34.76 49.8691 34.64V20.5ZM67.7719 33.9C67.3185 34.3 66.8252 34.62 66.2919 34.86C65.7585 35.0867 65.1519 35.2 64.4719 35.2C63.4452 35.2 62.6385 34.9333 62.0519 34.4C61.4785 33.8533 61.1919 33.1467 61.1919 32.28C61.1919 31.5467 61.4119 30.9133 61.8519 30.38C62.2919 29.8333 62.9319 29.4067 63.7719 29.1C64.6119 28.7933 65.6185 28.6133 66.7919 28.56L67.7919 28.5C67.8719 28.4867 67.9452 28.46 68.0119 28.42C68.0785 28.38 68.1119 28.3067 68.1119 28.2V27.74C68.1119 27.1533 67.9385 26.7 67.5919 26.38C67.2452 26.0467 66.7652 25.88 66.1519 25.88C65.6852 25.88 65.2452 25.9867 64.8319 26.2C64.4319 26.4 64.0852 26.7333 63.7919 27.2C63.7519 27.28 63.7052 27.3333 63.6519 27.36C63.6119 27.3867 63.5319 27.3867 63.4119 27.36L61.7319 26.94C61.6652 26.9133 61.6119 26.8733 61.5719 26.82C61.5452 26.7667 61.5719 26.66 61.6519 26.5C62.0119 25.74 62.5785 25.1667 63.3519 24.78C64.1385 24.3933 65.1119 24.2 66.2719 24.2C67.2985 24.2 68.1252 24.34 68.7519 24.62C69.3919 24.9 69.8585 25.2933 70.1519 25.8C70.4452 26.2933 70.5919 26.88 70.5919 27.56V34.6C70.5919 34.7467 70.5652 34.8533 70.5119 34.92C70.4719 34.9733 70.3852 35 70.2519 35H68.5519C68.4319 35 68.3452 34.9533 68.2919 34.86C68.2385 34.7667 68.2052 34.6533 68.1919 34.52L68.1519 33.92C68.1252 33.6933 67.9985 33.6867 67.7719 33.9ZM68.1119 30.16C68.1119 29.92 68.0119 29.8067 67.8119 29.82L66.9919 29.88C66.5652 29.9067 66.1519 29.9733 65.7519 30.08C65.3652 30.1733 65.0185 30.3067 64.7119 30.48C64.4185 30.64 64.1785 30.8467 63.9919 31.1C63.8185 31.34 63.7319 31.6267 63.7319 31.96C63.7319 32.4133 63.8919 32.7733 64.2119 33.04C64.5452 33.3067 64.9919 33.44 65.5519 33.44C65.9119 33.44 66.2452 33.38 66.5519 33.26C66.8585 33.14 67.1252 32.9867 67.3519 32.8C67.5785 32.6133 67.7585 32.42 67.8919 32.22C68.0385 32.0067 68.1119 31.7933 68.1119 31.58V30.16ZM82.0717 24.4C82.1917 24.4 82.2717 24.44 82.3117 24.52C82.3517 24.6 82.3517 24.6933 82.3117 24.8L78.3317 34.62C78.2251 34.8733 78.0317 35 77.7517 35H76.5717C76.2784 35 76.0784 34.88 75.9717 34.64L71.9917 24.82C71.9517 24.7 71.9584 24.6 72.0117 24.52C72.0651 24.44 72.1517 24.4 72.2717 24.4H74.3717C74.4651 24.4 74.5451 24.4267 74.6117 24.48C74.6917 24.5333 74.7451 24.6067 74.7717 24.7L77.3517 31.26C77.4451 31.5133 77.5517 31.5067 77.6717 31.24L80.2317 24.68C80.2717 24.6 80.3184 24.5333 80.3717 24.48C80.4384 24.4267 80.5184 24.4 80.6117 24.4H82.0717ZM89.5883 33.9C89.1349 34.3 88.6416 34.62 88.1083 34.86C87.5749 35.0867 86.9683 35.2 86.2883 35.2C85.2616 35.2 84.4549 34.9333 83.8683 34.4C83.2949 33.8533 83.0083 33.1467 83.0083 32.28C83.0083 31.5467 83.2283 30.9133 83.6683 30.38C84.1083 29.8333 84.7483 29.4067 85.5883 29.1C86.4283 28.7933 87.4349 28.6133 88.6083 28.56L89.6083 28.5C89.6883 28.4867 89.7616 28.46 89.8283 28.42C89.8949 28.38 89.9283 28.3067 89.9283 28.2V27.74C89.9283 27.1533 89.7549 26.7 89.4083 26.38C89.0616 26.0467 88.5816 25.88 87.9683 25.88C87.5016 25.88 87.0616 25.9867 86.6483 26.2C86.2483 26.4 85.9016 26.7333 85.6083 27.2C85.5683 27.28 85.5216 27.3333 85.4683 27.36C85.4283 27.3867 85.3483 27.3867 85.2283 27.36L83.5483 26.94C83.4816 26.9133 83.4283 26.8733 83.3883 26.82C83.3616 26.7667 83.3883 26.66 83.4683 26.5C83.8283 25.74 84.3949 25.1667 85.1683 24.78C85.9549 24.3933 86.9283 24.2 88.0883 24.2C89.1149 24.2 89.9416 24.34 90.5683 24.62C91.2083 24.9 91.6749 25.2933 91.9683 25.8C92.2616 26.2933 92.4083 26.88 92.4083 27.56V34.6C92.4083 34.7467 92.3816 34.8533 92.3283 34.92C92.2883 34.9733 92.2016 35 92.0683 35H90.3683C90.2483 35 90.1616 34.9533 90.1083 34.86C90.0549 34.7667 90.0216 34.6533 90.0083 34.52L89.9683 33.92C89.9416 33.6933 89.8149 33.6867 89.5883 33.9ZM89.9283 30.16C89.9283 29.92 89.8283 29.8067 89.6283 29.82L88.8083 29.88C88.3816 29.9067 87.9683 29.9733 87.5683 30.08C87.1816 30.1733 86.8349 30.3067 86.5283 30.48C86.2349 30.64 85.9949 30.8467 85.8083 31.1C85.6349 31.34 85.5483 31.6267 85.5483 31.96C85.5483 32.4133 85.7083 32.7733 86.0283 33.04C86.3616 33.3067 86.8083 33.44 87.3683 33.44C87.7283 33.44 88.0616 33.38 88.3683 33.26C88.6749 33.14 88.9416 32.9867 89.1683 32.8C89.3949 32.6133 89.5749 32.42 89.7083 32.22C89.8549 32.0067 89.9283 31.7933 89.9283 31.58V30.16ZM98.4681 26.22C98.3348 26.22 98.2681 26.2933 98.2681 26.44V31.78C98.2681 32.3 98.3748 32.66 98.5881 32.86C98.8015 33.06 99.1348 33.16 99.5881 33.16H100.768C100.848 33.16 100.915 33.1867 100.968 33.24C101.021 33.2933 101.048 33.36 101.048 33.44L101.028 34.48C101.028 34.6933 100.901 34.8267 100.648 34.88C100.448 34.9067 100.215 34.9333 99.9481 34.96C99.6815 34.9733 99.4148 34.9867 99.1481 35C98.8948 35 98.6615 35 98.4481 35C97.5548 35 96.8681 34.7933 96.3881 34.38C95.9081 33.9533 95.6681 33.3133 95.6681 32.46V26.48C95.6681 26.3067 95.5881 26.22 95.4281 26.22H94.0881C93.8748 26.22 93.7681 26.12 93.7681 25.92V24.66C93.7681 24.4867 93.8681 24.4 94.0681 24.4H95.5481C95.6681 24.4 95.7281 24.3333 95.7281 24.2L95.9881 21.12C96.0015 20.9067 96.0948 20.8 96.2681 20.8H98.0481C98.2348 20.8 98.3281 20.9133 98.3281 21.14V24.2C98.3281 24.32 98.3881 24.38 98.5081 24.38H100.768C100.968 24.38 101.068 24.4733 101.068 24.66V25.92C101.068 26.12 100.955 26.22 100.728 26.22H98.4681ZM107.335 35.2C106.295 35.2 105.382 34.9667 104.595 34.5C103.809 34.0333 103.189 33.3933 102.735 32.58C102.295 31.7533 102.075 30.8133 102.075 29.76C102.075 28.6533 102.302 27.6867 102.755 26.86C103.222 26.02 103.849 25.3667 104.635 24.9C105.435 24.4333 106.342 24.2 107.355 24.2C108.409 24.2 109.329 24.44 110.115 24.92C110.902 25.3867 111.515 26.04 111.955 26.88C112.395 27.7067 112.615 28.66 112.615 29.74C112.615 30.8067 112.389 31.7533 111.935 32.58C111.495 33.3933 110.882 34.0333 110.095 34.5C109.309 34.9667 108.389 35.2 107.335 35.2ZM107.355 33.42C107.929 33.42 108.409 33.28 108.795 33C109.182 32.7067 109.475 32.2867 109.675 31.74C109.875 31.18 109.975 30.5 109.975 29.7C109.975 28.8867 109.869 28.2 109.655 27.64C109.455 27.08 109.162 26.6533 108.775 26.36C108.389 26.0667 107.915 25.92 107.355 25.92C106.809 25.92 106.335 26.0667 105.935 26.36C105.535 26.6533 105.229 27.08 105.015 27.64C104.815 28.2 104.715 28.8867 104.715 29.7C104.715 30.5 104.815 31.18 105.015 31.74C105.229 32.2867 105.535 32.7067 105.935 33C106.335 33.28 106.809 33.42 107.355 33.42ZM114.948 35C114.815 35 114.721 34.9733 114.668 34.92C114.615 34.8533 114.588 34.76 114.588 34.64V24.74C114.588 24.5133 114.681 24.4 114.868 24.4H116.808C116.995 24.4 117.088 24.5 117.088 24.7V25.92C117.088 26 117.115 26.0533 117.168 26.08C117.221 26.0933 117.281 26.06 117.348 25.98C117.641 25.5933 117.955 25.2733 118.288 25.02C118.635 24.7533 118.981 24.5533 119.328 24.42C119.688 24.2733 120.035 24.2 120.368 24.2C120.848 24.2 121.088 24.3067 121.088 24.52V26.44C121.088 26.6267 121.001 26.7067 120.828 26.68C120.628 26.6267 120.415 26.5933 120.188 26.58C119.975 26.5533 119.775 26.54 119.588 26.54C119.335 26.54 119.061 26.5933 118.768 26.7C118.488 26.8067 118.228 26.96 117.988 27.16C117.748 27.3467 117.555 27.5533 117.408 27.78C117.261 28.0067 117.188 28.24 117.188 28.48V34.6C117.188 34.8667 117.035 35 116.728 35H114.948ZM123.651 38.3C123.251 38.3 122.951 38.28 122.751 38.24C122.551 38.2133 122.451 38.12 122.451 37.96V36.68C122.451 36.6 122.491 36.5267 122.571 36.46C122.651 36.4067 122.804 36.38 123.031 36.38H124.351C124.617 36.38 124.857 36.3067 125.071 36.16C125.297 36.0133 125.477 35.8333 125.611 35.62C125.757 35.4067 125.851 35.1867 125.891 34.96C125.944 34.72 125.931 34.5067 125.851 34.32L122.011 24.84C121.971 24.72 121.977 24.62 122.031 24.54C122.084 24.4467 122.177 24.4 122.311 24.4H124.391C124.484 24.4 124.564 24.4267 124.631 24.48C124.711 24.5333 124.764 24.6067 124.791 24.7L127.271 31.28C127.311 31.4 127.364 31.46 127.431 31.46C127.497 31.46 127.557 31.3867 127.611 31.24L130.071 24.68C130.111 24.6 130.157 24.5333 130.211 24.48C130.277 24.4267 130.357 24.4 130.451 24.4H131.911C132.017 24.4 132.097 24.4467 132.151 24.54C132.204 24.62 132.204 24.7067 132.151 24.8L127.951 35.32C127.697 35.9467 127.431 36.4533 127.151 36.84C126.884 37.2267 126.584 37.5267 126.251 37.74C125.917 37.9533 125.537 38.1 125.111 38.18C124.697 38.26 124.211 38.3 123.651 38.3ZM138.765 35C138.511 35 138.385 34.8667 138.385 34.6V20.5C138.385 20.2733 138.491 20.16 138.705 20.16H142.085C142.218 20.16 142.311 20.18 142.365 20.22C142.431 20.2467 142.478 20.32 142.505 20.44L146.025 29.88C146.065 29.9867 146.111 30.04 146.165 30.04C146.218 30.0267 146.265 29.9667 146.305 29.86L149.725 20.54C149.805 20.2867 149.938 20.16 150.125 20.16H153.625C153.811 20.16 153.905 20.2667 153.905 20.48V34.58C153.905 34.86 153.758 35 153.465 35H151.325C151.191 35 151.091 34.9733 151.025 34.92C150.971 34.8533 150.945 34.76 150.945 34.64V24.18C150.945 24.1 150.925 24.0667 150.885 24.08C150.845 24.08 150.811 24.12 150.785 24.2L146.985 34.7C146.918 34.9 146.785 35 146.585 35H145.165C144.938 35 144.791 34.9 144.725 34.7L140.965 24.32C140.938 24.2267 140.905 24.1867 140.865 24.2C140.825 24.2 140.805 24.2467 140.805 24.34V34.68C140.805 34.8 140.785 34.8867 140.745 34.94C140.705 34.98 140.611 35 140.465 35H138.765ZM161.457 35.2C160.417 35.2 159.503 34.9667 158.717 34.5C157.93 34.0333 157.31 33.3933 156.857 32.58C156.417 31.7533 156.197 30.8133 156.197 29.76C156.197 28.6533 156.423 27.6867 156.877 26.86C157.343 26.02 157.97 25.3667 158.757 24.9C159.557 24.4333 160.463 24.2 161.477 24.2C162.53 24.2 163.45 24.44 164.237 24.92C165.023 25.3867 165.637 26.04 166.077 26.88C166.517 27.7067 166.737 28.66 166.737 29.74C166.737 30.8067 166.51 31.7533 166.057 32.58C165.617 33.3933 165.003 34.0333 164.217 34.5C163.43 34.9667 162.51 35.2 161.457 35.2ZM161.477 33.42C162.05 33.42 162.53 33.28 162.917 33C163.303 32.7067 163.597 32.2867 163.797 31.74C163.997 31.18 164.097 30.5 164.097 29.7C164.097 28.8867 163.99 28.2 163.777 27.64C163.577 27.08 163.283 26.6533 162.897 26.36C162.51 26.0667 162.037 25.92 161.477 25.92C160.93 25.92 160.457 26.0667 160.057 26.36C159.657 26.6533 159.35 27.08 159.137 27.64C158.937 28.2 158.837 28.8867 158.837 29.7C158.837 30.5 158.937 31.18 159.137 31.74C159.35 32.2867 159.657 32.7067 160.057 33C160.457 33.28 160.93 33.42 161.477 33.42ZM179.029 24.04C179.149 24.04 179.243 24.0733 179.309 24.14C179.389 24.1933 179.429 24.2933 179.429 24.44V25.56C179.429 25.7333 179.389 25.8533 179.309 25.92C179.243 25.9867 179.136 26.0133 178.989 26C178.803 25.9733 178.623 25.9667 178.449 25.98C178.289 25.98 178.143 26 178.009 26.04C177.663 26.12 177.529 26.2733 177.609 26.5C177.649 26.62 177.696 26.7667 177.749 26.94C177.816 27.1133 177.849 27.32 177.849 27.56C177.849 28.16 177.676 28.7067 177.329 29.2C176.996 29.6933 176.483 30.0867 175.789 30.38C175.096 30.6733 174.229 30.82 173.189 30.82C172.603 30.82 172.136 30.8533 171.789 30.92C171.456 30.9867 171.216 31.08 171.069 31.2C170.923 31.3067 170.849 31.4267 170.849 31.56C170.849 31.7467 170.963 31.88 171.189 31.96C171.429 32.0267 171.796 32.08 172.289 32.12L175.049 32.28C176.356 32.3467 177.309 32.64 177.909 33.16C178.509 33.6667 178.809 34.3267 178.809 35.14C178.809 36.14 178.336 36.9467 177.389 37.56C176.456 38.1867 175.096 38.5 173.309 38.5C171.456 38.5 170.056 38.2733 169.109 37.82C168.176 37.38 167.709 36.72 167.709 35.84C167.709 35.3733 167.883 34.98 168.229 34.66C168.576 34.34 169.036 34.06 169.609 33.82C169.783 33.7533 169.783 33.68 169.609 33.6C169.303 33.4533 169.043 33.2733 168.829 33.06C168.629 32.8333 168.529 32.56 168.529 32.24C168.529 31.9867 168.609 31.76 168.769 31.56C168.929 31.3467 169.143 31.1533 169.409 30.98C169.689 30.8067 170.003 30.6533 170.349 30.52C170.416 30.4933 170.456 30.46 170.469 30.42C170.496 30.3667 170.463 30.32 170.369 30.28C169.769 29.9867 169.309 29.62 168.989 29.18C168.669 28.7267 168.509 28.1933 168.509 27.58C168.509 26.5667 168.923 25.76 169.749 25.16C170.589 24.5467 171.803 24.24 173.389 24.24C174.109 24.24 174.723 24.32 175.229 24.48C175.749 24.64 176.176 24.86 176.509 25.14C176.603 25.2067 176.696 25.24 176.789 25.24C176.883 25.2267 176.963 25.1867 177.029 25.12C177.189 24.9333 177.383 24.76 177.609 24.6C177.836 24.4267 178.076 24.2933 178.329 24.2C178.583 24.0933 178.816 24.04 179.029 24.04ZM173.169 29.46C173.956 29.46 174.536 29.2867 174.909 28.94C175.283 28.5933 175.469 28.1467 175.469 27.6C175.469 27 175.283 26.52 174.909 26.16C174.536 25.8 173.956 25.62 173.169 25.62C172.436 25.62 171.869 25.8 171.469 26.16C171.069 26.52 170.869 27 170.869 27.6C170.869 28.1467 171.069 28.5933 171.469 28.94C171.869 29.2867 172.436 29.46 173.169 29.46ZM171.589 34.16C171.336 34.1467 171.076 34.2 170.809 34.32C170.556 34.4267 170.336 34.5867 170.149 34.8C169.976 35 169.889 35.2333 169.889 35.5C169.889 35.8467 170.009 36.1467 170.249 36.4C170.503 36.6533 170.896 36.84 171.429 36.96C171.963 37.0933 172.656 37.16 173.509 37.16C174.483 37.16 175.223 37.02 175.729 36.74C176.236 36.4733 176.489 36.08 176.489 35.56C176.489 35.2133 176.349 34.9267 176.069 34.7C175.803 34.4733 175.369 34.3467 174.769 34.32L171.589 34.16ZM185.251 33.3C185.717 33.3 186.157 33.1733 186.571 32.92C186.997 32.6667 187.404 32.3333 187.791 31.92V24.8C187.791 24.5333 187.944 24.4 188.251 24.4H190.051C190.291 24.4 190.411 24.5267 190.411 24.78L190.371 34.68C190.371 34.8933 190.277 35 190.091 35H188.131C187.944 35 187.851 34.9 187.851 34.7V33.64C187.851 33.5733 187.831 33.5333 187.791 33.52C187.764 33.4933 187.717 33.5133 187.651 33.58C187.024 34.1667 186.431 34.5867 185.871 34.84C185.311 35.08 184.731 35.2 184.131 35.2C183.531 35.2 182.997 35.0733 182.531 34.82C182.064 34.5667 181.697 34.2 181.431 33.72C181.164 33.24 181.031 32.68 181.031 32.04V24.82C181.031 24.54 181.171 24.4 181.451 24.4H183.291C183.517 24.4 183.631 24.5267 183.631 24.78V31.6C183.631 32.1067 183.771 32.52 184.051 32.84C184.344 33.1467 184.744 33.3 185.251 33.3ZM195.508 34.56C195.508 34.72 195.475 34.8333 195.408 34.9C195.342 34.9667 195.222 35 195.048 35H193.288C193.022 35 192.888 34.88 192.888 34.64L192.948 20.5C192.948 20.2733 193.048 20.16 193.248 20.16H195.228C195.415 20.16 195.508 20.2667 195.508 20.48V34.56Z" fill="black"/>
</svg>
