<svg width="204" height="204" viewBox="0 0 204 204" fill="none" xmlns="http://www.w3.org/2000/svg">
<rect x="0.5" y="0.5" width="203" height="203" fill="#EDE7E2" stroke="black"/>
<path d="M32.595 20.48C32.595 20.3867 32.6217 20.3133 32.675 20.26C32.7283 20.1933 32.815 20.16 32.935 20.16H44.175C44.295 20.16 44.3817 20.1933 44.435 20.26C44.4883 20.3133 44.515 20.3867 44.515 20.48V22.04C44.515 22.2267 44.4083 22.32 44.195 22.32H40.355C40.2083 22.32 40.135 22.3867 40.135 22.52V34.66C40.135 34.8867 40.035 35 39.835 35H37.455C37.2683 35 37.175 34.8933 37.175 34.68V22.56C37.175 22.4 37.1017 22.32 36.955 22.32H32.935C32.7083 22.32 32.595 22.2267 32.595 22.04V20.48ZM46.8939 35C46.6406 35 46.5139 34.88 46.5139 34.64V20.5C46.5139 20.2733 46.6139 20.16 46.8139 20.16H48.7939C48.9672 20.16 49.0539 20.26 49.0539 20.46V25.66C49.0539 25.74 49.0739 25.7867 49.1139 25.8C49.1539 25.8133 49.2072 25.7933 49.2739 25.74C49.7139 25.3667 50.1206 25.0733 50.4939 24.86C50.8672 24.6333 51.2406 24.4667 51.6139 24.36C51.9872 24.2533 52.3739 24.2 52.7739 24.2C53.8006 24.2 54.5872 24.48 55.1339 25.04C55.6806 25.6 55.9539 26.3667 55.9539 27.34V34.58C55.9539 34.86 55.8139 35 55.5339 35H53.6939C53.5739 35 53.4872 34.9733 53.4339 34.92C53.3806 34.8667 53.3539 34.7733 53.3539 34.64V27.76C53.3539 27.24 53.2139 26.84 52.9339 26.56C52.6672 26.2667 52.2539 26.12 51.6939 26.12C51.3739 26.12 51.0739 26.1733 50.7939 26.28C50.5272 26.3733 50.2606 26.52 49.9939 26.72C49.7272 26.92 49.4339 27.1733 49.1139 27.48V34.6C49.1139 34.8667 48.9672 35 48.6739 35H46.8939ZM60.5098 30.52C60.5098 31.0667 60.6365 31.56 60.8898 32C61.1432 32.4267 61.4898 32.7667 61.9298 33.02C62.3832 33.26 62.8765 33.38 63.4098 33.38C63.9565 33.38 64.4498 33.2667 64.8898 33.04C65.3432 32.8133 65.7698 32.4467 66.1698 31.94C66.2232 31.8733 66.2698 31.84 66.3098 31.84C66.3498 31.8267 66.4165 31.8467 66.5098 31.9L67.7298 32.44C67.9032 32.52 67.9232 32.64 67.7898 32.8C67.3898 33.3867 66.9565 33.86 66.4898 34.22C66.0365 34.5667 65.5298 34.82 64.9698 34.98C64.4232 35.1267 63.8032 35.2 63.1098 35.2C62.0965 35.2 61.1898 34.9733 60.3898 34.52C59.5898 34.0667 58.9565 33.44 58.4898 32.64C58.0365 31.8267 57.8098 30.8933 57.8098 29.84C57.8098 28.68 58.0432 27.68 58.5098 26.84C58.9898 26 59.6298 25.3533 60.4298 24.9C61.2298 24.4333 62.1098 24.2 63.0698 24.2C64.0832 24.2 64.9632 24.42 65.7098 24.86C66.4698 25.3 67.0632 25.9333 67.4898 26.76C67.9165 27.5733 68.1298 28.5667 68.1298 29.74C68.1298 29.8733 68.1165 29.98 68.0898 30.06C68.0765 30.14 67.9832 30.1867 67.8098 30.2H60.7298C60.6498 30.2 60.5898 30.2267 60.5498 30.28C60.5232 30.3333 60.5098 30.4133 60.5098 30.52ZM65.2498 28.72C65.3832 28.72 65.4698 28.7067 65.5098 28.68C65.5632 28.64 65.5898 28.56 65.5898 28.44C65.5898 28.0267 65.4965 27.62 65.3098 27.22C65.1232 26.82 64.8498 26.4933 64.4898 26.24C64.1298 25.9733 63.6898 25.84 63.1698 25.84C62.6365 25.84 62.1698 25.9733 61.7698 26.24C61.3698 26.4933 61.0632 26.84 60.8498 27.28C60.6498 27.7067 60.5498 28.1867 60.5498 28.72H65.2498ZM86.2092 24.68C86.2092 25.6667 85.9759 26.4933 85.5092 27.16C85.0559 27.8133 84.4292 28.3067 83.6292 28.64C82.8292 28.9733 81.8959 29.14 80.8292 29.14H77.6892C77.5559 29.14 77.4892 29.2067 77.4892 29.34V34.6C77.4892 34.8667 77.3426 35 77.0492 35H74.8892C74.7559 35 74.6626 34.9733 74.6092 34.92C74.5559 34.8533 74.5292 34.76 74.5292 34.64V20.5C74.5292 20.2733 74.6292 20.16 74.8292 20.16H80.4892C81.5559 20.16 82.5226 20.32 83.3892 20.64C84.2559 20.96 84.9426 21.4533 85.4492 22.12C85.9559 22.7867 86.2092 23.64 86.2092 24.68ZM83.1692 24.62C83.1692 24.0733 83.0492 23.6333 82.8092 23.3C82.5826 22.9533 82.2492 22.7 81.8092 22.54C81.3826 22.38 80.8892 22.3 80.3292 22.3H77.8292C77.6026 22.3 77.4892 22.4067 77.4892 22.62V26.66C77.4892 26.8867 77.5759 27 77.7492 27H80.4492C81.2759 27 81.9359 26.8 82.4292 26.4C82.9226 25.9867 83.1692 25.3933 83.1692 24.62ZM92.4303 33.3C92.897 33.3 93.337 33.1733 93.7503 32.92C94.177 32.6667 94.5836 32.3333 94.9703 31.92V24.8C94.9703 24.5333 95.1236 24.4 95.4303 24.4H97.2303C97.4703 24.4 97.5903 24.5267 97.5903 24.78L97.5503 34.68C97.5503 34.8933 97.457 35 97.2703 35H95.3103C95.1236 35 95.0303 34.9 95.0303 34.7V33.64C95.0303 33.5733 95.0103 33.5333 94.9703 33.52C94.9436 33.4933 94.897 33.5133 94.8303 33.58C94.2036 34.1667 93.6103 34.5867 93.0503 34.84C92.4903 35.08 91.9103 35.2 91.3103 35.2C90.7103 35.2 90.177 35.0733 89.7103 34.82C89.2436 34.5667 88.877 34.2 88.6103 33.72C88.3436 33.24 88.2103 32.68 88.2103 32.04V24.82C88.2103 24.54 88.3503 24.4 88.6303 24.4H90.4703C90.697 24.4 90.8103 24.5267 90.8103 24.78V31.6C90.8103 32.1067 90.9503 32.52 91.2303 32.84C91.5236 33.1467 91.9236 33.3 92.4303 33.3ZM99.7081 35C99.5748 35 99.4815 34.98 99.4281 34.94C99.3748 34.8867 99.3481 34.7933 99.3481 34.66V33.94C99.3481 33.7933 99.3681 33.68 99.4081 33.6C99.4481 33.5067 99.5348 33.3733 99.6681 33.2L104.868 26.32C104.988 26.16 104.941 26.08 104.728 26.08H100.108C99.9881 26.08 99.9015 26.06 99.8481 26.02C99.8081 25.9667 99.7881 25.88 99.7881 25.76V24.68C99.7881 24.4933 99.8748 24.4 100.048 24.4H108.028C108.201 24.4 108.288 24.4867 108.288 24.66V25.46C108.288 25.58 108.268 25.6867 108.228 25.78C108.188 25.8733 108.121 25.9867 108.028 26.12L102.768 33.02C102.621 33.2067 102.655 33.3 102.868 33.3H108.048C108.248 33.3 108.348 33.3867 108.348 33.56V34.68C108.348 34.7733 108.321 34.8533 108.268 34.92C108.215 34.9733 108.128 35 108.008 35H99.7081ZM109.825 35C109.692 35 109.599 34.98 109.545 34.94C109.492 34.8867 109.465 34.7933 109.465 34.66V33.94C109.465 33.7933 109.485 33.68 109.525 33.6C109.565 33.5067 109.652 33.3733 109.785 33.2L114.985 26.32C115.105 26.16 115.059 26.08 114.845 26.08H110.225C110.105 26.08 110.019 26.06 109.965 26.02C109.925 25.9667 109.905 25.88 109.905 25.76V24.68C109.905 24.4933 109.992 24.4 110.165 24.4H118.145C118.319 24.4 118.405 24.4867 118.405 24.66V25.46C118.405 25.58 118.385 25.6867 118.345 25.78C118.305 25.8733 118.239 25.9867 118.145 26.12L112.885 33.02C112.739 33.2067 112.772 33.3 112.985 33.3H118.165C118.365 33.3 118.465 33.3867 118.465 33.56V34.68C118.465 34.7733 118.439 34.8533 118.385 34.92C118.332 34.9733 118.245 35 118.125 35H109.825ZM122.923 34.56C122.923 34.72 122.889 34.8333 122.823 34.9C122.756 34.9667 122.636 35 122.463 35H120.703C120.436 35 120.303 34.88 120.303 34.64L120.363 20.5C120.363 20.2733 120.463 20.16 120.663 20.16H122.643C122.829 20.16 122.923 20.2667 122.923 20.48V34.56ZM127.619 30.52C127.619 31.0667 127.746 31.56 127.999 32C128.253 32.4267 128.599 32.7667 129.039 33.02C129.493 33.26 129.986 33.38 130.519 33.38C131.066 33.38 131.559 33.2667 131.999 33.04C132.453 32.8133 132.879 32.4467 133.279 31.94C133.333 31.8733 133.379 31.84 133.419 31.84C133.459 31.8267 133.526 31.8467 133.619 31.9L134.839 32.44C135.013 32.52 135.033 32.64 134.899 32.8C134.499 33.3867 134.066 33.86 133.599 34.22C133.146 34.5667 132.639 34.82 132.079 34.98C131.533 35.1267 130.913 35.2 130.219 35.2C129.206 35.2 128.299 34.9733 127.499 34.52C126.699 34.0667 126.066 33.44 125.599 32.64C125.146 31.8267 124.919 30.8933 124.919 29.84C124.919 28.68 125.153 27.68 125.619 26.84C126.099 26 126.739 25.3533 127.539 24.9C128.339 24.4333 129.219 24.2 130.179 24.2C131.193 24.2 132.073 24.42 132.819 24.86C133.579 25.3 134.173 25.9333 134.599 26.76C135.026 27.5733 135.239 28.5667 135.239 29.74C135.239 29.8733 135.226 29.98 135.199 30.06C135.186 30.14 135.093 30.1867 134.919 30.2H127.839C127.759 30.2 127.699 30.2267 127.659 30.28C127.633 30.3333 127.619 30.4133 127.619 30.52ZM132.359 28.72C132.493 28.72 132.579 28.7067 132.619 28.68C132.673 28.64 132.699 28.56 132.699 28.44C132.699 28.0267 132.606 27.62 132.419 27.22C132.233 26.82 131.959 26.4933 131.599 26.24C131.239 25.9733 130.799 25.84 130.279 25.84C129.746 25.84 129.279 25.9733 128.879 26.24C128.479 26.4933 128.173 26.84 127.959 27.28C127.759 27.7067 127.659 28.1867 127.659 28.72H132.359ZM149.999 23.4C149.679 23.0533 149.285 22.7467 148.819 22.48C148.352 22.2133 147.712 22.08 146.899 22.08C146.005 22.08 145.325 22.2533 144.859 22.6C144.392 22.9467 144.159 23.4067 144.159 23.98C144.159 24.1667 144.199 24.3667 144.279 24.58C144.372 24.7933 144.545 25.0067 144.799 25.22C145.065 25.42 145.445 25.6 145.939 25.76L149.019 26.68C150.245 27.04 151.125 27.58 151.659 28.3C152.205 29.0067 152.479 29.8333 152.479 30.78C152.479 31.6867 152.245 32.4733 151.779 33.14C151.312 33.8067 150.652 34.32 149.799 34.68C148.945 35.0267 147.925 35.2 146.739 35.2C145.872 35.2 145.059 35.1 144.299 34.9C143.552 34.7 142.885 34.4067 142.299 34.02C141.725 33.6333 141.259 33.1733 140.899 32.64C140.832 32.5333 140.805 32.44 140.819 32.36C140.845 32.2667 140.912 32.18 141.019 32.1L142.279 31.22C142.439 31.1267 142.559 31.0867 142.639 31.1C142.732 31.1133 142.812 31.16 142.879 31.24C143.212 31.6667 143.539 32.02 143.859 32.3C144.192 32.5667 144.572 32.7667 144.999 32.9C145.425 33.0333 145.945 33.1 146.559 33.1C147.492 33.1 148.239 32.9467 148.799 32.64C149.359 32.32 149.639 31.8267 149.639 31.16C149.639 30.8933 149.579 30.6533 149.459 30.44C149.352 30.2133 149.165 30.0067 148.899 29.82C148.645 29.6333 148.272 29.46 147.779 29.3L144.759 28.38C143.985 28.14 143.345 27.82 142.839 27.42C142.345 27.0067 141.972 26.5333 141.719 26C141.465 25.4667 141.339 24.9133 141.339 24.34C141.339 23.4867 141.565 22.7333 142.019 22.08C142.472 21.4133 143.112 20.8933 143.939 20.52C144.765 20.1467 145.732 19.96 146.839 19.96C147.559 19.96 148.232 20.0467 148.859 20.22C149.499 20.38 150.072 20.6133 150.579 20.92C151.099 21.2267 151.525 21.5933 151.859 22.02C151.912 22.0867 151.952 22.16 151.979 22.24C152.005 22.3067 151.965 22.3867 151.859 22.48L150.439 23.54C150.372 23.5933 150.305 23.6133 150.239 23.6C150.185 23.5733 150.105 23.5067 149.999 23.4ZM156.779 30.52C156.779 31.0667 156.906 31.56 157.159 32C157.413 32.4267 157.759 32.7667 158.199 33.02C158.653 33.26 159.146 33.38 159.679 33.38C160.226 33.38 160.719 33.2667 161.159 33.04C161.613 32.8133 162.039 32.4467 162.439 31.94C162.493 31.8733 162.539 31.84 162.579 31.84C162.619 31.8267 162.686 31.8467 162.779 31.9L163.999 32.44C164.173 32.52 164.193 32.64 164.059 32.8C163.659 33.3867 163.226 33.86 162.759 34.22C162.306 34.5667 161.799 34.82 161.239 34.98C160.693 35.1267 160.073 35.2 159.379 35.2C158.366 35.2 157.459 34.9733 156.659 34.52C155.859 34.0667 155.226 33.44 154.759 32.64C154.306 31.8267 154.079 30.8933 154.079 29.84C154.079 28.68 154.313 27.68 154.779 26.84C155.259 26 155.899 25.3533 156.699 24.9C157.499 24.4333 158.379 24.2 159.339 24.2C160.353 24.2 161.233 24.42 161.979 24.86C162.739 25.3 163.333 25.9333 163.759 26.76C164.186 27.5733 164.399 28.5667 164.399 29.74C164.399 29.8733 164.386 29.98 164.359 30.06C164.346 30.14 164.253 30.1867 164.079 30.2H156.999C156.919 30.2 156.859 30.2267 156.819 30.28C156.793 30.3333 156.779 30.4133 156.779 30.52ZM161.519 28.72C161.653 28.72 161.739 28.7067 161.779 28.68C161.833 28.64 161.859 28.56 161.859 28.44C161.859 28.0267 161.766 27.62 161.579 27.22C161.393 26.82 161.119 26.4933 160.759 26.24C160.399 25.9733 159.959 25.84 159.439 25.84C158.906 25.84 158.439 25.9733 158.039 26.24C157.639 26.4933 157.333 26.84 157.119 27.28C156.919 27.7067 156.819 28.1867 156.819 28.72H161.519ZM169.925 26.22C169.792 26.22 169.725 26.2933 169.725 26.44V31.78C169.725 32.3 169.832 32.66 170.045 32.86C170.258 33.06 170.592 33.16 171.045 33.16H172.225C172.305 33.16 172.372 33.1867 172.425 33.24C172.478 33.2933 172.505 33.36 172.505 33.44L172.485 34.48C172.485 34.6933 172.358 34.8267 172.105 34.88C171.905 34.9067 171.672 34.9333 171.405 34.96C171.138 34.9733 170.872 34.9867 170.605 35C170.352 35 170.118 35 169.905 35C169.012 35 168.325 34.7933 167.845 34.38C167.365 33.9533 167.125 33.3133 167.125 32.46V26.48C167.125 26.3067 167.045 26.22 166.885 26.22H165.545C165.332 26.22 165.225 26.12 165.225 25.92V24.66C165.225 24.4867 165.325 24.4 165.525 24.4H167.005C167.125 24.4 167.185 24.3333 167.185 24.2L167.445 21.12C167.458 20.9067 167.552 20.8 167.725 20.8H169.505C169.692 20.8 169.785 20.9133 169.785 21.14V24.2C169.785 24.32 169.845 24.38 169.965 24.38H172.225C172.425 24.38 172.525 24.4733 172.525 24.66V25.92C172.525 26.12 172.412 26.22 172.185 26.22H169.925Z" fill="black"/>
<path d="M34.9679 112.152C34.5346 112.64 35.1162 112.322 35.3718 112.185C44.2739 107.391 51.7668 99.9202 60.9083 95.5572C61.0611 95.4843 60.4342 96.1658 60.4061 96.256C59.9619 97.6773 59.8793 99.3005 59.6418 100.754C59.0633 104.296 57.9105 107.809 57.5019 111.366C57.03 115.476 61.0084 115.795 64.1071 115.657C71.4304 115.329 77.2091 113.169 83.0493 108.637C86.5808 105.896 89.8886 102.799 92.5914 99.2256C94.7191 96.412 97.694 92.1109 94.8077 88.7664C91.5639 85.0077 85.7309 85.9397 81.5427 87.1069C81.0824 87.2352 76.6893 88.7137 79.108 87.6528C81.3056 86.689 83.4936 84.9617 85.5386 83.7225C90.826 80.5183 95.6364 76.747 100.496 72.9467C102.143 71.6585 103.957 69.9915 105.998 69.3111C109.731 68.067 111.552 73.0955 113.138 75.3377C115.432 78.5788 118.687 81.0488 121.163 84.1701C122.565 85.9377 123.838 87.2208 125.759 88.3734" stroke="#649869" stroke-width="3" stroke-linecap="round"/>
<path d="M34.1818 113.528C33.9118 113.528 34.4307 113.71 34.4984 113.757C37.214 115.646 38.8445 120.335 40.4594 123.048C42.9072 127.16 46.2967 130.52 48.7896 134.577C49.9144 136.408 50.5333 138.415 51.53 140.298C52.3717 141.888 53.3965 142.252 54.6197 143.398" stroke="#649869" stroke-width="3" stroke-linecap="round"/>
<path d="M54.8162 144.381C54.2861 144.346 54.7862 143.936 54.969 143.682C55.4245 143.052 55.1102 143.244 56.4211 142.918C62.3641 141.439 70.705 139.582 76.4223 142.711C80.7676 145.089 80.6753 153.393 79.0643 157.351C78.2597 159.328 76.7542 161.294 74.7955 162.264C71.2419 164.025 67.7465 161.508 64.4456 160.496" stroke="#649869" stroke-width="3" stroke-linecap="round"/>
<path d="M63.856 160.103C64.0449 160.11 64.3107 160.07 64.4347 160.255C66.3609 163.145 68.6126 165.831 70.8542 168.487C73.2444 171.319 75.7549 174.61 78.7477 176.894C79.189 177.231 79.6516 177.323 80.167 177.396" stroke="#649869" stroke-width="3" stroke-linecap="round"/>
<path d="M80.5601 176.217C80.5192 176.268 80.2407 176.78 80.4946 176.665C80.8254 176.514 81.1784 176.162 81.4553 175.955C86.2978 172.338 91.1865 168.78 96.0959 165.256C100.924 161.789 115.238 151.399 111.173 155.735C110.15 156.827 109.775 158.013 109.754 159.535C109.69 164.264 112.047 168.158 116.927 168.924C122.375 169.78 128.338 167.586 132.987 164.885C138.425 161.724 141.008 157.013 139.668 150.757C138.193 143.867 131.184 142.564 125.213 144.174C124.733 144.303 123.433 144.999 123.925 144.927C124.943 144.778 125.746 144.204 126.545 143.595C134.46 137.567 141.601 130.703 149.407 124.544C151.035 123.259 153.264 122.301 153.861 120.209" stroke="#649869" stroke-width="3" stroke-linecap="round"/>
<path d="M153.272 118.637C153.161 120.411 151.96 117.79 151.514 117.382C146.669 112.943 141.432 108.914 136.699 104.357C135.892 103.58 135.353 102.326 134.21 102.326" stroke="#649869" stroke-width="3" stroke-linecap="round"/>
<path d="M135.192 100.95C133.998 102.197 136.81 101.83 137.387 101.747C142.993 100.943 149.84 100.089 154.538 96.6598C157.366 94.5961 158.368 89.3248 157.792 86.0369C156.903 80.9683 152.756 75.8406 148.905 72.6737C144.649 69.1742 140.108 69.9142 135.924 72.9903C132.994 75.1438 130.516 77.9989 128.816 81.2113C127.317 84.0449 127.135 86.2942 127.135 89.3559" stroke="#649869" stroke-width="3" stroke-linecap="round"/>
</svg>
