<svg width="1862" height="1324" viewBox="0 0 1862 1324" fill="none" xmlns="http://www.w3.org/2000/svg">
<path d="M134.5 596.5H363.5V726.5H134.5V596.5ZM363.5 595.5H134.5V465.5H363.5V595.5Z" stroke="black"/>
<path d="M1081.5 842.5L1081.5 1071.5L913.5 1071.5L913.5 842.5L1081.5 842.5ZM1082.5 1071.5L1082.5 842.5L1250.5 842.5L1250.5 1071.5L1082.5 1071.5ZM912.5 842.5L912.5 1071.5L744.5 1071.5L744.5 842.5L912.5 842.5ZM1251.5 1071.5L1251.5 842.5L1419.5 842.5L1419.5 1071.5L1251.5 1071.5Z" stroke="black"/>
<path d="M1081.5 497.5L1081.5 726.5L913.5 726.5L913.5 497.5L1081.5 497.5ZM1082.5 726.5L1082.5 497.5L1250.5 497.5L1250.5 726.5L1082.5 726.5ZM912.5 497.5L912.5 726.5L744.5 726.5L744.5 497.5L912.5 497.5ZM1251.5 726.5L1251.5 497.5L1419.5 497.5L1419.5 726.5L1251.5 726.5Z" stroke="black"/>
<path d="M705 727.5H705.5V727V596.5V596V465V464.5H705H475H474.5V465V596V596.5V675.5V675.704L474.642 675.849L495.642 697.349L496.358 696.651L475.5 675.296V596.5H704.5V726.5H475.5V704.5H474.5V727V727.5H475H705Z" stroke="black"/>
<path d="M133.5 80V384H731V80H133.5Z" stroke="black"/>
<path d="M209 97L265 97L265 131L252 131L225.5 131L209 131L209 97Z" stroke="#777777"/>
<path d="M246 131L246 147L227 147L227 131" stroke="#E86035"/>
<path d="M265 346L209 346L209 312L222 312L248.5 312L265 312L265 346Z" stroke="#777777"/>
<path d="M228 312L228 296L247 296L247 312" stroke="#E86035"/>
<path d="M590 97L646 97L646 131L633 131L606.5 131L590 131L590 97Z" stroke="#777777"/>
<path d="M627 131L627 147L608 147L608 131" stroke="#E86035"/>
<path d="M646 346L590 346L590 312L603 312L629.5 312L646 312L646 346Z" stroke="#777777"/>
<path d="M609 312L609 296L628 296L628 312" stroke="#E86035"/>
<path d="M544 604V598H633V604H544Z" fill="white" stroke="white"/>
<circle cx="661.5" cy="629.5" r="12.5" fill="#D9D9D9"/>
<circle cx="577.5" cy="689.5" r="12.5" fill="#D9D9D9"/>
<circle cx="544.5" cy="658.5" r="12.5" fill="#D9D9D9"/>
<path d="M664 622.323C666 621.63 670 621.596 670 627" stroke="#E86035" stroke-linecap="round"/>
<path d="M664 622.323C666 621.63 670 621.596 670 627" stroke="#E86035" stroke-linecap="round"/>
<path d="M664 622.323C666 621.63 670 621.596 670 627" stroke="#E86035" stroke-linecap="round"/>
<path d="M666.399 613.047C667.299 614.542 667.826 617.73 662.743 618.519" stroke="#E86035" stroke-linecap="round"/>
<path d="M666.399 613.047C667.299 614.542 667.826 617.73 662.743 618.519" stroke="#E86035" stroke-linecap="round"/>
<path d="M666.399 613.047C667.299 614.542 667.826 617.73 662.743 618.519" stroke="#E86035" stroke-linecap="round"/>
<path d="M677.003 617.919C674.648 618.531 669.986 618.404 670.174 613" stroke="#E86035" stroke-linecap="round"/>
<path d="M677.003 617.919C674.648 618.531 669.986 618.404 670.174 613" stroke="#E86035" stroke-linecap="round"/>
<path d="M677.003 617.919C674.648 618.531 669.986 618.404 670.174 613" stroke="#E86035" stroke-linecap="round"/>
<path d="M672.296 627.491C671.838 625.283 672.16 620.97 677.108 621.376" stroke="#E86035" stroke-linecap="round"/>
<path d="M672.296 627.491C671.838 625.283 672.16 620.97 677.108 621.376" stroke="#E86035" stroke-linecap="round"/>
<path d="M672.296 627.491C671.838 625.283 672.16 620.97 677.108 621.376" stroke="#E86035" stroke-linecap="round"/>
<path d="M645 632.5L631 639" stroke="black" stroke-linecap="round"/>
<path d="M643 636L629 642.5" stroke="black" stroke-width="0.5" stroke-linecap="round"/>
<path d="M644.2 658.122L653.636 645.906" stroke="black" stroke-linecap="round"/>
<path d="M644.364 654.094L653.8 641.878" stroke="black" stroke-width="0.5" stroke-linecap="round"/>
<path d="M616.121 663.025L615.215 663.483L614.226 655.018L615.119 654.567L621.35 660.381L620.444 660.839L615.271 655.908L615.216 655.936L616.121 663.025ZM615.046 660.067L618.699 658.22L619.087 658.986L615.433 660.834L615.046 660.067ZM622.755 659.67L621.848 660.129L620.86 651.664L621.752 651.213L627.984 657.026L627.077 657.485L621.905 652.554L621.849 652.582L622.755 659.67ZM621.679 656.712L625.333 654.865L625.72 655.632L622.067 657.479L621.679 656.712ZM629.389 656.316L628.482 656.774L627.494 648.31L628.386 647.858L634.617 653.672L633.711 654.13L628.539 649.199L628.483 649.227L629.389 656.316ZM628.313 653.358L631.966 651.511L632.354 652.278L628.701 654.125L628.313 653.358ZM637.257 652.495C636.918 652.666 636.577 652.758 636.236 652.77C635.894 652.78 635.58 652.704 635.294 652.542C635.006 652.378 634.775 652.122 634.598 651.773C634.443 651.466 634.378 651.187 634.402 650.935C634.426 650.681 634.511 650.449 634.658 650.237C634.805 650.026 634.987 649.832 635.204 649.655C635.422 649.474 635.647 649.305 635.879 649.147C636.183 648.941 636.431 648.776 636.623 648.653C636.816 648.526 636.945 648.412 637.011 648.312C637.079 648.21 637.08 648.093 637.013 647.961L636.999 647.933C636.825 647.589 636.596 647.369 636.311 647.274C636.029 647.177 635.698 647.225 635.319 647.416C634.927 647.615 634.662 647.857 634.526 648.142C634.39 648.426 634.326 648.689 634.334 648.93L633.412 649.046C633.387 648.65 633.445 648.303 633.586 648.004C633.727 647.702 633.918 647.445 634.159 647.233C634.4 647.018 634.655 646.842 634.925 646.706C635.097 646.619 635.305 646.54 635.549 646.469C635.795 646.394 636.054 646.367 636.326 646.386C636.601 646.405 636.872 646.506 637.14 646.689C637.407 646.871 637.649 647.175 637.864 647.601L639.648 651.128L638.825 651.544L638.458 650.819L638.416 650.84C638.419 650.985 638.389 651.156 638.326 651.354C638.263 651.553 638.147 651.753 637.978 651.955C637.809 652.158 637.568 652.337 637.257 652.495ZM637.009 651.692C637.334 651.528 637.576 651.325 637.735 651.085C637.895 650.843 637.982 650.592 637.993 650.332C638.007 650.071 637.958 649.829 637.845 649.606L637.464 648.853C637.45 648.913 637.393 648.99 637.292 649.085C637.192 649.176 637.072 649.273 636.932 649.376C636.793 649.476 636.656 649.571 636.521 649.663C636.387 649.751 636.279 649.823 636.197 649.879C635.997 650.015 635.82 650.162 635.666 650.318C635.513 650.472 635.411 650.639 635.359 650.819C635.309 650.997 635.336 651.19 635.442 651.399C635.587 651.685 635.802 651.847 636.087 651.887C636.374 651.923 636.681 651.858 637.009 651.692ZM640.343 646.732L641.972 649.953L641.149 650.369L637.539 643.23L638.362 642.814L639.687 645.435L639.757 645.4C639.743 645.06 639.82 644.745 639.989 644.456C640.159 644.163 640.454 643.91 640.874 643.697C641.239 643.513 641.596 643.424 641.944 643.432C642.291 643.437 642.616 643.552 642.919 643.775C643.223 643.995 643.491 644.335 643.723 644.795L645.444 648.198L644.621 648.614L642.929 645.267C642.714 644.842 642.437 644.569 642.099 644.448C641.762 644.324 641.399 644.36 641.011 644.556C640.742 644.692 640.529 644.871 640.372 645.093C640.219 645.314 640.135 645.565 640.123 645.846C640.112 646.125 640.186 646.421 640.343 646.732Z" fill="black"/>
<path d="M534 653.5L548 649.144C543.823 642.836 534 645.934 534 653.5Z" fill="#E86035"/>
<path d="M556.5 646.5L548 649.144M548 649.144L534 653.5V653.5C534 645.934 543.823 642.836 548 649.144V649.144Z" stroke="black" stroke-linecap="round"/>
<path d="M565 683.5L579 679.144C574.823 672.836 565 675.934 565 683.5Z" fill="#68A2F8"/>
<path d="M587.5 676.5L579 679.144M579 679.144L565 683.5V683.5C565 675.934 574.823 672.836 579 679.144V679.144Z" stroke="black" stroke-linecap="round"/>
<rect x="127.5" y="825.5" width="462" height="246" stroke="black"/>
<rect x="1748.5" y="493.5" width="578" height="246" transform="rotate(90 1748.5 493.5)" stroke="black"/>
<circle cx="205" cy="909" r="25.5" stroke="black"/>
<circle cx="508" cy="1016" r="25.5" stroke="black"/>
<circle cx="519" cy="883" r="25.5" stroke="black"/>
<circle cx="309" cy="935" r="25.5" stroke="black"/>
<circle cx="426" cy="949" r="25.5" stroke="black"/>
<circle cx="257" cy="990" r="25.5" stroke="black"/>
<circle cx="369" cy="883" r="25.5" stroke="black"/>
<!-- <path d="M881 799.5H383.5C381.843 799.5 380.5 798.157 380.5 796.5V491C380.5 489.343 381.843 488 383.5 488H413C414.657 488 416 486.657 416 485V433C416 431.343 414.657 430 413 430H60.5C58.8431 430 57.5 431.343 57.5 433V1267C57.5 1268.66 58.8432 1270 60.5 1270H1413.5C1415.16 1270 1416.5 1268.66 1416.5 1267V1187.5C1416.5 1185.84 1415.16 1184.5 1413.5 1184.5H658.5C656.843 1184.5 655.5 1183.16 655.5 1181.5V782C655.5 780.343 654.157 779 652.5 779H419C417.343 779 416 777.657 416 776V694.5C416 692.843 417.343 691.5 419 691.5H461C462.657 691.5 464 692.843 464 694.5V750C464 751.657 465.343 753 467 753H1427C1428.66 753 1430 754.343 1430 756V796.5C1430 798.157 1428.66 799.5 1427 799.5H881Z" stroke="black" stroke-linecap="round"/> -->

<circle r="20" fill="lightgrey">
    <animateMotion
      dur="20s"
      repeatCount="indefinite"
      path="M881 799.5H383.5C381.843 799.5 380.5 798.157 380.5 796.5V491C380.5 489.343 381.843 488 383.5 488H413C414.657 488 416 486.657 416 485V433C416 431.343 414.657 430 413 430H60.5C58.8431 430 57.5 431.343 57.5 433V1267C57.5 1268.66 58.8432 1270 60.5 1270H1413.5C1415.16 1270 1416.5 1268.66 1416.5 1267V1187.5C1416.5 1185.84 1415.16 1184.5 1413.5 1184.5H658.5C656.843 1184.5 655.5 1183.16 655.5 1181.5V782C655.5 780.343 654.157 779 652.5 779H419C417.343 779 416 777.657 416 776V694.5C416 692.843 417.343 691.5 419 691.5H461C462.657 691.5 464 692.843 464 694.5V750C464 751.657 465.343 753 467 753H1427C1428.66 753 1430 754.343 1430 756V796.5C1430 798.157 1428.66 799.5 1427 799.5H881Z" />
  </circle>
</svg>
