<svg width="204" height="204" viewBox="0 0 204 204" fill="none" xmlns="http://www.w3.org/2000/svg">
<rect x="0.5" y="0.5" width="203" height="203" fill="#EDE7E2" stroke="black"/>
<path d="M25.7617 88.0341C27.6288 88.7809 28.0516 88.2648 30.7861 87.7083C46.6504 84.4798 62.3934 80.6792 78.261 77.4591C94.8207 74.0985 111.509 71.9793 128.204 69.4902C133.692 68.672 144.942 65.6957 148.778 71.7706C151.757 76.4888 152.832 83.2828 153.978 88.5353C156.026 97.9244 157.36 107.37 157.862 116.965C158.413 127.497 158.631 138.273 156.484 148.653C155.049 155.585 152.972 162.372 151.76 169.352C151.269 172.178 151.271 176.237 149.104 178.436C146.041 181.543 140.019 182.526 135.998 183.385C127.861 185.122 119.559 185.705 111.339 186.893C100.437 188.469 89.7348 190.294 78.687 190.502C69.9155 190.666 60.9898 190.939 52.2243 190.502C49.905 190.386 47.6037 190.011 45.2829 189.938C42.7845 189.859 40.331 190.38 37.8403 190.339C34.5487 190.285 33.0737 188.047 32.0767 185.151C29.8158 178.586 28.5211 171.608 27.5535 164.753C24.1268 140.481 24.2623 115.919 21.0255 91.6426" stroke="#F5F5F5" stroke-width="3" stroke-linecap="round"/>
<path d="M31.6256 105.175C30.8413 105.546 30.7296 105.612 31.0492 106.428C33.5824 112.893 35.2474 119.744 37.2639 126.375" stroke="#F5F5F5" stroke-width="3" stroke-linecap="round"/>
<path d="M31.1745 106.754C30.9667 106.728 31.0251 106.68 30.949 106.528" stroke="#F5F5F5" stroke-width="3" stroke-linecap="round"/>
<path d="M31.4 106.077C34.9488 105.323 51.993 96.6924 50.2196 106.854C49.295 112.151 45.5701 119.459 40.697 122.165C38.6737 123.288 36.133 123.668 33.8809 123.668" stroke="#F5F5F5" stroke-width="3" stroke-linecap="round"/>
<path d="M51.4725 112.166C52.0912 113.017 51.9438 113.788 52.8758 114.672C56.5066 118.115 57.6235 115.125 58.9778 111.828C59.1813 111.332 59.1347 110.317 59.1908 110.738C59.3234 111.732 59.8938 112.737 60.5189 113.494C61.0899 114.186 62.1568 115.23 63.1 115.474C65.4509 116.083 63.0242 114.852 65.0046 114.647" stroke="#F5F5F5" stroke-width="3" stroke-linecap="round"/>
<path d="M69.2897 107.205C68.7483 107.047 68.6383 107.043 68.3876 107.53C68.2255 107.846 67.9543 108.104 68.2372 108.47C70.9173 111.938 71.323 105.306 71.2945 104.298C71.2601 103.081 71.0372 101.877 70.9436 100.664C70.8285 99.1716 70.6272 98.3345 71.5701 100.038C73.0701 102.747 74.2247 105.609 75.9806 108.182C77.2896 110.1 79.0267 111.954 81.4686 111.039" stroke="#F5F5F5" stroke-width="3" stroke-linecap="round"/>
<path d="M85.5281 106.528C86.0611 106.498 86.7502 106.46 87.1069 105.977C87.9611 104.82 86.7896 101.817 85.904 104.41C85.0652 106.867 85.5886 110.388 88.4475 111.227C90.8981 111.945 92.9448 110.305 94.775 109.009" stroke="#F5F5F5" stroke-width="3" stroke-linecap="round"/>
<path d="M101.767 106.077C101.904 106.207 102.632 106.65 102.669 106.804C102.875 107.677 102.458 110.187 102.418 110.462C101.695 115.447 101.27 117.017 100.413 122.315" stroke="#F5F5F5" stroke-width="3" stroke-linecap="round"/>
<path d="M42.2257 145.094C42.0064 141.53 38.3312 146.781 38.0032 147.813C37.163 150.458 37.7256 153.372 40.672 154.241C43.8735 155.184 47.044 150.528 48.7411 148.653C51.0783 146.069 53.2539 143.393 55.3066 140.583" stroke="#F5F5F5" stroke-width="3" stroke-linecap="round"/>
<path d="M59.3662 136.524C59.2467 135.448 58.1338 137.689 58.2636 138.403C58.6601 140.584 60.156 141.739 61.6216 143.265C66.0518 147.878 69.3731 140.24 71.3947 136.8C71.9138 135.916 72.6247 133.799 73.3995 134.469C74.6917 135.588 75.2729 138.707 76.1059 140.195C78.251 144.028 78.7294 137.414 79.5139 135.998C82.2342 131.088 84.9865 136.985 86.4178 139.356C87.7777 141.608 88.7352 142.492 91.1665 142.839" stroke="#F5F5F5" stroke-width="3" stroke-linecap="round"/>
<path d="M100.639 127.728C100.164 127.966 100.656 129.986 100.664 130.033C101.318 134.144 102.76 137.785 104.022 141.711" stroke="#F5F5F5" stroke-width="3" stroke-linecap="round"/>
<path d="M94.5495 133.592C94.0341 133.571 93.7477 133.507 94.161 132.991C94.6234 132.413 94.8235 132.361 95.6646 131.901C100.278 129.373 105.151 127.3 109.886 125.022" stroke="#F5F5F5" stroke-width="3" stroke-linecap="round"/>
<path d="M98.158 144.418C98.5143 145.558 98.8352 145.326 99.8119 144.819C105.446 141.891 111.396 139.651 117.328 137.426" stroke="#F5F5F5" stroke-width="3" stroke-linecap="round"/>
<path d="M40.6469 169.903C40.3472 169.244 40.1465 168.59 40.3211 167.848C40.9269 165.274 42.0934 169.813 42.1254 169.953C42.7962 172.893 43.0996 175.917 43.8044 178.849C44.1699 180.37 44.6208 181.94 45.5084 183.26C47.8349 186.717 46.4226 183.642 49.2172 186.818" stroke="#F5F5F5" stroke-width="3" stroke-linecap="round"/>
<path d="M53.0513 181.18C53.1236 181.759 54.5426 180.792 54.6551 180.703C56.1083 179.564 63.7269 169.913 60.7194 168.725C59.6892 168.318 58.4234 169.699 57.9879 170.379C56.8228 172.198 57.2266 174.301 58.1132 176.193C59.6588 179.491 62.2589 182.769 66.0195 183.548C68.7867 184.121 69.6396 182.631 71.7706 181.631" stroke="#F5F5F5" stroke-width="3" stroke-linecap="round"/>
<path d="M78.7621 164.941C78.7544 164.616 78.7039 162.641 78.1858 163.951C76.7478 167.589 75.4056 172.769 76.1059 176.694C76.3983 178.333 78.4472 178.681 79.4262 177.396C81.4704 174.713 82.1158 169.22 79.7269 166.583C78.3653 165.079 79.2874 166.878 79.7645 167.472C81.4202 169.534 83.3661 171.364 85.5281 172.885C88.3214 174.85 92.8852 178.059 95.9027 175.316" stroke="#F5F5F5" stroke-width="3" stroke-linecap="round"/>
<path d="M95.9027 158.852C95.8777 158.652 95.6857 158.595 95.8651 158.802C98.0002 161.265 100.167 163.736 102.443 166.069C104.31 167.981 107.377 172.174 108.758 167.973C110.742 161.939 111.741 155.318 113.269 149.154" stroke="#F5F5F5" stroke-width="3" stroke-linecap="round"/>
<path d="M120.035 162.235C121.156 162.571 122.107 161.275 122.679 160.543C124.779 157.856 127.586 154.114 127.578 150.507C127.576 149.9 127.193 149.028 126.588 148.978C124.382 148.799 123.03 153.184 122.816 154.04C121.543 159.136 123.214 167.476 130.134 165.969C134.697 164.975 138.93 161.649 143.039 159.528" stroke="#F5F5F5" stroke-width="3" stroke-linecap="round"/>
<path d="M133.341 134.494C132.948 134.052 133.795 133.41 134.118 133.191C137.555 130.862 143.624 130.243 145.595 134.995C147.609 139.851 144.523 145.304 143.465 149.956C143.253 150.89 143.275 151.084 143.716 151.635" stroke="#F5F5F5" stroke-width="3" stroke-linecap="round"/>
<path d="M148.227 158.626C147.408 158.626 148.707 156.398 147.775 157.95" stroke="#F5F5F5" stroke-width="3" stroke-linecap="round"/>
<path d="M32.6291 31.36C32.6291 32.6933 32.3158 33.6667 31.6891 34.28C31.0625 34.8933 30.1025 35.2 28.8091 35.2C28.3291 35.2 27.8891 35.1533 27.4891 35.06C27.0891 34.98 26.7491 34.9067 26.4691 34.84C26.3358 34.8133 26.2358 34.76 26.1691 34.68C26.1025 34.5867 26.0758 34.4533 26.0891 34.28L26.2691 32.72C26.2825 32.4933 26.3958 32.4 26.6091 32.44C26.7958 32.48 26.9958 32.54 27.2091 32.62C27.4225 32.7 27.6958 32.74 28.0291 32.74C28.5891 32.74 29.0025 32.5867 29.2691 32.28C29.5358 31.9733 29.6691 31.4267 29.6691 30.64V20.5C29.6691 20.2733 29.7691 20.16 29.9691 20.16H32.3491C32.5358 20.16 32.6291 20.2667 32.6291 20.48V31.36ZM39.4596 33.3C39.9263 33.3 40.3663 33.1733 40.7796 32.92C41.2063 32.6667 41.6129 32.3333 41.9996 31.92V24.8C41.9996 24.5333 42.1529 24.4 42.4596 24.4H44.2596C44.4996 24.4 44.6196 24.5267 44.6196 24.78L44.5796 34.68C44.5796 34.8933 44.4863 35 44.2996 35H42.3396C42.1529 35 42.0596 34.9 42.0596 34.7V33.64C42.0596 33.5733 42.0396 33.5333 41.9996 33.52C41.9729 33.4933 41.9263 33.5133 41.8596 33.58C41.2329 34.1667 40.6396 34.5867 40.0796 34.84C39.5196 35.08 38.9396 35.2 38.3396 35.2C37.7396 35.2 37.2063 35.0733 36.7396 34.82C36.2729 34.5667 35.9063 34.2 35.6396 33.72C35.3729 33.24 35.2396 32.68 35.2396 32.04V24.82C35.2396 24.54 35.3796 24.4 35.6596 24.4H37.4996C37.7263 24.4 37.8396 24.5267 37.8396 24.78V31.6C37.8396 32.1067 37.9796 32.52 38.2596 32.84C38.5529 33.1467 38.9529 33.3 39.4596 33.3ZM53.5974 27.02C53.3441 26.6867 53.0108 26.4067 52.5974 26.18C52.1841 25.9533 51.6774 25.84 51.0774 25.84C50.5041 25.84 50.0241 25.9533 49.6374 26.18C49.2508 26.4067 49.0574 26.7267 49.0574 27.14C49.0574 27.34 49.1374 27.5333 49.2974 27.72C49.4574 27.9067 49.8108 28.0733 50.3574 28.22L52.7374 28.86C53.7774 29.1133 54.5174 29.5133 54.9574 30.06C55.4108 30.5933 55.6374 31.2 55.6374 31.88C55.6374 32.5733 55.4374 33.1667 55.0374 33.66C54.6508 34.1533 54.1041 34.5333 53.3974 34.8C52.7041 35.0667 51.9108 35.2 51.0174 35.2C49.8708 35.2 48.8908 34.9933 48.0774 34.58C47.2641 34.1533 46.6908 33.6267 46.3574 33C46.3174 32.92 46.2974 32.8467 46.2974 32.78C46.2974 32.7 46.3308 32.6333 46.3974 32.58L47.5774 31.98C47.6841 31.9133 47.7708 31.8867 47.8374 31.9C47.9041 31.9133 47.9574 31.9467 47.9974 32C48.1974 32.28 48.4241 32.5333 48.6774 32.76C48.9441 32.9867 49.2641 33.1667 49.6374 33.3C50.0241 33.4333 50.4908 33.4933 51.0374 33.48C51.4508 33.48 51.8241 33.4267 52.1574 33.32C52.5041 33.2133 52.7774 33.0667 52.9774 32.88C53.1774 32.68 53.2774 32.44 53.2774 32.16C53.2774 31.8933 53.1641 31.66 52.9374 31.46C52.7108 31.26 52.3041 31.0867 51.7174 30.94L49.6774 30.46C48.6641 30.22 47.9174 29.86 47.4374 29.38C46.9708 28.9 46.7374 28.3 46.7374 27.58C46.7374 26.9133 46.9108 26.3267 47.2574 25.82C47.6174 25.3133 48.1241 24.92 48.7774 24.64C49.4308 24.3467 50.2041 24.2 51.0974 24.2C52.0841 24.2 52.9374 24.38 53.6574 24.74C54.3774 25.1 54.9041 25.5467 55.2374 26.08C55.2908 26.1467 55.3241 26.22 55.3374 26.3C55.3641 26.38 55.3308 26.4467 55.2374 26.5L53.9974 27.12C53.9174 27.16 53.8441 27.1733 53.7774 27.16C53.7108 27.1333 53.6508 27.0867 53.5974 27.02ZM61.1732 26.22C61.0399 26.22 60.9732 26.2933 60.9732 26.44V31.78C60.9732 32.3 61.0799 32.66 61.2932 32.86C61.5065 33.06 61.8399 33.16 62.2932 33.16H63.4732C63.5532 33.16 63.6199 33.1867 63.6732 33.24C63.7265 33.2933 63.7532 33.36 63.7532 33.44L63.7332 34.48C63.7332 34.6933 63.6065 34.8267 63.3532 34.88C63.1532 34.9067 62.9199 34.9333 62.6532 34.96C62.3865 34.9733 62.1199 34.9867 61.8532 35C61.5999 35 61.3665 35 61.1532 35C60.2599 35 59.5732 34.7933 59.0932 34.38C58.6132 33.9533 58.3732 33.3133 58.3732 32.46V26.48C58.3732 26.3067 58.2932 26.22 58.1332 26.22H56.7932C56.5799 26.22 56.4732 26.12 56.4732 25.92V24.66C56.4732 24.4867 56.5732 24.4 56.7732 24.4H58.2532C58.3732 24.4 58.4332 24.3333 58.4332 24.2L58.6932 21.12C58.7065 20.9067 58.7999 20.8 58.9732 20.8H60.7532C60.9399 20.8 61.0332 20.9133 61.0332 21.14V24.2C61.0332 24.32 61.0932 24.38 61.2132 24.38H63.4732C63.6732 24.38 63.7732 24.4733 63.7732 24.66V25.92C63.7732 26.12 63.6599 26.22 63.4332 26.22H61.1732ZM80.1327 24.04C80.2527 24.04 80.3461 24.0733 80.4127 24.14C80.4927 24.1933 80.5327 24.2933 80.5327 24.44V25.56C80.5327 25.7333 80.4927 25.8533 80.4127 25.92C80.3461 25.9867 80.2394 26.0133 80.0927 26C79.9061 25.9733 79.7261 25.9667 79.5527 25.98C79.3927 25.98 79.2461 26 79.1127 26.04C78.7661 26.12 78.6327 26.2733 78.7127 26.5C78.7527 26.62 78.7994 26.7667 78.8527 26.94C78.9194 27.1133 78.9527 27.32 78.9527 27.56C78.9527 28.16 78.7794 28.7067 78.4327 29.2C78.0994 29.6933 77.5861 30.0867 76.8927 30.38C76.1994 30.6733 75.3327 30.82 74.2927 30.82C73.7061 30.82 73.2394 30.8533 72.8927 30.92C72.5594 30.9867 72.3194 31.08 72.1727 31.2C72.0261 31.3067 71.9527 31.4267 71.9527 31.56C71.9527 31.7467 72.0661 31.88 72.2927 31.96C72.5327 32.0267 72.8994 32.08 73.3927 32.12L76.1527 32.28C77.4594 32.3467 78.4127 32.64 79.0127 33.16C79.6127 33.6667 79.9127 34.3267 79.9127 35.14C79.9127 36.14 79.4394 36.9467 78.4927 37.56C77.5594 38.1867 76.1994 38.5 74.4127 38.5C72.5594 38.5 71.1594 38.2733 70.2127 37.82C69.2794 37.38 68.8127 36.72 68.8127 35.84C68.8127 35.3733 68.9861 34.98 69.3327 34.66C69.6794 34.34 70.1394 34.06 70.7127 33.82C70.8861 33.7533 70.8861 33.68 70.7127 33.6C70.4061 33.4533 70.1461 33.2733 69.9327 33.06C69.7327 32.8333 69.6327 32.56 69.6327 32.24C69.6327 31.9867 69.7127 31.76 69.8727 31.56C70.0327 31.3467 70.2461 31.1533 70.5127 30.98C70.7927 30.8067 71.1061 30.6533 71.4527 30.52C71.5194 30.4933 71.5594 30.46 71.5727 30.42C71.5994 30.3667 71.5661 30.32 71.4727 30.28C70.8727 29.9867 70.4127 29.62 70.0927 29.18C69.7727 28.7267 69.6127 28.1933 69.6127 27.58C69.6127 26.5667 70.0261 25.76 70.8527 25.16C71.6927 24.5467 72.9061 24.24 74.4927 24.24C75.2127 24.24 75.8261 24.32 76.3327 24.48C76.8527 24.64 77.2794 24.86 77.6127 25.14C77.7061 25.2067 77.7994 25.24 77.8927 25.24C77.9861 25.2267 78.0661 25.1867 78.1327 25.12C78.2927 24.9333 78.4861 24.76 78.7127 24.6C78.9394 24.4267 79.1794 24.2933 79.4327 24.2C79.6861 24.0933 79.9194 24.04 80.1327 24.04ZM74.2727 29.46C75.0594 29.46 75.6394 29.2867 76.0127 28.94C76.3861 28.5933 76.5727 28.1467 76.5727 27.6C76.5727 27 76.3861 26.52 76.0127 26.16C75.6394 25.8 75.0594 25.62 74.2727 25.62C73.5394 25.62 72.9727 25.8 72.5727 26.16C72.1727 26.52 71.9727 27 71.9727 27.6C71.9727 28.1467 72.1727 28.5933 72.5727 28.94C72.9727 29.2867 73.5394 29.46 74.2727 29.46ZM72.6927 34.16C72.4394 34.1467 72.1794 34.2 71.9127 34.32C71.6594 34.4267 71.4394 34.5867 71.2527 34.8C71.0794 35 70.9927 35.2333 70.9927 35.5C70.9927 35.8467 71.1127 36.1467 71.3527 36.4C71.6061 36.6533 71.9994 36.84 72.5327 36.96C73.0661 37.0933 73.7594 37.16 74.6127 37.16C75.5861 37.16 76.3261 37.02 76.8327 36.74C77.3394 36.4733 77.5927 36.08 77.5927 35.56C77.5927 35.2133 77.4527 34.9267 77.1727 34.7C76.9061 34.4733 76.4727 34.3467 75.8727 34.32L72.6927 34.16ZM84.8541 34.56C84.8541 34.72 84.8141 34.8333 84.7341 34.9C84.6675 34.9667 84.5475 35 84.3741 35H82.6341C82.4875 35 82.3875 34.9733 82.3341 34.92C82.2808 34.8533 82.2541 34.76 82.2541 34.64V24.74C82.2541 24.5133 82.3541 24.4 82.5541 24.4H84.5741C84.7608 24.4 84.8541 24.5067 84.8541 24.72V34.56ZM84.8941 22.44C84.8941 22.7467 84.7341 22.9 84.4141 22.9H82.5941C82.4475 22.9 82.3475 22.8667 82.2941 22.8C82.2408 22.7333 82.2141 22.6333 82.2141 22.5V20.54C82.2141 20.2867 82.3208 20.16 82.5341 20.16H84.5941C84.7941 20.16 84.8941 20.2733 84.8941 20.5V22.44ZM96.6713 24.4C96.7913 24.4 96.8713 24.44 96.9113 24.52C96.9513 24.6 96.9513 24.6933 96.9113 24.8L92.9313 34.62C92.8247 34.8733 92.6313 35 92.3513 35H91.1713C90.878 35 90.678 34.88 90.5713 34.64L86.5913 24.82C86.5513 24.7 86.558 24.6 86.6113 24.52C86.6647 24.44 86.7513 24.4 86.8713 24.4H88.9713C89.0647 24.4 89.1447 24.4267 89.2113 24.48C89.2913 24.5333 89.3447 24.6067 89.3713 24.7L91.9513 31.26C92.0447 31.5133 92.1513 31.5067 92.2713 31.24L94.8313 24.68C94.8713 24.6 94.918 24.5333 94.9713 24.48C95.038 24.4267 95.118 24.4 95.2113 24.4H96.6713ZM100.195 30.52C100.195 31.0667 100.322 31.56 100.575 32C100.829 32.4267 101.175 32.7667 101.615 33.02C102.069 33.26 102.562 33.38 103.095 33.38C103.642 33.38 104.135 33.2667 104.575 33.04C105.029 32.8133 105.455 32.4467 105.855 31.94C105.909 31.8733 105.955 31.84 105.995 31.84C106.035 31.8267 106.102 31.8467 106.195 31.9L107.415 32.44C107.589 32.52 107.609 32.64 107.475 32.8C107.075 33.3867 106.642 33.86 106.175 34.22C105.722 34.5667 105.215 34.82 104.655 34.98C104.109 35.1267 103.489 35.2 102.795 35.2C101.782 35.2 100.875 34.9733 100.075 34.52C99.2754 34.0667 98.6421 33.44 98.1754 32.64C97.7221 31.8267 97.4954 30.8933 97.4954 29.84C97.4954 28.68 97.7287 27.68 98.1954 26.84C98.6754 26 99.3154 25.3533 100.115 24.9C100.915 24.4333 101.795 24.2 102.755 24.2C103.769 24.2 104.649 24.42 105.395 24.86C106.155 25.3 106.749 25.9333 107.175 26.76C107.602 27.5733 107.815 28.5667 107.815 29.74C107.815 29.8733 107.802 29.98 107.775 30.06C107.762 30.14 107.669 30.1867 107.495 30.2H100.415C100.335 30.2 100.275 30.2267 100.235 30.28C100.209 30.3333 100.195 30.4133 100.195 30.52ZM104.935 28.72C105.069 28.72 105.155 28.7067 105.195 28.68C105.249 28.64 105.275 28.56 105.275 28.44C105.275 28.0267 105.182 27.62 104.995 27.22C104.809 26.82 104.535 26.4933 104.175 26.24C103.815 25.9733 103.375 25.84 102.855 25.84C102.322 25.84 101.855 25.9733 101.455 26.24C101.055 26.4933 100.749 26.84 100.535 27.28C100.335 27.7067 100.235 28.1867 100.235 28.72H104.935ZM114.255 35C114.015 35 113.895 34.88 113.895 34.64V24.74C113.895 24.5133 113.988 24.4 114.175 24.4H116.155C116.341 24.4 116.435 24.5 116.435 24.7V25.74C116.435 25.82 116.455 25.8733 116.495 25.9C116.535 25.9133 116.588 25.8867 116.655 25.82C117.028 25.4867 117.388 25.2 117.735 24.96C118.095 24.72 118.461 24.5333 118.835 24.4C119.221 24.2533 119.628 24.18 120.055 24.18C120.801 24.18 121.415 24.3533 121.895 24.7C122.375 25.0467 122.708 25.4867 122.895 26.02C122.921 26.0733 122.961 26.0933 123.015 26.08C123.068 26.0667 123.121 26.0333 123.175 25.98C123.521 25.6333 123.888 25.3267 124.275 25.06C124.661 24.7933 125.061 24.5867 125.475 24.44C125.888 24.28 126.301 24.2 126.715 24.2C127.661 24.2 128.408 24.4867 128.955 25.06C129.501 25.62 129.775 26.3867 129.775 27.36V34.58C129.775 34.86 129.635 35 129.355 35H127.515C127.395 35 127.308 34.9733 127.255 34.92C127.201 34.8667 127.175 34.7733 127.175 34.64V27.76C127.175 27.24 127.041 26.84 126.775 26.56C126.521 26.2667 126.135 26.12 125.615 26.12C125.308 26.12 125.015 26.18 124.735 26.3C124.455 26.4067 124.201 26.5467 123.975 26.72C123.748 26.8933 123.548 27.0667 123.375 27.24C123.281 27.3333 123.215 27.4267 123.175 27.52C123.148 27.6 123.135 27.7 123.135 27.82V34.58C123.135 34.86 122.995 35 122.715 35H120.875C120.768 35 120.681 34.9733 120.615 34.92C120.561 34.8667 120.535 34.7733 120.535 34.64V27.76C120.535 27.24 120.408 26.84 120.155 26.56C119.901 26.2667 119.508 26.12 118.975 26.12C118.521 26.12 118.101 26.2333 117.715 26.46C117.341 26.6867 116.935 27.0267 116.495 27.48V34.6C116.495 34.8667 116.341 35 116.035 35H114.255ZM134.336 30.52C134.336 31.0667 134.463 31.56 134.716 32C134.969 32.4267 135.316 32.7667 135.756 33.02C136.209 33.26 136.703 33.38 137.236 33.38C137.783 33.38 138.276 33.2667 138.716 33.04C139.169 32.8133 139.596 32.4467 139.996 31.94C140.049 31.8733 140.096 31.84 140.136 31.84C140.176 31.8267 140.243 31.8467 140.336 31.9L141.556 32.44C141.729 32.52 141.749 32.64 141.616 32.8C141.216 33.3867 140.783 33.86 140.316 34.22C139.863 34.5667 139.356 34.82 138.796 34.98C138.249 35.1267 137.629 35.2 136.936 35.2C135.923 35.2 135.016 34.9733 134.216 34.52C133.416 34.0667 132.783 33.44 132.316 32.64C131.863 31.8267 131.636 30.8933 131.636 29.84C131.636 28.68 131.869 27.68 132.336 26.84C132.816 26 133.456 25.3533 134.256 24.9C135.056 24.4333 135.936 24.2 136.896 24.2C137.909 24.2 138.789 24.42 139.536 24.86C140.296 25.3 140.889 25.9333 141.316 26.76C141.743 27.5733 141.956 28.5667 141.956 29.74C141.956 29.8733 141.943 29.98 141.916 30.06C141.903 30.14 141.809 30.1867 141.636 30.2H134.556C134.476 30.2 134.416 30.2267 134.376 30.28C134.349 30.3333 134.336 30.4133 134.336 30.52ZM139.076 28.72C139.209 28.72 139.296 28.7067 139.336 28.68C139.389 28.64 139.416 28.56 139.416 28.44C139.416 28.0267 139.323 27.62 139.136 27.22C138.949 26.82 138.676 26.4933 138.316 26.24C137.956 25.9733 137.516 25.84 136.996 25.84C136.463 25.84 135.996 25.9733 135.596 26.24C135.196 26.4933 134.889 26.84 134.676 27.28C134.476 27.7067 134.376 28.1867 134.376 28.72H139.076ZM151.915 26.22C151.782 26.22 151.715 26.2933 151.715 26.44V31.78C151.715 32.3 151.822 32.66 152.035 32.86C152.249 33.06 152.582 33.16 153.035 33.16H154.215C154.295 33.16 154.362 33.1867 154.415 33.24C154.469 33.2933 154.495 33.36 154.495 33.44L154.475 34.48C154.475 34.6933 154.349 34.8267 154.095 34.88C153.895 34.9067 153.662 34.9333 153.395 34.96C153.129 34.9733 152.862 34.9867 152.595 35C152.342 35 152.109 35 151.895 35C151.002 35 150.315 34.7933 149.835 34.38C149.355 33.9533 149.115 33.3133 149.115 32.46V26.48C149.115 26.3067 149.035 26.22 148.875 26.22H147.535C147.322 26.22 147.215 26.12 147.215 25.92V24.66C147.215 24.4867 147.315 24.4 147.515 24.4H148.995C149.115 24.4 149.175 24.3333 149.175 24.2L149.435 21.12C149.449 20.9067 149.542 20.8 149.715 20.8H151.495C151.682 20.8 151.775 20.9133 151.775 21.14V24.2C151.775 24.32 151.835 24.38 151.955 24.38H154.215C154.415 24.38 154.515 24.4733 154.515 24.66V25.92C154.515 26.12 154.402 26.22 154.175 26.22H151.915ZM156.755 35C156.502 35 156.375 34.88 156.375 34.64V20.5C156.375 20.2733 156.475 20.16 156.675 20.16H158.655C158.829 20.16 158.915 20.26 158.915 20.46V25.66C158.915 25.74 158.935 25.7867 158.975 25.8C159.015 25.8133 159.069 25.7933 159.135 25.74C159.575 25.3667 159.982 25.0733 160.355 24.86C160.729 24.6333 161.102 24.4667 161.475 24.36C161.849 24.2533 162.235 24.2 162.635 24.2C163.662 24.2 164.449 24.48 164.995 25.04C165.542 25.6 165.815 26.3667 165.815 27.34V34.58C165.815 34.86 165.675 35 165.395 35H163.555C163.435 35 163.349 34.9733 163.295 34.92C163.242 34.8667 163.215 34.7733 163.215 34.64V27.76C163.215 27.24 163.075 26.84 162.795 26.56C162.529 26.2667 162.115 26.12 161.555 26.12C161.235 26.12 160.935 26.1733 160.655 26.28C160.389 26.3733 160.122 26.52 159.855 26.72C159.589 26.92 159.295 27.1733 158.975 27.48V34.6C158.975 34.8667 158.829 35 158.535 35H156.755ZM170.371 30.52C170.371 31.0667 170.498 31.56 170.751 32C171.005 32.4267 171.351 32.7667 171.791 33.02C172.245 33.26 172.738 33.38 173.271 33.38C173.818 33.38 174.311 33.2667 174.751 33.04C175.205 32.8133 175.631 32.4467 176.031 31.94C176.085 31.8733 176.131 31.84 176.171 31.84C176.211 31.8267 176.278 31.8467 176.371 31.9L177.591 32.44C177.765 32.52 177.785 32.64 177.651 32.8C177.251 33.3867 176.818 33.86 176.351 34.22C175.898 34.5667 175.391 34.82 174.831 34.98C174.285 35.1267 173.665 35.2 172.971 35.2C171.958 35.2 171.051 34.9733 170.251 34.52C169.451 34.0667 168.818 33.44 168.351 32.64C167.898 31.8267 167.671 30.8933 167.671 29.84C167.671 28.68 167.905 27.68 168.371 26.84C168.851 26 169.491 25.3533 170.291 24.9C171.091 24.4333 171.971 24.2 172.931 24.2C173.945 24.2 174.825 24.42 175.571 24.86C176.331 25.3 176.925 25.9333 177.351 26.76C177.778 27.5733 177.991 28.5667 177.991 29.74C177.991 29.8733 177.978 29.98 177.951 30.06C177.938 30.14 177.845 30.1867 177.671 30.2H170.591C170.511 30.2 170.451 30.2267 170.411 30.28C170.385 30.3333 170.371 30.4133 170.371 30.52ZM175.111 28.72C175.245 28.72 175.331 28.7067 175.371 28.68C175.425 28.64 175.451 28.56 175.451 28.44C175.451 28.0267 175.358 27.62 175.171 27.22C174.985 26.82 174.711 26.4933 174.351 26.24C173.991 25.9733 173.551 25.84 173.031 25.84C172.498 25.84 172.031 25.9733 171.631 26.24C171.231 26.4933 170.925 26.84 170.711 27.28C170.511 27.7067 170.411 28.1867 170.411 28.72H175.111ZM79.906 51.02C79.6527 50.6867 79.3193 50.4067 78.906 50.18C78.4927 49.9533 77.986 49.84 77.386 49.84C76.8127 49.84 76.3327 49.9533 75.946 50.18C75.5593 50.4067 75.366 50.7267 75.366 51.14C75.366 51.34 75.446 51.5333 75.606 51.72C75.766 51.9067 76.1193 52.0733 76.666 52.22L79.046 52.86C80.086 53.1133 80.826 53.5133 81.266 54.06C81.7193 54.5933 81.946 55.2 81.946 55.88C81.946 56.5733 81.746 57.1667 81.346 57.66C80.9593 58.1533 80.4127 58.5333 79.706 58.8C79.0127 59.0667 78.2193 59.2 77.326 59.2C76.1793 59.2 75.1993 58.9933 74.386 58.58C73.5727 58.1533 72.9993 57.6267 72.666 57C72.626 56.92 72.606 56.8467 72.606 56.78C72.606 56.7 72.6393 56.6333 72.706 56.58L73.886 55.98C73.9927 55.9133 74.0793 55.8867 74.146 55.9C74.2127 55.9133 74.266 55.9467 74.306 56C74.506 56.28 74.7327 56.5333 74.986 56.76C75.2527 56.9867 75.5727 57.1667 75.946 57.3C76.3327 57.4333 76.7993 57.4933 77.346 57.48C77.7593 57.48 78.1327 57.4267 78.466 57.32C78.8127 57.2133 79.086 57.0667 79.286 56.88C79.486 56.68 79.586 56.44 79.586 56.16C79.586 55.8933 79.4727 55.66 79.246 55.46C79.0193 55.26 78.6127 55.0867 78.026 54.94L75.986 54.46C74.9727 54.22 74.226 53.86 73.746 53.38C73.2793 52.9 73.046 52.3 73.046 51.58C73.046 50.9133 73.2193 50.3267 73.566 49.82C73.926 49.3133 74.4327 48.92 75.086 48.64C75.7393 48.3467 76.5127 48.2 77.406 48.2C78.3927 48.2 79.246 48.38 79.966 48.74C80.686 49.1 81.2127 49.5467 81.546 50.08C81.5993 50.1467 81.6327 50.22 81.646 50.3C81.6727 50.38 81.6393 50.4467 81.546 50.5L80.306 51.12C80.226 51.16 80.1527 51.1733 80.086 51.16C80.0193 51.1333 79.9593 51.0867 79.906 51.02ZM88.5943 48.2C89.3943 48.2 90.0876 48.34 90.6743 48.62C91.261 48.8867 91.741 49.24 92.1143 49.68C92.501 50.1067 92.7943 50.56 92.9943 51.04C93.0743 51.28 93.0076 51.4067 92.7943 51.42L91.0343 51.64C90.901 51.6667 90.8076 51.6067 90.7543 51.46C90.581 51.1667 90.401 50.9067 90.2143 50.68C90.0276 50.4533 89.8143 50.2733 89.5743 50.14C89.3343 50.0067 89.041 49.94 88.6943 49.94C88.161 49.94 87.6876 50.0867 87.2743 50.38C86.8743 50.66 86.561 51.08 86.3343 51.64C86.121 52.2 86.0143 52.8867 86.0143 53.7C86.0143 54.5267 86.1276 55.22 86.3543 55.78C86.5943 56.34 86.921 56.7667 87.3343 57.06C87.7476 57.34 88.241 57.48 88.8143 57.48C89.4143 57.48 89.9076 57.3267 90.2943 57.02C90.681 56.7 91.041 56.26 91.3743 55.7C91.4143 55.6467 91.4543 55.6133 91.4943 55.6C91.5343 55.5867 91.601 55.5933 91.6943 55.62L92.9543 55.96C93.0876 56 93.1276 56.1133 93.0743 56.3C92.941 56.6067 92.7476 56.9333 92.4943 57.28C92.2543 57.6267 91.9543 57.9467 91.5943 58.24C91.2343 58.52 90.801 58.7533 90.2943 58.94C89.801 59.1133 89.2343 59.2 88.5943 59.2C87.581 59.2 86.681 58.9733 85.8943 58.52C85.1076 58.0533 84.4876 57.4133 84.0343 56.6C83.5943 55.7733 83.3743 54.82 83.3743 53.74C83.3743 52.6467 83.601 51.6867 84.0543 50.86C84.5076 50.02 85.1276 49.3667 85.9143 48.9C86.701 48.4333 87.5943 48.2 88.5943 48.2ZM95.2313 59C95.098 59 95.0047 58.9733 94.9513 58.92C94.898 58.8533 94.8713 58.76 94.8713 58.64V48.74C94.8713 48.5133 94.9647 48.4 95.1513 48.4H97.0913C97.278 48.4 97.3713 48.5 97.3713 48.7V49.92C97.3713 50 97.398 50.0533 97.4513 50.08C97.5047 50.0933 97.5647 50.06 97.6313 49.98C97.9247 49.5933 98.238 49.2733 98.5713 49.02C98.918 48.7533 99.2647 48.5533 99.6113 48.42C99.9713 48.2733 100.318 48.2 100.651 48.2C101.131 48.2 101.371 48.3067 101.371 48.52V50.44C101.371 50.6267 101.285 50.7067 101.111 50.68C100.911 50.6267 100.698 50.5933 100.471 50.58C100.258 50.5533 100.058 50.54 99.8713 50.54C99.618 50.54 99.3447 50.5933 99.0513 50.7C98.7713 50.8067 98.5113 50.96 98.2713 51.16C98.0313 51.3467 97.838 51.5533 97.6913 51.78C97.5447 52.0067 97.4713 52.24 97.4713 52.48V58.6C97.4713 58.8667 97.318 59 97.0113 59H95.2313ZM105.694 58.56C105.694 58.72 105.654 58.8333 105.574 58.9C105.507 58.9667 105.387 59 105.214 59H103.474C103.327 59 103.227 58.9733 103.174 58.92C103.121 58.8533 103.094 58.76 103.094 58.64V48.74C103.094 48.5133 103.194 48.4 103.394 48.4H105.414C105.601 48.4 105.694 48.5067 105.694 48.72V58.56ZM105.734 46.44C105.734 46.7467 105.574 46.9 105.254 46.9H103.434C103.287 46.9 103.187 46.8667 103.134 46.8C103.081 46.7333 103.054 46.6333 103.054 46.5V44.54C103.054 44.2867 103.161 44.16 103.374 44.16H105.434C105.634 44.16 105.734 44.2733 105.734 44.5V46.44ZM110.431 48.4C110.685 48.4 110.811 48.52 110.811 48.76V49.44C110.811 49.5333 110.838 49.5867 110.891 49.6C110.945 49.6 111.005 49.5667 111.071 49.5C111.271 49.3133 111.498 49.12 111.751 48.92C112.018 48.72 112.338 48.5533 112.711 48.42C113.085 48.2733 113.538 48.2 114.071 48.2C114.871 48.2 115.585 48.4 116.211 48.8C116.838 49.1867 117.338 49.78 117.711 50.58C118.085 51.3667 118.271 52.3667 118.271 53.58C118.271 54.8333 118.085 55.88 117.711 56.72C117.338 57.5467 116.818 58.1667 116.151 58.58C115.498 58.9933 114.745 59.2 113.891 59.2C113.345 59.2 112.845 59.1133 112.391 58.94C111.938 58.7667 111.531 58.5133 111.171 58.18C111.038 58.06 110.945 58.0067 110.891 58.02C110.838 58.0333 110.811 58.1267 110.811 58.3V61.98C110.811 62.1933 110.718 62.3 110.531 62.3H108.491C108.305 62.3 108.211 62.1933 108.211 61.98V48.8C108.211 48.6533 108.238 48.5533 108.291 48.5C108.345 48.4333 108.451 48.4 108.611 48.4H110.431ZM110.811 56.4C111.118 56.7333 111.445 57 111.791 57.2C112.151 57.4 112.551 57.5 112.991 57.5C113.525 57.5 113.985 57.3667 114.371 57.1C114.771 56.82 115.078 56.3933 115.291 55.82C115.518 55.2333 115.631 54.48 115.631 53.56C115.631 52.6533 115.518 51.9333 115.291 51.4C115.078 50.8667 114.771 50.4867 114.371 50.26C113.985 50.02 113.551 49.9 113.071 49.9C112.631 49.9 112.238 49.9933 111.891 50.18C111.558 50.3533 111.291 50.58 111.091 50.86C110.905 51.14 110.811 51.4333 110.811 51.74V56.4ZM123.888 50.22C123.755 50.22 123.688 50.2933 123.688 50.44V55.78C123.688 56.3 123.795 56.66 124.008 56.86C124.221 57.06 124.555 57.16 125.008 57.16H126.188C126.268 57.16 126.335 57.1867 126.388 57.24C126.441 57.2933 126.468 57.36 126.468 57.44L126.448 58.48C126.448 58.6933 126.321 58.8267 126.068 58.88C125.868 58.9067 125.635 58.9333 125.368 58.96C125.101 58.9733 124.835 58.9867 124.568 59C124.315 59 124.081 59 123.868 59C122.975 59 122.288 58.7933 121.808 58.38C121.328 57.9533 121.088 57.3133 121.088 56.46V50.48C121.088 50.3067 121.008 50.22 120.848 50.22H119.508C119.295 50.22 119.188 50.12 119.188 49.92V48.66C119.188 48.4867 119.288 48.4 119.488 48.4H120.968C121.088 48.4 121.148 48.3333 121.148 48.2L121.408 45.12C121.421 44.9067 121.515 44.8 121.688 44.8H123.468C123.655 44.8 123.748 44.9133 123.748 45.14V48.2C123.748 48.32 123.808 48.38 123.928 48.38H126.188C126.388 48.38 126.488 48.4733 126.488 48.66V49.92C126.488 50.12 126.375 50.22 126.148 50.22H123.888ZM130.888 58.58C130.888 58.86 130.721 59 130.388 59H128.368C128.101 59 127.968 58.88 127.968 58.64V56.38C127.968 56.1533 128.061 56.04 128.248 56.04H130.608C130.795 56.04 130.888 56.14 130.888 56.34V58.58Z" fill="black"/>
</svg>
