<?xml version="1.0" encoding="iso-8859-1"?>
<!-- Uploaded to: SVG Repo, www.svgrepo.com, Generator: SVG Repo Mixer Tools -->
<svg height="800px" width="800px" version="1.1" id="Capa_1" xmlns="http://www.w3.org/2000/svg" xmlns:xlink="http://www.w3.org/1999/xlink" 
	 viewBox="0 0 397.035 397.035" xml:space="preserve">
<g>
	<path style="fill:#010002;" d="M390.136,220.086c0-101.558-79.421-184.868-179.408-191.194V12.205
		C210.728,5.466,205.262,0,198.523,0c-6.739,0-12.205,5.466-12.205,12.205v16.687C86.326,35.218,6.899,118.528,6.899,220.086v12.205
		h179.413v120.992c0,10.666-8.681,19.341-19.341,19.341c-10.666,0-19.347-8.67-19.347-19.336c0-6.739-5.461-12.205-12.205-12.205
		c-6.739,0-12.205,5.466-12.205,12.205c0,24.122,19.624,43.746,43.757,43.746c24.128,0,43.752-19.63,43.752-43.757V232.292h179.413
		V220.086z M31.751,207.881c6.277-86.525,78.676-155.002,166.773-155.002s160.496,68.478,166.756,155.002H31.751z"/>
</g>
</svg>