<svg width="204" height="204" viewBox="0 0 204 204" fill="none" xmlns="http://www.w3.org/2000/svg">
<rect x="0.5" y="0.5" width="203" height="203" fill="#EDE7E2" stroke="black"/>
<path d="M78.8453 197.664C81.1861 198.169 81.3826 194.468 81.826 192.879C83.8829 185.512 84.9893 177.591 87.7249 170.436C89.5008 165.791 93.2108 169.067 96.4543 170.186C100.622 171.623 104.859 172.378 108.953 170.336C110.776 169.427 113.445 166.364 115.629 166.403C117.37 166.435 117.109 171.358 117.169 172.152C117.584 177.583 118.028 183.013 118.422 188.446C118.633 191.362 118.766 194.287 119.148 197.188C119.242 197.896 119.68 198.742 118.772 198.302C117.815 197.838 116.822 197.5 115.742 197.526C112.345 197.607 109.049 198.428 105.597 198.415C101.117 198.399 96.6744 198.317 92.1961 198.515C89.733 198.625 86.0675 199.206 83.8299 197.764C82.2625 196.754 83.4542 193.546 83.855 192.328C85.5553 187.161 88.5075 182.493 90.7307 177.55C91.4866 175.869 91.492 175.762 92.0708 174.356C92.2005 174.041 91.8714 175.008 91.7702 175.333C90.2949 180.075 88.7918 185.048 88.0881 189.974C87.6037 193.365 89.7442 189.034 89.9417 188.596C92.1405 183.727 93.9183 178.604 95.6527 173.555C96.0136 172.504 96.1275 172.078 95.8782 172.891C95.3274 174.686 94.7797 176.489 94.25 178.289C93.5112 180.799 92.2662 184.884 91.7953 187.507C90.6334 193.977 94.498 186.637 94.9764 185.741C97.3855 181.226 97.1776 180.976 99.2347 176.773C100.266 174.667 99.5569 176.892 99.3349 177.75C99.1188 178.585 95.8388 190.71 97.3185 190.625C99.3588 190.507 101.938 183.37 102.604 182.034C103.449 180.336 104.527 178.054 105.522 176.385C105.624 176.214 107.402 173.153 107.35 175.521C107.268 179.311 105.771 183.096 105.171 186.818C105.119 187.14 104.615 190.214 105.046 190.951C106.04 192.65 107.732 187.995 108.578 186.217C109.818 183.608 110.808 181.135 112.009 178.514C112.497 177.45 113.49 174.332 113.763 175.471C114.168 177.167 113.085 178.895 112.636 180.581C111.623 184.374 110.384 188.15 109.605 192.003C108.769 196.134 112.262 189.652 112.673 188.947C113.248 187.96 113.741 186.866 114.69 186.392" stroke="#FFEA7B" stroke-width="3" stroke-linecap="round"/>
<path d="M87.8627 144.236C89.1728 143.217 88.9306 136.319 88.9648 135.819C89.4051 129.386 89.7714 122.941 89.9292 116.494C89.9479 115.729 89.798 113.495 90.092 114.203C92.2407 119.371 100.167 118.485 104.72 117.709C108.526 117.061 111.42 115.474 114.264 112.988C115.006 112.338 116.629 110.392 116.743 111.372C117.034 113.854 116.548 116.834 116.518 119.3C116.462 123.914 116.676 128.659 115.992 133.239C115.435 136.97 114.512 140.827 110.782 142.545C108.077 143.79 104.302 144.018 101.364 144.185C96.5241 144.462 95.8765 140.986 95.6277 136.846C95.3557 132.321 95.9887 127.98 96.83 123.546C97.1422 121.9 97.7883 119.986 97.7568 118.285C97.7376 117.251 96.7247 120.099 96.4292 121.091C95.3973 124.553 94.6005 128.103 93.7991 131.624C93.5108 132.89 92.0094 137.116 92.7221 138.65C93.3531 140.008 94.8811 136.531 95.6652 135.256C97.3956 132.44 99.0466 129.576 100.763 126.752C101.348 125.788 102.977 122.935 102.792 124.047C102.262 127.226 100.99 130.344 100.212 133.465C99.9321 134.584 99.6456 135.706 99.4726 136.846C99.3914 137.382 98.8063 139.821 100.362 138.462C103.249 135.939 105.193 131.935 107.425 128.881C108.592 127.285 111.578 122.908 111.796 124.873C112.055 127.202 110.267 130.296 109.504 132.388C109.128 133.421 108.018 136.484 108.628 135.569C109.798 133.813 110.654 131.853 111.809 130.083C113.569 127.385 112.401 130.522 112.11 131.26C111.106 133.804 109.792 136.149 108.603 138.6" stroke="#FFEA7B" stroke-width="3" stroke-linecap="round"/>
<path d="M91.9205 98.6976C90.8921 95.548 91.8026 91.5548 92.0207 88.3777C92.1609 86.3361 92.2515 84.2904 92.4465 82.2534C92.5175 81.512 92.9567 83.297 93.0728 83.4432C94.8609 85.6941 99.8694 84.1261 102.065 83.8189C103.24 83.6545 107.75 81.9483 108.377 83.9191C109.376 87.0573 108.91 91.619 108.114 94.7525C107.102 98.7381 103.78 97.6278 100.412 97.8961C98.248 98.0684 95.7087 98.9148 93.5487 98.5098C92.6086 98.3335 95.3098 95.9094 95.5024 95.6918C96.9576 94.0477 98.6972 92.1558 99.2597 89.9683C99.9766 87.1803 98.0065 89.9659 97.8069 91.2708C97.3003 94.583 101.068 90.3792 101.564 89.8556C102.765 88.5873 105.839 85.4271 106.286 89.1417C106.374 89.878 106.047 94.619 104.545 94.3142C104.224 94.249 102.907 92.1717 104.094 93.0617" stroke="#FFEA7B" stroke-width="3" stroke-linecap="round"/>
<path d="M95.7529 73.8996C96.3795 69.7916 97.7491 66.8652 100.925 64.256C102.302 63.1249 104.45 63.1506 105.747 64.5315C106.702 65.5484 105.348 67.9481 104.77 68.915C104.116 70.01 99.7429 70.5409 99.8108 69.0152C99.871 67.6596 99.2189 67.3911 98.0073 68.0133C97.6595 68.1919 96.7393 68.8995 96.9928 68.6019C97.8177 67.6336 98.7217 66.7167 99.5853 65.784" stroke="#FFEA7B" stroke-width="3" stroke-linecap="round"/>
<path d="M95.7529 72.998C92.847 74.5273 97.1496 71.6405 98.1575 71.445C101.364 70.8228 105.121 70.8839 107.45 68.1887C108.805 66.6208 106.155 67.4657 105.622 67.7128C104.695 68.1419 98.1143 72.3654 98.9841 68.865C99.1734 68.1034 101.508 64.5971 99.9109 64.5817C99.1808 64.5747 98.4326 64.8084 97.7067 64.6068C97.1107 64.4412 97.5122 64.237 97.5564 64.2811C98.3795 65.1043 97.5432 67.3087 97.3309 68.2638" stroke="#FFEA7B" stroke-width="3" stroke-linecap="round"/>
<path d="M6.02964 58.3446C10.4223 55.9794 14.302 51.4019 17.9402 48.1875C19.8558 46.495 21.7568 44.7848 23.7138 43.1402C24.9472 42.1038 26.182 41.061 27.5086 40.147C27.9384 39.8509 28.5586 39.1869 28.9489 39.5333C29.3247 39.8667 28.6418 40.4969 28.3978 40.936C27.4495 42.643 25.4536 45.2259 24.3901 46.6595C21.7416 50.2298 19.0605 53.7713 16.7754 57.5932C15.3371 59.9988 13.0207 63.3871 12.8052 66.3225C12.6961 67.8088 15.5356 64.972 16.55 63.8803C19.1967 61.0317 21.7777 58.1238 24.4402 55.2887C26.5926 52.9968 28.7335 50.5476 31.1782 48.5507C31.6338 48.1786 34.1325 46.1609 33.3199 48.4881C32.2019 51.6896 29.8109 54.6933 27.9971 57.493C24.884 62.2981 21.7916 67.0921 18.9797 72.0837C15.73 77.8521 12.7509 83.7745 9.86205 89.7302C8.11832 93.3251 6.01175 97.1212 4.91499 101.002C4.15223 103.701 6.63317 100.577 6.88129 100.301C9.74367 97.1126 12.4415 93.7773 15.2975 90.5819C21.9321 83.159 28.6873 75.5898 36.1378 68.9651C37.2639 67.9638 40.2291 65.369 40.1455 66.8736C39.9967 69.5525 37.3385 72.9751 36.0877 75.1521C30.0287 85.6972 23.7722 96.1266 17.8274 106.738C16.4405 109.214 14.5234 112.021 13.5692 114.754C13.2383 115.701 15.0733 113.404 15.6733 112.599C21.6841 104.537 26.8375 95.9055 33.0568 87.9768C35.0263 85.4661 37.0295 82.8722 39.2563 80.5751C40.6704 79.1163 40.4918 79.9159 39.6947 81.2388C34.3333 90.1365 27.9149 98.6182 21.9103 107.089C18.5203 111.871 14.9235 116.483 11.2147 121.016" stroke="#A57BFF" stroke-width="3" stroke-linecap="round"/>
<path d="M161.016 78.1829C160.619 79.0347 161.267 79.7077 161.693 80.5751C165.238 87.8054 169.27 94.8181 173.09 101.904C175.952 107.214 178.637 112.723 181.944 117.784C183.235 119.76 184.775 121.555 186.04 123.546C186.245 123.869 186.437 124.202 186.603 124.547C187.051 125.475 186.354 124.547 186.265 124.422C184.716 122.242 183.426 119.789 182.182 117.434C178.289 110.063 174.673 102.51 171.299 94.8902C169.889 91.707 168.475 88.5224 167.228 85.2716C167.143 85.0486 164.236 77.8336 164.924 75.7532C165.652 73.55 168.727 78.6103 169.921 80.6001C172.022 84.1011 173.73 87.8202 175.67 91.4085C178.394 96.4475 181.271 102.221 185.063 106.563C186.348 108.035 185.348 105.299 185.338 105.273C184.065 101.618 182.502 98.0514 181.055 94.4644C178.12 87.1868 173.517 78.3469 174.067 70.2176C174.204 68.1813 175.229 68.5126 176.384 69.7416C178.8 72.3144 180.675 75.4665 182.708 78.3332C184.115 80.3173 185.502 82.3807 187.104 84.2196C187.156 84.2784 188.234 85.5128 187.994 84.3949C187.517 82.1768 186.197 79.9018 185.276 77.8824C183.788 74.6217 182.325 71.3542 180.905 68.0634C179.939 65.8254 178.899 63.5961 178.074 61.3003C177.619 60.0321 177.326 58.8498 178.901 60.3986C181.39 62.8458 183.479 65.6953 185.777 68.3139C186.391 69.0134 186.986 69.734 187.668 70.3678C188.02 70.6954 189.109 71.621 188.745 70.2676C188.071 67.7623 186.326 65.4476 185.163 63.1664C184.63 62.1198 182.643 58.8497 183.485 57.4178C184.344 55.9557 190.806 64.0421 191.575 64.8071C192.06 65.2886 193.174 66.5166 194.03 66.3977C194.706 66.3037 194.334 65.2352 194.381 64.8822" stroke="#A57BFF" stroke-width="3" stroke-linecap="round"/>
<path d="M1.04199 172.74C1.3388 173.498 1.66142 173.165 2.06724 172.612C5.33825 168.151 7.75013 162.575 10.4486 157.771C18.2469 143.89 26.6578 130.38 34.4651 116.505C46.6998 94.7608 58.3139 72.7058 70.4769 50.9404" stroke="black" stroke-width="3" stroke-linecap="round"/>
<path d="M183.511 165.82C183.887 167.276 183.58 165.605 183.229 165.025C179.918 159.561 177.888 153.085 175.232 147.288C171.989 140.213 168.587 133.215 165.364 126.13C157.292 108.384 148.35 90.914 139.079 73.7779C136.103 68.2775 133.266 62.7278 130.454 57.1433C128.802 53.8622 127.444 50.7275 124.226 48.8644" stroke="black" stroke-width="3" stroke-linecap="round"/>
<path d="M98.3893 49.5564C97.6583 49.4235 97.2359 49.4663 97.2359 50.2485C97.2359 51.8609 102.061 51.3793 102.875 51.3506C104.578 51.2906 109.531 51.1231 107.924 50.556C107.032 50.2411 106.325 49.9677 105.592 49.3257C103.111 47.1553 100.001 48.7832 97.0052 49.5564" stroke="#FFEA7B" stroke-width="3" stroke-linecap="round"/>
<path d="M19.1458 20.48C19.1458 20.3867 19.1724 20.3133 19.2258 20.26C19.2791 20.1933 19.3658 20.16 19.4858 20.16H30.7258C30.8458 20.16 30.9324 20.1933 30.9858 20.26C31.0391 20.3133 31.0658 20.3867 31.0658 20.48V22.04C31.0658 22.2267 30.9591 22.32 30.7458 22.32H26.9058C26.7591 22.32 26.6858 22.3867 26.6858 22.52V34.66C26.6858 34.8867 26.5858 35 26.3858 35H24.0058C23.8191 35 23.7258 34.8933 23.7258 34.68V22.56C23.7258 22.4 23.6524 22.32 23.5058 22.32H19.4858C19.2591 22.32 19.1458 22.2267 19.1458 22.04V20.48ZM33.4447 35C33.1914 35 33.0647 34.88 33.0647 34.64V20.5C33.0647 20.2733 33.1647 20.16 33.3647 20.16H35.3447C35.518 20.16 35.6047 20.26 35.6047 20.46V25.66C35.6047 25.74 35.6247 25.7867 35.6647 25.8C35.7047 25.8133 35.758 25.7933 35.8247 25.74C36.2647 25.3667 36.6714 25.0733 37.0447 24.86C37.418 24.6333 37.7914 24.4667 38.1647 24.36C38.538 24.2533 38.9247 24.2 39.3247 24.2C40.3514 24.2 41.138 24.48 41.6847 25.04C42.2314 25.6 42.5047 26.3667 42.5047 27.34V34.58C42.5047 34.86 42.3647 35 42.0847 35H40.2447C40.1247 35 40.038 34.9733 39.9847 34.92C39.9314 34.8667 39.9047 34.7733 39.9047 34.64V27.76C39.9047 27.24 39.7647 26.84 39.4847 26.56C39.218 26.2667 38.8047 26.12 38.2447 26.12C37.9247 26.12 37.6247 26.1733 37.3447 26.28C37.078 26.3733 36.8114 26.52 36.5447 26.72C36.278 26.92 35.9847 27.1733 35.6647 27.48V34.6C35.6647 34.8667 35.518 35 35.2247 35H33.4447ZM47.0606 30.52C47.0606 31.0667 47.1873 31.56 47.4406 32C47.694 32.4267 48.0406 32.7667 48.4806 33.02C48.934 33.26 49.4273 33.38 49.9606 33.38C50.5073 33.38 51.0006 33.2667 51.4406 33.04C51.894 32.8133 52.3206 32.4467 52.7206 31.94C52.774 31.8733 52.8206 31.84 52.8606 31.84C52.9006 31.8267 52.9673 31.8467 53.0606 31.9L54.2806 32.44C54.454 32.52 54.474 32.64 54.3406 32.8C53.9406 33.3867 53.5073 33.86 53.0406 34.22C52.5873 34.5667 52.0806 34.82 51.5206 34.98C50.974 35.1267 50.354 35.2 49.6606 35.2C48.6473 35.2 47.7406 34.9733 46.9406 34.52C46.1406 34.0667 45.5073 33.44 45.0406 32.64C44.5873 31.8267 44.3606 30.8933 44.3606 29.84C44.3606 28.68 44.594 27.68 45.0606 26.84C45.5406 26 46.1806 25.3533 46.9806 24.9C47.7806 24.4333 48.6606 24.2 49.6206 24.2C50.634 24.2 51.514 24.42 52.2606 24.86C53.0206 25.3 53.614 25.9333 54.0406 26.76C54.4673 27.5733 54.6806 28.5667 54.6806 29.74C54.6806 29.8733 54.6673 29.98 54.6406 30.06C54.6273 30.14 54.534 30.1867 54.3606 30.2H47.2806C47.2006 30.2 47.1406 30.2267 47.1006 30.28C47.074 30.3333 47.0606 30.4133 47.0606 30.52ZM51.8006 28.72C51.934 28.72 52.0206 28.7067 52.0606 28.68C52.114 28.64 52.1406 28.56 52.1406 28.44C52.1406 28.0267 52.0473 27.62 51.8606 27.22C51.674 26.82 51.4006 26.4933 51.0406 26.24C50.6806 25.9733 50.2406 25.84 49.7206 25.84C49.1873 25.84 48.7206 25.9733 48.3206 26.24C47.9206 26.4933 47.614 26.84 47.4006 27.28C47.2006 27.7067 47.1006 28.1867 47.1006 28.72H51.8006ZM65.02 28.64C65.6333 28.0933 66.1333 27.62 66.52 27.22C66.92 26.82 67.2333 26.46 67.46 26.14C67.7 25.82 67.8667 25.52 67.96 25.24C68.0533 24.9467 68.1 24.64 68.1 24.32C68.1 23.8533 67.98 23.46 67.74 23.14C67.5133 22.82 67.2133 22.5733 66.84 22.4C66.48 22.2267 66.0733 22.14 65.62 22.14C65.26 22.14 64.9 22.2067 64.54 22.34C64.18 22.4733 63.8267 22.6933 63.48 23C63.1467 23.2933 62.8333 23.6933 62.54 24.2C62.5 24.28 62.4333 24.3267 62.34 24.34C62.26 24.3533 62.16 24.3267 62.04 24.26L60.56 23.48C60.44 23.4133 60.3733 23.3267 60.36 23.22C60.3467 23.1133 60.38 23.0067 60.46 22.9C61.1133 21.8867 61.8933 21.1467 62.8 20.68C63.72 20.2 64.7267 19.96 65.82 19.96C66.8067 19.96 67.6867 20.1333 68.46 20.48C69.2333 20.8133 69.8467 21.3067 70.3 21.96C70.7533 22.6133 70.98 23.4067 70.98 24.34C70.98 24.9 70.88 25.4267 70.68 25.92C70.4933 26.4133 70.18 26.9133 69.74 27.42C69.3 27.9267 68.7133 28.4867 67.98 29.1L64.16 32.32C64.08 32.3733 64.04 32.4267 64.04 32.48C64.0533 32.5333 64.1333 32.56 64.28 32.56H70.78C71.0067 32.56 71.12 32.6533 71.12 32.84V34.68C71.12 34.7733 71.0933 34.8533 71.04 34.92C70.9867 34.9733 70.8933 35 70.76 35H60.74C60.58 35 60.4667 34.9733 60.4 34.92C60.3467 34.8667 60.32 34.7667 60.32 34.62V33.32C60.32 33.24 60.3333 33.1667 60.36 33.1C60.4 33.02 60.4733 32.92 60.58 32.8C60.7 32.6667 60.88 32.5 61.12 32.3L65.02 28.64ZM77.8783 35C77.6249 35 77.4983 34.88 77.4983 34.64V20.5C77.4983 20.2733 77.5983 20.16 77.7983 20.16H79.7783C79.9516 20.16 80.0383 20.26 80.0383 20.46V25.66C80.0383 25.74 80.0583 25.7867 80.0983 25.8C80.1383 25.8133 80.1916 25.7933 80.2583 25.74C80.6983 25.3667 81.1049 25.0733 81.4783 24.86C81.8516 24.6333 82.2249 24.4667 82.5983 24.36C82.9716 24.2533 83.3583 24.2 83.7583 24.2C84.7849 24.2 85.5716 24.48 86.1183 25.04C86.6649 25.6 86.9383 26.3667 86.9383 27.34V34.58C86.9383 34.86 86.7983 35 86.5183 35H84.6783C84.5583 35 84.4716 34.9733 84.4183 34.92C84.3649 34.8667 84.3383 34.7733 84.3383 34.64V27.76C84.3383 27.24 84.1983 26.84 83.9183 26.56C83.6516 26.2667 83.2383 26.12 82.6783 26.12C82.3583 26.12 82.0583 26.1733 81.7783 26.28C81.5116 26.3733 81.2449 26.52 80.9783 26.72C80.7116 26.92 80.4183 27.1733 80.0983 27.48V34.6C80.0983 34.8667 79.9516 35 79.6583 35H77.8783ZM94.0542 35.2C93.0142 35.2 92.1009 34.9667 91.3142 34.5C90.5276 34.0333 89.9076 33.3933 89.4542 32.58C89.0142 31.7533 88.7942 30.8133 88.7942 29.76C88.7942 28.6533 89.0209 27.6867 89.4742 26.86C89.9409 26.02 90.5676 25.3667 91.3542 24.9C92.1542 24.4333 93.0609 24.2 94.0742 24.2C95.1276 24.2 96.0476 24.44 96.8342 24.92C97.6209 25.3867 98.2342 26.04 98.6742 26.88C99.1142 27.7067 99.3342 28.66 99.3342 29.74C99.3342 30.8067 99.1076 31.7533 98.6542 32.58C98.2142 33.3933 97.6009 34.0333 96.8142 34.5C96.0276 34.9667 95.1076 35.2 94.0542 35.2ZM94.0742 33.42C94.6476 33.42 95.1276 33.28 95.5142 33C95.9009 32.7067 96.1942 32.2867 96.3942 31.74C96.5942 31.18 96.6942 30.5 96.6942 29.7C96.6942 28.8867 96.5876 28.2 96.3742 27.64C96.1742 27.08 95.8809 26.6533 95.4942 26.36C95.1076 26.0667 94.6342 25.92 94.0742 25.92C93.5276 25.92 93.0542 26.0667 92.6542 26.36C92.2542 26.6533 91.9476 27.08 91.7342 27.64C91.5342 28.2 91.4342 28.8867 91.4342 29.7C91.4342 30.5 91.5342 31.18 91.7342 31.74C91.9476 32.2867 92.2542 32.7067 92.6542 33C93.0542 33.28 93.5276 33.42 94.0742 33.42ZM105.407 33.3C105.874 33.3 106.314 33.1733 106.727 32.92C107.154 32.6667 107.56 32.3333 107.947 31.92V24.8C107.947 24.5333 108.1 24.4 108.407 24.4H110.207C110.447 24.4 110.567 24.5267 110.567 24.78L110.527 34.68C110.527 34.8933 110.434 35 110.247 35H108.287C108.1 35 108.007 34.9 108.007 34.7V33.64C108.007 33.5733 107.987 33.5333 107.947 33.52C107.92 33.4933 107.874 33.5133 107.807 33.58C107.18 34.1667 106.587 34.5867 106.027 34.84C105.467 35.08 104.887 35.2 104.287 35.2C103.687 35.2 103.154 35.0733 102.687 34.82C102.22 34.5667 101.854 34.2 101.587 33.72C101.32 33.24 101.187 32.68 101.187 32.04V24.82C101.187 24.54 101.327 24.4 101.607 24.4H103.447C103.674 24.4 103.787 24.5267 103.787 24.78V31.6C103.787 32.1067 103.927 32.52 104.207 32.84C104.5 33.1467 104.9 33.3 105.407 33.3ZM113.425 35C113.291 35 113.198 34.9733 113.145 34.92C113.091 34.8533 113.065 34.76 113.065 34.64V24.74C113.065 24.5133 113.158 24.4 113.345 24.4H115.285C115.471 24.4 115.565 24.5 115.565 24.7V25.92C115.565 26 115.591 26.0533 115.645 26.08C115.698 26.0933 115.758 26.06 115.825 25.98C116.118 25.5933 116.431 25.2733 116.765 25.02C117.111 24.7533 117.458 24.5533 117.805 24.42C118.165 24.2733 118.511 24.2 118.845 24.2C119.325 24.2 119.565 24.3067 119.565 24.52V26.44C119.565 26.6267 119.478 26.7067 119.305 26.68C119.105 26.6267 118.891 26.5933 118.665 26.58C118.451 26.5533 118.251 26.54 118.065 26.54C117.811 26.54 117.538 26.5933 117.245 26.7C116.965 26.8067 116.705 26.96 116.465 27.16C116.225 27.3467 116.031 27.5533 115.885 27.78C115.738 28.0067 115.665 28.24 115.665 28.48V34.6C115.665 34.8667 115.511 35 115.205 35H113.425ZM144.447 20.16C144.62 20.16 144.74 20.2133 144.807 20.32C144.874 20.4133 144.887 20.5333 144.847 20.68L140.747 34.62C140.667 34.8733 140.487 35 140.207 35H138.367C138.06 35 137.874 34.88 137.807 34.64L135.047 25C135.02 24.8933 134.987 24.84 134.947 24.84C134.92 24.8267 134.887 24.8867 134.847 25.02L132.067 34.62C131.987 34.8733 131.8 35 131.507 35H129.627C129.334 35 129.147 34.88 129.067 34.64L125.007 20.7C124.967 20.54 124.98 20.4133 125.047 20.32C125.114 20.2133 125.234 20.16 125.407 20.16H127.487C127.634 20.16 127.74 20.1867 127.807 20.24C127.874 20.28 127.92 20.3533 127.947 20.46L130.767 30.44C130.807 30.5867 130.847 30.66 130.887 30.66C130.927 30.66 130.967 30.6 131.007 30.48L133.827 20.46C133.854 20.3667 133.9 20.2933 133.967 20.24C134.034 20.1867 134.147 20.16 134.307 20.16H136.107C136.254 20.16 136.36 20.1867 136.427 20.24C136.494 20.28 136.54 20.3533 136.567 20.46L139.427 30.54C139.454 30.6467 139.487 30.7067 139.527 30.72C139.58 30.72 139.62 30.6667 139.647 30.56L142.447 20.46C142.474 20.3533 142.52 20.28 142.587 20.24C142.667 20.1867 142.78 20.16 142.927 20.16H144.447ZM144.504 35C144.411 35 144.337 34.9533 144.284 34.86C144.231 34.7667 144.231 34.6467 144.284 34.5L149.324 20.52C149.377 20.3867 149.437 20.2933 149.504 20.24C149.571 20.1867 149.671 20.16 149.804 20.16H152.304C152.584 20.16 152.771 20.2933 152.864 20.56L157.864 34.52C157.904 34.6267 157.904 34.7333 157.864 34.84C157.824 34.9467 157.751 35 157.644 35H155.224C155.037 35 154.917 34.9133 154.864 34.74L153.704 31.5C153.691 31.4333 153.664 31.3867 153.624 31.36C153.597 31.32 153.544 31.3 153.464 31.3H148.244C148.124 31.3 148.044 31.36 148.004 31.48L146.804 34.76C146.791 34.84 146.751 34.9 146.684 34.94C146.631 34.98 146.551 35 146.444 35H144.504ZM152.744 29.04C152.917 29.04 152.971 28.9333 152.904 28.72L150.984 23.38C150.944 23.2867 150.897 23.24 150.844 23.24C150.791 23.24 150.744 23.2933 150.704 23.4L148.764 28.72C148.684 28.9333 148.737 29.04 148.924 29.04H152.744ZM160.201 20.5C160.201 20.2733 160.301 20.16 160.501 20.16H162.881C163.068 20.16 163.161 20.2667 163.161 20.48V32.56C163.161 32.72 163.234 32.8 163.381 32.8H169.941C170.154 32.8 170.261 32.8933 170.261 33.08V34.7C170.261 34.78 170.234 34.8533 170.181 34.92C170.128 34.9733 170.041 35 169.921 35H160.581C160.434 35 160.334 34.9733 160.281 34.92C160.228 34.8533 160.201 34.76 160.201 34.64V20.5ZM184.844 34.58C184.897 34.7 184.911 34.8 184.884 34.88C184.857 34.96 184.777 35 184.644 35H182.124C181.871 35 181.704 34.9133 181.624 34.74L177.984 28.06C177.891 27.9267 177.777 27.9467 177.644 28.12L175.684 30.42C175.591 30.5267 175.544 30.66 175.544 30.82V34.6C175.544 34.8667 175.391 35 175.084 35H172.984C172.837 35 172.731 34.9733 172.664 34.92C172.611 34.8533 172.584 34.76 172.584 34.64V20.48C172.584 20.2667 172.677 20.16 172.864 20.16H175.264C175.451 20.16 175.544 20.26 175.544 20.46V26.9C175.544 27.02 175.564 27.08 175.604 27.08C175.644 27.08 175.697 27.0467 175.764 26.98L181.204 20.44C181.271 20.3333 181.344 20.26 181.424 20.22C181.504 20.18 181.624 20.16 181.784 20.16H183.824C183.971 20.16 184.071 20.2 184.124 20.28C184.191 20.36 184.177 20.4533 184.084 20.56L179.964 25.3C179.871 25.4067 179.864 25.54 179.944 25.7L184.844 34.58Z" fill="black"/>
</svg>
