<svg width="313" height="140" viewBox="0 0 313 140" fill="none" xmlns="http://www.w3.org/2000/svg">
<path d="M1.89809 31.7389C4.30428 41.3637 7.64963 50.7572 11.1867 60.0175C13.1742 65.221 21.7634 96.4297 32.1376 92.1663C35.9786 90.5878 37.9077 86.6247 39.4652 83.1357C43.3094 74.5247 44.6918 65.0091 46.4833 55.8376C46.6638 54.9134 51.6077 30.4207 54.5076 34.1642C58.1761 38.8999 59.4958 84.9082 69.55 81.6908C71.5775 81.042 73.8252 76.398 74.3491 75.2404C78.5033 66.0606 81.1024 56.0409 84.4891 46.5748C88.6244 35.0164 93.2014 23.754 98.4994 12.6973" stroke="black" stroke-width="3" stroke-linecap="round"/>
<path d="M106.395 54.4959C104.602 52.6344 104.096 52.9728 103.763 56.56C103.214 62.471 105.254 71.1391 113 66.2098C122.968 59.8668 111.321 53.4405 105.466 51.2449" stroke="black" stroke-width="3" stroke-linecap="round"/>
<path d="M128.687 43.3496C128.687 46.6104 128.668 50.0368 129.1 53.2574C129.251 54.3782 129.825 60.4078 132.3 61.1011C135.878 62.1037 139.501 55.2193 141.537 53.4122C146.359 49.1319 145.887 62.1549 150.515 60.9979" stroke="black" stroke-width="3" stroke-linecap="round"/>
<path d="M162.591 2.01538C166.065 1.14672 164.34 13.9985 164.345 14.4002C164.583 32.1527 166 49.5586 168.164 67.0355" stroke="black" stroke-width="3" stroke-linecap="round"/>
<path d="M198.352 42.8851C198.837 42.339 198.84 42.0851 198.197 41.6466C193.72 38.5946 185.045 44.5181 183.361 48.6647C181.847 52.3906 183.238 60.7947 186.431 63.578C191.82 68.2745 195.814 58.5022 196.752 55.0119C199.355 45.331 200.182 34.9985 201.525 25.082C201.986 21.6814 202.78 17.8115 202.222 14.3485C201.824 11.8775 200.693 13.1113 200.287 14.8129C197.996 24.4148 199.337 35.8559 200.519 45.5169C201.451 53.1351 203.233 60.4673 206.247 67.4999" stroke="black" stroke-width="3" stroke-linecap="round"/>
<path d="M236.435 42.4207C234.952 42.1835 234.586 43.2826 234.577 44.7429C234.545 49.7457 237.799 55.2248 242.989 56.3536C247.993 57.4423 251.224 54.0989 254.909 51.6577C257.457 49.9694 257.794 63.7638 257.799 63.8103C258.675 73.5579 259.928 84.373 256.354 93.766C254.132 99.6047 248.06 105.966 242.06 100.062C235.25 93.36 240.022 83.0101 243.763 76.1693C247.827 68.7363 251.608 63.8747 259.192 60.9979" stroke="black" stroke-width="3" stroke-linecap="round"/>
<path d="M271.732 47.9939C268.492 50.9689 266.836 56.3746 269.151 60.5335C274.169 69.546 281.953 58.3811 280.633 52.1996C279.488 46.8382 270.422 49.3026 266.623 48.4583" stroke="black" stroke-width="3" stroke-linecap="round"/>
<path d="M287.987 47.0651C287.769 51.2026 287.857 58.4382 292.166 60.6883C298.082 63.777 301.097 53.1896 302.384 49.7484C303.975 45.4937 302.603 55.0753 302.797 56.5085C303.158 59.1807 303.697 63.1306 305.944 65.023C307.823 66.605 309.044 64.7346 310.744 64.249" stroke="black" stroke-width="3" stroke-linecap="round"/>
<path d="M65.5249 119.516C61.2039 115.035 64.2261 125.335 64.4928 127.257C64.6273 128.226 66.6953 144.366 66.2473 135.977C65.7308 126.304 68.3161 118.471 77.2904 113.324C82.0035 110.621 86.7182 110.578 91.0685 113.478" stroke="black" stroke-width="3" stroke-linecap="round"/>
<path d="M105.93 110.228C103.809 111.501 102.766 115.161 102.112 117.194C102.065 117.34 98.3033 130.746 102.524 124.986C104.773 121.917 106.395 118.675 106.395 114.872C106.395 113.114 105.727 110.926 106.704 113.685C109.246 120.862 114.281 126.012 120.328 130.198" stroke="black" stroke-width="3" stroke-linecap="round"/>
<path d="M121.256 91.1858C118.847 92.6834 119.77 95.9743 119.966 98.4103C120.97 110.88 122.646 123.343 124.043 135.771" stroke="black" stroke-width="3" stroke-linecap="round"/>
<path d="M118.47 119.98C124.769 115.937 132.694 116.485 139.834 115.336" stroke="black" stroke-width="3" stroke-linecap="round"/>
<path d="M146.336 89.7925C147.59 101.711 148.289 113.716 149.767 125.605C149.914 126.789 149.914 130.514 151.109 127.772C152.591 124.373 153.164 120.671 154.902 117.349C157.714 111.971 161.323 111.762 162.952 117.89C164.339 123.112 165.212 128.019 167.235 132.984" stroke="black" stroke-width="3" stroke-linecap="round"/>
<path d="M173.737 123.696C175.722 126.522 177.504 126.052 179.207 122.715C180.144 120.879 182.086 118.051 180.549 116.678C179.127 115.408 177.866 119.507 177.143 121.27C172.731 132.026 184.832 138.645 189.992 127.902C191.516 124.728 191.976 121.438 192.753 118.071C192.811 117.82 194.168 123.222 194.249 123.722C195.012 128.432 193.163 126.772 194.172 123.851C196.589 116.846 203.103 111.638 208.105 106.512" stroke="black" stroke-width="3" stroke-linecap="round"/>
<path d="M222.502 127.411C222.502 127.757 221.883 126.792 221.573 126.947" stroke="black" stroke-width="3" stroke-linecap="round"/>
<path d="M245.723 130.198C245.078 128.827 245.039 129.001 245.723 130.301C246.435 131.653 246.652 126.95 246.652 130.662" stroke="black" stroke-width="3" stroke-linecap="round"/>
<path d="M266.623 129.269C266.509 132.69 266.332 127.623 267.5 128.624C268.396 129.392 267.925 132.056 267.087 132.056" stroke="black" stroke-width="3" stroke-linecap="round"/>
</svg>
