<svg width="322" height="168" viewBox="0 0 322 168" fill="none" xmlns="http://www.w3.org/2000/svg">
<path d="M11.4834 30.581C12.921 40.3973 15.3162 50.0768 17.9153 59.6428C19.3759 65.0181 24.8206 96.9259 35.5672 93.7147C39.5461 92.5258 41.8595 88.7741 43.7561 85.4572C48.4372 77.2709 50.7584 67.9398 53.4526 58.9918C53.7241 58.0901 61.0779 34.21 63.5914 38.2233C66.771 43.3 63.5113 89.2117 73.8355 87.0096C75.9175 86.5655 78.6156 82.1679 79.252 81.0681C84.298 72.3466 87.8801 62.6349 92.1909 53.5523C97.4546 42.4621 103.128 31.7104 109.499 21.235" stroke="black" stroke-width="3" stroke-linecap="round"/>
<path d="M113.201 63.6114C111.602 61.581 111.065 61.8674 110.377 65.4037C109.243 71.2308 110.411 80.0588 118.609 75.9238C129.158 70.6029 118.207 63.0508 112.6 60.2842" stroke="black" stroke-width="3" stroke-linecap="round"/>
<path d="M136.491 54.736C136.167 57.9806 135.807 61.3881 135.917 64.6358C135.955 65.7659 135.928 71.8228 138.321 72.7586C141.782 74.1119 146.071 67.6217 148.276 66.0259C153.5 62.246 151.737 75.1577 156.457 74.4664" stroke="black" stroke-width="3" stroke-linecap="round"/>
<path d="M174.335 16.9761C177.878 16.4571 174.884 29.0738 174.849 29.474C173.322 47.1623 173.002 64.6228 173.418 82.2282" stroke="black" stroke-width="3" stroke-linecap="round"/>
<path d="M205.856 61.1978C206.394 60.7027 206.422 60.4503 205.825 59.9501C201.675 56.4682 192.454 61.5002 190.365 65.4588C188.489 69.0158 189.037 77.5165 191.938 80.6035C196.834 85.8123 201.779 76.4853 203.059 73.1055C206.611 63.7312 208.462 53.5322 210.784 43.7982C211.58 40.4603 212.755 36.6884 212.544 33.1872C212.393 30.6888 211.145 31.8041 210.572 33.457C207.339 42.7836 207.536 54.3013 207.751 64.0319C207.922 71.705 208.966 79.1781 211.266 86.4754" stroke="black" stroke-width="3" stroke-linecap="round"/>
<path d="M243.797 64.5209C242.346 64.1375 241.872 65.1947 241.718 66.6469C241.189 71.6218 243.882 77.3972 248.934 79.0361C253.805 80.6168 257.352 77.6111 261.262 75.5483C263.965 74.1216 262.93 87.8812 262.929 87.9279C262.832 97.7143 263.004 108.6 258.514 117.592C255.723 123.181 249.049 128.907 243.665 122.435C237.555 115.09 243.333 105.266 247.734 98.8306C252.517 91.8383 256.762 87.3767 264.595 85.2679" stroke="black" stroke-width="3" stroke-linecap="round"/>
<path d="M278.365 73.5745C274.846 76.2128 272.661 81.4272 274.551 85.7956C278.648 95.2621 287.504 84.9262 286.805 78.6441C286.198 73.1955 276.932 74.7466 273.236 73.5289" stroke="black" stroke-width="3" stroke-linecap="round"/>
<path d="M294.632 74.266C294.004 78.3614 293.373 85.5699 297.437 88.2373C303.016 91.8986 307.068 81.6633 308.691 78.3671C310.698 74.2915 308.38 83.6893 308.43 85.1347C308.524 87.8296 308.668 91.8135 310.716 93.9199C312.428 95.6808 313.829 93.9409 315.568 93.6267" stroke="black" stroke-width="3" stroke-linecap="round"/>
<path d="M66.0709 124.247C62.2167 119.359 64.2002 129.909 64.2746 131.847C64.3121 132.825 64.7656 149.091 65.1536 140.699C65.6011 131.022 68.9521 123.485 78.3936 119.255C83.3521 117.034 88.0476 117.46 92.0881 120.779" stroke="black" stroke-width="3" stroke-linecap="round"/>
<path d="M107.199 119.021C104.962 120.077 103.56 123.615 102.707 125.573C102.646 125.714 97.5709 138.679 102.344 133.368C104.886 130.538 106.822 127.473 107.2 123.688C107.375 121.939 106.928 119.695 107.626 122.538C109.442 129.932 113.94 135.557 119.541 140.323" stroke="black" stroke-width="3" stroke-linecap="round"/>
<path d="M124.342 101.597C121.796 102.848 122.388 106.214 122.34 108.657C122.099 121.165 122.529 133.733 122.684 146.238" stroke="black" stroke-width="3" stroke-linecap="round"/>
<path d="M118.707 129.972C125.377 126.574 133.208 127.908 140.427 127.474" stroke="black" stroke-width="3" stroke-linecap="round"/>
<path d="M149.436 102.703C149.499 114.687 149.001 126.703 149.291 138.679C149.32 139.872 148.949 143.578 150.41 140.969C152.223 137.734 153.162 134.107 155.221 130.974C158.554 125.903 162.166 126.053 163.177 132.313C164.039 137.647 164.419 142.617 165.939 147.758" stroke="black" stroke-width="3" stroke-linecap="round"/>
<path d="M173.332 139.162C175.026 142.172 176.846 141.881 178.872 138.73C179.987 136.996 182.201 134.375 180.807 132.856C179.519 131.451 177.857 135.404 176.962 137.087C171.503 147.351 182.886 155.139 189.088 144.962C190.92 141.956 191.704 138.728 192.812 135.455C192.895 135.21 193.709 140.721 193.74 141.226C194.031 145.989 192.356 144.154 193.65 141.347C196.752 134.617 203.751 130.083 209.237 125.479" stroke="black" stroke-width="3" stroke-linecap="round"/>
<path d="M221.486 147.706C221.452 148.05 220.931 147.028 220.608 147.151" stroke="black" stroke-width="3" stroke-linecap="round"/>
<path d="M244.316 152.786C243.81 151.359 243.753 151.527 244.305 152.889C244.879 154.305 245.563 149.647 245.194 153.341" stroke="black" stroke-width="3" stroke-linecap="round"/>
<path d="M265.204 153.939C264.75 157.333 265.078 152.273 266.141 153.385C266.956 154.238 266.222 156.842 265.389 156.758" stroke="black" stroke-width="3" stroke-linecap="round"/>
</svg>
