<svg width="392" height="100" viewBox="0 0 392 100" fill="none" xmlns="http://www.w3.org/2000/svg">
<g clip-path="url(#clip0_110_226)">
<path d="M266.278 53.6796L291.233 27.4112C292.172 26.423 291.868 24.8057 290.635 24.2246L186.235 -24.9801C184.18 -25.9485 182.358 -23.2855 184.004 -21.7209L263.45 53.7522C264.251 54.5129 265.517 54.4805 266.278 53.6796Z" fill="#EBCDAE"/>
<path d="M290.476 -15.1382L306.893 -30.1357C307.899 -31.0543 309.508 -30.721 310.066 -29.4785L339.198 35.377C340.129 37.4505 337.43 39.2236 335.897 37.5454L290.349 -12.3126C289.604 -13.1281 289.661 -14.3932 290.476 -15.1382Z" fill="#987148"/>
<path d="M147.798 63.022L152.786 27.1347C152.973 25.7846 151.785 24.6465 150.444 24.8922L36.9191 45.6939C34.6847 46.1034 34.7543 49.3294 37.0043 49.6421L145.541 64.7276C146.635 64.8797 147.646 64.116 147.798 63.022Z" fill="#CC9966"/>
<path d="M18.78 34.12C23.18 34.12 27.04 34.98 30.36 36.7C33.72 38.42 36.3 40.88 38.1 44.08C39.94 47.24 40.86 50.92 40.86 55.12C40.86 59.32 39.94 63 38.1 66.16C36.3 69.28 33.72 71.7 30.36 73.42C27.04 75.14 23.18 76 18.78 76H4.14V34.12H18.78ZM18.48 68.86C22.88 68.86 26.28 67.66 28.68 65.26C31.08 62.86 32.28 59.48 32.28 55.12C32.28 50.76 31.08 47.36 28.68 44.92C26.28 42.44 22.88 41.2 18.48 41.2H12.54V68.86H18.48ZM61.9078 76.54C58.7078 76.54 55.8278 75.84 53.2678 74.44C50.7078 73 48.6878 70.98 47.2078 68.38C45.7678 65.78 45.0478 62.78 45.0478 59.38C45.0478 55.98 45.7878 52.98 47.2678 50.38C48.7878 47.78 50.8478 45.78 53.4478 44.38C56.0478 42.94 58.9478 42.22 62.1478 42.22C65.3478 42.22 68.2478 42.94 70.8478 44.38C73.4478 45.78 75.4878 47.78 76.9678 50.38C78.4878 52.98 79.2478 55.98 79.2478 59.38C79.2478 62.78 78.4678 65.78 76.9078 68.38C75.3878 70.98 73.3078 73 70.6678 74.44C68.0678 75.84 65.1478 76.54 61.9078 76.54ZM61.9078 69.22C63.4278 69.22 64.8478 68.86 66.1678 68.14C67.5278 67.38 68.6078 66.26 69.4078 64.78C70.2078 63.3 70.6078 61.5 70.6078 59.38C70.6078 56.22 69.7678 53.8 68.0878 52.12C66.4478 50.4 64.4278 49.54 62.0278 49.54C59.6278 49.54 57.6078 50.4 55.9678 52.12C54.3678 53.8 53.5678 56.22 53.5678 59.38C53.5678 62.54 54.3478 64.98 55.9078 66.7C57.5078 68.38 59.5078 69.22 61.9078 69.22ZM100.17 76.54C96.9695 76.54 94.0895 75.84 91.5295 74.44C88.9695 73 86.9495 70.98 85.4695 68.38C84.0295 65.78 83.3095 62.78 83.3095 59.38C83.3095 55.98 84.0495 52.98 85.5295 50.38C87.0495 47.78 89.1095 45.78 91.7095 44.38C94.3095 42.94 97.2095 42.22 100.41 42.22C103.61 42.22 106.51 42.94 109.11 44.38C111.71 45.78 113.75 47.78 115.23 50.38C116.75 52.98 117.51 55.98 117.51 59.38C117.51 62.78 116.73 65.78 115.17 68.38C113.65 70.98 111.57 73 108.93 74.44C106.33 75.84 103.41 76.54 100.17 76.54ZM100.17 69.22C101.69 69.22 103.11 68.86 104.43 68.14C105.79 67.38 106.87 66.26 107.67 64.78C108.47 63.3 108.87 61.5 108.87 59.38C108.87 56.22 108.03 53.8 106.35 52.12C104.71 50.4 102.69 49.54 100.29 49.54C97.8895 49.54 95.8695 50.4 94.2295 52.12C92.6295 53.8 91.8295 56.22 91.8295 59.38C91.8295 62.54 92.6095 64.98 94.1695 66.7C95.7695 68.38 97.7695 69.22 100.17 69.22ZM132.071 47.92C133.151 46.16 134.551 44.78 136.271 43.78C138.031 42.78 140.031 42.28 142.271 42.28V51.1H140.051C137.411 51.1 135.411 51.72 134.051 52.96C132.731 54.2 132.071 56.36 132.071 59.44V76H123.671V42.76H132.071V47.92ZM160.649 76.54C157.929 76.54 155.489 76.06 153.329 75.1C151.169 74.1 149.449 72.76 148.169 71.08C146.929 69.4 146.249 67.54 146.129 65.5H154.589C154.749 66.78 155.369 67.84 156.449 68.68C157.569 69.52 158.949 69.94 160.589 69.94C162.189 69.94 163.429 69.62 164.309 68.98C165.229 68.34 165.689 67.52 165.689 66.52C165.689 65.44 165.129 64.64 164.009 64.12C162.929 63.56 161.189 62.96 158.789 62.32C156.309 61.72 154.269 61.1 152.669 60.46C151.109 59.82 149.749 58.84 148.589 57.52C147.469 56.2 146.909 54.42 146.909 52.18C146.909 50.34 147.429 48.66 148.469 47.14C149.549 45.62 151.069 44.42 153.029 43.54C155.029 42.66 157.369 42.22 160.049 42.22C164.009 42.22 167.169 43.22 169.529 45.22C171.889 47.18 173.189 49.84 173.429 53.2H165.389C165.269 51.88 164.709 50.84 163.709 50.08C162.749 49.28 161.449 48.88 159.809 48.88C158.289 48.88 157.109 49.16 156.269 49.72C155.469 50.28 155.069 51.06 155.069 52.06C155.069 53.18 155.629 54.04 156.749 54.64C157.869 55.2 159.609 55.78 161.969 56.38C164.369 56.98 166.349 57.6 167.909 58.24C169.469 58.88 170.809 59.88 171.929 61.24C173.089 62.56 173.689 64.32 173.729 66.52C173.729 68.44 173.189 70.16 172.109 71.68C171.069 73.2 169.549 74.4 167.549 75.28C165.589 76.12 163.289 76.54 160.649 76.54ZM190.404 49.66V65.74C190.404 66.86 190.664 67.68 191.184 68.2C191.744 68.68 192.664 68.92 193.944 68.92H197.844V76H192.564C185.484 76 181.944 72.56 181.944 65.68V49.66H177.984V42.76H181.944V34.54H190.404V42.76H197.844V49.66H190.404ZM218.646 76.54C215.446 76.54 212.566 75.84 210.006 74.44C207.446 73 205.426 70.98 203.946 68.38C202.506 65.78 201.786 62.78 201.786 59.38C201.786 55.98 202.526 52.98 204.006 50.38C205.526 47.78 207.586 45.78 210.186 44.38C212.786 42.94 215.686 42.22 218.886 42.22C222.086 42.22 224.986 42.94 227.586 44.38C230.186 45.78 232.226 47.78 233.706 50.38C235.226 52.98 235.986 55.98 235.986 59.38C235.986 62.78 235.206 65.78 233.646 68.38C232.126 70.98 230.046 73 227.406 74.44C224.806 75.84 221.886 76.54 218.646 76.54ZM218.646 69.22C220.166 69.22 221.586 68.86 222.906 68.14C224.266 67.38 225.346 66.26 226.146 64.78C226.946 63.3 227.346 61.5 227.346 59.38C227.346 56.22 226.506 53.8 224.826 52.12C223.186 50.4 221.166 49.54 218.766 49.54C216.366 49.54 214.346 50.4 212.706 52.12C211.106 53.8 210.306 56.22 210.306 59.38C210.306 62.54 211.086 64.98 212.646 66.7C214.246 68.38 216.246 69.22 218.646 69.22ZM250.548 47.56C251.628 46.04 253.108 44.78 254.988 43.78C256.908 42.74 259.088 42.22 261.528 42.22C264.368 42.22 266.928 42.92 269.208 44.32C271.528 45.72 273.348 47.72 274.668 50.32C276.028 52.88 276.708 55.86 276.708 59.26C276.708 62.66 276.028 65.68 274.668 68.32C273.348 70.92 271.528 72.94 269.208 74.38C266.928 75.82 264.368 76.54 261.528 76.54C259.088 76.54 256.928 76.04 255.048 75.04C253.208 74.04 251.708 72.78 250.548 71.26V91.84H242.148V42.76H250.548V47.56ZM268.128 59.26C268.128 57.26 267.708 55.54 266.868 54.1C266.068 52.62 264.988 51.5 263.628 50.74C262.308 49.98 260.868 49.6 259.308 49.6C257.788 49.6 256.348 50 254.988 50.8C253.668 51.56 252.588 52.68 251.748 54.16C250.948 55.64 250.548 57.38 250.548 59.38C250.548 61.38 250.948 63.12 251.748 64.6C252.588 66.08 253.668 67.22 254.988 68.02C256.348 68.78 257.788 69.16 259.308 69.16C260.868 69.16 262.308 68.76 263.628 67.96C264.988 67.16 266.068 66.02 266.868 64.54C267.708 63.06 268.128 61.3 268.128 59.26Z" fill="black"/>
<path d="M315.54 40.9V51.4H329.64V58.06H315.54V69.16H331.44V76H307.14V34.06H331.44V40.9H315.54ZM336.914 59.26C336.914 55.9 337.574 52.92 338.894 50.32C340.254 47.72 342.094 45.72 344.414 44.32C346.734 42.92 349.314 42.22 352.154 42.22C354.314 42.22 356.374 42.7 358.334 43.66C360.294 44.58 361.854 45.82 363.014 47.38V31.6H371.534V76H363.014V71.08C361.974 72.72 360.514 74.04 358.634 75.04C356.754 76.04 354.574 76.54 352.094 76.54C349.294 76.54 346.734 75.82 344.414 74.38C342.094 72.94 340.254 70.92 338.894 68.32C337.574 65.68 336.914 62.66 336.914 59.26ZM363.074 59.38C363.074 57.34 362.674 55.6 361.874 54.16C361.074 52.68 359.994 51.56 358.634 50.8C357.274 50 355.814 49.6 354.254 49.6C352.694 49.6 351.254 49.98 349.934 50.74C348.614 51.5 347.534 52.62 346.694 54.1C345.894 55.54 345.494 57.26 345.494 59.26C345.494 61.26 345.894 63.02 346.694 64.54C347.534 66.02 348.614 67.16 349.934 67.96C351.294 68.76 352.734 69.16 354.254 69.16C355.814 69.16 357.274 68.78 358.634 68.02C359.994 67.22 361.074 66.1 361.874 64.66C362.674 63.18 363.074 61.42 363.074 59.38ZM383.458 76.42C381.938 76.42 380.678 75.96 379.678 75.04C378.718 74.08 378.238 72.9 378.238 71.5C378.238 70.1 378.718 68.94 379.678 68.02C380.678 67.06 381.938 66.58 383.458 66.58C384.938 66.58 386.158 67.06 387.118 68.02C388.078 68.94 388.558 70.1 388.558 71.5C388.558 72.9 388.078 74.08 387.118 75.04C386.158 75.96 384.938 76.42 383.458 76.42Z" fill="black"/>
</g>
<defs>
<clipPath id="clip0_110_226">
<rect width="392" height="100" fill="white"/>
</clipPath>
</defs>
</svg>
