<svg width="450" height="68" viewBox="0 0 450 68" fill="none" xmlns="http://www.w3.org/2000/svg">
<g clip-path="url(#clip0_116_8)">
<path d="M14.085 25.59C17.385 25.59 20.28 26.235 22.77 27.525C25.29 28.815 27.225 30.66 28.575 33.06C29.955 35.43 30.645 38.19 30.645 41.34C30.645 44.49 29.955 47.25 28.575 49.62C27.225 51.96 25.29 53.775 22.77 55.065C20.28 56.355 17.385 57 14.085 57H3.105V25.59H14.085ZM13.86 51.645C17.16 51.645 19.71 50.745 21.51 48.945C23.31 47.145 24.21 44.61 24.21 41.34C24.21 38.07 23.31 35.52 21.51 33.69C19.71 31.83 17.16 30.9 13.86 30.9H9.405V51.645H13.86ZM46.4309 57.405C44.0309 57.405 41.8709 56.88 39.9509 55.83C38.0309 54.75 36.5159 53.235 35.4059 51.285C34.3259 49.335 33.7859 47.085 33.7859 44.535C33.7859 41.985 34.3409 39.735 35.4509 37.785C36.5909 35.835 38.1359 34.335 40.0859 33.285C42.0359 32.205 44.2109 31.665 46.6109 31.665C49.0109 31.665 51.1859 32.205 53.1359 33.285C55.0859 34.335 56.6159 35.835 57.7259 37.785C58.8659 39.735 59.4359 41.985 59.4359 44.535C59.4359 47.085 58.8509 49.335 57.6809 51.285C56.5409 53.235 54.9809 54.75 53.0009 55.83C51.0509 56.88 48.8609 57.405 46.4309 57.405ZM46.4309 51.915C47.5709 51.915 48.6359 51.645 49.6259 51.105C50.6459 50.535 51.4559 49.695 52.0559 48.585C52.6559 47.475 52.9559 46.125 52.9559 44.535C52.9559 42.165 52.3259 40.35 51.0659 39.09C49.8359 37.8 48.3209 37.155 46.5209 37.155C44.7209 37.155 43.2059 37.8 41.9759 39.09C40.7759 40.35 40.1759 42.165 40.1759 44.535C40.1759 46.905 40.7609 48.735 41.9309 50.025C43.1309 51.285 44.6309 51.915 46.4309 51.915ZM75.1271 57.405C72.7271 57.405 70.5671 56.88 68.6471 55.83C66.7271 54.75 65.2121 53.235 64.1021 51.285C63.0221 49.335 62.4821 47.085 62.4821 44.535C62.4821 41.985 63.0371 39.735 64.1471 37.785C65.2871 35.835 66.8321 34.335 68.7821 33.285C70.7321 32.205 72.9071 31.665 75.3071 31.665C77.7071 31.665 79.8821 32.205 81.8321 33.285C83.7822 34.335 85.3122 35.835 86.4222 37.785C87.5622 39.735 88.1321 41.985 88.1321 44.535C88.1321 47.085 87.5471 49.335 86.3771 51.285C85.2371 53.235 83.6771 54.75 81.6971 55.83C79.7471 56.88 77.5571 57.405 75.1271 57.405ZM75.1271 51.915C76.2671 51.915 77.3321 51.645 78.3221 51.105C79.3421 50.535 80.1521 49.695 80.7521 48.585C81.3521 47.475 81.6521 46.125 81.6521 44.535C81.6521 42.165 81.0221 40.35 79.7621 39.09C78.5321 37.8 77.0171 37.155 75.2171 37.155C73.4171 37.155 71.9021 37.8 70.6721 39.09C69.4721 40.35 68.8721 42.165 68.8721 44.535C68.8721 46.905 69.4571 48.735 70.6271 50.025C71.8271 51.285 73.3271 51.915 75.1271 51.915ZM99.0534 35.94C99.8634 34.62 100.913 33.585 102.203 32.835C103.523 32.085 105.023 31.71 106.703 31.71V38.325H105.038C103.058 38.325 101.558 38.79 100.538 39.72C99.5484 40.65 99.0534 42.27 99.0534 44.58V57H92.7534V32.07H99.0534V35.94ZM120.487 57.405C118.447 57.405 116.617 57.045 114.997 56.325C113.377 55.575 112.087 54.57 111.127 53.31C110.197 52.05 109.687 50.655 109.597 49.125H115.942C116.062 50.085 116.527 50.88 117.337 51.51C118.177 52.14 119.212 52.455 120.442 52.455C121.642 52.455 122.572 52.215 123.232 51.735C123.922 51.255 124.267 50.64 124.267 49.89C124.267 49.08 123.847 48.48 123.007 48.09C122.197 47.67 120.892 47.22 119.092 46.74C117.232 46.29 115.702 45.825 114.502 45.345C113.332 44.865 112.312 44.13 111.442 43.14C110.602 42.15 110.182 40.815 110.182 39.135C110.182 37.755 110.572 36.495 111.352 35.355C112.162 34.215 113.302 33.315 114.772 32.655C116.272 31.995 118.027 31.665 120.037 31.665C123.007 31.665 125.377 32.415 127.147 33.915C128.917 35.385 129.892 37.38 130.072 39.9H124.042C123.952 38.91 123.532 38.13 122.782 37.56C122.062 36.96 121.087 36.66 119.857 36.66C118.717 36.66 117.832 36.87 117.202 37.29C116.602 37.71 116.302 38.295 116.302 39.045C116.302 39.885 116.722 40.53 117.562 40.98C118.402 41.4 119.707 41.835 121.477 42.285C123.277 42.735 124.762 43.2 125.932 43.68C127.102 44.16 128.107 44.91 128.947 45.93C129.817 46.92 130.267 48.24 130.297 49.89C130.297 51.33 129.892 52.62 129.082 53.76C128.302 54.9 127.162 55.8 125.662 56.46C124.192 57.09 122.467 57.405 120.487 57.405ZM142.803 37.245V49.305C142.803 50.145 142.998 50.76 143.388 51.15C143.808 51.51 144.498 51.69 145.458 51.69H148.383V57H144.423C139.113 57 136.458 54.42 136.458 49.26V37.245H133.488V32.07H136.458V25.905H142.803V32.07H148.383V37.245H142.803ZM163.985 57.405C161.585 57.405 159.425 56.88 157.505 55.83C155.585 54.75 154.07 53.235 152.96 51.285C151.88 49.335 151.34 47.085 151.34 44.535C151.34 41.985 151.895 39.735 153.005 37.785C154.145 35.835 155.69 34.335 157.64 33.285C159.59 32.205 161.765 31.665 164.165 31.665C166.565 31.665 168.74 32.205 170.69 33.285C172.64 34.335 174.17 35.835 175.28 37.785C176.42 39.735 176.99 41.985 176.99 44.535C176.99 47.085 176.405 49.335 175.235 51.285C174.095 53.235 172.535 54.75 170.555 55.83C168.605 56.88 166.415 57.405 163.985 57.405ZM163.985 51.915C165.125 51.915 166.19 51.645 167.18 51.105C168.2 50.535 169.01 49.695 169.61 48.585C170.21 47.475 170.51 46.125 170.51 44.535C170.51 42.165 169.88 40.35 168.62 39.09C167.39 37.8 165.875 37.155 164.075 37.155C162.275 37.155 160.76 37.8 159.53 39.09C158.33 40.35 157.73 42.165 157.73 44.535C157.73 46.905 158.315 48.735 159.485 50.025C160.685 51.285 162.185 51.915 163.985 51.915ZM187.911 35.67C188.721 34.53 189.831 33.585 191.241 32.835C192.681 32.055 194.316 31.665 196.146 31.665C198.276 31.665 200.196 32.19 201.906 33.24C203.646 34.29 205.011 35.79 206.001 37.74C207.021 39.66 207.531 41.895 207.531 44.445C207.531 46.995 207.021 49.26 206.001 51.24C205.011 53.19 203.646 54.705 201.906 55.785C200.196 56.865 198.276 57.405 196.146 57.405C194.316 57.405 192.696 57.03 191.286 56.28C189.906 55.53 188.781 54.585 187.911 53.445V68.88H181.611V32.07H187.911V35.67ZM201.096 44.445C201.096 42.945 200.781 41.655 200.151 40.575C199.551 39.465 198.741 38.625 197.721 38.055C196.731 37.485 195.651 37.2 194.481 37.2C193.341 37.2 192.261 37.5 191.241 38.1C190.251 38.67 189.441 39.51 188.811 40.62C188.211 41.73 187.911 43.035 187.911 44.535C187.911 46.035 188.211 47.34 188.811 48.45C189.441 49.56 190.251 50.415 191.241 51.015C192.261 51.585 193.341 51.87 194.481 51.87C195.651 51.87 196.731 51.57 197.721 50.97C198.741 50.37 199.551 49.515 200.151 48.405C200.781 47.295 201.096 45.975 201.096 44.445ZM229.132 30.675V38.55H239.707V43.545H229.132V51.87H241.057V57H222.832V25.545H241.057V30.675H229.132ZM245.162 44.445C245.162 41.925 245.657 39.69 246.647 37.74C247.667 35.79 249.047 34.29 250.787 33.24C252.527 32.19 254.462 31.665 256.592 31.665C258.212 31.665 259.757 32.025 261.227 32.745C262.697 33.435 263.867 34.365 264.737 35.535V23.7H271.127V57H264.737V53.31C263.957 54.54 262.862 55.53 261.452 56.28C260.042 57.03 258.407 57.405 256.547 57.405C254.447 57.405 252.527 56.865 250.787 55.785C249.047 54.705 247.667 53.19 246.647 51.24C245.657 49.26 245.162 46.995 245.162 44.445ZM264.782 44.535C264.782 43.005 264.482 41.7 263.882 40.62C263.282 39.51 262.472 38.67 261.452 38.1C260.432 37.5 259.337 37.2 258.167 37.2C256.997 37.2 255.917 37.485 254.927 38.055C253.937 38.625 253.127 39.465 252.497 40.575C251.897 41.655 251.597 42.945 251.597 44.445C251.597 45.945 251.897 47.265 252.497 48.405C253.127 49.515 253.937 50.37 254.927 50.97C255.947 51.57 257.027 51.87 258.167 51.87C259.337 51.87 260.432 51.585 261.452 51.015C262.472 50.415 263.282 49.575 263.882 48.495C264.482 47.385 264.782 46.065 264.782 44.535ZM300.815 32.07V57H294.47V53.85C293.66 54.93 292.595 55.785 291.275 56.415C289.985 57.015 288.575 57.315 287.045 57.315C285.095 57.315 283.37 56.91 281.87 56.1C280.37 55.26 279.185 54.045 278.315 52.455C277.475 50.835 277.055 48.915 277.055 46.695V32.07H283.355V45.795C283.355 47.775 283.85 49.305 284.84 50.385C285.83 51.435 287.18 51.96 288.89 51.96C290.63 51.96 291.995 51.435 292.985 50.385C293.975 49.305 294.47 47.775 294.47 45.795V32.07H300.815ZM305.411 44.535C305.411 41.955 305.936 39.705 306.986 37.785C308.036 35.835 309.491 34.335 311.351 33.285C313.211 32.205 315.341 31.665 317.741 31.665C320.831 31.665 323.381 32.445 325.391 34.005C327.431 35.535 328.796 37.695 329.486 40.485H322.691C322.331 39.405 321.716 38.565 320.846 37.965C320.006 37.335 318.956 37.02 317.696 37.02C315.896 37.02 314.471 37.68 313.421 39C312.371 40.29 311.846 42.135 311.846 44.535C311.846 46.905 312.371 48.75 313.421 50.07C314.471 51.36 315.896 52.005 317.696 52.005C320.246 52.005 321.911 50.865 322.691 48.585H329.486C328.796 51.285 327.431 53.43 325.391 55.02C323.351 56.61 320.801 57.405 317.741 57.405C315.341 57.405 313.211 56.88 311.351 55.83C309.491 54.75 308.036 53.25 306.986 51.33C305.936 49.38 305.411 47.115 305.411 44.535ZM332.481 44.445C332.481 41.925 332.976 39.69 333.966 37.74C334.986 35.79 336.351 34.29 338.061 33.24C339.801 32.19 341.736 31.665 343.866 31.665C345.726 31.665 347.346 32.04 348.726 32.79C350.136 33.54 351.261 34.485 352.101 35.625V32.07H358.446V57H352.101V53.355C351.291 54.525 350.166 55.5 348.726 56.28C347.316 57.03 345.681 57.405 343.821 57.405C341.721 57.405 339.801 56.865 338.061 55.785C336.351 54.705 334.986 53.19 333.966 51.24C332.976 49.26 332.481 46.995 332.481 44.445ZM352.101 44.535C352.101 43.005 351.801 41.7 351.201 40.62C350.601 39.51 349.791 38.67 348.771 38.1C347.751 37.5 346.656 37.2 345.486 37.2C344.316 37.2 343.236 37.485 342.246 38.055C341.256 38.625 340.446 39.465 339.816 40.575C339.216 41.655 338.916 42.945 338.916 44.445C338.916 45.945 339.216 47.265 339.816 48.405C340.446 49.515 341.256 50.37 342.246 50.97C343.266 51.57 344.346 51.87 345.486 51.87C346.656 51.87 347.751 51.585 348.771 51.015C349.791 50.415 350.601 49.575 351.201 48.495C351.801 47.385 352.101 46.065 352.101 44.535ZM371.934 37.245V49.305C371.934 50.145 372.129 50.76 372.519 51.15C372.939 51.51 373.629 51.69 374.589 51.69H377.514V57H373.554C368.244 57 365.589 54.42 365.589 49.26V37.245H362.619V32.07H365.589V25.905H371.934V32.07H377.514V37.245H371.934ZM385.24 29.1C384.13 29.1 383.2 28.755 382.45 28.065C381.73 27.345 381.37 26.46 381.37 25.41C381.37 24.36 381.73 23.49 382.45 22.8C383.2 22.08 384.13 21.72 385.24 21.72C386.35 21.72 387.265 22.08 387.985 22.8C388.735 23.49 389.11 24.36 389.11 25.41C389.11 26.46 388.735 27.345 387.985 28.065C387.265 28.755 386.35 29.1 385.24 29.1ZM388.345 32.07V57H382.045V32.07H388.345ZM405.64 57.405C403.24 57.405 401.08 56.88 399.16 55.83C397.24 54.75 395.725 53.235 394.615 51.285C393.535 49.335 392.995 47.085 392.995 44.535C392.995 41.985 393.55 39.735 394.66 37.785C395.8 35.835 397.345 34.335 399.295 33.285C401.245 32.205 403.42 31.665 405.82 31.665C408.22 31.665 410.395 32.205 412.345 33.285C414.295 34.335 415.825 35.835 416.935 37.785C418.075 39.735 418.645 41.985 418.645 44.535C418.645 47.085 418.06 49.335 416.89 51.285C415.75 53.235 414.19 54.75 412.21 55.83C410.26 56.88 408.07 57.405 405.64 57.405ZM405.64 51.915C406.78 51.915 407.845 51.645 408.835 51.105C409.855 50.535 410.665 49.695 411.265 48.585C411.865 47.475 412.165 46.125 412.165 44.535C412.165 42.165 411.535 40.35 410.275 39.09C409.045 37.8 407.53 37.155 405.73 37.155C403.93 37.155 402.415 37.8 401.185 39.09C399.985 40.35 399.385 42.165 399.385 44.535C399.385 46.905 399.97 48.735 401.14 50.025C402.34 51.285 403.84 51.915 405.64 51.915ZM437.081 31.71C440.051 31.71 442.451 32.655 444.281 34.545C446.111 36.405 447.026 39.015 447.026 42.375V57H440.726V43.23C440.726 41.25 440.231 39.735 439.241 38.685C438.251 37.605 436.901 37.065 435.191 37.065C433.451 37.065 432.071 37.605 431.051 38.685C430.061 39.735 429.566 41.25 429.566 43.23V57H423.266V32.07H429.566V35.175C430.406 34.095 431.471 33.255 432.761 32.655C434.081 32.025 435.521 31.71 437.081 31.71Z" fill="black"/>
</g>
<defs>
<clipPath id="clip0_116_8">
<rect width="450" height="68" fill="white"/>
</clipPath>
</defs>
</svg>
