<svg width="205" height="104" viewBox="0 0 205 104" fill="none" xmlns="http://www.w3.org/2000/svg">
<path d="M12.52 16.08C15.4533 16.08 18.0267 16.6533 20.24 17.8C22.48 18.9467 24.2 20.5867 25.4 22.72C26.6267 24.8267 27.24 27.28 27.24 30.08C27.24 32.88 26.6267 35.3333 25.4 37.44C24.2 39.52 22.48 41.1333 20.24 42.28C18.0267 43.4267 15.4533 44 12.52 44H2.76V16.08H12.52ZM12.32 39.24C15.2533 39.24 17.52 38.44 19.12 36.84C20.72 35.24 21.52 32.9867 21.52 30.08C21.52 27.1733 20.72 24.9067 19.12 23.28C17.52 21.6267 15.2533 20.8 12.32 20.8H8.36V39.24H12.32ZM41.2719 44.36C39.1385 44.36 37.2185 43.8933 35.5119 42.96C33.8052 42 32.4585 40.6533 31.4719 38.92C30.5119 37.1867 30.0319 35.1867 30.0319 32.92C30.0319 30.6533 30.5252 28.6533 31.5119 26.92C32.5252 25.1867 33.8985 23.8533 35.6319 22.92C37.3652 21.96 39.2985 21.48 41.4319 21.48C43.5652 21.48 45.4985 21.96 47.2319 22.92C48.9652 23.8533 50.3252 25.1867 51.3119 26.92C52.3252 28.6533 52.8319 30.6533 52.8319 32.92C52.8319 35.1867 52.3119 37.1867 51.2719 38.92C50.2585 40.6533 48.8719 42 47.1119 42.96C45.3785 43.8933 43.4319 44.36 41.2719 44.36ZM41.2719 39.48C42.2852 39.48 43.2319 39.24 44.1119 38.76C45.0185 38.2533 45.7385 37.5067 46.2719 36.52C46.8052 35.5333 47.0719 34.3333 47.0719 32.92C47.0719 30.8133 46.5119 29.2 45.3919 28.08C44.2985 26.9333 42.9519 26.36 41.3519 26.36C39.7519 26.36 38.4052 26.9333 37.3119 28.08C36.2452 29.2 35.7119 30.8133 35.7119 32.92C35.7119 35.0267 36.2319 36.6533 37.2719 37.8C38.3385 38.92 39.6719 39.48 41.2719 39.48ZM66.7797 44.36C64.6464 44.36 62.7264 43.8933 61.0197 42.96C59.313 42 57.9664 40.6533 56.9797 38.92C56.0197 37.1867 55.5397 35.1867 55.5397 32.92C55.5397 30.6533 56.033 28.6533 57.0197 26.92C58.033 25.1867 59.4064 23.8533 61.1397 22.92C62.873 21.96 64.8064 21.48 66.9397 21.48C69.073 21.48 71.0064 21.96 72.7397 22.92C74.473 23.8533 75.833 25.1867 76.8197 26.92C77.833 28.6533 78.3397 30.6533 78.3397 32.92C78.3397 35.1867 77.8197 37.1867 76.7797 38.92C75.7664 40.6533 74.3797 42 72.6197 42.96C70.8864 43.8933 68.9397 44.36 66.7797 44.36ZM66.7797 39.48C67.793 39.48 68.7397 39.24 69.6197 38.76C70.5264 38.2533 71.2464 37.5067 71.7797 36.52C72.313 35.5333 72.5797 34.3333 72.5797 32.92C72.5797 30.8133 72.0197 29.2 70.8997 28.08C69.8064 26.9333 68.4597 26.36 66.8597 26.36C65.2597 26.36 63.913 26.9333 62.8197 28.08C61.753 29.2 61.2197 30.8133 61.2197 32.92C61.2197 35.0267 61.7397 36.6533 62.7797 37.8C63.8464 38.92 65.1797 39.48 66.7797 39.48ZM88.0475 25.28C88.7675 24.1067 89.7008 23.1867 90.8475 22.52C92.0208 21.8533 93.3542 21.52 94.8475 21.52V27.4H93.3675C91.6075 27.4 90.2742 27.8133 89.3675 28.64C88.4875 29.4667 88.0475 30.9067 88.0475 32.96V44H82.4475V21.84H88.0475V25.28ZM107.099 44.36C105.286 44.36 103.659 44.04 102.219 43.4C100.779 42.7333 99.6327 41.84 98.7794 40.72C97.9527 39.6 97.4994 38.36 97.4194 37H103.059C103.166 37.8533 103.579 38.56 104.299 39.12C105.046 39.68 105.966 39.96 107.059 39.96C108.126 39.96 108.953 39.7467 109.539 39.32C110.153 38.8933 110.459 38.3467 110.459 37.68C110.459 36.96 110.086 36.4267 109.339 36.08C108.619 35.7067 107.459 35.3067 105.859 34.88C104.206 34.48 102.846 34.0667 101.779 33.64C100.739 33.2133 99.8327 32.56 99.0594 31.68C98.3127 30.8 97.9394 29.6133 97.9394 28.12C97.9394 26.8933 98.286 25.7733 98.9794 24.76C99.6994 23.7467 100.713 22.9467 102.019 22.36C103.353 21.7733 104.913 21.48 106.699 21.48C109.339 21.48 111.446 22.1467 113.019 23.48C114.593 24.7867 115.459 26.56 115.619 28.8H110.259C110.179 27.92 109.806 27.2267 109.139 26.72C108.499 26.1867 107.633 25.92 106.539 25.92C105.526 25.92 104.739 26.1067 104.179 26.48C103.646 26.8533 103.379 27.3733 103.379 28.04C103.379 28.7867 103.753 29.36 104.499 29.76C105.246 30.1333 106.406 30.52 107.979 30.92C109.579 31.32 110.899 31.7333 111.939 32.16C112.979 32.5867 113.873 33.2533 114.619 34.16C115.393 35.04 115.793 36.2133 115.819 37.68C115.819 38.96 115.459 40.1067 114.739 41.12C114.046 42.1333 113.033 42.9333 111.699 43.52C110.393 44.08 108.859 44.36 107.099 44.36ZM126.936 26.44V37.16C126.936 37.9067 127.11 38.4533 127.456 38.8C127.83 39.12 128.443 39.28 129.296 39.28H131.896V44H128.376C123.656 44 121.296 41.7067 121.296 37.12V26.44H118.656V21.84H121.296V16.36H126.936V21.84H131.896V26.44H126.936ZM145.764 44.36C143.631 44.36 141.711 43.8933 140.004 42.96C138.297 42 136.951 40.6533 135.964 38.92C135.004 37.1867 134.524 35.1867 134.524 32.92C134.524 30.6533 135.017 28.6533 136.004 26.92C137.017 25.1867 138.391 23.8533 140.124 22.92C141.857 21.96 143.791 21.48 145.924 21.48C148.057 21.48 149.991 21.96 151.724 22.92C153.457 23.8533 154.817 25.1867 155.804 26.92C156.817 28.6533 157.324 30.6533 157.324 32.92C157.324 35.1867 156.804 37.1867 155.764 38.92C154.751 40.6533 153.364 42 151.604 42.96C149.871 43.8933 147.924 44.36 145.764 44.36ZM145.764 39.48C146.777 39.48 147.724 39.24 148.604 38.76C149.511 38.2533 150.231 37.5067 150.764 36.52C151.297 35.5333 151.564 34.3333 151.564 32.92C151.564 30.8133 151.004 29.2 149.884 28.08C148.791 26.9333 147.444 26.36 145.844 26.36C144.244 26.36 142.897 26.9333 141.804 28.08C140.737 29.2 140.204 30.8133 140.204 32.92C140.204 35.0267 140.724 36.6533 141.764 37.8C142.831 38.92 144.164 39.48 145.764 39.48ZM167.032 25.04C167.752 24.0267 168.739 23.1867 169.992 22.52C171.272 21.8267 172.725 21.48 174.352 21.48C176.245 21.48 177.952 21.9467 179.472 22.88C181.019 23.8133 182.232 25.1467 183.112 26.88C184.019 28.5867 184.472 30.5733 184.472 32.84C184.472 35.1067 184.019 37.12 183.112 38.88C182.232 40.6133 181.019 41.96 179.472 42.92C177.952 43.88 176.245 44.36 174.352 44.36C172.725 44.36 171.285 44.0267 170.032 43.36C168.805 42.6933 167.805 41.8533 167.032 40.84V54.56H161.432V21.84H167.032V25.04ZM178.752 32.84C178.752 31.5067 178.472 30.36 177.912 29.4C177.379 28.4133 176.659 27.6667 175.752 27.16C174.872 26.6533 173.912 26.4 172.872 26.4C171.859 26.4 170.899 26.6667 169.992 27.2C169.112 27.7067 168.392 28.4533 167.832 29.44C167.299 30.4267 167.032 31.5867 167.032 32.92C167.032 34.2533 167.299 35.4133 167.832 36.4C168.392 37.3867 169.112 38.1467 169.992 38.68C170.899 39.1867 171.859 39.44 172.872 39.44C173.912 39.44 174.872 39.1733 175.752 38.64C176.659 38.1067 177.379 37.3467 177.912 36.36C178.472 35.3733 178.752 34.2 178.752 32.84Z" fill="black"/>
<path d="M8.36 64.6V71.6H17.76V76.04H8.36V83.44H18.96V88H2.76V60.04H18.96V64.6H8.36ZM22.6091 76.84C22.6091 74.6 23.0491 72.6133 23.9291 70.88C24.8357 69.1467 26.0624 67.8133 27.6091 66.88C29.1557 65.9467 30.8757 65.48 32.7691 65.48C34.2091 65.48 35.5824 65.8 36.8891 66.44C38.1957 67.0533 39.2357 67.88 40.0091 68.92V58.4H45.6891V88H40.0091V84.72C39.3157 85.8133 38.3424 86.6933 37.0891 87.36C35.8357 88.0267 34.3824 88.36 32.7291 88.36C30.8624 88.36 29.1557 87.88 27.6091 86.92C26.0624 85.96 24.8357 84.6133 23.9291 82.88C23.0491 81.12 22.6091 79.1067 22.6091 76.84ZM40.0491 76.92C40.0491 75.56 39.7824 74.4 39.2491 73.44C38.7157 72.4533 37.9957 71.7067 37.0891 71.2C36.1824 70.6667 35.2091 70.4 34.1691 70.4C33.1291 70.4 32.1691 70.6533 31.2891 71.16C30.4091 71.6667 29.6891 72.4133 29.1291 73.4C28.5957 74.36 28.3291 75.5067 28.3291 76.84C28.3291 78.1733 28.5957 79.3467 29.1291 80.36C29.6891 81.3467 30.4091 82.1067 31.2891 82.64C32.1957 83.1733 33.1557 83.44 34.1691 83.44C35.2091 83.44 36.1824 83.1867 37.0891 82.68C37.9957 82.1467 38.7157 81.4 39.2491 80.44C39.7824 79.4533 40.0491 78.28 40.0491 76.92ZM72.0784 65.84V88H66.4384V85.2C65.7184 86.16 64.7718 86.92 63.5984 87.48C62.4518 88.0133 61.1984 88.28 59.8384 88.28C58.1051 88.28 56.5718 87.92 55.2384 87.2C53.9051 86.4533 52.8518 85.3733 52.0784 83.96C51.3318 82.52 50.9584 80.8133 50.9584 78.84V65.84H56.5584V78.04C56.5584 79.8 56.9984 81.16 57.8784 82.12C58.7584 83.0533 59.9584 83.52 61.4784 83.52C63.0251 83.52 64.2384 83.0533 65.1184 82.12C65.9984 81.16 66.4384 79.8 66.4384 78.04V65.84H72.0784ZM76.1637 76.92C76.1637 74.6267 76.6304 72.6267 77.5638 70.92C78.4971 69.1867 79.7904 67.8533 81.4438 66.92C83.0971 65.96 84.9904 65.48 87.1238 65.48C89.8704 65.48 92.1371 66.1733 93.9238 67.56C95.7371 68.92 96.9504 70.84 97.5638 73.32H91.5238C91.2038 72.36 90.6571 71.6133 89.8838 71.08C89.1371 70.52 88.2038 70.24 87.0838 70.24C85.4838 70.24 84.2171 70.8267 83.2838 72C82.3504 73.1467 81.8838 74.7867 81.8838 76.92C81.8838 79.0267 82.3504 80.6667 83.2838 81.84C84.2171 82.9867 85.4838 83.56 87.0838 83.56C89.3504 83.56 90.8304 82.5467 91.5238 80.52H97.5638C96.9504 82.92 95.7371 84.8267 93.9238 86.24C92.1104 87.6533 89.8438 88.36 87.1238 88.36C84.9904 88.36 83.0971 87.8933 81.4438 86.96C79.7904 86 78.4971 84.6667 77.5638 82.96C76.6304 81.2267 76.1637 79.2133 76.1637 76.92ZM100.226 76.84C100.226 74.6 100.666 72.6133 101.546 70.88C102.453 69.1467 103.666 67.8133 105.186 66.88C106.733 65.9467 108.453 65.48 110.346 65.48C112 65.48 113.44 65.8133 114.666 66.48C115.92 67.1467 116.92 67.9867 117.666 69V65.84H123.306V88H117.666V84.76C116.946 85.8 115.946 86.6667 114.666 87.36C113.413 88.0267 111.96 88.36 110.306 88.36C108.44 88.36 106.733 87.88 105.186 86.92C103.666 85.96 102.453 84.6133 101.546 82.88C100.666 81.12 100.226 79.1067 100.226 76.84ZM117.666 76.92C117.666 75.56 117.4 74.4 116.866 73.44C116.333 72.4533 115.613 71.7067 114.706 71.2C113.8 70.6667 112.826 70.4 111.786 70.4C110.746 70.4 109.786 70.6533 108.906 71.16C108.026 71.6667 107.306 72.4133 106.746 73.4C106.213 74.36 105.946 75.5067 105.946 76.84C105.946 78.1733 106.213 79.3467 106.746 80.36C107.306 81.3467 108.026 82.1067 108.906 82.64C109.813 83.1733 110.773 83.44 111.786 83.44C112.826 83.44 113.8 83.1867 114.706 82.68C115.613 82.1467 116.333 81.4 116.866 80.44C117.4 79.4533 117.666 78.28 117.666 76.92ZM135.296 70.44V81.16C135.296 81.9067 135.469 82.4533 135.816 82.8C136.189 83.12 136.802 83.28 137.656 83.28H140.256V88H136.736C132.016 88 129.656 85.7067 129.656 81.12V70.44H127.016V65.84H129.656V60.36H135.296V65.84H140.256V70.44H135.296ZM147.123 63.2C146.137 63.2 145.31 62.8933 144.643 62.28C144.003 61.64 143.683 60.8533 143.683 59.92C143.683 58.9867 144.003 58.2133 144.643 57.6C145.31 56.96 146.137 56.64 147.123 56.64C148.11 56.64 148.923 56.96 149.563 57.6C150.23 58.2133 150.563 58.9867 150.563 59.92C150.563 60.8533 150.23 61.64 149.563 62.28C148.923 62.8933 148.11 63.2 147.123 63.2ZM149.883 65.84V88H144.283V65.84H149.883ZM165.256 88.36C163.123 88.36 161.203 87.8933 159.496 86.96C157.79 86 156.443 84.6533 155.456 82.92C154.496 81.1867 154.016 79.1867 154.016 76.92C154.016 74.6533 154.51 72.6533 155.496 70.92C156.51 69.1867 157.883 67.8533 159.616 66.92C161.35 65.96 163.283 65.48 165.416 65.48C167.55 65.48 169.483 65.96 171.216 66.92C172.95 67.8533 174.31 69.1867 175.296 70.92C176.31 72.6533 176.816 74.6533 176.816 76.92C176.816 79.1867 176.296 81.1867 175.256 82.92C174.243 84.6533 172.856 86 171.096 86.96C169.363 87.8933 167.416 88.36 165.256 88.36ZM165.256 83.48C166.27 83.48 167.216 83.24 168.096 82.76C169.003 82.2533 169.723 81.5067 170.256 80.52C170.79 79.5333 171.056 78.3333 171.056 76.92C171.056 74.8133 170.496 73.2 169.376 72.08C168.283 70.9333 166.936 70.36 165.336 70.36C163.736 70.36 162.39 70.9333 161.296 72.08C160.23 73.2 159.696 74.8133 159.696 76.92C159.696 79.0267 160.216 80.6533 161.256 81.8C162.323 82.92 163.656 83.48 165.256 83.48ZM193.204 65.52C195.844 65.52 197.977 66.36 199.604 68.04C201.231 69.6933 202.044 72.0133 202.044 75V88H196.444V75.76C196.444 74 196.004 72.6533 195.124 71.72C194.244 70.76 193.044 70.28 191.524 70.28C189.977 70.28 188.751 70.76 187.844 71.72C186.964 72.6533 186.524 74 186.524 75.76V88H180.924V65.84H186.524V68.6C187.271 67.64 188.217 66.8933 189.364 66.36C190.537 65.8 191.817 65.52 193.204 65.52Z" fill="#CC9966"/>
</svg>
