<svg width="500" height="58" viewBox="0 0 500 58" fill="none" xmlns="http://www.w3.org/2000/svg">
<g clip-path="url(#clip0_402_77)">
<path d="M15.65 9.1C19.3167 9.1 22.5333 9.81667 25.3 11.25C28.1 12.6833 30.25 14.7333 31.75 17.4C33.2833 20.0333 34.05 23.1 34.05 26.6C34.05 30.1 33.2833 33.1667 31.75 35.8C30.25 38.4 28.1 40.4167 25.3 41.85C22.5333 43.2833 19.3167 44 15.65 44H3.45V9.1H15.65ZM15.4 38.05C19.0667 38.05 21.9 37.05 23.9 35.05C25.9 33.05 26.9 30.2333 26.9 26.6C26.9 22.9667 25.9 20.1333 23.9 18.1C21.9 16.0333 19.0667 15 15.4 15H10.45V38.05H15.4ZM51.5898 44.45C48.9232 44.45 46.5232 43.8667 44.3898 42.7C42.2565 41.5 40.5732 39.8167 39.3398 37.65C38.1398 35.4833 37.5398 32.9833 37.5398 30.15C37.5398 27.3167 38.1565 24.8167 39.3898 22.65C40.6565 20.4833 42.3732 18.8167 44.5398 17.65C46.7065 16.45 49.1232 15.85 51.7898 15.85C54.4565 15.85 56.8732 16.45 59.0398 17.65C61.2065 18.8167 62.9065 20.4833 64.1398 22.65C65.4065 24.8167 66.0398 27.3167 66.0398 30.15C66.0398 32.9833 65.3898 35.4833 64.0898 37.65C62.8232 39.8167 61.0898 41.5 58.8898 42.7C56.7232 43.8667 54.2898 44.45 51.5898 44.45ZM51.5898 38.35C52.8565 38.35 54.0398 38.05 55.1398 37.45C56.2732 36.8167 57.1732 35.8833 57.8398 34.65C58.5065 33.4167 58.8398 31.9167 58.8398 30.15C58.8398 27.5167 58.1398 25.5 56.7398 24.1C55.3732 22.6667 53.6898 21.95 51.6898 21.95C49.6898 21.95 48.0065 22.6667 46.6398 24.1C45.3065 25.5 44.6398 27.5167 44.6398 30.15C44.6398 32.7833 45.2898 34.8167 46.5898 36.25C47.9232 37.65 49.5898 38.35 51.5898 38.35ZM83.4746 44.45C80.8079 44.45 78.4079 43.8667 76.2746 42.7C74.1413 41.5 72.4579 39.8167 71.2246 37.65C70.0246 35.4833 69.4246 32.9833 69.4246 30.15C69.4246 27.3167 70.0413 24.8167 71.2746 22.65C72.5413 20.4833 74.2579 18.8167 76.4246 17.65C78.5913 16.45 81.0079 15.85 83.6746 15.85C86.3413 15.85 88.7579 16.45 90.9246 17.65C93.0913 18.8167 94.7913 20.4833 96.0246 22.65C97.2913 24.8167 97.9246 27.3167 97.9246 30.15C97.9246 32.9833 97.2746 35.4833 95.9746 37.65C94.7079 39.8167 92.9746 41.5 90.7746 42.7C88.6079 43.8667 86.1746 44.45 83.4746 44.45ZM83.4746 38.35C84.7413 38.35 85.9246 38.05 87.0246 37.45C88.1579 36.8167 89.0579 35.8833 89.7246 34.65C90.3913 33.4167 90.7246 31.9167 90.7246 30.15C90.7246 27.5167 90.0246 25.5 88.6246 24.1C87.2579 22.6667 85.5746 21.95 83.5746 21.95C81.5746 21.95 79.8913 22.6667 78.5246 24.1C77.1913 25.5 76.5246 27.5167 76.5246 30.15C76.5246 32.7833 77.1746 34.8167 78.4746 36.25C79.8079 37.65 81.4746 38.35 83.4746 38.35ZM110.059 20.6C110.959 19.1333 112.126 17.9833 113.559 17.15C115.026 16.3167 116.693 15.9 118.559 15.9V23.25H116.709C114.509 23.25 112.843 23.7667 111.709 24.8C110.609 25.8333 110.059 27.6333 110.059 30.2V44H103.059V16.3H110.059V20.6ZM133.874 44.45C131.608 44.45 129.574 44.05 127.774 43.25C125.974 42.4167 124.541 41.3 123.474 39.9C122.441 38.5 121.874 36.95 121.774 35.25H128.824C128.958 36.3167 129.474 37.2 130.374 37.9C131.308 38.6 132.458 38.95 133.824 38.95C135.158 38.95 136.191 38.6833 136.924 38.15C137.691 37.6167 138.074 36.9333 138.074 36.1C138.074 35.2 137.608 34.5333 136.674 34.1C135.774 33.6333 134.324 33.1333 132.324 32.6C130.258 32.1 128.558 31.5833 127.224 31.05C125.924 30.5167 124.791 29.7 123.824 28.6C122.891 27.5 122.424 26.0167 122.424 24.15C122.424 22.6167 122.858 21.2167 123.724 19.95C124.624 18.6833 125.891 17.6833 127.524 16.95C129.191 16.2167 131.141 15.85 133.374 15.85C136.674 15.85 139.308 16.6833 141.274 18.35C143.241 19.9833 144.324 22.2 144.524 25H137.824C137.724 23.9 137.258 23.0333 136.424 22.4C135.624 21.7333 134.541 21.4 133.174 21.4C131.908 21.4 130.924 21.6333 130.224 22.1C129.558 22.5667 129.224 23.2167 129.224 24.05C129.224 24.9833 129.691 25.7 130.624 26.2C131.558 26.6667 133.008 27.15 134.974 27.65C136.974 28.15 138.624 28.6667 139.924 29.2C141.224 29.7333 142.341 30.5667 143.274 31.7C144.241 32.8 144.741 34.2667 144.774 36.1C144.774 37.7 144.324 39.1333 143.424 40.4C142.558 41.6667 141.291 42.6667 139.624 43.4C137.991 44.1 136.074 44.45 133.874 44.45ZM158.67 22.05V35.45C158.67 36.3833 158.887 37.0667 159.32 37.5C159.787 37.9 160.554 38.1 161.62 38.1H164.87V44H160.47C154.57 44 151.62 41.1333 151.62 35.4V22.05H148.32V16.3H151.62V9.45H158.67V16.3H164.87V22.05H158.67ZM182.205 44.45C179.538 44.45 177.138 43.8667 175.005 42.7C172.872 41.5 171.188 39.8167 169.955 37.65C168.755 35.4833 168.155 32.9833 168.155 30.15C168.155 27.3167 168.772 24.8167 170.005 22.65C171.272 20.4833 172.988 18.8167 175.155 17.65C177.322 16.45 179.738 15.85 182.405 15.85C185.072 15.85 187.488 16.45 189.655 17.65C191.822 18.8167 193.522 20.4833 194.755 22.65C196.022 24.8167 196.655 27.3167 196.655 30.15C196.655 32.9833 196.005 35.4833 194.705 37.65C193.438 39.8167 191.705 41.5 189.505 42.7C187.338 43.8667 184.905 44.45 182.205 44.45ZM182.205 38.35C183.472 38.35 184.655 38.05 185.755 37.45C186.888 36.8167 187.788 35.8833 188.455 34.65C189.122 33.4167 189.455 31.9167 189.455 30.15C189.455 27.5167 188.755 25.5 187.355 24.1C185.988 22.6667 184.305 21.95 182.305 21.95C180.305 21.95 178.622 22.6667 177.255 24.1C175.922 25.5 175.255 27.5167 175.255 30.15C175.255 32.7833 175.905 34.8167 177.205 36.25C178.538 37.65 180.205 38.35 182.205 38.35ZM208.79 20.3C209.69 19.0333 210.923 17.9833 212.49 17.15C214.09 16.2833 215.907 15.85 217.94 15.85C220.307 15.85 222.44 16.4333 224.34 17.6C226.273 18.7667 227.79 20.4333 228.89 22.6C230.023 24.7333 230.59 27.2167 230.59 30.05C230.59 32.8833 230.023 35.4 228.89 37.6C227.79 39.7667 226.273 41.45 224.34 42.65C222.44 43.85 220.307 44.45 217.94 44.45C215.907 44.45 214.107 44.0333 212.54 43.2C211.007 42.3667 209.757 41.3167 208.79 40.05V57.2H201.79V16.3H208.79V20.3ZM223.44 30.05C223.44 28.3833 223.09 26.95 222.39 25.75C221.723 24.5167 220.823 23.5833 219.69 22.95C218.59 22.3167 217.39 22 216.09 22C214.823 22 213.623 22.3333 212.49 23C211.39 23.6333 210.49 24.5667 209.79 25.8C209.123 27.0333 208.79 28.4833 208.79 30.15C208.79 31.8167 209.123 33.2667 209.79 34.5C210.49 35.7333 211.39 36.6833 212.49 37.35C213.623 37.9833 214.823 38.3 216.09 38.3C217.39 38.3 218.59 37.9667 219.69 37.3C220.823 36.6333 221.723 35.6833 222.39 34.45C223.09 33.2167 223.44 31.75 223.44 30.05ZM254.591 14.75V23.5H266.341V29.05H254.591V38.3H267.841V44H247.591V9.05H267.841V14.75H254.591ZM272.402 30.05C272.402 27.25 272.952 24.7667 274.052 22.6C275.185 20.4333 276.719 18.7667 278.652 17.6C280.585 16.4333 282.735 15.85 285.102 15.85C286.902 15.85 288.619 16.25 290.252 17.05C291.885 17.8167 293.185 18.85 294.152 20.15V7H301.252V44H294.152V39.9C293.285 41.2667 292.069 42.3667 290.502 43.2C288.935 44.0333 287.119 44.45 285.052 44.45C282.719 44.45 280.585 43.85 278.652 42.65C276.719 41.45 275.185 39.7667 274.052 37.6C272.952 35.4 272.402 32.8833 272.402 30.05ZM294.202 30.15C294.202 28.45 293.869 27 293.202 25.8C292.535 24.5667 291.635 23.6333 290.502 23C289.369 22.3333 288.152 22 286.852 22C285.552 22 284.352 22.3167 283.252 22.95C282.152 23.5833 281.252 24.5167 280.552 25.75C279.885 26.95 279.552 28.3833 279.552 30.05C279.552 31.7167 279.885 33.1833 280.552 34.45C281.252 35.6833 282.152 36.6333 283.252 37.3C284.385 37.9667 285.585 38.3 286.852 38.3C288.152 38.3 289.369 37.9833 290.502 37.35C291.635 36.6833 292.535 35.75 293.202 34.55C293.869 33.3167 294.202 31.85 294.202 30.15ZM334.239 16.3V44H327.189V40.5C326.289 41.7 325.105 42.65 323.639 43.35C322.205 44.0167 320.639 44.35 318.939 44.35C316.772 44.35 314.855 43.9 313.189 43C311.522 42.0667 310.205 40.7167 309.239 38.95C308.305 37.15 307.839 35.0167 307.839 32.55V16.3H314.839V31.55C314.839 33.75 315.389 35.45 316.489 36.65C317.589 37.8167 319.089 38.4 320.989 38.4C322.922 38.4 324.439 37.8167 325.539 36.65C326.639 35.45 327.189 33.75 327.189 31.55V16.3H334.239ZM339.345 30.15C339.345 27.2833 339.929 24.7833 341.095 22.65C342.262 20.4833 343.879 18.8167 345.945 17.65C348.012 16.45 350.379 15.85 353.045 15.85C356.479 15.85 359.312 16.7167 361.545 18.45C363.812 20.15 365.329 22.55 366.095 25.65H358.545C358.145 24.45 357.462 23.5167 356.495 22.85C355.562 22.15 354.395 21.8 352.995 21.8C350.995 21.8 349.412 22.5333 348.245 24C347.079 25.4333 346.495 27.4833 346.495 30.15C346.495 32.7833 347.079 34.8333 348.245 36.3C349.412 37.7333 350.995 38.45 352.995 38.45C355.829 38.45 357.679 37.1833 358.545 34.65H366.095C365.329 37.65 363.812 40.0333 361.545 41.8C359.279 43.5667 356.445 44.45 353.045 44.45C350.379 44.45 348.012 43.8667 345.945 42.7C343.879 41.5 342.262 39.8333 341.095 37.7C339.929 35.5333 339.345 33.0167 339.345 30.15ZM369.423 30.05C369.423 27.25 369.973 24.7667 371.073 22.6C372.207 20.4333 373.723 18.7667 375.623 17.6C377.557 16.4333 379.707 15.85 382.073 15.85C384.14 15.85 385.94 16.2667 387.473 17.1C389.04 17.9333 390.29 18.9833 391.223 20.25V16.3H398.273V44H391.223V39.95C390.323 41.25 389.073 42.3333 387.473 43.2C385.907 44.0333 384.09 44.45 382.023 44.45C379.69 44.45 377.557 43.85 375.623 42.65C373.723 41.45 372.207 39.7667 371.073 37.6C369.973 35.4 369.423 32.8833 369.423 30.05ZM391.223 30.15C391.223 28.45 390.89 27 390.223 25.8C389.557 24.5667 388.657 23.6333 387.523 23C386.39 22.3333 385.173 22 383.873 22C382.573 22 381.373 22.3167 380.273 22.95C379.173 23.5833 378.273 24.5167 377.573 25.75C376.907 26.95 376.573 28.3833 376.573 30.05C376.573 31.7167 376.907 33.1833 377.573 34.45C378.273 35.6833 379.173 36.6333 380.273 37.3C381.407 37.9667 382.607 38.3 383.873 38.3C385.173 38.3 386.39 37.9833 387.523 37.35C388.657 36.6833 389.557 35.75 390.223 34.55C390.89 33.3167 391.223 31.85 391.223 30.15ZM413.26 22.05V35.45C413.26 36.3833 413.477 37.0667 413.91 37.5C414.377 37.9 415.143 38.1 416.21 38.1H419.46V44H415.06C409.16 44 406.21 41.1333 406.21 35.4V22.05H402.91V16.3H406.21V9.45H413.26V16.3H419.46V22.05H413.26ZM428.045 13C426.812 13 425.778 12.6167 424.945 11.85C424.145 11.05 423.745 10.0667 423.745 8.9C423.745 7.73333 424.145 6.76666 424.945 6C425.778 5.2 426.812 4.8 428.045 4.8C429.278 4.8 430.295 5.2 431.095 6C431.928 6.76666 432.345 7.73333 432.345 8.9C432.345 10.0667 431.928 11.05 431.095 11.85C430.295 12.6167 429.278 13 428.045 13ZM431.495 16.3V44H424.495V16.3H431.495ZM450.711 44.45C448.044 44.45 445.644 43.8667 443.511 42.7C441.378 41.5 439.694 39.8167 438.461 37.65C437.261 35.4833 436.661 32.9833 436.661 30.15C436.661 27.3167 437.278 24.8167 438.511 22.65C439.778 20.4833 441.494 18.8167 443.661 17.65C445.828 16.45 448.244 15.85 450.911 15.85C453.578 15.85 455.994 16.45 458.161 17.65C460.328 18.8167 462.028 20.4833 463.261 22.65C464.528 24.8167 465.161 27.3167 465.161 30.15C465.161 32.9833 464.511 35.4833 463.211 37.65C461.944 39.8167 460.211 41.5 458.011 42.7C455.844 43.8667 453.411 44.45 450.711 44.45ZM450.711 38.35C451.978 38.35 453.161 38.05 454.261 37.45C455.394 36.8167 456.294 35.8833 456.961 34.65C457.628 33.4167 457.961 31.9167 457.961 30.15C457.961 27.5167 457.261 25.5 455.861 24.1C454.494 22.6667 452.811 21.95 450.811 21.95C448.811 21.95 447.128 22.6667 445.761 24.1C444.428 25.5 443.761 27.5167 443.761 30.15C443.761 32.7833 444.411 34.8167 445.711 36.25C447.044 37.65 448.711 38.35 450.711 38.35ZM485.646 15.9C488.946 15.9 491.612 16.95 493.646 19.05C495.679 21.1167 496.696 24.0167 496.696 27.75V44H489.696V28.7C489.696 26.5 489.146 24.8167 488.046 23.65C486.946 22.45 485.446 21.85 483.546 21.85C481.612 21.85 480.079 22.45 478.946 23.65C477.846 24.8167 477.296 26.5 477.296 28.7V44H470.296V16.3H477.296V19.75C478.229 18.55 479.412 17.6167 480.846 16.95C482.312 16.25 483.912 15.9 485.646 15.9Z" fill="black"/>
</g>
<defs>
<clipPath id="clip0_402_77">
<rect width="500" height="58" fill="white"/>
</clipPath>
</defs>
</svg>
