<svg width="400" height="67" viewBox="0 0 400 67" fill="none" xmlns="http://www.w3.org/2000/svg">
<path d="M12.52 23.08C15.4533 23.08 18.0267 23.6533 20.24 24.8C22.48 25.9467 24.2 27.5867 25.4 29.72C26.6267 31.8267 27.24 34.28 27.24 37.08C27.24 39.88 26.6267 42.3333 25.4 44.44C24.2 46.52 22.48 48.1333 20.24 49.28C18.0267 50.4267 15.4533 51 12.52 51H2.76V23.08H12.52ZM12.32 46.24C15.2533 46.24 17.52 45.44 19.12 43.84C20.72 42.24 21.52 39.9867 21.52 37.08C21.52 34.1733 20.72 31.9067 19.12 30.28C17.52 28.6267 15.2533 27.8 12.32 27.8H8.36V46.24H12.32ZM41.2719 51.36C39.1385 51.36 37.2185 50.8933 35.5119 49.96C33.8052 49 32.4585 47.6533 31.4719 45.92C30.5119 44.1867 30.0319 42.1867 30.0319 39.92C30.0319 37.6533 30.5252 35.6533 31.5119 33.92C32.5252 32.1867 33.8985 30.8533 35.6319 29.92C37.3652 28.96 39.2985 28.48 41.4319 28.48C43.5652 28.48 45.4985 28.96 47.2319 29.92C48.9652 30.8533 50.3252 32.1867 51.3119 33.92C52.3252 35.6533 52.8319 37.6533 52.8319 39.92C52.8319 42.1867 52.3119 44.1867 51.2719 45.92C50.2585 47.6533 48.8719 49 47.1119 49.96C45.3785 50.8933 43.4319 51.36 41.2719 51.36ZM41.2719 46.48C42.2852 46.48 43.2319 46.24 44.1119 45.76C45.0185 45.2533 45.7385 44.5067 46.2719 43.52C46.8052 42.5333 47.0719 41.3333 47.0719 39.92C47.0719 37.8133 46.5119 36.2 45.3919 35.08C44.2985 33.9333 42.9519 33.36 41.3519 33.36C39.7519 33.36 38.4052 33.9333 37.3119 35.08C36.2452 36.2 35.7119 37.8133 35.7119 39.92C35.7119 42.0267 36.2319 43.6533 37.2719 44.8C38.3385 45.92 39.6719 46.48 41.2719 46.48ZM66.7797 51.36C64.6464 51.36 62.7264 50.8933 61.0197 49.96C59.313 49 57.9664 47.6533 56.9797 45.92C56.0197 44.1867 55.5397 42.1867 55.5397 39.92C55.5397 37.6533 56.033 35.6533 57.0197 33.92C58.033 32.1867 59.4064 30.8533 61.1397 29.92C62.873 28.96 64.8064 28.48 66.9397 28.48C69.073 28.48 71.0064 28.96 72.7397 29.92C74.473 30.8533 75.833 32.1867 76.8197 33.92C77.833 35.6533 78.3397 37.6533 78.3397 39.92C78.3397 42.1867 77.8197 44.1867 76.7797 45.92C75.7664 47.6533 74.3797 49 72.6197 49.96C70.8864 50.8933 68.9397 51.36 66.7797 51.36ZM66.7797 46.48C67.793 46.48 68.7397 46.24 69.6197 45.76C70.5264 45.2533 71.2464 44.5067 71.7797 43.52C72.313 42.5333 72.5797 41.3333 72.5797 39.92C72.5797 37.8133 72.0197 36.2 70.8997 35.08C69.8064 33.9333 68.4597 33.36 66.8597 33.36C65.2597 33.36 63.913 33.9333 62.8197 35.08C61.753 36.2 61.2197 37.8133 61.2197 39.92C61.2197 42.0267 61.7397 43.6533 62.7797 44.8C63.8464 45.92 65.1797 46.48 66.7797 46.48ZM88.0475 32.28C88.7675 31.1067 89.7008 30.1867 90.8475 29.52C92.0208 28.8533 93.3542 28.52 94.8475 28.52V34.4H93.3675C91.6075 34.4 90.2742 34.8133 89.3675 35.64C88.4875 36.4667 88.0475 37.9067 88.0475 39.96V51H82.4475V28.84H88.0475V32.28ZM107.099 51.36C105.286 51.36 103.659 51.04 102.219 50.4C100.779 49.7333 99.6327 48.84 98.7794 47.72C97.9527 46.6 97.4994 45.36 97.4194 44H103.059C103.166 44.8533 103.579 45.56 104.299 46.12C105.046 46.68 105.966 46.96 107.059 46.96C108.126 46.96 108.953 46.7467 109.539 46.32C110.153 45.8933 110.459 45.3467 110.459 44.68C110.459 43.96 110.086 43.4267 109.339 43.08C108.619 42.7067 107.459 42.3067 105.859 41.88C104.206 41.48 102.846 41.0667 101.779 40.64C100.739 40.2133 99.8327 39.56 99.0594 38.68C98.3127 37.8 97.9394 36.6133 97.9394 35.12C97.9394 33.8933 98.286 32.7733 98.9794 31.76C99.6994 30.7467 100.713 29.9467 102.019 29.36C103.353 28.7733 104.913 28.48 106.699 28.48C109.339 28.48 111.446 29.1467 113.019 30.48C114.593 31.7867 115.459 33.56 115.619 35.8H110.259C110.179 34.92 109.806 34.2267 109.139 33.72C108.499 33.1867 107.633 32.92 106.539 32.92C105.526 32.92 104.739 33.1067 104.179 33.48C103.646 33.8533 103.379 34.3733 103.379 35.04C103.379 35.7867 103.753 36.36 104.499 36.76C105.246 37.1333 106.406 37.52 107.979 37.92C109.579 38.32 110.899 38.7333 111.939 39.16C112.979 39.5867 113.873 40.2533 114.619 41.16C115.393 42.04 115.793 43.2133 115.819 44.68C115.819 45.96 115.459 47.1067 114.739 48.12C114.046 49.1333 113.033 49.9333 111.699 50.52C110.393 51.08 108.859 51.36 107.099 51.36ZM126.936 33.44V44.16C126.936 44.9067 127.11 45.4533 127.456 45.8C127.83 46.12 128.443 46.28 129.296 46.28H131.896V51H128.376C123.656 51 121.296 48.7067 121.296 44.12V33.44H118.656V28.84H121.296V23.36H126.936V28.84H131.896V33.44H126.936ZM145.764 51.36C143.631 51.36 141.711 50.8933 140.004 49.96C138.297 49 136.951 47.6533 135.964 45.92C135.004 44.1867 134.524 42.1867 134.524 39.92C134.524 37.6533 135.017 35.6533 136.004 33.92C137.017 32.1867 138.391 30.8533 140.124 29.92C141.857 28.96 143.791 28.48 145.924 28.48C148.057 28.48 149.991 28.96 151.724 29.92C153.457 30.8533 154.817 32.1867 155.804 33.92C156.817 35.6533 157.324 37.6533 157.324 39.92C157.324 42.1867 156.804 44.1867 155.764 45.92C154.751 47.6533 153.364 49 151.604 49.96C149.871 50.8933 147.924 51.36 145.764 51.36ZM145.764 46.48C146.777 46.48 147.724 46.24 148.604 45.76C149.511 45.2533 150.231 44.5067 150.764 43.52C151.297 42.5333 151.564 41.3333 151.564 39.92C151.564 37.8133 151.004 36.2 149.884 35.08C148.791 33.9333 147.444 33.36 145.844 33.36C144.244 33.36 142.897 33.9333 141.804 35.08C140.737 36.2 140.204 37.8133 140.204 39.92C140.204 42.0267 140.724 43.6533 141.764 44.8C142.831 45.92 144.164 46.48 145.764 46.48ZM167.032 32.04C167.752 31.0267 168.739 30.1867 169.992 29.52C171.272 28.8267 172.725 28.48 174.352 28.48C176.245 28.48 177.952 28.9467 179.472 29.88C181.019 30.8133 182.232 32.1467 183.112 33.88C184.019 35.5867 184.472 37.5733 184.472 39.84C184.472 42.1067 184.019 44.12 183.112 45.88C182.232 47.6133 181.019 48.96 179.472 49.92C177.952 50.88 176.245 51.36 174.352 51.36C172.725 51.36 171.285 51.0267 170.032 50.36C168.805 49.6933 167.805 48.8533 167.032 47.84V61.56H161.432V28.84H167.032V32.04ZM178.752 39.84C178.752 38.5067 178.472 37.36 177.912 36.4C177.379 35.4133 176.659 34.6667 175.752 34.16C174.872 33.6533 173.912 33.4 172.872 33.4C171.859 33.4 170.899 33.6667 169.992 34.2C169.112 34.7067 168.392 35.4533 167.832 36.44C167.299 37.4267 167.032 38.5867 167.032 39.92C167.032 41.2533 167.299 42.4133 167.832 43.4C168.392 44.3867 169.112 45.1467 169.992 45.68C170.899 46.1867 171.859 46.44 172.872 46.44C173.912 46.44 174.872 46.1733 175.752 45.64C176.659 45.1067 177.379 44.3467 177.912 43.36C178.472 42.3733 178.752 41.2 178.752 39.84ZM203.673 27.6V34.6H213.073V39.04H203.673V46.44H214.273V51H198.073V23.04H214.273V27.6H203.673ZM217.922 39.84C217.922 37.6 218.362 35.6133 219.242 33.88C220.148 32.1467 221.375 30.8133 222.922 29.88C224.468 28.9467 226.188 28.48 228.082 28.48C229.522 28.48 230.895 28.8 232.202 29.44C233.508 30.0533 234.548 30.88 235.322 31.92V21.4H241.002V51H235.322V47.72C234.628 48.8133 233.655 49.6933 232.402 50.36C231.148 51.0267 229.695 51.36 228.042 51.36C226.175 51.36 224.468 50.88 222.922 49.92C221.375 48.96 220.148 47.6133 219.242 45.88C218.362 44.12 217.922 42.1067 217.922 39.84ZM235.362 39.92C235.362 38.56 235.095 37.4 234.562 36.44C234.028 35.4533 233.308 34.7067 232.402 34.2C231.495 33.6667 230.522 33.4 229.482 33.4C228.442 33.4 227.482 33.6533 226.602 34.16C225.722 34.6667 225.002 35.4133 224.442 36.4C223.908 37.36 223.642 38.5067 223.642 39.84C223.642 41.1733 223.908 42.3467 224.442 43.36C225.002 44.3467 225.722 45.1067 226.602 45.64C227.508 46.1733 228.468 46.44 229.482 46.44C230.522 46.44 231.495 46.1867 232.402 45.68C233.308 45.1467 234.028 44.4 234.562 43.44C235.095 42.4533 235.362 41.28 235.362 39.92ZM267.391 28.84V51H261.751V48.2C261.031 49.16 260.084 49.92 258.911 50.48C257.764 51.0133 256.511 51.28 255.151 51.28C253.418 51.28 251.884 50.92 250.551 50.2C249.218 49.4533 248.164 48.3733 247.391 46.96C246.644 45.52 246.271 43.8133 246.271 41.84V28.84H251.871V41.04C251.871 42.8 252.311 44.16 253.191 45.12C254.071 46.0533 255.271 46.52 256.791 46.52C258.338 46.52 259.551 46.0533 260.431 45.12C261.311 44.16 261.751 42.8 261.751 41.04V28.84H267.391ZM271.476 39.92C271.476 37.6267 271.943 35.6267 272.876 33.92C273.81 32.1867 275.103 30.8533 276.756 29.92C278.41 28.96 280.303 28.48 282.436 28.48C285.183 28.48 287.45 29.1733 289.236 30.56C291.05 31.92 292.263 33.84 292.876 36.32H286.836C286.516 35.36 285.97 34.6133 285.196 34.08C284.45 33.52 283.516 33.24 282.396 33.24C280.796 33.24 279.53 33.8267 278.596 35C277.663 36.1467 277.196 37.7867 277.196 39.92C277.196 42.0267 277.663 43.6667 278.596 44.84C279.53 45.9867 280.796 46.56 282.396 46.56C284.663 46.56 286.143 45.5467 286.836 43.52H292.876C292.263 45.92 291.05 47.8267 289.236 49.24C287.423 50.6533 285.156 51.36 282.436 51.36C280.303 51.36 278.41 50.8933 276.756 49.96C275.103 49 273.81 47.6667 272.876 45.96C271.943 44.2267 271.476 42.2133 271.476 39.92ZM295.539 39.84C295.539 37.6 295.979 35.6133 296.859 33.88C297.765 32.1467 298.979 30.8133 300.499 29.88C302.045 28.9467 303.765 28.48 305.659 28.48C307.312 28.48 308.752 28.8133 309.979 29.48C311.232 30.1467 312.232 30.9867 312.979 32V28.84H318.619V51H312.979V47.76C312.259 48.8 311.259 49.6667 309.979 50.36C308.725 51.0267 307.272 51.36 305.619 51.36C303.752 51.36 302.045 50.88 300.499 49.92C298.979 48.96 297.765 47.6133 296.859 45.88C295.979 44.12 295.539 42.1067 295.539 39.84ZM312.979 39.92C312.979 38.56 312.712 37.4 312.179 36.44C311.645 35.4533 310.925 34.7067 310.019 34.2C309.112 33.6667 308.139 33.4 307.099 33.4C306.059 33.4 305.099 33.6533 304.219 34.16C303.339 34.6667 302.619 35.4133 302.059 36.4C301.525 37.36 301.259 38.5067 301.259 39.84C301.259 41.1733 301.525 42.3467 302.059 43.36C302.619 44.3467 303.339 45.1067 304.219 45.64C305.125 46.1733 306.085 46.44 307.099 46.44C308.139 46.44 309.112 46.1867 310.019 45.68C310.925 45.1467 311.645 44.4 312.179 43.44C312.712 42.4533 312.979 41.28 312.979 39.92ZM330.608 33.44V44.16C330.608 44.9067 330.781 45.4533 331.128 45.8C331.501 46.12 332.115 46.28 332.968 46.28H335.568V51H332.048C327.328 51 324.968 48.7067 324.968 44.12V33.44H322.328V28.84H324.968V23.36H330.608V28.84H335.568V33.44H330.608ZM342.436 26.2C341.449 26.2 340.623 25.8933 339.956 25.28C339.316 24.64 338.996 23.8533 338.996 22.92C338.996 21.9867 339.316 21.2133 339.956 20.6C340.623 19.96 341.449 19.64 342.436 19.64C343.423 19.64 344.236 19.96 344.876 20.6C345.543 21.2133 345.876 21.9867 345.876 22.92C345.876 23.8533 345.543 24.64 344.876 25.28C344.236 25.8933 343.423 26.2 342.436 26.2ZM345.196 28.84V51H339.596V28.84H345.196ZM360.569 51.36C358.435 51.36 356.515 50.8933 354.809 49.96C353.102 49 351.755 47.6533 350.769 45.92C349.809 44.1867 349.329 42.1867 349.329 39.92C349.329 37.6533 349.822 35.6533 350.809 33.92C351.822 32.1867 353.195 30.8533 354.929 29.92C356.662 28.96 358.595 28.48 360.729 28.48C362.862 28.48 364.795 28.96 366.529 29.92C368.262 30.8533 369.622 32.1867 370.609 33.92C371.622 35.6533 372.129 37.6533 372.129 39.92C372.129 42.1867 371.609 44.1867 370.569 45.92C369.555 47.6533 368.169 49 366.409 49.96C364.675 50.8933 362.729 51.36 360.569 51.36ZM360.569 46.48C361.582 46.48 362.529 46.24 363.409 45.76C364.315 45.2533 365.035 44.5067 365.569 43.52C366.102 42.5333 366.369 41.3333 366.369 39.92C366.369 37.8133 365.809 36.2 364.689 35.08C363.595 33.9333 362.249 33.36 360.649 33.36C359.049 33.36 357.702 33.9333 356.609 35.08C355.542 36.2 355.009 37.8133 355.009 39.92C355.009 42.0267 355.529 43.6533 356.569 44.8C357.635 45.92 358.969 46.48 360.569 46.48ZM388.517 28.52C391.157 28.52 393.29 29.36 394.917 31.04C396.543 32.6933 397.357 35.0133 397.357 38V51H391.757V38.76C391.757 37 391.317 35.6533 390.437 34.72C389.557 33.76 388.357 33.28 386.837 33.28C385.29 33.28 384.063 33.76 383.157 34.72C382.277 35.6533 381.837 37 381.837 38.76V51H376.237V28.84H381.837V31.6C382.583 30.64 383.53 29.8933 384.677 29.36C385.85 28.8 387.13 28.52 388.517 28.52Z" fill="white"/>
</svg>
