<svg width="380" height="190" viewBox="0 0 380 190" fill="none" xmlns="http://www.w3.org/2000/svg">
<g filter="url(#filter0_d_59_4)">
<path d="M40 70C40 42.3858 62.3858 20 90 20H330C335.523 20 340 24.4772 340 30V80C340 107.614 317.614 130 290 130H50C44.4772 130 40 125.523 40 120V70Z" fill="white" shape-rendering="crispEdges"/>
<circle cx="95" cy="75" r="25" fill="#FDEDEF"/>
<path d="M101.092 85.4375C100.139 85.4375 98.7999 85.0928 96.795 83.9727C94.357 82.6055 92.4713 81.3433 90.0465 78.9248C87.7086 76.5884 86.5709 75.0757 84.9786 72.1783C83.1798 68.9068 83.4864 67.1919 83.8292 66.459C84.2374 65.583 84.8399 65.0591 85.6187 64.5391C86.0611 64.2493 86.5292 64.0008 87.0172 63.7969C87.066 63.7759 87.1114 63.7559 87.1519 63.7378C87.3936 63.6289 87.7599 63.4644 88.2237 63.6402C88.5333 63.7564 88.8097 63.9942 89.2423 64.4214C90.1295 65.2964 91.3419 67.2452 91.7891 68.2022C92.0894 68.8472 92.2882 69.273 92.2887 69.7505C92.2887 70.3096 92.0074 70.7408 91.6661 71.2061C91.6021 71.2935 91.5387 71.377 91.4771 71.458C91.1056 71.9463 91.024 72.0874 91.0777 72.3394C91.1866 72.8457 91.9986 74.3531 93.3331 75.6846C94.6676 77.0161 96.1314 77.7769 96.6397 77.8853C96.9024 77.9414 97.0465 77.8565 97.5504 77.4717C97.6226 77.4165 97.6969 77.3594 97.7745 77.3023C98.295 76.9151 98.7061 76.6411 99.252 76.6411H99.255C99.7301 76.6411 100.137 76.8472 100.811 77.187C101.69 77.6304 103.697 78.8272 104.577 79.7154C105.005 80.147 105.244 80.4224 105.361 80.7315C105.537 81.1968 105.371 81.5616 105.263 81.8057C105.245 81.8462 105.225 81.8907 105.204 81.94C104.999 82.4271 104.749 82.8942 104.458 83.3355C103.939 84.1119 103.413 84.7129 102.535 85.1216C102.084 85.3349 101.591 85.4429 101.092 85.4375Z" fill="#EE4A62"/>


</g>
<defs>
<filter id="filter0_d_59_4" x="0" y="0" width="380" height="190" filterUnits="userSpaceOnUse" color-interpolation-filters="sRGB">
<feFlood flood-opacity="0" result="BackgroundImageFix"/>
<feColorMatrix in="SourceAlpha" type="matrix" values="0 0 0 0 0 0 0 0 0 0 0 0 0 0 0 0 0 0 127 0" result="hardAlpha"/>
<feOffset dy="20"/>
<feGaussianBlur stdDeviation="20"/>
<feComposite in2="hardAlpha" operator="out"/>
<feColorMatrix type="matrix" values="0 0 0 0 0 0 0 0 0 0 0 0 0 0 0 0 0 0 0.1 0"/>
<feBlend mode="normal" in2="BackgroundImageFix" result="effect1_dropShadow_59_4"/>
<feBlend mode="normal" in="SourceGraphic" in2="effect1_dropShadow_59_4" result="shape"/>
</filter>
</defs>
</svg>
