<svg width="252" height="126" viewBox="0 0 252 126" fill="none" xmlns="http://www.w3.org/2000/svg">
<path d="M23.7044 83.5257C20.5147 84.1492 17.9871 83.7686 14.9102 82.4602C5.6523 78.5233 2.95679 69.7927 2.26583 60.3397C1.49787 49.8334 3.22121 38.4115 10.9606 30.6468C15.6466 25.9455 22.7768 22.9973 28.5064 27.7627C30.9789 29.8192 31.4815 31.8961 32.2002 34.7384C32.4411 35.6909 32.7094 32.8236 33.1663 31.9538C35.2955 27.9012 38.0384 24.1665 41.3496 20.9859C50.1107 12.5707 62.8515 4.78705 75.3615 4.33519C82.967 4.06048 86.9821 8.78429 87.0397 15.9566C87.0673 19.386 86.2676 23.044 85.3065 26.3278C85.1502 26.8618 82.3632 30.1774 86.3294 24.5235C88.9581 20.7762 90.8734 18.8484 94.7684 15.8714C104.394 8.51397 117.21 1.93364 129.661 2.31778C136.811 2.53837 147.39 6.71747 148.954 14.7916C150.054 20.468 144.395 25.424 140.501 28.5441C139.957 28.9803 139.438 29.501 138.782 29.7375C138.581 29.81 138.803 29.2882 138.924 29.1124C140.097 27.4167 142.804 24.8402 144.053 23.6995C152.575 15.9175 162.556 10.4199 173.419 6.57992C182.945 3.21265 192.759 1.13205 202.714 3.71008C206.592 4.71422 211.821 6.32994 211.949 11.3535C212.148 19.1594 205.35 26.7968 199.674 31.2719C199.409 31.4808 196.429 33.5651 195.326 33.6019C194.76 33.6207 195.513 32.4015 195.923 32.0107C200.4 27.7436 207.063 25.0406 212.886 23.3727C220.468 21.2014 237.277 19.2199 239.397 30.4337C241.135 39.6269 233.384 48.7989 226.767 54.1312C226.019 54.7335 224.027 55.859 224.877 56.3048C227.44 57.6489 232.853 56.6035 235.533 56.6742C239.431 56.7772 246.732 56.4687 249.029 60.6806C251.203 64.6652 246.186 70.5087 243.716 72.9272C235.955 80.5266 220.082 86.2198 209.846 80.4854C209.616 80.3563 204.174 76.3743 206.181 75.3708C207.906 74.5084 210.999 80.99 211.352 81.764C214.114 87.826 213.034 95.0616 206.834 98.4432C200.135 102.097 189.706 101.105 185.921 93.769C184.688 91.3795 183.748 88.1804 184.273 85.4579C184.848 82.4819 186.852 84.904 186.802 86.5944C186.669 91.1036 183.149 95.3054 180.352 98.4716C176.118 103.265 170.96 108.614 164.838 110.945C155.657 114.441 143.4 112.959 137.276 104.794C136.287 103.475 136.561 102.8 134.648 104.069C130.61 106.748 127.22 110.298 123.396 113.275C117.188 118.109 108.181 126.264 99.4141 124.073C88.9455 121.456 87.5969 109.095 91.3161 100.688C92.1181 98.8749 94.876 94.5513 95.4788 96.44C96.0521 98.2365 93.7894 101.241 92.7652 102.379C87.726 107.973 77.4454 111.484 70.0196 109.553C61.3025 107.286 63.4296 95.6861 65.5586 89.4074C65.9649 88.209 65.7844 88.4369 64.834 89.0949C62.3305 90.8281 59.7918 92.5782 57.0769 93.9679C51.7596 96.6899 42.9532 100.39 37.0591 97.4203C33.0493 95.4001 33.7712 91.6644 32.0866 88.1856C31.2278 86.4124 29.36 84.1199 27.5403 85.9977C25.6829 87.9144 22.8917 93.0351 19.4991 91.6238C16.9712 90.5721 19.1337 86.9335 20.1242 85.5715" stroke="#9B18A6" stroke-width="3" stroke-linecap="round"/>
<path d="M37.14 50.22C37.0067 50.22 36.94 50.2933 36.94 50.44V55.78C36.94 56.3 37.0467 56.66 37.26 56.86C37.4733 57.06 37.8067 57.16 38.26 57.16H39.44C39.52 57.16 39.5867 57.1867 39.64 57.24C39.6933 57.2933 39.72 57.36 39.72 57.44L39.7 58.48C39.7 58.6933 39.5733 58.8267 39.32 58.88C39.12 58.9067 38.8867 58.9333 38.62 58.96C38.3533 58.9733 38.0867 58.9867 37.82 59C37.5667 59 37.3333 59 37.12 59C36.2267 59 35.54 58.7933 35.06 58.38C34.58 57.9533 34.34 57.3133 34.34 56.46V50.48C34.34 50.3067 34.26 50.22 34.1 50.22H32.76C32.5467 50.22 32.44 50.12 32.44 49.92V48.66C32.44 48.4867 32.54 48.4 32.74 48.4H34.22C34.34 48.4 34.4 48.3333 34.4 48.2L34.66 45.12C34.6733 44.9067 34.7667 44.8 34.94 44.8H36.72C36.9067 44.8 37 44.9133 37 45.14V48.2C37 48.32 37.06 48.38 37.18 48.38H39.44C39.64 48.38 39.74 48.4733 39.74 48.66V49.92C39.74 50.12 39.6267 50.22 39.4 50.22H37.14ZM47.4398 57.9C46.9865 58.3 46.4932 58.62 45.9598 58.86C45.4265 59.0867 44.8198 59.2 44.1398 59.2C43.1132 59.2 42.3065 58.9333 41.7198 58.4C41.1465 57.8533 40.8598 57.1467 40.8598 56.28C40.8598 55.5467 41.0798 54.9133 41.5198 54.38C41.9598 53.8333 42.5998 53.4067 43.4398 53.1C44.2798 52.7933 45.2865 52.6133 46.4598 52.56L47.4598 52.5C47.5398 52.4867 47.6132 52.46 47.6798 52.42C47.7465 52.38 47.7798 52.3067 47.7798 52.2V51.74C47.7798 51.1533 47.6065 50.7 47.2598 50.38C46.9132 50.0467 46.4332 49.88 45.8198 49.88C45.3532 49.88 44.9132 49.9867 44.4998 50.2C44.0998 50.4 43.7532 50.7333 43.4598 51.2C43.4198 51.28 43.3732 51.3333 43.3198 51.36C43.2798 51.3867 43.1998 51.3867 43.0798 51.36L41.3998 50.94C41.3332 50.9133 41.2798 50.8733 41.2398 50.82C41.2132 50.7667 41.2398 50.66 41.3198 50.5C41.6798 49.74 42.2465 49.1667 43.0198 48.78C43.8065 48.3933 44.7798 48.2 45.9398 48.2C46.9665 48.2 47.7932 48.34 48.4198 48.62C49.0598 48.9 49.5265 49.2933 49.8198 49.8C50.1132 50.2933 50.2598 50.88 50.2598 51.56V58.6C50.2598 58.7467 50.2332 58.8533 50.1798 58.92C50.1398 58.9733 50.0532 59 49.9198 59H48.2198C48.0998 59 48.0132 58.9533 47.9598 58.86C47.9065 58.7667 47.8732 58.6533 47.8598 58.52L47.8198 57.92C47.7932 57.6933 47.6665 57.6867 47.4398 57.9ZM47.7798 54.16C47.7798 53.92 47.6798 53.8067 47.4798 53.82L46.6598 53.88C46.2332 53.9067 45.8198 53.9733 45.4198 54.08C45.0332 54.1733 44.6865 54.3067 44.3798 54.48C44.0865 54.64 43.8465 54.8467 43.6598 55.1C43.4865 55.34 43.3998 55.6267 43.3998 55.96C43.3998 56.4133 43.5598 56.7733 43.8798 57.04C44.2132 57.3067 44.6598 57.44 45.2198 57.44C45.5798 57.44 45.9132 57.38 46.2198 57.26C46.5265 57.14 46.7932 56.9867 47.0198 56.8C47.2465 56.6133 47.4265 56.42 47.5598 56.22C47.7065 56.0067 47.7798 55.7933 47.7798 55.58V54.16ZM62.8122 58.58C62.8789 58.6733 62.8922 58.7667 62.8522 58.86C62.8122 58.9533 62.7189 59 62.5722 59H60.3722C60.2522 59 60.1522 58.9733 60.0722 58.92C60.0055 58.8533 59.9455 58.76 59.8922 58.64L57.4922 54.16C57.4522 54.0667 57.4122 54.0133 57.3722 54C57.3322 53.9867 57.2722 54.02 57.1922 54.1L55.5322 55.74C55.4789 55.7933 55.4322 55.8533 55.3922 55.92C55.3655 55.9867 55.3522 56.08 55.3522 56.2V58.56C55.3522 58.72 55.3189 58.8333 55.2522 58.9C55.1855 58.9667 55.0655 59 54.8922 59H53.1522C52.9922 59 52.8855 58.9733 52.8322 58.92C52.7789 58.8533 52.7522 58.76 52.7522 58.64V44.5C52.7522 44.2733 52.8522 44.16 53.0522 44.16H55.0722C55.2589 44.16 55.3522 44.2667 55.3522 44.48V53.06C55.3522 53.14 55.3722 53.1933 55.4122 53.22C55.4522 53.2467 55.5122 53.2133 55.5922 53.12L59.7522 48.68C59.9389 48.4933 60.1055 48.4 60.2522 48.4H62.0722C62.2455 48.4 62.3455 48.4467 62.3722 48.54C62.4122 48.6333 62.3722 48.74 62.2522 48.86L59.3122 51.82C59.2589 51.8867 59.2255 51.9533 59.2122 52.02C59.1989 52.0867 59.2255 52.1867 59.2922 52.32L62.8122 58.58ZM65.9864 54.52C65.9864 55.0667 66.1131 55.56 66.3664 56C66.6197 56.4267 66.9664 56.7667 67.4064 57.02C67.8597 57.26 68.3531 57.38 68.8864 57.38C69.4331 57.38 69.9264 57.2667 70.3664 57.04C70.8197 56.8133 71.2464 56.4467 71.6464 55.94C71.6997 55.8733 71.7464 55.84 71.7864 55.84C71.8264 55.8267 71.8931 55.8467 71.9864 55.9L73.2064 56.44C73.3797 56.52 73.3997 56.64 73.2664 56.8C72.8664 57.3867 72.4331 57.86 71.9664 58.22C71.5131 58.5667 71.0064 58.82 70.4464 58.98C69.8997 59.1267 69.2797 59.2 68.5864 59.2C67.5731 59.2 66.6664 58.9733 65.8664 58.52C65.0664 58.0667 64.4331 57.44 63.9664 56.64C63.5131 55.8267 63.2864 54.8933 63.2864 53.84C63.2864 52.68 63.5197 51.68 63.9864 50.84C64.4664 50 65.1064 49.3533 65.9064 48.9C66.7064 48.4333 67.5864 48.2 68.5464 48.2C69.5597 48.2 70.4397 48.42 71.1864 48.86C71.9464 49.3 72.5397 49.9333 72.9664 50.76C73.3931 51.5733 73.6064 52.5667 73.6064 53.74C73.6064 53.8733 73.5931 53.98 73.5664 54.06C73.5531 54.14 73.4597 54.1867 73.2864 54.2H66.2064C66.1264 54.2 66.0664 54.2267 66.0264 54.28C65.9997 54.3333 65.9864 54.4133 65.9864 54.52ZM70.7264 52.72C70.8597 52.72 70.9464 52.7067 70.9864 52.68C71.0397 52.64 71.0664 52.56 71.0664 52.44C71.0664 52.0267 70.9731 51.62 70.7864 51.22C70.5997 50.82 70.3264 50.4933 69.9664 50.24C69.6064 49.9733 69.1664 49.84 68.6464 49.84C68.1131 49.84 67.6464 49.9733 67.2464 50.24C66.8464 50.4933 66.5397 50.84 66.3264 51.28C66.1264 51.7067 66.0264 52.1867 66.0264 52.72H70.7264ZM85.5258 57.9C85.0724 58.3 84.5791 58.62 84.0458 58.86C83.5124 59.0867 82.9058 59.2 82.2258 59.2C81.1991 59.2 80.3924 58.9333 79.8058 58.4C79.2324 57.8533 78.9458 57.1467 78.9458 56.28C78.9458 55.5467 79.1658 54.9133 79.6058 54.38C80.0458 53.8333 80.6858 53.4067 81.5258 53.1C82.3658 52.7933 83.3724 52.6133 84.5458 52.56L85.5458 52.5C85.6258 52.4867 85.6991 52.46 85.7658 52.42C85.8324 52.38 85.8658 52.3067 85.8658 52.2V51.74C85.8658 51.1533 85.6924 50.7 85.3458 50.38C84.9991 50.0467 84.5191 49.88 83.9058 49.88C83.4391 49.88 82.9991 49.9867 82.5858 50.2C82.1858 50.4 81.8391 50.7333 81.5458 51.2C81.5058 51.28 81.4591 51.3333 81.4058 51.36C81.3658 51.3867 81.2858 51.3867 81.1658 51.36L79.4858 50.94C79.4191 50.9133 79.3658 50.8733 79.3258 50.82C79.2991 50.7667 79.3258 50.66 79.4058 50.5C79.7658 49.74 80.3324 49.1667 81.1058 48.78C81.8924 48.3933 82.8658 48.2 84.0258 48.2C85.0524 48.2 85.8791 48.34 86.5058 48.62C87.1458 48.9 87.6124 49.2933 87.9058 49.8C88.1991 50.2933 88.3458 50.88 88.3458 51.56V58.6C88.3458 58.7467 88.3191 58.8533 88.2658 58.92C88.2258 58.9733 88.1391 59 88.0058 59H86.3058C86.1858 59 86.0991 58.9533 86.0458 58.86C85.9924 58.7667 85.9591 58.6533 85.9458 58.52L85.9058 57.92C85.8791 57.6933 85.7524 57.6867 85.5258 57.9ZM85.8658 54.16C85.8658 53.92 85.7658 53.8067 85.5658 53.82L84.7458 53.88C84.3191 53.9067 83.9058 53.9733 83.5058 54.08C83.1191 54.1733 82.7724 54.3067 82.4658 54.48C82.1724 54.64 81.9324 54.8467 81.7458 55.1C81.5724 55.34 81.4858 55.6267 81.4858 55.96C81.4858 56.4133 81.6458 56.7733 81.9658 57.04C82.2991 57.3067 82.7458 57.44 83.3058 57.44C83.6658 57.44 83.9991 57.38 84.3058 57.26C84.6124 57.14 84.8791 56.9867 85.1058 56.8C85.3324 56.6133 85.5124 56.42 85.6458 56.22C85.7924 56.0067 85.8658 55.7933 85.8658 55.58V54.16ZM104.878 44.16C105.078 44.16 105.198 44.1867 105.238 44.24C105.278 44.2933 105.291 44.4 105.278 44.56L105.198 46.24C105.184 46.36 105.151 46.4467 105.098 46.5C105.058 46.54 104.958 46.56 104.798 46.56H98.3178C98.1178 46.56 98.0178 46.6467 98.0178 46.82L97.7378 49.98C97.7245 50.0867 97.7445 50.1667 97.7978 50.22C97.8645 50.26 97.9311 50.26 97.9978 50.22C98.5178 50.02 98.9978 49.8533 99.4378 49.72C99.8778 49.5733 100.404 49.5 101.018 49.5C101.978 49.5 102.851 49.6733 103.638 50.02C104.424 50.3533 105.051 50.8667 105.518 51.56C105.998 52.24 106.238 53.1067 106.238 54.16C106.238 55.2133 105.984 56.12 105.478 56.88C104.971 57.6267 104.271 58.2 103.378 58.6C102.498 59 101.478 59.2 100.318 59.2C99.1178 59.2 98.0245 59 97.0378 58.6C96.0511 58.1867 95.2711 57.62 94.6978 56.9C94.6178 56.7933 94.5711 56.6933 94.5578 56.6C94.5445 56.5067 94.5978 56.4133 94.7178 56.32L96.0978 55.32C96.2578 55.2 96.4111 55.2267 96.5578 55.4C96.8911 55.72 97.2178 56.0133 97.5378 56.28C97.8578 56.5333 98.2111 56.7333 98.5978 56.88C98.9845 57.0267 99.4445 57.1 99.9778 57.1C100.684 57.1 101.284 56.98 101.778 56.74C102.284 56.4867 102.664 56.1467 102.918 55.72C103.184 55.28 103.318 54.7867 103.318 54.24C103.318 53.6933 103.191 53.2267 102.938 52.84C102.698 52.44 102.358 52.14 101.918 51.94C101.478 51.7267 100.971 51.62 100.398 51.62C99.8511 51.62 99.3511 51.7133 98.8978 51.9C98.4445 52.0867 97.9845 52.3 97.5178 52.54C97.4111 52.5933 97.3378 52.62 97.2978 52.62C97.2578 52.6067 97.1778 52.5733 97.0578 52.52L95.5378 51.68C95.4045 51.6 95.3311 51.5267 95.3178 51.46C95.3178 51.3933 95.3245 51.2733 95.3378 51.1L95.8978 44.56C95.9111 44.4 95.9511 44.2933 96.0178 44.24C96.0978 44.1867 96.2645 44.16 96.5178 44.16H104.878ZM112.936 59C112.696 59 112.576 58.88 112.576 58.64V48.74C112.576 48.5133 112.67 48.4 112.856 48.4H114.836C115.023 48.4 115.116 48.5 115.116 48.7V49.74C115.116 49.82 115.136 49.8733 115.176 49.9C115.216 49.9133 115.27 49.8867 115.336 49.82C115.71 49.4867 116.07 49.2 116.416 48.96C116.776 48.72 117.143 48.5333 117.516 48.4C117.903 48.2533 118.31 48.18 118.736 48.18C119.483 48.18 120.096 48.3533 120.576 48.7C121.056 49.0467 121.39 49.4867 121.576 50.02C121.603 50.0733 121.643 50.0933 121.696 50.08C121.75 50.0667 121.803 50.0333 121.856 49.98C122.203 49.6333 122.57 49.3267 122.956 49.06C123.343 48.7933 123.743 48.5867 124.156 48.44C124.57 48.28 124.983 48.2 125.396 48.2C126.343 48.2 127.09 48.4867 127.636 49.06C128.183 49.62 128.456 50.3867 128.456 51.36V58.58C128.456 58.86 128.316 59 128.036 59H126.196C126.076 59 125.99 58.9733 125.936 58.92C125.883 58.8667 125.856 58.7733 125.856 58.64V51.76C125.856 51.24 125.723 50.84 125.456 50.56C125.203 50.2667 124.816 50.12 124.296 50.12C123.99 50.12 123.696 50.18 123.416 50.3C123.136 50.4067 122.883 50.5467 122.656 50.72C122.43 50.8933 122.23 51.0667 122.056 51.24C121.963 51.3333 121.896 51.4267 121.856 51.52C121.83 51.6 121.816 51.7 121.816 51.82V58.58C121.816 58.86 121.676 59 121.396 59H119.556C119.45 59 119.363 58.9733 119.296 58.92C119.243 58.8667 119.216 58.7733 119.216 58.64V51.76C119.216 51.24 119.09 50.84 118.836 50.56C118.583 50.2667 118.19 50.12 117.656 50.12C117.203 50.12 116.783 50.2333 116.396 50.46C116.023 50.6867 115.616 51.0267 115.176 51.48V58.6C115.176 58.8667 115.023 59 114.716 59H112.936ZM133.458 58.56C133.458 58.72 133.418 58.8333 133.338 58.9C133.271 58.9667 133.151 59 132.978 59H131.238C131.091 59 130.991 58.9733 130.938 58.92C130.884 58.8533 130.858 58.76 130.858 58.64V48.74C130.858 48.5133 130.958 48.4 131.158 48.4H133.178C133.364 48.4 133.458 48.5067 133.458 48.72V58.56ZM133.498 46.44C133.498 46.7467 133.338 46.9 133.018 46.9H131.198C131.051 46.9 130.951 46.8667 130.898 46.8C130.844 46.7333 130.818 46.6333 130.818 46.5V44.54C130.818 44.2867 130.924 44.16 131.138 44.16H133.198C133.398 44.16 133.498 44.2733 133.498 44.5V46.44ZM136.335 59C136.095 59 135.975 58.88 135.975 58.64V48.74C135.975 48.5133 136.068 48.4 136.255 48.4H138.255C138.428 48.4 138.515 48.5 138.515 48.7V49.74C138.515 49.82 138.535 49.8733 138.575 49.9C138.615 49.9133 138.668 49.8867 138.735 49.82C139.122 49.4867 139.495 49.2 139.855 48.96C140.215 48.72 140.588 48.5333 140.975 48.4C141.362 48.2667 141.782 48.2 142.235 48.2C143.222 48.2 143.995 48.4867 144.555 49.06C145.128 49.62 145.415 50.3667 145.415 51.3V58.58C145.415 58.86 145.275 59 144.995 59H143.155C143.035 59 142.948 58.9733 142.895 58.92C142.842 58.8667 142.815 58.7733 142.815 58.64V51.76C142.815 51.24 142.675 50.84 142.395 50.56C142.115 50.2667 141.695 50.12 141.135 50.12C140.815 50.12 140.515 50.1733 140.235 50.28C139.968 50.3733 139.702 50.52 139.435 50.72C139.168 50.92 138.882 51.1733 138.575 51.48V58.6C138.575 58.8667 138.422 59 138.115 59H136.335ZM151.911 57.3C152.377 57.3 152.817 57.1733 153.231 56.92C153.657 56.6667 154.064 56.3333 154.451 55.92V48.8C154.451 48.5333 154.604 48.4 154.911 48.4H156.711C156.951 48.4 157.071 48.5267 157.071 48.78L157.031 58.68C157.031 58.8933 156.937 59 156.751 59H154.791C154.604 59 154.511 58.9 154.511 58.7V57.64C154.511 57.5733 154.491 57.5333 154.451 57.52C154.424 57.4933 154.377 57.5133 154.311 57.58C153.684 58.1667 153.091 58.5867 152.531 58.84C151.971 59.08 151.391 59.2 150.791 59.2C150.191 59.2 149.657 59.0733 149.191 58.82C148.724 58.5667 148.357 58.2 148.091 57.72C147.824 57.24 147.691 56.68 147.691 56.04V48.82C147.691 48.54 147.831 48.4 148.111 48.4H149.951C150.177 48.4 150.291 48.5267 150.291 48.78V55.6C150.291 56.1067 150.431 56.52 150.711 56.84C151.004 57.1467 151.404 57.3 151.911 57.3ZM163.449 50.22C163.315 50.22 163.249 50.2933 163.249 50.44V55.78C163.249 56.3 163.355 56.66 163.569 56.86C163.782 57.06 164.115 57.16 164.569 57.16H165.749C165.829 57.16 165.895 57.1867 165.949 57.24C166.002 57.2933 166.029 57.36 166.029 57.44L166.009 58.48C166.009 58.6933 165.882 58.8267 165.629 58.88C165.429 58.9067 165.195 58.9333 164.929 58.96C164.662 58.9733 164.395 58.9867 164.129 59C163.875 59 163.642 59 163.429 59C162.535 59 161.849 58.7933 161.369 58.38C160.889 57.9533 160.649 57.3133 160.649 56.46V50.48C160.649 50.3067 160.569 50.22 160.409 50.22H159.069C158.855 50.22 158.749 50.12 158.749 49.92V48.66C158.749 48.4867 158.849 48.4 159.049 48.4H160.529C160.649 48.4 160.709 48.3333 160.709 48.2L160.969 45.12C160.982 44.9067 161.075 44.8 161.249 44.8H163.029C163.215 44.8 163.309 44.9133 163.309 45.14V48.2C163.309 48.32 163.369 48.38 163.489 48.38H165.749C165.949 48.38 166.049 48.4733 166.049 48.66V49.92C166.049 50.12 165.935 50.22 165.709 50.22H163.449ZM169.756 54.52C169.756 55.0667 169.883 55.56 170.136 56C170.389 56.4267 170.736 56.7667 171.176 57.02C171.629 57.26 172.123 57.38 172.656 57.38C173.203 57.38 173.696 57.2667 174.136 57.04C174.589 56.8133 175.016 56.4467 175.416 55.94C175.469 55.8733 175.516 55.84 175.556 55.84C175.596 55.8267 175.663 55.8467 175.756 55.9L176.976 56.44C177.149 56.52 177.169 56.64 177.036 56.8C176.636 57.3867 176.203 57.86 175.736 58.22C175.283 58.5667 174.776 58.82 174.216 58.98C173.669 59.1267 173.049 59.2 172.356 59.2C171.343 59.2 170.436 58.9733 169.636 58.52C168.836 58.0667 168.203 57.44 167.736 56.64C167.283 55.8267 167.056 54.8933 167.056 53.84C167.056 52.68 167.289 51.68 167.756 50.84C168.236 50 168.876 49.3533 169.676 48.9C170.476 48.4333 171.356 48.2 172.316 48.2C173.329 48.2 174.209 48.42 174.956 48.86C175.716 49.3 176.309 49.9333 176.736 50.76C177.163 51.5733 177.376 52.5667 177.376 53.74C177.376 53.8733 177.363 53.98 177.336 54.06C177.323 54.14 177.229 54.1867 177.056 54.2H169.976C169.896 54.2 169.836 54.2267 169.796 54.28C169.769 54.3333 169.756 54.4133 169.756 54.52ZM174.496 52.72C174.629 52.72 174.716 52.7067 174.756 52.68C174.809 52.64 174.836 52.56 174.836 52.44C174.836 52.0267 174.743 51.62 174.556 51.22C174.369 50.82 174.096 50.4933 173.736 50.24C173.376 49.9733 172.936 49.84 172.416 49.84C171.883 49.84 171.416 49.9733 171.016 50.24C170.616 50.4933 170.309 50.84 170.096 51.28C169.896 51.7067 169.796 52.1867 169.796 52.72H174.496ZM197.635 48.4C197.755 48.4 197.835 48.44 197.875 48.52C197.929 48.6 197.935 48.6933 197.895 48.8L194.695 58.7C194.669 58.8067 194.622 58.8867 194.555 58.94C194.502 58.98 194.415 59 194.295 59H192.875C192.622 59 192.462 58.8867 192.395 58.66L190.455 52.48C190.402 52.36 190.349 52.3 190.295 52.3C190.255 52.3 190.215 52.36 190.175 52.48L188.255 58.7C188.229 58.8067 188.182 58.8867 188.115 58.94C188.062 58.98 187.975 59 187.855 59H186.375C186.135 59 185.982 58.8867 185.915 58.66L182.715 48.82C182.675 48.7 182.682 48.6 182.735 48.52C182.789 48.44 182.875 48.4 182.995 48.4H184.935C185.029 48.4 185.115 48.4267 185.195 48.48C185.275 48.5333 185.322 48.6067 185.335 48.7L187.335 55.08C187.362 55.2133 187.402 55.28 187.455 55.28C187.522 55.2667 187.575 55.1933 187.615 55.06L189.555 48.68C189.582 48.6 189.629 48.5333 189.695 48.48C189.762 48.4267 189.842 48.4 189.935 48.4H191.375C191.455 48.4 191.529 48.4267 191.595 48.48C191.675 48.5333 191.729 48.6067 191.755 48.7L193.735 55.08C193.775 55.2133 193.822 55.28 193.875 55.28C193.929 55.2667 193.975 55.1933 194.015 55.06L195.955 48.68C195.995 48.6 196.049 48.5333 196.115 48.48C196.182 48.4267 196.262 48.4 196.355 48.4H197.635ZM205.194 57.9C204.74 58.3 204.247 58.62 203.714 58.86C203.18 59.0867 202.574 59.2 201.894 59.2C200.867 59.2 200.06 58.9333 199.474 58.4C198.9 57.8533 198.614 57.1467 198.614 56.28C198.614 55.5467 198.834 54.9133 199.274 54.38C199.714 53.8333 200.354 53.4067 201.194 53.1C202.034 52.7933 203.04 52.6133 204.214 52.56L205.214 52.5C205.294 52.4867 205.367 52.46 205.434 52.42C205.5 52.38 205.534 52.3067 205.534 52.2V51.74C205.534 51.1533 205.36 50.7 205.014 50.38C204.667 50.0467 204.187 49.88 203.574 49.88C203.107 49.88 202.667 49.9867 202.254 50.2C201.854 50.4 201.507 50.7333 201.214 51.2C201.174 51.28 201.127 51.3333 201.074 51.36C201.034 51.3867 200.954 51.3867 200.834 51.36L199.154 50.94C199.087 50.9133 199.034 50.8733 198.994 50.82C198.967 50.7667 198.994 50.66 199.074 50.5C199.434 49.74 200 49.1667 200.774 48.78C201.56 48.3933 202.534 48.2 203.694 48.2C204.72 48.2 205.547 48.34 206.174 48.62C206.814 48.9 207.28 49.2933 207.574 49.8C207.867 50.2933 208.014 50.88 208.014 51.56V58.6C208.014 58.7467 207.987 58.8533 207.934 58.92C207.894 58.9733 207.807 59 207.674 59H205.974C205.854 59 205.767 58.9533 205.714 58.86C205.66 58.7667 205.627 58.6533 205.614 58.52L205.574 57.92C205.547 57.6933 205.42 57.6867 205.194 57.9ZM205.534 54.16C205.534 53.92 205.434 53.8067 205.234 53.82L204.414 53.88C203.987 53.9067 203.574 53.9733 203.174 54.08C202.787 54.1733 202.44 54.3067 202.134 54.48C201.84 54.64 201.6 54.8467 201.414 55.1C201.24 55.34 201.154 55.6267 201.154 55.96C201.154 56.4133 201.314 56.7733 201.634 57.04C201.967 57.3067 202.414 57.44 202.974 57.44C203.334 57.44 203.667 57.38 203.974 57.26C204.28 57.14 204.547 56.9867 204.774 56.8C205 56.6133 205.18 56.42 205.314 56.22C205.46 56.0067 205.534 55.7933 205.534 55.58V54.16ZM213.106 58.56C213.106 58.72 213.073 58.8333 213.006 58.9C212.939 58.9667 212.819 59 212.646 59H210.886C210.619 59 210.486 58.88 210.486 58.64L210.546 44.5C210.546 44.2733 210.646 44.16 210.846 44.16H212.826C213.013 44.16 213.106 44.2667 213.106 44.48V58.56ZM225.703 58.58C225.769 58.6733 225.783 58.7667 225.743 58.86C225.703 58.9533 225.609 59 225.463 59H223.263C223.143 59 223.043 58.9733 222.963 58.92C222.896 58.8533 222.836 58.76 222.783 58.64L220.383 54.16C220.343 54.0667 220.303 54.0133 220.263 54C220.223 53.9867 220.163 54.02 220.083 54.1L218.423 55.74C218.369 55.7933 218.323 55.8533 218.283 55.92C218.256 55.9867 218.243 56.08 218.243 56.2V58.56C218.243 58.72 218.209 58.8333 218.143 58.9C218.076 58.9667 217.956 59 217.783 59H216.043C215.883 59 215.776 58.9733 215.723 58.92C215.669 58.8533 215.643 58.76 215.643 58.64V44.5C215.643 44.2733 215.743 44.16 215.943 44.16H217.963C218.149 44.16 218.243 44.2667 218.243 44.48V53.06C218.243 53.14 218.263 53.1933 218.303 53.22C218.343 53.2467 218.403 53.2133 218.483 53.12L222.643 48.68C222.829 48.4933 222.996 48.4 223.143 48.4H224.963C225.136 48.4 225.236 48.4467 225.263 48.54C225.303 48.6333 225.263 48.74 225.143 48.86L222.203 51.82C222.149 51.8867 222.116 51.9533 222.103 52.02C222.089 52.0867 222.116 52.1867 222.183 52.32L225.703 58.58ZM84.8048 78.52C84.8048 79.0667 84.9314 79.56 85.1848 80C85.4381 80.4267 85.7848 80.7667 86.2248 81.02C86.6781 81.26 87.1714 81.38 87.7048 81.38C88.2514 81.38 88.7448 81.2667 89.1848 81.04C89.6381 80.8133 90.0648 80.4467 90.4648 79.94C90.5181 79.8733 90.5648 79.84 90.6048 79.84C90.6448 79.8267 90.7114 79.8467 90.8048 79.9L92.0248 80.44C92.1981 80.52 92.2181 80.64 92.0848 80.8C91.6848 81.3867 91.2514 81.86 90.7848 82.22C90.3314 82.5667 89.8248 82.82 89.2648 82.98C88.7181 83.1267 88.0981 83.2 87.4048 83.2C86.3914 83.2 85.4848 82.9733 84.6848 82.52C83.8848 82.0667 83.2514 81.44 82.7848 80.64C82.3314 79.8267 82.1048 78.8933 82.1048 77.84C82.1048 76.68 82.3381 75.68 82.8048 74.84C83.2848 74 83.9248 73.3533 84.7248 72.9C85.5248 72.4333 86.4048 72.2 87.3648 72.2C88.3781 72.2 89.2581 72.42 90.0048 72.86C90.7648 73.3 91.3581 73.9333 91.7848 74.76C92.2114 75.5733 92.4248 76.5667 92.4248 77.74C92.4248 77.8733 92.4114 77.98 92.3848 78.06C92.3714 78.14 92.2781 78.1867 92.1048 78.2H85.0248C84.9448 78.2 84.8848 78.2267 84.8448 78.28C84.8181 78.3333 84.8048 78.4133 84.8048 78.52ZM89.5448 76.72C89.6781 76.72 89.7648 76.7067 89.8048 76.68C89.8581 76.64 89.8848 76.56 89.8848 76.44C89.8848 76.0267 89.7914 75.62 89.6048 75.22C89.4181 74.82 89.1448 74.4933 88.7848 74.24C88.4248 73.9733 87.9848 73.84 87.4648 73.84C86.9314 73.84 86.4648 73.9733 86.0648 74.24C85.6648 74.4933 85.3581 74.84 85.1448 75.28C84.9448 75.7067 84.8448 76.1867 84.8448 76.72H89.5448ZM103.195 72.4C103.315 72.4 103.395 72.44 103.435 72.52C103.475 72.6 103.475 72.6933 103.435 72.8L99.4548 82.62C99.3481 82.8733 99.1548 83 98.8748 83H97.6948C97.4014 83 97.2014 82.88 97.0948 82.64L93.1148 72.82C93.0748 72.7 93.0814 72.6 93.1348 72.52C93.1881 72.44 93.2748 72.4 93.3948 72.4H95.4948C95.5881 72.4 95.6681 72.4267 95.7348 72.48C95.8148 72.5333 95.8681 72.6067 95.8948 72.7L98.4748 79.26C98.5681 79.5133 98.6748 79.5067 98.7948 79.24L101.355 72.68C101.395 72.6 101.441 72.5333 101.495 72.48C101.561 72.4267 101.641 72.4 101.735 72.4H103.195ZM106.719 78.52C106.719 79.0667 106.845 79.56 107.099 80C107.352 80.4267 107.699 80.7667 108.139 81.02C108.592 81.26 109.085 81.38 109.619 81.38C110.165 81.38 110.659 81.2667 111.099 81.04C111.552 80.8133 111.979 80.4467 112.379 79.94C112.432 79.8733 112.479 79.84 112.519 79.84C112.559 79.8267 112.625 79.8467 112.719 79.9L113.939 80.44C114.112 80.52 114.132 80.64 113.999 80.8C113.599 81.3867 113.165 81.86 112.699 82.22C112.245 82.5667 111.739 82.82 111.179 82.98C110.632 83.1267 110.012 83.2 109.319 83.2C108.305 83.2 107.399 82.9733 106.599 82.52C105.799 82.0667 105.165 81.44 104.699 80.64C104.245 79.8267 104.019 78.8933 104.019 77.84C104.019 76.68 104.252 75.68 104.719 74.84C105.199 74 105.839 73.3533 106.639 72.9C107.439 72.4333 108.319 72.2 109.279 72.2C110.292 72.2 111.172 72.42 111.919 72.86C112.679 73.3 113.272 73.9333 113.699 74.76C114.125 75.5733 114.339 76.5667 114.339 77.74C114.339 77.8733 114.325 77.98 114.299 78.06C114.285 78.14 114.192 78.1867 114.019 78.2H106.939C106.859 78.2 106.799 78.2267 106.759 78.28C106.732 78.3333 106.719 78.4133 106.719 78.52ZM111.459 76.72C111.592 76.72 111.679 76.7067 111.719 76.68C111.772 76.64 111.799 76.56 111.799 76.44C111.799 76.0267 111.705 75.62 111.519 75.22C111.332 74.82 111.059 74.4933 110.699 74.24C110.339 73.9733 109.899 73.84 109.379 73.84C108.845 73.84 108.379 73.9733 107.979 74.24C107.579 74.4933 107.272 74.84 107.059 75.28C106.859 75.7067 106.759 76.1867 106.759 76.72H111.459ZM116.599 83C116.465 83 116.372 82.9733 116.319 82.92C116.265 82.8533 116.239 82.76 116.239 82.64V72.74C116.239 72.5133 116.332 72.4 116.519 72.4H118.459C118.645 72.4 118.739 72.5 118.739 72.7V73.92C118.739 74 118.765 74.0533 118.819 74.08C118.872 74.0933 118.932 74.06 118.999 73.98C119.292 73.5933 119.605 73.2733 119.939 73.02C120.285 72.7533 120.632 72.5533 120.979 72.42C121.339 72.2733 121.685 72.2 122.019 72.2C122.499 72.2 122.739 72.3067 122.739 72.52V74.44C122.739 74.6267 122.652 74.7067 122.479 74.68C122.279 74.6267 122.065 74.5933 121.839 74.58C121.625 74.5533 121.425 74.54 121.239 74.54C120.985 74.54 120.712 74.5933 120.419 74.7C120.139 74.8067 119.879 74.96 119.639 75.16C119.399 75.3467 119.205 75.5533 119.059 75.78C118.912 76.0067 118.839 76.24 118.839 76.48V82.6C118.839 82.8667 118.685 83 118.379 83H116.599ZM125.301 86.3C124.901 86.3 124.601 86.28 124.401 86.24C124.201 86.2133 124.101 86.12 124.101 85.96V84.68C124.101 84.6 124.141 84.5267 124.221 84.46C124.301 84.4067 124.455 84.38 124.681 84.38H126.001C126.268 84.38 126.508 84.3067 126.721 84.16C126.948 84.0133 127.128 83.8333 127.261 83.62C127.408 83.4067 127.501 83.1867 127.541 82.96C127.595 82.72 127.581 82.5067 127.501 82.32L123.661 72.84C123.621 72.72 123.628 72.62 123.681 72.54C123.735 72.4467 123.828 72.4 123.961 72.4H126.041C126.135 72.4 126.215 72.4267 126.281 72.48C126.361 72.5333 126.415 72.6067 126.441 72.7L128.921 79.28C128.961 79.4 129.015 79.46 129.081 79.46C129.148 79.46 129.208 79.3867 129.261 79.24L131.721 72.68C131.761 72.6 131.808 72.5333 131.861 72.48C131.928 72.4267 132.008 72.4 132.101 72.4H133.561C133.668 72.4 133.748 72.4467 133.801 72.54C133.855 72.62 133.855 72.7067 133.801 72.8L129.601 83.32C129.348 83.9467 129.081 84.4533 128.801 84.84C128.535 85.2267 128.235 85.5267 127.901 85.74C127.568 85.9533 127.188 86.1 126.761 86.18C126.348 86.26 125.861 86.3 125.301 86.3ZM147.135 83C147.028 83 146.935 82.9733 146.855 82.92C146.788 82.8667 146.755 82.7733 146.755 82.64V81.98C146.755 81.8867 146.728 81.8333 146.675 81.82C146.622 81.8067 146.562 81.8333 146.495 81.9C146.295 82.0867 146.062 82.28 145.795 82.48C145.528 82.68 145.202 82.8533 144.815 83C144.442 83.1333 143.995 83.2 143.475 83.2C142.662 83.2 141.935 83 141.295 82.6C140.655 82.2 140.148 81.6 139.775 80.8C139.402 80 139.215 79 139.215 77.8C139.215 76.68 139.408 75.7 139.795 74.86C140.195 74.02 140.735 73.3667 141.415 72.9C142.095 72.4333 142.855 72.2 143.695 72.2C144.282 72.2 144.782 72.2933 145.195 72.48C145.622 72.6667 146.015 72.9267 146.375 73.26C146.495 73.34 146.582 73.3733 146.635 73.36C146.688 73.3333 146.715 73.2467 146.715 73.1V68.48C146.715 68.2667 146.808 68.16 146.995 68.16H149.015C149.215 68.16 149.315 68.2733 149.315 68.5V82.62C149.315 82.7533 149.282 82.8533 149.215 82.92C149.162 82.9733 149.055 83 148.895 83H147.135ZM146.715 75.02C146.368 74.6733 146.022 74.4067 145.675 74.22C145.342 74.02 144.955 73.92 144.515 73.92C144.008 73.92 143.548 74.06 143.135 74.34C142.735 74.6067 142.422 75.0267 142.195 75.6C141.968 76.16 141.855 76.88 141.855 77.76C141.855 78.6533 141.968 79.38 142.195 79.94C142.422 80.4867 142.728 80.8867 143.115 81.14C143.515 81.3933 143.962 81.52 144.455 81.52C144.882 81.52 145.262 81.42 145.595 81.22C145.942 81.02 146.215 80.7667 146.415 80.46C146.615 80.1533 146.715 79.8467 146.715 79.54V75.02ZM157.684 81.9C157.231 82.3 156.737 82.62 156.204 82.86C155.671 83.0867 155.064 83.2 154.384 83.2C153.357 83.2 152.551 82.9333 151.964 82.4C151.391 81.8533 151.104 81.1467 151.104 80.28C151.104 79.5467 151.324 78.9133 151.764 78.38C152.204 77.8333 152.844 77.4067 153.684 77.1C154.524 76.7933 155.531 76.6133 156.704 76.56L157.704 76.5C157.784 76.4867 157.857 76.46 157.924 76.42C157.991 76.38 158.024 76.3067 158.024 76.2V75.74C158.024 75.1533 157.851 74.7 157.504 74.38C157.157 74.0467 156.677 73.88 156.064 73.88C155.597 73.88 155.157 73.9867 154.744 74.2C154.344 74.4 153.997 74.7333 153.704 75.2C153.664 75.28 153.617 75.3333 153.564 75.36C153.524 75.3867 153.444 75.3867 153.324 75.36L151.644 74.94C151.577 74.9133 151.524 74.8733 151.484 74.82C151.457 74.7667 151.484 74.66 151.564 74.5C151.924 73.74 152.491 73.1667 153.264 72.78C154.051 72.3933 155.024 72.2 156.184 72.2C157.211 72.2 158.037 72.34 158.664 72.62C159.304 72.9 159.771 73.2933 160.064 73.8C160.357 74.2933 160.504 74.88 160.504 75.56V82.6C160.504 82.7467 160.477 82.8533 160.424 82.92C160.384 82.9733 160.297 83 160.164 83H158.464C158.344 83 158.257 82.9533 158.204 82.86C158.151 82.7667 158.117 82.6533 158.104 82.52L158.064 81.92C158.037 81.6933 157.911 81.6867 157.684 81.9ZM158.024 78.16C158.024 77.92 157.924 77.8067 157.724 77.82L156.904 77.88C156.477 77.9067 156.064 77.9733 155.664 78.08C155.277 78.1733 154.931 78.3067 154.624 78.48C154.331 78.64 154.091 78.8467 153.904 79.1C153.731 79.34 153.644 79.6267 153.644 79.96C153.644 80.4133 153.804 80.7733 154.124 81.04C154.457 81.3067 154.904 81.44 155.464 81.44C155.824 81.44 156.157 81.38 156.464 81.26C156.771 81.14 157.037 80.9867 157.264 80.8C157.491 80.6133 157.671 80.42 157.804 80.22C157.951 80.0067 158.024 79.7933 158.024 79.58V78.16ZM163.641 86.3C163.241 86.3 162.941 86.28 162.741 86.24C162.541 86.2133 162.441 86.12 162.441 85.96V84.68C162.441 84.6 162.481 84.5267 162.561 84.46C162.641 84.4067 162.794 84.38 163.021 84.38H164.341C164.608 84.38 164.848 84.3067 165.061 84.16C165.288 84.0133 165.468 83.8333 165.601 83.62C165.748 83.4067 165.841 83.1867 165.881 82.96C165.934 82.72 165.921 82.5067 165.841 82.32L162.001 72.84C161.961 72.72 161.968 72.62 162.021 72.54C162.074 72.4467 162.168 72.4 162.301 72.4H164.381C164.474 72.4 164.554 72.4267 164.621 72.48C164.701 72.5333 164.754 72.6067 164.781 72.7L167.261 79.28C167.301 79.4 167.354 79.46 167.421 79.46C167.488 79.46 167.548 79.3867 167.601 79.24L170.061 72.68C170.101 72.6 170.148 72.5333 170.201 72.48C170.268 72.4267 170.348 72.4 170.441 72.4H171.901C172.008 72.4 172.088 72.4467 172.141 72.54C172.194 72.62 172.194 72.7067 172.141 72.8L167.941 83.32C167.688 83.9467 167.421 84.4533 167.141 84.84C166.874 85.2267 166.574 85.5267 166.241 85.74C165.908 85.9533 165.528 86.1 165.101 86.18C164.688 86.26 164.201 86.3 163.641 86.3Z" fill="black"/>
</svg>
