<svg width="204" height="204" viewBox="0 0 204 204" fill="none" xmlns="http://www.w3.org/2000/svg">
<rect x="0.5" y="0.5" width="203" height="203" fill="#EDE7E2" stroke="black"/>
<path d="M64.1184 88.48C64.1184 88.3867 64.1451 88.3133 64.1984 88.26C64.2518 88.1933 64.3384 88.16 64.4584 88.16H75.6984C75.8184 88.16 75.9051 88.1933 75.9584 88.26C76.0118 88.3133 76.0384 88.3867 76.0384 88.48V90.04C76.0384 90.2267 75.9318 90.32 75.7184 90.32H71.8784C71.7318 90.32 71.6584 90.3867 71.6584 90.52V102.66C71.6584 102.887 71.5584 103 71.3584 103H68.9784C68.7918 103 68.6984 102.893 68.6984 102.68V90.56C68.6984 90.4 68.6251 90.32 68.4784 90.32H64.4584C64.2318 90.32 64.1184 90.2267 64.1184 90.04V88.48ZM78.4173 103C78.164 103 78.0373 102.88 78.0373 102.64V88.5C78.0373 88.2733 78.1373 88.16 78.3373 88.16H80.3173C80.4907 88.16 80.5773 88.26 80.5773 88.46V93.66C80.5773 93.74 80.5973 93.7867 80.6373 93.8C80.6773 93.8133 80.7307 93.7933 80.7973 93.74C81.2373 93.3667 81.644 93.0733 82.0173 92.86C82.3907 92.6333 82.764 92.4667 83.1373 92.36C83.5107 92.2533 83.8973 92.2 84.2973 92.2C85.324 92.2 86.1107 92.48 86.6573 93.04C87.204 93.6 87.4773 94.3667 87.4773 95.34V102.58C87.4773 102.86 87.3373 103 87.0573 103H85.2173C85.0973 103 85.0107 102.973 84.9573 102.92C84.904 102.867 84.8773 102.773 84.8773 102.64V95.76C84.8773 95.24 84.7373 94.84 84.4573 94.56C84.1907 94.2667 83.7773 94.12 83.2173 94.12C82.8973 94.12 82.5973 94.1733 82.3173 94.28C82.0507 94.3733 81.784 94.52 81.5173 94.72C81.2507 94.92 80.9573 95.1733 80.6373 95.48V102.6C80.6373 102.867 80.4907 103 80.1973 103H78.4173ZM92.0333 98.52C92.0333 99.0667 92.1599 99.56 92.4133 100C92.6666 100.427 93.0133 100.767 93.4533 101.02C93.9066 101.26 94.3999 101.38 94.9333 101.38C95.4799 101.38 95.9733 101.267 96.4133 101.04C96.8666 100.813 97.2933 100.447 97.6933 99.94C97.7466 99.8733 97.7933 99.84 97.8333 99.84C97.8733 99.8267 97.9399 99.8467 98.0333 99.9L99.2533 100.44C99.4266 100.52 99.4466 100.64 99.3133 100.8C98.9133 101.387 98.4799 101.86 98.0133 102.22C97.5599 102.567 97.0533 102.82 96.4933 102.98C95.9466 103.127 95.3266 103.2 94.6333 103.2C93.6199 103.2 92.7133 102.973 91.9133 102.52C91.1133 102.067 90.4799 101.44 90.0133 100.64C89.5599 99.8267 89.3333 98.8933 89.3333 97.84C89.3333 96.68 89.5666 95.68 90.0333 94.84C90.5133 94 91.1533 93.3533 91.9533 92.9C92.7533 92.4333 93.6333 92.2 94.5933 92.2C95.6066 92.2 96.4866 92.42 97.2333 92.86C97.9933 93.3 98.5866 93.9333 99.0133 94.76C99.4399 95.5733 99.6533 96.5667 99.6533 97.74C99.6533 97.8733 99.6399 97.98 99.6133 98.06C99.5999 98.14 99.5066 98.1867 99.3333 98.2H92.2533C92.1733 98.2 92.1133 98.2267 92.0733 98.28C92.0466 98.3333 92.0333 98.4133 92.0333 98.52ZM96.7733 96.72C96.9066 96.72 96.9933 96.7067 97.0333 96.68C97.0866 96.64 97.1133 96.56 97.1133 96.44C97.1133 96.0267 97.0199 95.62 96.8333 95.22C96.6466 94.82 96.3733 94.4933 96.0133 94.24C95.6533 93.9733 95.2133 93.84 94.6933 93.84C94.1599 93.84 93.6933 93.9733 93.2933 94.24C92.8933 94.4933 92.5866 94.84 92.3733 95.28C92.1733 95.7067 92.0733 96.1867 92.0733 96.72H96.7733ZM110.413 92.2C111.213 92.2 111.906 92.34 112.493 92.62C113.079 92.8867 113.559 93.24 113.933 93.68C114.319 94.1067 114.613 94.56 114.813 95.04C114.893 95.28 114.826 95.4067 114.613 95.42L112.853 95.64C112.719 95.6667 112.626 95.6067 112.573 95.46C112.399 95.1667 112.219 94.9067 112.033 94.68C111.846 94.4533 111.633 94.2733 111.393 94.14C111.153 94.0067 110.859 93.94 110.513 93.94C109.979 93.94 109.506 94.0867 109.093 94.38C108.693 94.66 108.379 95.08 108.153 95.64C107.939 96.2 107.833 96.8867 107.833 97.7C107.833 98.5267 107.946 99.22 108.173 99.78C108.413 100.34 108.739 100.767 109.153 101.06C109.566 101.34 110.059 101.48 110.633 101.48C111.233 101.48 111.726 101.327 112.113 101.02C112.499 100.7 112.859 100.26 113.193 99.7C113.233 99.6467 113.273 99.6133 113.313 99.6C113.353 99.5867 113.419 99.5933 113.513 99.62L114.773 99.96C114.906 100 114.946 100.113 114.893 100.3C114.759 100.607 114.566 100.933 114.313 101.28C114.073 101.627 113.773 101.947 113.413 102.24C113.053 102.52 112.619 102.753 112.113 102.94C111.619 103.113 111.053 103.2 110.413 103.2C109.399 103.2 108.499 102.973 107.713 102.52C106.926 102.053 106.306 101.413 105.853 100.6C105.413 99.7733 105.193 98.82 105.193 97.74C105.193 96.6467 105.419 95.6867 105.873 94.86C106.326 94.02 106.946 93.3667 107.733 92.9C108.519 92.4333 109.413 92.2 110.413 92.2ZM122.53 101.9C122.076 102.3 121.583 102.62 121.05 102.86C120.516 103.087 119.91 103.2 119.23 103.2C118.203 103.2 117.396 102.933 116.81 102.4C116.236 101.853 115.95 101.147 115.95 100.28C115.95 99.5467 116.17 98.9133 116.61 98.38C117.05 97.8333 117.69 97.4067 118.53 97.1C119.37 96.7933 120.376 96.6133 121.55 96.56L122.55 96.5C122.63 96.4867 122.703 96.46 122.77 96.42C122.836 96.38 122.87 96.3067 122.87 96.2V95.74C122.87 95.1533 122.696 94.7 122.35 94.38C122.003 94.0467 121.523 93.88 120.91 93.88C120.443 93.88 120.003 93.9867 119.59 94.2C119.19 94.4 118.843 94.7333 118.55 95.2C118.51 95.28 118.463 95.3333 118.41 95.36C118.37 95.3867 118.29 95.3867 118.17 95.36L116.49 94.94C116.423 94.9133 116.37 94.8733 116.33 94.82C116.303 94.7667 116.33 94.66 116.41 94.5C116.77 93.74 117.336 93.1667 118.11 92.78C118.896 92.3933 119.87 92.2 121.03 92.2C122.056 92.2 122.883 92.34 123.51 92.62C124.15 92.9 124.616 93.2933 124.91 93.8C125.203 94.2933 125.35 94.88 125.35 95.56V102.6C125.35 102.747 125.323 102.853 125.27 102.92C125.23 102.973 125.143 103 125.01 103H123.31C123.19 103 123.103 102.953 123.05 102.86C122.996 102.767 122.963 102.653 122.95 102.52L122.91 101.92C122.883 101.693 122.756 101.687 122.53 101.9ZM122.87 98.16C122.87 97.92 122.77 97.8067 122.57 97.82L121.75 97.88C121.323 97.9067 120.91 97.9733 120.51 98.08C120.123 98.1733 119.776 98.3067 119.47 98.48C119.176 98.64 118.936 98.8467 118.75 99.1C118.576 99.34 118.49 99.6267 118.49 99.96C118.49 100.413 118.65 100.773 118.97 101.04C119.303 101.307 119.75 101.44 120.31 101.44C120.67 101.44 121.003 101.38 121.31 101.26C121.616 101.14 121.883 100.987 122.11 100.8C122.336 100.613 122.516 100.42 122.65 100.22C122.796 100.007 122.87 99.7933 122.87 99.58V98.16ZM130.442 102.56C130.442 102.72 130.409 102.833 130.342 102.9C130.275 102.967 130.155 103 129.982 103H128.222C127.955 103 127.822 102.88 127.822 102.64L127.882 88.5C127.882 88.2733 127.982 88.16 128.182 88.16H130.162C130.349 88.16 130.442 88.2667 130.442 88.48V102.56ZM135.579 102.56C135.579 102.72 135.545 102.833 135.479 102.9C135.412 102.967 135.292 103 135.119 103H133.359C133.092 103 132.959 102.88 132.959 102.64L133.019 88.5C133.019 88.2733 133.119 88.16 133.319 88.16H135.299C135.485 88.16 135.579 88.2667 135.579 88.48V102.56ZM140.655 102.58C140.655 102.86 140.489 103 140.155 103H138.135C137.869 103 137.735 102.88 137.735 102.64V100.38C137.735 100.153 137.829 100.04 138.015 100.04H140.375C140.562 100.04 140.655 100.14 140.655 100.34V102.58Z" fill="black"/>
</svg>
