<svg width="200" height="200" viewBox="0 0 200 200" fill="none" xmlns="http://www.w3.org/2000/svg">
<path fill-rule="evenodd" clip-rule="evenodd" d="M80.5 21C73.5964 21 68 26.5964 68 33.5V38H43.5C36.5964 38 31 43.5964 31 50.5V167.5C31 174.404 36.5964 180 43.5 180H121.5C128.404 180 134 174.404 134 167.5V163H158.5C165.404 163 171 157.404 171 150.5V33.5C171 26.5964 165.404 21 158.5 21H80.5ZM121.5 43H70.5H68H43.5C39.3579 43 36 46.3579 36 50.5V167.5C36 171.642 39.3579 175 43.5 175H121.5C125.642 175 129 171.642 129 167.5V50.5C129 46.3579 125.642 43 121.5 43ZM121.5 38H122C128.904 38 134.5 43.5964 134.5 50.5V158H158.5C162.642 158 166 154.642 166 150.5V33.5C166 29.3579 162.642 26 158.5 26H80.5C76.3579 26 73 29.3579 73 33.5V38H121.5Z" fill="#68A2F8"/>
<path d="M68 38V40.5H70.5V38H68ZM134 163V160.5H131.5V163H134ZM134.5 158H132V160.5H134.5V158ZM73 38H70.5V40.5H73V38ZM70.5 33.5C70.5 27.9772 74.9772 23.5 80.5 23.5V18.5C72.2157 18.5 65.5 25.2157 65.5 33.5H70.5ZM70.5 38V33.5H65.5V38H70.5ZM43.5 40.5H68V35.5H43.5V40.5ZM33.5 50.5C33.5 44.9772 37.9772 40.5 43.5 40.5V35.5C35.2157 35.5 28.5 42.2157 28.5 50.5H33.5ZM33.5 167.5V50.5H28.5V167.5H33.5ZM43.5 177.5C37.9772 177.5 33.5 173.023 33.5 167.5H28.5C28.5 175.784 35.2157 182.5 43.5 182.5V177.5ZM121.5 177.5H43.5V182.5H121.5V177.5ZM131.5 167.5C131.5 173.023 127.023 177.5 121.5 177.5V182.5C129.784 182.5 136.5 175.784 136.5 167.5H131.5ZM131.5 163V167.5H136.5V163H131.5ZM158.5 160.5H134V165.5H158.5V160.5ZM168.5 150.5C168.5 156.023 164.023 160.5 158.5 160.5V165.5C166.784 165.5 173.5 158.784 173.5 150.5H168.5ZM168.5 33.5V150.5H173.5V33.5H168.5ZM158.5 23.5C164.023 23.5 168.5 27.9771 168.5 33.5H173.5C173.5 25.2157 166.784 18.5 158.5 18.5V23.5ZM80.5 23.5H158.5V18.5H80.5V23.5ZM121.5 40.5H70.5V45.5H121.5V40.5ZM70.5 40.5H68V45.5H70.5V40.5ZM68 40.5H43.5V45.5H68V40.5ZM43.5 40.5C37.9772 40.5 33.5 44.9772 33.5 50.5H38.5C38.5 47.7386 40.7386 45.5 43.5 45.5V40.5ZM33.5 50.5V167.5H38.5V50.5H33.5ZM33.5 167.5C33.5 173.023 37.9772 177.5 43.5 177.5V172.5C40.7386 172.5 38.5 170.261 38.5 167.5H33.5ZM43.5 177.5H121.5V172.5H43.5V177.5ZM121.5 177.5C127.023 177.5 131.5 173.023 131.5 167.5H126.5C126.5 170.261 124.261 172.5 121.5 172.5V177.5ZM131.5 167.5V50.5H126.5V167.5H131.5ZM131.5 50.5C131.5 44.9771 127.023 40.5 121.5 40.5V45.5C124.261 45.5 126.5 47.7386 126.5 50.5H131.5ZM121.5 40.5H122V35.5H121.5V40.5ZM122 40.5C127.523 40.5 132 44.9772 132 50.5H137C137 42.2157 130.284 35.5 122 35.5V40.5ZM132 50.5V158H137V50.5H132ZM134.5 160.5H158.5V155.5H134.5V160.5ZM158.5 160.5C164.023 160.5 168.5 156.023 168.5 150.5H163.5C163.5 153.261 161.261 155.5 158.5 155.5V160.5ZM168.5 150.5V33.5H163.5V150.5H168.5ZM168.5 33.5C168.5 27.9771 164.023 23.5 158.5 23.5V28.5C161.261 28.5 163.5 30.7386 163.5 33.5H168.5ZM158.5 23.5H80.5V28.5H158.5V23.5ZM80.5 23.5C74.9772 23.5 70.5 27.9772 70.5 33.5H75.5C75.5 30.7386 77.7386 28.5 80.5 28.5V23.5ZM70.5 33.5V38H75.5V33.5H70.5ZM73 40.5H121.5V35.5H73V40.5Z" fill="#68A2F8"/>
</svg>
