<svg width="204" height="204" viewBox="0 0 204 204" fill="none" xmlns="http://www.w3.org/2000/svg">
<rect x="0.5" y="0.5" width="203" height="203" fill="#EDE7E2" stroke="black"/>
<path d="M46.3138 20.48C46.3138 20.3867 46.3404 20.3133 46.3938 20.26C46.4471 20.1933 46.5338 20.16 46.6538 20.16H57.8938C58.0138 20.16 58.1004 20.1933 58.1538 20.26C58.2071 20.3133 58.2338 20.3867 58.2338 20.48V22.04C58.2338 22.2267 58.1271 22.32 57.9138 22.32H54.0738C53.9271 22.32 53.8538 22.3867 53.8538 22.52V34.66C53.8538 34.8867 53.7538 35 53.5538 35H51.1738C50.9871 35 50.8938 34.8933 50.8938 34.68V22.56C50.8938 22.4 50.8204 22.32 50.6738 22.32H46.6538C46.4271 22.32 46.3138 22.2267 46.3138 22.04V20.48ZM60.6127 35C60.3593 35 60.2327 34.88 60.2327 34.64V20.5C60.2327 20.2733 60.3327 20.16 60.5327 20.16H62.5127C62.686 20.16 62.7727 20.26 62.7727 20.46V25.66C62.7727 25.74 62.7927 25.7867 62.8327 25.8C62.8727 25.8133 62.926 25.7933 62.9927 25.74C63.4327 25.3667 63.8393 25.0733 64.2127 24.86C64.586 24.6333 64.9593 24.4667 65.3327 24.36C65.706 24.2533 66.0927 24.2 66.4927 24.2C67.5193 24.2 68.306 24.48 68.8527 25.04C69.3993 25.6 69.6727 26.3667 69.6727 27.34V34.58C69.6727 34.86 69.5327 35 69.2527 35H67.4127C67.2927 35 67.206 34.9733 67.1527 34.92C67.0993 34.8667 67.0727 34.7733 67.0727 34.64V27.76C67.0727 27.24 66.9327 26.84 66.6527 26.56C66.386 26.2667 65.9727 26.12 65.4127 26.12C65.0927 26.12 64.7927 26.1733 64.5127 26.28C64.246 26.3733 63.9793 26.52 63.7127 26.72C63.446 26.92 63.1527 27.1733 62.8327 27.48V34.6C62.8327 34.8667 62.686 35 62.3927 35H60.6127ZM74.2286 30.52C74.2286 31.0667 74.3553 31.56 74.6086 32C74.8619 32.4267 75.2086 32.7667 75.6486 33.02C76.1019 33.26 76.5953 33.38 77.1286 33.38C77.6753 33.38 78.1686 33.2667 78.6086 33.04C79.0619 32.8133 79.4886 32.4467 79.8886 31.94C79.9419 31.8733 79.9886 31.84 80.0286 31.84C80.0686 31.8267 80.1353 31.8467 80.2286 31.9L81.4486 32.44C81.6219 32.52 81.6419 32.64 81.5086 32.8C81.1086 33.3867 80.6753 33.86 80.2086 34.22C79.7553 34.5667 79.2486 34.82 78.6886 34.98C78.1419 35.1267 77.5219 35.2 76.8286 35.2C75.8153 35.2 74.9086 34.9733 74.1086 34.52C73.3086 34.0667 72.6753 33.44 72.2086 32.64C71.7553 31.8267 71.5286 30.8933 71.5286 29.84C71.5286 28.68 71.7619 27.68 72.2286 26.84C72.7086 26 73.3486 25.3533 74.1486 24.9C74.9486 24.4333 75.8286 24.2 76.7886 24.2C77.8019 24.2 78.6819 24.42 79.4286 24.86C80.1886 25.3 80.7819 25.9333 81.2086 26.76C81.6353 27.5733 81.8486 28.5667 81.8486 29.74C81.8486 29.8733 81.8353 29.98 81.8086 30.06C81.7953 30.14 81.7019 30.1867 81.5286 30.2H74.4486C74.3686 30.2 74.3086 30.2267 74.2686 30.28C74.2419 30.3333 74.2286 30.4133 74.2286 30.52ZM78.9686 28.72C79.1019 28.72 79.1886 28.7067 79.2286 28.68C79.2819 28.64 79.3086 28.56 79.3086 28.44C79.3086 28.0267 79.2153 27.62 79.0286 27.22C78.8419 26.82 78.5686 26.4933 78.2086 26.24C77.8486 25.9733 77.4086 25.84 76.8886 25.84C76.3553 25.84 75.8886 25.9733 75.4886 26.24C75.0886 26.4933 74.7819 26.84 74.5686 27.28C74.3686 27.7067 74.2686 28.1867 74.2686 28.72H78.9686ZM94.288 19.96C95.0213 19.96 95.7146 20.0733 96.368 20.3C97.0213 20.5133 97.608 20.82 98.128 21.22C98.648 21.6067 99.0746 22.06 99.408 22.58C99.7413 23.1 99.9613 23.66 100.068 24.26C100.108 24.4467 100.108 24.5667 100.068 24.62C100.041 24.6733 99.9746 24.7067 99.868 24.72L97.588 24.88C97.4813 24.88 97.4146 24.86 97.388 24.82C97.3613 24.7667 97.3346 24.6933 97.308 24.6C97.148 23.8533 96.8213 23.2467 96.328 22.78C95.8346 22.3 95.1813 22.06 94.368 22.06C93.2346 22.06 92.3546 22.5 91.728 23.38C91.1013 24.26 90.788 25.6467 90.788 27.54C90.788 29.4067 91.088 30.78 91.688 31.66C92.3013 32.54 93.2146 32.98 94.428 32.98C95.2546 32.98 95.9613 32.78 96.548 32.38C97.1346 31.9667 97.6146 31.28 97.988 30.32C98.028 30.2133 98.148 30.18 98.348 30.22L100.048 30.58C100.101 30.5933 100.148 30.6267 100.188 30.68C100.241 30.7333 100.255 30.8467 100.228 31.02C100.148 31.3267 100.008 31.6667 99.808 32.04C99.608 32.4133 99.348 32.7867 99.028 33.16C98.708 33.5333 98.3146 33.8733 97.848 34.18C97.3946 34.4867 96.8746 34.7333 96.288 34.92C95.7013 35.1067 95.0413 35.2 94.308 35.2C92.948 35.2 91.768 34.88 90.768 34.24C89.7813 33.6 89.0213 32.7067 88.488 31.56C87.9546 30.4 87.688 29.0467 87.688 27.5C87.688 25.94 87.9546 24.6 88.488 23.48C89.0213 22.36 89.7813 21.4933 90.768 20.88C91.7546 20.2667 92.928 19.96 94.288 19.96ZM102.683 35C102.43 35 102.303 34.88 102.303 34.64V20.5C102.303 20.2733 102.403 20.16 102.603 20.16H104.583C104.756 20.16 104.843 20.26 104.843 20.46V25.66C104.843 25.74 104.863 25.7867 104.903 25.8C104.943 25.8133 104.996 25.7933 105.063 25.74C105.503 25.3667 105.91 25.0733 106.283 24.86C106.656 24.6333 107.03 24.4667 107.403 24.36C107.776 24.2533 108.163 24.2 108.563 24.2C109.59 24.2 110.376 24.48 110.923 25.04C111.47 25.6 111.743 26.3667 111.743 27.34V34.58C111.743 34.86 111.603 35 111.323 35H109.483C109.363 35 109.276 34.9733 109.223 34.92C109.17 34.8667 109.143 34.7733 109.143 34.64V27.76C109.143 27.24 109.003 26.84 108.723 26.56C108.456 26.2667 108.043 26.12 107.483 26.12C107.163 26.12 106.863 26.1733 106.583 26.28C106.316 26.3733 106.05 26.52 105.783 26.72C105.516 26.92 105.223 27.1733 104.903 27.48V34.6C104.903 34.8667 104.756 35 104.463 35H102.683ZM116.299 30.52C116.299 31.0667 116.426 31.56 116.679 32C116.932 32.4267 117.279 32.7667 117.719 33.02C118.172 33.26 118.666 33.38 119.199 33.38C119.746 33.38 120.239 33.2667 120.679 33.04C121.132 32.8133 121.559 32.4467 121.959 31.94C122.012 31.8733 122.059 31.84 122.099 31.84C122.139 31.8267 122.206 31.8467 122.299 31.9L123.519 32.44C123.692 32.52 123.712 32.64 123.579 32.8C123.179 33.3867 122.746 33.86 122.279 34.22C121.826 34.5667 121.319 34.82 120.759 34.98C120.212 35.1267 119.592 35.2 118.899 35.2C117.886 35.2 116.979 34.9733 116.179 34.52C115.379 34.0667 114.746 33.44 114.279 32.64C113.826 31.8267 113.599 30.8933 113.599 29.84C113.599 28.68 113.832 27.68 114.299 26.84C114.779 26 115.419 25.3533 116.219 24.9C117.019 24.4333 117.899 24.2 118.859 24.2C119.872 24.2 120.752 24.42 121.499 24.86C122.259 25.3 122.852 25.9333 123.279 26.76C123.706 27.5733 123.919 28.5667 123.919 29.74C123.919 29.8733 123.906 29.98 123.879 30.06C123.866 30.14 123.772 30.1867 123.599 30.2H116.519C116.439 30.2 116.379 30.2267 116.339 30.28C116.312 30.3333 116.299 30.4133 116.299 30.52ZM121.039 28.72C121.172 28.72 121.259 28.7067 121.299 28.68C121.352 28.64 121.379 28.56 121.379 28.44C121.379 28.0267 121.286 27.62 121.099 27.22C120.912 26.82 120.639 26.4933 120.279 26.24C119.919 25.9733 119.479 25.84 118.959 25.84C118.426 25.84 117.959 25.9733 117.559 26.24C117.159 26.4933 116.852 26.84 116.639 27.28C116.439 27.7067 116.339 28.1867 116.339 28.72H121.039ZM127.979 30.52C127.979 31.0667 128.105 31.56 128.359 32C128.612 32.4267 128.959 32.7667 129.399 33.02C129.852 33.26 130.345 33.38 130.879 33.38C131.425 33.38 131.919 33.2667 132.359 33.04C132.812 32.8133 133.239 32.4467 133.639 31.94C133.692 31.8733 133.739 31.84 133.779 31.84C133.819 31.8267 133.885 31.8467 133.979 31.9L135.199 32.44C135.372 32.52 135.392 32.64 135.259 32.8C134.859 33.3867 134.425 33.86 133.959 34.22C133.505 34.5667 132.999 34.82 132.439 34.98C131.892 35.1267 131.272 35.2 130.579 35.2C129.565 35.2 128.659 34.9733 127.859 34.52C127.059 34.0667 126.425 33.44 125.959 32.64C125.505 31.8267 125.279 30.8933 125.279 29.84C125.279 28.68 125.512 27.68 125.979 26.84C126.459 26 127.099 25.3533 127.899 24.9C128.699 24.4333 129.579 24.2 130.539 24.2C131.552 24.2 132.432 24.42 133.179 24.86C133.939 25.3 134.532 25.9333 134.959 26.76C135.385 27.5733 135.599 28.5667 135.599 29.74C135.599 29.8733 135.585 29.98 135.559 30.06C135.545 30.14 135.452 30.1867 135.279 30.2H128.199C128.119 30.2 128.059 30.2267 128.019 30.28C127.992 30.3333 127.979 30.4133 127.979 30.52ZM132.719 28.72C132.852 28.72 132.939 28.7067 132.979 28.68C133.032 28.64 133.059 28.56 133.059 28.44C133.059 28.0267 132.965 27.62 132.779 27.22C132.592 26.82 132.319 26.4933 131.959 26.24C131.599 25.9733 131.159 25.84 130.639 25.84C130.105 25.84 129.639 25.9733 129.239 26.24C128.839 26.4933 128.532 26.84 128.319 27.28C128.119 27.7067 128.019 28.1867 128.019 28.72H132.719ZM143.978 27.02C143.725 26.6867 143.392 26.4067 142.978 26.18C142.565 25.9533 142.058 25.84 141.458 25.84C140.885 25.84 140.405 25.9533 140.018 26.18C139.632 26.4067 139.438 26.7267 139.438 27.14C139.438 27.34 139.518 27.5333 139.678 27.72C139.838 27.9067 140.192 28.0733 140.738 28.22L143.118 28.86C144.158 29.1133 144.898 29.5133 145.338 30.06C145.792 30.5933 146.018 31.2 146.018 31.88C146.018 32.5733 145.818 33.1667 145.418 33.66C145.032 34.1533 144.485 34.5333 143.778 34.8C143.085 35.0667 142.292 35.2 141.398 35.2C140.252 35.2 139.272 34.9933 138.458 34.58C137.645 34.1533 137.072 33.6267 136.738 33C136.698 32.92 136.678 32.8467 136.678 32.78C136.678 32.7 136.712 32.6333 136.778 32.58L137.958 31.98C138.065 31.9133 138.152 31.8867 138.218 31.9C138.285 31.9133 138.338 31.9467 138.378 32C138.578 32.28 138.805 32.5333 139.058 32.76C139.325 32.9867 139.645 33.1667 140.018 33.3C140.405 33.4333 140.872 33.4933 141.418 33.48C141.832 33.48 142.205 33.4267 142.538 33.32C142.885 33.2133 143.158 33.0667 143.358 32.88C143.558 32.68 143.658 32.44 143.658 32.16C143.658 31.8933 143.545 31.66 143.318 31.46C143.092 31.26 142.685 31.0867 142.098 30.94L140.058 30.46C139.045 30.22 138.298 29.86 137.818 29.38C137.352 28.9 137.118 28.3 137.118 27.58C137.118 26.9133 137.292 26.3267 137.638 25.82C137.998 25.3133 138.505 24.92 139.158 24.64C139.812 24.3467 140.585 24.2 141.478 24.2C142.465 24.2 143.318 24.38 144.038 24.74C144.758 25.1 145.285 25.5467 145.618 26.08C145.672 26.1467 145.705 26.22 145.718 26.3C145.745 26.38 145.712 26.4467 145.618 26.5L144.378 27.12C144.298 27.16 144.225 27.1733 144.158 27.16C144.092 27.1333 144.032 27.0867 143.978 27.02ZM150.147 30.52C150.147 31.0667 150.273 31.56 150.527 32C150.78 32.4267 151.127 32.7667 151.567 33.02C152.02 33.26 152.513 33.38 153.047 33.38C153.593 33.38 154.087 33.2667 154.527 33.04C154.98 32.8133 155.407 32.4467 155.807 31.94C155.86 31.8733 155.907 31.84 155.947 31.84C155.987 31.8267 156.053 31.8467 156.147 31.9L157.367 32.44C157.54 32.52 157.56 32.64 157.427 32.8C157.027 33.3867 156.593 33.86 156.127 34.22C155.673 34.5667 155.167 34.82 154.607 34.98C154.06 35.1267 153.44 35.2 152.747 35.2C151.733 35.2 150.827 34.9733 150.027 34.52C149.227 34.0667 148.593 33.44 148.127 32.64C147.673 31.8267 147.447 30.8933 147.447 29.84C147.447 28.68 147.68 27.68 148.147 26.84C148.627 26 149.267 25.3533 150.067 24.9C150.867 24.4333 151.747 24.2 152.707 24.2C153.72 24.2 154.6 24.42 155.347 24.86C156.107 25.3 156.7 25.9333 157.127 26.76C157.553 27.5733 157.767 28.5667 157.767 29.74C157.767 29.8733 157.753 29.98 157.727 30.06C157.713 30.14 157.62 30.1867 157.447 30.2H150.367C150.287 30.2 150.227 30.2267 150.187 30.28C150.16 30.3333 150.147 30.4133 150.147 30.52ZM154.887 28.72C155.02 28.72 155.107 28.7067 155.147 28.68C155.2 28.64 155.227 28.56 155.227 28.44C155.227 28.0267 155.133 27.62 154.947 27.22C154.76 26.82 154.487 26.4933 154.127 26.24C153.767 25.9733 153.327 25.84 152.807 25.84C152.273 25.84 151.807 25.9733 151.407 26.24C151.007 26.4933 150.7 26.84 150.487 27.28C150.287 27.7067 150.187 28.1867 150.187 28.72H154.887Z" fill="black"/>
<path d="M77.2121 69.5542C77.2397 69.8579 77.3259 70.1621 77.5345 70.3974C80.5475 73.7967 82.4751 77.5542 84.6769 81.7806C93.7666 99.2285 102.63 117.44 105.583 137.085C106.747 144.824 106.719 152.814 107.121 160.62" stroke="#FFFA7B" stroke-width="3" stroke-linecap="round"/>
<path d="M80.7833 72.0094C97.1542 64.1797 111.901 52.0013 129.54 46.9117C133.771 45.6911 139.023 45.2753 142.238 48.8462C144.935 51.8414 147.256 56.3411 148.884 59.9814C153.53 70.3685 155.312 82.2238 157.688 93.263C159.243 100.487 161.032 107.813 161.284 115.236C161.355 117.331 162.193 126.811 158.903 127.14" stroke="#FFFA7B" stroke-width="3" stroke-linecap="round"/>
<path d="M108.014 158.611C110.768 158.181 117.397 152.824 118.355 152.188C129.072 145.079 139.94 138.329 150.868 131.604" stroke="#FFFA7B" stroke-width="3" stroke-linecap="round"/>
<path d="M86.5865 79.1518C87.0962 78.8584 87.6538 78.5107 87.7893 77.887C88.4608 74.7985 91.5448 71.8873 93.4314 69.5046C97.4296 64.455 92.3494 72.1402 92.2286 73.8322C92.1531 74.8883 94.3713 73.411 95.2294 72.7906C96.2952 72.02 101.306 67.1206 99.433 72.3566C98.8646 73.9454 94.9079 82.2296 94.3986 83.3926C93.6993 84.9893 92.9824 86.5847 92.4393 88.241C92.3139 88.6238 90.7788 92.6407 93.295 90.5846C95.5624 88.7318 99.2677 83.458 100.586 81.6442C104.666 76.0315 108.381 70.1117 112.726 64.6934C113.493 63.7371 115.768 61.1105 115.528 62.3126C115.302 63.4464 114.685 64.4674 114.189 65.5118C96.4571 102.879 129.289 32.7219 107.27 79.3378C106.174 81.6568 105.047 83.9677 104.145 86.3686C104.004 86.7445 101.871 92.3722 105.013 88.8734C110.521 82.7396 114.566 74.9985 119.149 68.1902C120.455 66.2495 124.171 60.475 123.563 62.7342C123.107 64.4303 122.246 65.9915 121.53 67.595C117.113 77.4783 116.882 77.187 112.503 87.559C110.398 92.5437 108.193 98.0938 106.675 103.357C106.297 104.666 106.02 106.005 105.794 107.349C105.627 108.347 105.145 110.285 106.154 110.363C107.15 110.439 108.825 107.942 108.907 107.833C111.859 103.884 114.195 99.4508 116.57 95.1478C121.909 85.4755 127.384 75.89 132.789 66.2558C133.462 65.057 135.223 61.9493 135.877 60.3162C136.516 58.7184 133.848 63.113 133.062 64.6438C127.519 75.4383 122.858 86.8262 118.789 98.2478C116.968 103.361 115.573 107.55 114.276 112.781C113.529 115.791 111.568 121.999 113.023 125.305C113.744 126.941 116.305 123.496 117.215 121.957C119.361 118.325 120.936 114.421 122.745 110.623" stroke="#FFFA7B" stroke-width="3" stroke-linecap="round"/>
<path d="M126.986 100.802C131.285 90.6468 134.753 80.4018 138.369 70.0006" stroke="#FFFA7B" stroke-width="3" stroke-linecap="round"/>
<path d="M135.467 74.0183C132.363 83.3063 133.307 92.7206 133.88 102.389C134.011 104.591 134.009 106.814 134.389 108.986C134.528 109.786 134.609 111.269 135.418 111.194C136.485 111.094 136.864 109.598 137.451 108.701C138.357 107.317 139.097 105.83 139.882 104.373C140.366 103.475 141.735 100.738 141.32 101.67C140.681 103.108 136.908 111.237 136.732 111.615C136.52 112.072 131.497 122.852 131.003 123.916C130.534 124.927 130.066 125.94 129.602 126.954C129.306 127.603 130.234 125.674 130.545 125.032C133.958 117.962 137.626 111.017 141.023 103.939C141.707 102.513 143.765 98.3435 142.672 99.4879C138.7 103.647 135.871 110.258 133.235 115.236C130.907 119.634 129.925 121.782 128.003 126.074C127.638 126.888 127.325 127.726 126.936 128.529C126.803 128.803 126.745 129.309 126.44 129.298C125.698 129.268 126.327 127.809 126.143 127.09C125.664 125.225 124.552 124.655 122.658 125.069C118.503 125.976 115.059 129.046 111.399 131.021C106.289 133.779 110.154 127.329 111.027 125.627C115.571 116.77 120.659 108.15 125.771 99.6119C125.771 99.6112 129.069 93.9958 130.024 92.9531C130.102 92.8672 130.221 93.1523 130.185 93.2631C129.11 96.5843 127.55 99.7288 126.291 102.985C122.564 112.625 119.23 122.396 116.52 132.373C116.038 134.149 115.082 135.924 115.28 137.754C115.302 137.959 115.689 137.608 115.813 137.444C116.857 136.066 119.029 131.861 119.521 130.922C126.377 117.846 144.45 77.4483 137.203 90.3119C131.264 100.855 126.577 112.246 121.753 123.321C121.584 123.708 112.007 144.138 113.395 144.971C114.227 145.47 126.076 123.87 126.515 123.098C127.198 121.893 132.49 112.451 133.93 110.326C134.213 109.907 134.797 108.837 135.033 109.284C135.399 109.975 134.811 110.837 134.599 111.59C134.145 113.206 133.567 114.784 133.037 116.377C131.517 120.948 129.141 125.928 128.647 130.786C128.222 134.97 133.813 125.983 134.054 125.578C136.382 121.659 138.482 117.607 140.601 113.574C142.329 110.286 147.817 100.599 145.797 103.716C143.3 107.568 141.191 111.723 139.138 115.819C136.847 120.389 133.432 126.185 133.111 131.48C132.973 133.762 136.698 128.571 138.071 126.743C141.737 121.863 145.027 116.485 149.318 112.111C151.981 109.398 149.012 115.084 148.946 115.224C146.926 119.543 144.592 123.831 143.18 128.405C142.347 131.106 143.826 129.621 144.817 128.306C148.003 124.075 150.563 119.4 153.596 115.062C153.951 114.556 156.318 111.259 154.811 114.455C153.078 118.131 150.934 121.599 149.182 125.268C148.674 126.33 147.425 129.612 148.053 128.616C150.237 125.153 152.156 121.123 153.299 117.195C153.844 115.322 153.963 113.452 151.959 115.534C151.12 116.406 149.498 118.377 148.76 119.254C148.175 119.949 146.306 122.92 145.04 122.874C143.405 122.816 145.923 115.296 146.02 114.951C147.432 109.935 149.462 104.65 149.678 99.3887C149.972 92.2037 140.933 104.382 139.659 105.489C139.112 105.965 138.512 106.283 138.741 105.217C138.967 104.166 140.384 100.834 140.651 100.207C141.639 97.883 143.177 94.4774 144.197 92.1967C145.187 89.9838 146.961 87.1068 147.347 84.6203C147.696 82.3717 145.047 88.5773 144.284 90.7211C144.264 90.7771 141.687 98.9303 144.519 95.9167C146.707 93.5887 147.633 89.5767 148.438 86.6415C149.035 84.4644 149.716 81.3643 150.075 79.1023C150.166 78.5278 151.08 74.4019 150.05 73.7579C148.665 72.8925 142.779 89.6291 142.176 91.5271C140.616 96.4383 144.197 81.3537 144.197 76.2007C144.197 75.9988 143.986 75.556 143.85 75.7047C143.56 76.0199 142.844 77.4924 142.759 77.6639C142.547 78.0885 139.906 83.7084 140.39 81.2599C140.796 79.2092 144.902 63.6629 140.204 64.4206C138.225 64.7398 137.018 66.7314 135.567 67.8678C133.551 69.4458 133.89 65.1729 133.967 64.309C134.193 61.789 134.913 59.1339 134.537 56.5962C133.967 52.7395 129.098 59.7209 128.548 60.403C128.063 61.0056 123.415 67.316 126.589 61.8662C127.176 60.8579 127.77 59.8525 128.412 58.8778C128.821 58.2556 128.994 57.0614 129.739 57.0798C130.355 57.0951 129.597 58.3128 129.416 58.9026C127.997 63.5187 126.161 67.9961 124.568 72.555C121.377 81.6886 118.491 90.8969 116.086 100.269C115.153 103.904 114.157 107.549 113.817 111.293" stroke="#FFFA7B" stroke-width="3" stroke-linecap="round"/>
<path d="M43.9553 113.748C45.1203 112.583 45.8767 111.993 47.4769 111.057C57.0496 105.456 67.1569 100.778 76.9889 95.6687" stroke="black" stroke-width="3" stroke-linecap="round"/>
<path d="M69.6233 115.757C69.2502 115.757 68.6751 116.115 69.2265 116.501C69.7549 116.871 71.2159 115.704 71.5329 115.509C75.5404 113.04 79.4891 110.469 83.4617 107.945" stroke="black" stroke-width="3" stroke-linecap="round"/>
<path d="M61.1417 146.781C61.2663 146.158 61.7809 145.612 62.2329 145.194C70.785 137.288 80.5824 130.534 89.7113 123.345" stroke="black" stroke-width="3" stroke-linecap="round"/>
</svg>
