<svg width="252" height="126" viewBox="0 0 252 126" fill="none" xmlns="http://www.w3.org/2000/svg">
<path d="M37.5209 45.22C37.3875 45.22 37.3209 45.2933 37.3209 45.44V50.78C37.3209 51.3 37.4275 51.66 37.6409 51.86C37.8542 52.06 38.1875 52.16 38.6409 52.16H39.8209C39.9009 52.16 39.9675 52.1867 40.0209 52.24C40.0742 52.2933 40.1009 52.36 40.1009 52.44L40.0809 53.48C40.0809 53.6933 39.9542 53.8267 39.7009 53.88C39.5009 53.9067 39.2675 53.9333 39.0009 53.96C38.7342 53.9733 38.4675 53.9867 38.2009 54C37.9475 54 37.7142 54 37.5009 54C36.6075 54 35.9209 53.7933 35.4409 53.38C34.9609 52.9533 34.7209 52.3133 34.7209 51.46V45.48C34.7209 45.3067 34.6409 45.22 34.4809 45.22H33.1409C32.9275 45.22 32.8209 45.12 32.8209 44.92V43.66C32.8209 43.4867 32.9209 43.4 33.1209 43.4H34.6009C34.7209 43.4 34.7809 43.3333 34.7809 43.2L35.0409 40.12C35.0542 39.9067 35.1475 39.8 35.3209 39.8H37.1009C37.2875 39.8 37.3809 39.9133 37.3809 40.14V43.2C37.3809 43.32 37.4409 43.38 37.5609 43.38H39.8209C40.0209 43.38 40.1209 43.4733 40.1209 43.66V44.92C40.1209 45.12 40.0075 45.22 39.7809 45.22H37.5209ZM42.3607 54C42.1074 54 41.9807 53.88 41.9807 53.64V39.5C41.9807 39.2733 42.0807 39.16 42.2807 39.16H44.2607C44.434 39.16 44.5207 39.26 44.5207 39.46V44.66C44.5207 44.74 44.5407 44.7867 44.5807 44.8C44.6207 44.8133 44.674 44.7933 44.7407 44.74C45.1807 44.3667 45.5874 44.0733 45.9607 43.86C46.334 43.6333 46.7074 43.4667 47.0807 43.36C47.454 43.2533 47.8407 43.2 48.2407 43.2C49.2674 43.2 50.054 43.48 50.6007 44.04C51.1474 44.6 51.4207 45.3667 51.4207 46.34V53.58C51.4207 53.86 51.2807 54 51.0007 54H49.1607C49.0407 54 48.954 53.9733 48.9007 53.92C48.8474 53.8667 48.8207 53.7733 48.8207 53.64V46.76C48.8207 46.24 48.6807 45.84 48.4007 45.56C48.134 45.2667 47.7207 45.12 47.1607 45.12C46.8407 45.12 46.5407 45.1733 46.2607 45.28C45.994 45.3733 45.7274 45.52 45.4607 45.72C45.194 45.92 44.9007 46.1733 44.5807 46.48V53.6C44.5807 53.8667 44.434 54 44.1407 54H42.3607ZM59.6566 52.9C59.2033 53.3 58.71 53.62 58.1766 53.86C57.6433 54.0867 57.0366 54.2 56.3566 54.2C55.33 54.2 54.5233 53.9333 53.9366 53.4C53.3633 52.8533 53.0766 52.1467 53.0766 51.28C53.0766 50.5467 53.2966 49.9133 53.7366 49.38C54.1766 48.8333 54.8166 48.4067 55.6566 48.1C56.4966 47.7933 57.5033 47.6133 58.6766 47.56L59.6766 47.5C59.7566 47.4867 59.83 47.46 59.8966 47.42C59.9633 47.38 59.9966 47.3067 59.9966 47.2V46.74C59.9966 46.1533 59.8233 45.7 59.4766 45.38C59.13 45.0467 58.65 44.88 58.0366 44.88C57.57 44.88 57.13 44.9867 56.7166 45.2C56.3166 45.4 55.97 45.7333 55.6766 46.2C55.6366 46.28 55.59 46.3333 55.5366 46.36C55.4966 46.3867 55.4166 46.3867 55.2966 46.36L53.6166 45.94C53.55 45.9133 53.4966 45.8733 53.4566 45.82C53.43 45.7667 53.4566 45.66 53.5366 45.5C53.8966 44.74 54.4633 44.1667 55.2366 43.78C56.0233 43.3933 56.9966 43.2 58.1566 43.2C59.1833 43.2 60.01 43.34 60.6366 43.62C61.2766 43.9 61.7433 44.2933 62.0366 44.8C62.33 45.2933 62.4766 45.88 62.4766 46.56V53.6C62.4766 53.7467 62.45 53.8533 62.3966 53.92C62.3566 53.9733 62.27 54 62.1366 54H60.4366C60.3166 54 60.23 53.9533 60.1766 53.86C60.1233 53.7667 60.09 53.6533 60.0766 53.52L60.0366 52.92C60.01 52.6933 59.8833 52.6867 59.6566 52.9ZM59.9966 49.16C59.9966 48.92 59.8966 48.8067 59.6966 48.82L58.8766 48.88C58.45 48.9067 58.0366 48.9733 57.6366 49.08C57.25 49.1733 56.9033 49.3067 56.5966 49.48C56.3033 49.64 56.0633 49.8467 55.8766 50.1C55.7033 50.34 55.6166 50.6267 55.6166 50.96C55.6166 51.4133 55.7766 51.7733 56.0966 52.04C56.43 52.3067 56.8766 52.44 57.4366 52.44C57.7966 52.44 58.13 52.38 58.4366 52.26C58.7433 52.14 59.01 51.9867 59.2366 51.8C59.4633 51.6133 59.6433 51.42 59.7766 51.22C59.9233 51.0067 59.9966 50.7933 59.9966 50.58V49.16ZM68.5365 45.22C68.4032 45.22 68.3365 45.2933 68.3365 45.44V50.78C68.3365 51.3 68.4432 51.66 68.6565 51.86C68.8698 52.06 69.2032 52.16 69.6565 52.16H70.8365C70.9165 52.16 70.9832 52.1867 71.0365 52.24C71.0898 52.2933 71.1165 52.36 71.1165 52.44L71.0965 53.48C71.0965 53.6933 70.9698 53.8267 70.7165 53.88C70.5165 53.9067 70.2832 53.9333 70.0165 53.96C69.7498 53.9733 69.4832 53.9867 69.2165 54C68.9632 54 68.7298 54 68.5165 54C67.6232 54 66.9365 53.7933 66.4565 53.38C65.9765 52.9533 65.7365 52.3133 65.7365 51.46V45.48C65.7365 45.3067 65.6565 45.22 65.4965 45.22H64.1565C63.9432 45.22 63.8365 45.12 63.8365 44.92V43.66C63.8365 43.4867 63.9365 43.4 64.1365 43.4H65.6165C65.7365 43.4 65.7965 43.3333 65.7965 43.2L66.0565 40.12C66.0698 39.9067 66.1632 39.8 66.3365 39.8H68.1165C68.3032 39.8 68.3965 39.9133 68.3965 40.14V43.2C68.3965 43.32 68.4565 43.38 68.5765 43.38H70.8365C71.0365 43.38 71.1365 43.4733 71.1365 43.66V44.92C71.1365 45.12 71.0232 45.22 70.7965 45.22H68.5365ZM87.496 43.04C87.616 43.04 87.7093 43.0733 87.776 43.14C87.856 43.1933 87.896 43.2933 87.896 43.44V44.56C87.896 44.7333 87.856 44.8533 87.776 44.92C87.7093 44.9867 87.6027 45.0133 87.456 45C87.2693 44.9733 87.0893 44.9667 86.916 44.98C86.756 44.98 86.6093 45 86.476 45.04C86.1293 45.12 85.996 45.2733 86.076 45.5C86.116 45.62 86.1627 45.7667 86.216 45.94C86.2827 46.1133 86.316 46.32 86.316 46.56C86.316 47.16 86.1427 47.7067 85.796 48.2C85.4627 48.6933 84.9493 49.0867 84.256 49.38C83.5627 49.6733 82.696 49.82 81.656 49.82C81.0693 49.82 80.6027 49.8533 80.256 49.92C79.9227 49.9867 79.6827 50.08 79.536 50.2C79.3893 50.3067 79.316 50.4267 79.316 50.56C79.316 50.7467 79.4293 50.88 79.656 50.96C79.896 51.0267 80.2627 51.08 80.756 51.12L83.516 51.28C84.8227 51.3467 85.776 51.64 86.376 52.16C86.976 52.6667 87.276 53.3267 87.276 54.14C87.276 55.14 86.8027 55.9467 85.856 56.56C84.9227 57.1867 83.5627 57.5 81.776 57.5C79.9227 57.5 78.5227 57.2733 77.576 56.82C76.6427 56.38 76.176 55.72 76.176 54.84C76.176 54.3733 76.3493 53.98 76.696 53.66C77.0427 53.34 77.5027 53.06 78.076 52.82C78.2493 52.7533 78.2493 52.68 78.076 52.6C77.7693 52.4533 77.5093 52.2733 77.296 52.06C77.096 51.8333 76.996 51.56 76.996 51.24C76.996 50.9867 77.076 50.76 77.236 50.56C77.396 50.3467 77.6093 50.1533 77.876 49.98C78.156 49.8067 78.4693 49.6533 78.816 49.52C78.8827 49.4933 78.9227 49.46 78.936 49.42C78.9627 49.3667 78.9293 49.32 78.836 49.28C78.236 48.9867 77.776 48.62 77.456 48.18C77.136 47.7267 76.976 47.1933 76.976 46.58C76.976 45.5667 77.3893 44.76 78.216 44.16C79.056 43.5467 80.2693 43.24 81.856 43.24C82.576 43.24 83.1893 43.32 83.696 43.48C84.216 43.64 84.6427 43.86 84.976 44.14C85.0693 44.2067 85.1627 44.24 85.256 44.24C85.3493 44.2267 85.4293 44.1867 85.496 44.12C85.656 43.9333 85.8493 43.76 86.076 43.6C86.3027 43.4267 86.5427 43.2933 86.796 43.2C87.0493 43.0933 87.2827 43.04 87.496 43.04ZM81.636 48.46C82.4227 48.46 83.0027 48.2867 83.376 47.94C83.7493 47.5933 83.936 47.1467 83.936 46.6C83.936 46 83.7493 45.52 83.376 45.16C83.0027 44.8 82.4227 44.62 81.636 44.62C80.9027 44.62 80.336 44.8 79.936 45.16C79.536 45.52 79.336 46 79.336 46.6C79.336 47.1467 79.536 47.5933 79.936 47.94C80.336 48.2867 80.9027 48.46 81.636 48.46ZM80.056 53.16C79.8027 53.1467 79.5427 53.2 79.276 53.32C79.0227 53.4267 78.8027 53.5867 78.616 53.8C78.4427 54 78.356 54.2333 78.356 54.5C78.356 54.8467 78.476 55.1467 78.716 55.4C78.9693 55.6533 79.3627 55.84 79.896 55.96C80.4293 56.0933 81.1227 56.16 81.976 56.16C82.9493 56.16 83.6893 56.02 84.196 55.74C84.7027 55.4733 84.956 55.08 84.956 54.56C84.956 54.2133 84.816 53.9267 84.536 53.7C84.2693 53.4733 83.836 53.3467 83.236 53.32L80.056 53.16ZM91.2501 49.52C91.2501 50.0667 91.3767 50.56 91.6301 51C91.8834 51.4267 92.2301 51.7667 92.6701 52.02C93.1234 52.26 93.6167 52.38 94.1501 52.38C94.6967 52.38 95.1901 52.2667 95.6301 52.04C96.0834 51.8133 96.5101 51.4467 96.9101 50.94C96.9634 50.8733 97.0101 50.84 97.0501 50.84C97.0901 50.8267 97.1567 50.8467 97.2501 50.9L98.4701 51.44C98.6434 51.52 98.6634 51.64 98.5301 51.8C98.1301 52.3867 97.6967 52.86 97.2301 53.22C96.7767 53.5667 96.2701 53.82 95.7101 53.98C95.1634 54.1267 94.5434 54.2 93.8501 54.2C92.8367 54.2 91.9301 53.9733 91.1301 53.52C90.3301 53.0667 89.6967 52.44 89.2301 51.64C88.7767 50.8267 88.5501 49.8933 88.5501 48.84C88.5501 47.68 88.7834 46.68 89.2501 45.84C89.7301 45 90.3701 44.3533 91.1701 43.9C91.9701 43.4333 92.8501 43.2 93.8101 43.2C94.8234 43.2 95.7034 43.42 96.4501 43.86C97.2101 44.3 97.8034 44.9333 98.2301 45.76C98.6567 46.5733 98.8701 47.5667 98.8701 48.74C98.8701 48.8733 98.8567 48.98 98.8301 49.06C98.8167 49.14 98.7234 49.1867 98.5501 49.2H91.4701C91.3901 49.2 91.3301 49.2267 91.2901 49.28C91.2634 49.3333 91.2501 49.4133 91.2501 49.52ZM95.9901 47.72C96.1234 47.72 96.2101 47.7067 96.2501 47.68C96.3034 47.64 96.3301 47.56 96.3301 47.44C96.3301 47.0267 96.2367 46.62 96.0501 46.22C95.8634 45.82 95.5901 45.4933 95.2301 45.24C94.8701 44.9733 94.4301 44.84 93.9101 44.84C93.3767 44.84 92.9101 44.9733 92.5101 45.24C92.1101 45.4933 91.8034 45.84 91.5901 46.28C91.3901 46.7067 91.2901 47.1867 91.2901 47.72H95.9901ZM104.396 45.22C104.263 45.22 104.196 45.2933 104.196 45.44V50.78C104.196 51.3 104.303 51.66 104.516 51.86C104.729 52.06 105.063 52.16 105.516 52.16H106.696C106.776 52.16 106.843 52.1867 106.896 52.24C106.949 52.2933 106.976 52.36 106.976 52.44L106.956 53.48C106.956 53.6933 106.829 53.8267 106.576 53.88C106.376 53.9067 106.143 53.9333 105.876 53.96C105.609 53.9733 105.343 53.9867 105.076 54C104.823 54 104.589 54 104.376 54C103.483 54 102.796 53.7933 102.316 53.38C101.836 52.9533 101.596 52.3133 101.596 51.46V45.48C101.596 45.3067 101.516 45.22 101.356 45.22H100.016C99.8025 45.22 99.6959 45.12 99.6959 44.92V43.66C99.6959 43.4867 99.7959 43.4 99.9959 43.4H101.476C101.596 43.4 101.656 43.3333 101.656 43.2L101.916 40.12C101.929 39.9067 102.023 39.8 102.196 39.8H103.976C104.163 39.8 104.256 39.9133 104.256 40.14V43.2C104.256 43.32 104.316 43.38 104.436 43.38H106.696C106.896 43.38 106.996 43.4733 106.996 43.66V44.92C106.996 45.12 106.883 45.22 106.656 45.22H104.396ZM115.336 46.02C115.082 45.6867 114.749 45.4067 114.336 45.18C113.922 44.9533 113.416 44.84 112.816 44.84C112.242 44.84 111.762 44.9533 111.376 45.18C110.989 45.4067 110.796 45.7267 110.796 46.14C110.796 46.34 110.876 46.5333 111.036 46.72C111.196 46.9067 111.549 47.0733 112.096 47.22L114.476 47.86C115.516 48.1133 116.256 48.5133 116.696 49.06C117.149 49.5933 117.376 50.2 117.376 50.88C117.376 51.5733 117.176 52.1667 116.776 52.66C116.389 53.1533 115.842 53.5333 115.136 53.8C114.442 54.0667 113.649 54.2 112.756 54.2C111.609 54.2 110.629 53.9933 109.816 53.58C109.002 53.1533 108.429 52.6267 108.096 52C108.056 51.92 108.036 51.8467 108.036 51.78C108.036 51.7 108.069 51.6333 108.136 51.58L109.316 50.98C109.422 50.9133 109.509 50.8867 109.576 50.9C109.642 50.9133 109.696 50.9467 109.736 51C109.936 51.28 110.162 51.5333 110.416 51.76C110.682 51.9867 111.002 52.1667 111.376 52.3C111.762 52.4333 112.229 52.4933 112.776 52.48C113.189 52.48 113.562 52.4267 113.896 52.32C114.242 52.2133 114.516 52.0667 114.716 51.88C114.916 51.68 115.016 51.44 115.016 51.16C115.016 50.8933 114.902 50.66 114.676 50.46C114.449 50.26 114.042 50.0867 113.456 49.94L111.416 49.46C110.402 49.22 109.656 48.86 109.176 48.38C108.709 47.9 108.476 47.3 108.476 46.58C108.476 45.9133 108.649 45.3267 108.996 44.82C109.356 44.3133 109.862 43.92 110.516 43.64C111.169 43.3467 111.942 43.2 112.836 43.2C113.822 43.2 114.676 43.38 115.396 43.74C116.116 44.1 116.642 44.5467 116.976 45.08C117.029 45.1467 117.062 45.22 117.076 45.3C117.102 45.38 117.069 45.4467 116.976 45.5L115.736 46.12C115.656 46.16 115.582 46.1733 115.516 46.16C115.449 46.1333 115.389 46.0867 115.336 46.02ZM124.364 57.3C123.964 57.3 123.664 57.28 123.464 57.24C123.264 57.2133 123.164 57.12 123.164 56.96V55.68C123.164 55.6 123.204 55.5267 123.284 55.46C123.364 55.4067 123.517 55.38 123.744 55.38H125.064C125.33 55.38 125.57 55.3067 125.784 55.16C126.01 55.0133 126.19 54.8333 126.324 54.62C126.47 54.4067 126.564 54.1867 126.604 53.96C126.657 53.72 126.644 53.5067 126.564 53.32L122.724 43.84C122.684 43.72 122.69 43.62 122.744 43.54C122.797 43.4467 122.89 43.4 123.024 43.4H125.104C125.197 43.4 125.277 43.4267 125.344 43.48C125.424 43.5333 125.477 43.6067 125.504 43.7L127.984 50.28C128.024 50.4 128.077 50.46 128.144 50.46C128.21 50.46 128.27 50.3867 128.324 50.24L130.784 43.68C130.824 43.6 130.87 43.5333 130.924 43.48C130.99 43.4267 131.07 43.4 131.164 43.4H132.624C132.73 43.4 132.81 43.4467 132.864 43.54C132.917 43.62 132.917 43.7067 132.864 43.8L128.664 54.32C128.41 54.9467 128.144 55.4533 127.864 55.84C127.597 56.2267 127.297 56.5267 126.964 56.74C126.63 56.9533 126.25 57.1 125.824 57.18C125.41 57.26 124.924 57.3 124.364 57.3ZM138.81 54.2C137.77 54.2 136.857 53.9667 136.07 53.5C135.283 53.0333 134.663 52.3933 134.21 51.58C133.77 50.7533 133.55 49.8133 133.55 48.76C133.55 47.6533 133.777 46.6867 134.23 45.86C134.697 45.02 135.323 44.3667 136.11 43.9C136.91 43.4333 137.817 43.2 138.83 43.2C139.883 43.2 140.803 43.44 141.59 43.92C142.377 44.3867 142.99 45.04 143.43 45.88C143.87 46.7067 144.09 47.66 144.09 48.74C144.09 49.8067 143.863 50.7533 143.41 51.58C142.97 52.3933 142.357 53.0333 141.57 53.5C140.783 53.9667 139.863 54.2 138.81 54.2ZM138.83 52.42C139.403 52.42 139.883 52.28 140.27 52C140.657 51.7067 140.95 51.2867 141.15 50.74C141.35 50.18 141.45 49.5 141.45 48.7C141.45 47.8867 141.343 47.2 141.13 46.64C140.93 46.08 140.637 45.6533 140.25 45.36C139.863 45.0667 139.39 44.92 138.83 44.92C138.283 44.92 137.81 45.0667 137.41 45.36C137.01 45.6533 136.703 46.08 136.49 46.64C136.29 47.2 136.19 47.8867 136.19 48.7C136.19 49.5 136.29 50.18 136.49 50.74C136.703 51.2867 137.01 51.7067 137.41 52C137.81 52.28 138.283 52.42 138.83 52.42ZM150.163 52.3C150.629 52.3 151.069 52.1733 151.483 51.92C151.909 51.6667 152.316 51.3333 152.703 50.92V43.8C152.703 43.5333 152.856 43.4 153.163 43.4H154.963C155.203 43.4 155.323 43.5267 155.323 43.78L155.283 53.68C155.283 53.8933 155.189 54 155.003 54H153.043C152.856 54 152.763 53.9 152.763 53.7V52.64C152.763 52.5733 152.743 52.5333 152.703 52.52C152.676 52.4933 152.629 52.5133 152.563 52.58C151.936 53.1667 151.343 53.5867 150.783 53.84C150.223 54.08 149.643 54.2 149.043 54.2C148.443 54.2 147.909 54.0733 147.443 53.82C146.976 53.5667 146.609 53.2 146.343 52.72C146.076 52.24 145.943 51.68 145.943 51.04V43.82C145.943 43.54 146.083 43.4 146.363 43.4H148.203C148.429 43.4 148.543 43.5267 148.543 43.78V50.6C148.543 51.1067 148.683 51.52 148.963 51.84C149.256 52.1467 149.656 52.3 150.163 52.3ZM166.26 47.64C166.874 47.0933 167.374 46.62 167.76 46.22C168.16 45.82 168.474 45.46 168.7 45.14C168.94 44.82 169.107 44.52 169.2 44.24C169.294 43.9467 169.34 43.64 169.34 43.32C169.34 42.8533 169.22 42.46 168.98 42.14C168.754 41.82 168.454 41.5733 168.08 41.4C167.72 41.2267 167.314 41.14 166.86 41.14C166.5 41.14 166.14 41.2067 165.78 41.34C165.42 41.4733 165.067 41.6933 164.72 42C164.387 42.2933 164.074 42.6933 163.78 43.2C163.74 43.28 163.674 43.3267 163.58 43.34C163.5 43.3533 163.4 43.3267 163.28 43.26L161.8 42.48C161.68 42.4133 161.614 42.3267 161.6 42.22C161.587 42.1133 161.62 42.0067 161.7 41.9C162.354 40.8867 163.134 40.1467 164.04 39.68C164.96 39.2 165.967 38.96 167.06 38.96C168.047 38.96 168.927 39.1333 169.7 39.48C170.474 39.8133 171.087 40.3067 171.54 40.96C171.994 41.6133 172.22 42.4067 172.22 43.34C172.22 43.9 172.12 44.4267 171.92 44.92C171.734 45.4133 171.42 45.9133 170.98 46.42C170.54 46.9267 169.954 47.4867 169.22 48.1L165.4 51.32C165.32 51.3733 165.28 51.4267 165.28 51.48C165.294 51.5333 165.374 51.56 165.52 51.56H172.02C172.247 51.56 172.36 51.6533 172.36 51.84V53.68C172.36 53.7733 172.334 53.8533 172.28 53.92C172.227 53.9733 172.134 54 172 54H161.98C161.82 54 161.707 53.9733 161.64 53.92C161.587 53.8667 161.56 53.7667 161.56 53.62V52.32C161.56 52.24 161.574 52.1667 161.6 52.1C161.64 52.02 161.714 51.92 161.82 51.8C161.94 51.6667 162.12 51.5 162.36 51.3L166.26 47.64ZM184.619 43.4C184.725 43.4 184.805 43.4333 184.859 43.5C184.912 43.5533 184.939 43.62 184.939 43.7V44.96C184.939 45.1333 184.839 45.22 184.639 45.22H182.779C182.645 45.22 182.579 45.2867 182.579 45.42V53.66C182.579 53.8867 182.479 54 182.279 54H180.259C180.072 54 179.979 53.8933 179.979 53.68V45.4C179.979 45.28 179.932 45.22 179.839 45.22H178.219C178.019 45.22 177.919 45.1333 177.919 44.96V43.7C177.919 43.62 177.939 43.5533 177.979 43.5C178.032 43.4333 178.119 43.4 178.239 43.4H179.759C179.905 43.4 179.979 43.3133 179.979 43.14V41.84C179.979 40.9867 180.212 40.3267 180.679 39.86C181.159 39.3933 181.845 39.16 182.739 39.16H184.639C184.892 39.16 185.019 39.28 185.019 39.52L185.039 40.64C185.039 40.72 185.012 40.7867 184.959 40.84C184.919 40.8933 184.852 40.92 184.759 40.92H183.579C183.232 40.92 182.965 41.04 182.779 41.28C182.605 41.52 182.519 41.8267 182.519 42.2V43.2C182.519 43.3333 182.592 43.4 182.739 43.4H184.619ZM186.97 54C186.836 54 186.743 53.9733 186.69 53.92C186.636 53.8533 186.61 53.76 186.61 53.64V43.74C186.61 43.5133 186.703 43.4 186.89 43.4H188.83C189.016 43.4 189.11 43.5 189.11 43.7V44.92C189.11 45 189.136 45.0533 189.19 45.08C189.243 45.0933 189.303 45.06 189.37 44.98C189.663 44.5933 189.976 44.2733 190.31 44.02C190.656 43.7533 191.003 43.5533 191.35 43.42C191.71 43.2733 192.056 43.2 192.39 43.2C192.87 43.2 193.11 43.3067 193.11 43.52V45.44C193.11 45.6267 193.023 45.7067 192.85 45.68C192.65 45.6267 192.436 45.5933 192.21 45.58C191.996 45.5533 191.796 45.54 191.61 45.54C191.356 45.54 191.083 45.5933 190.79 45.7C190.51 45.8067 190.25 45.96 190.01 46.16C189.77 46.3467 189.576 46.5533 189.43 46.78C189.283 47.0067 189.21 47.24 189.21 47.48V53.6C189.21 53.8667 189.056 54 188.75 54H186.97ZM196.68 49.52C196.68 50.0667 196.806 50.56 197.06 51C197.313 51.4267 197.66 51.7667 198.1 52.02C198.553 52.26 199.046 52.38 199.58 52.38C200.126 52.38 200.62 52.2667 201.06 52.04C201.513 51.8133 201.94 51.4467 202.34 50.94C202.393 50.8733 202.44 50.84 202.48 50.84C202.52 50.8267 202.586 50.8467 202.68 50.9L203.9 51.44C204.073 51.52 204.093 51.64 203.96 51.8C203.56 52.3867 203.126 52.86 202.66 53.22C202.206 53.5667 201.7 53.82 201.14 53.98C200.593 54.1267 199.973 54.2 199.28 54.2C198.266 54.2 197.36 53.9733 196.56 53.52C195.76 53.0667 195.126 52.44 194.66 51.64C194.206 50.8267 193.98 49.8933 193.98 48.84C193.98 47.68 194.213 46.68 194.68 45.84C195.16 45 195.8 44.3533 196.6 43.9C197.4 43.4333 198.28 43.2 199.24 43.2C200.253 43.2 201.133 43.42 201.88 43.86C202.64 44.3 203.233 44.9333 203.66 45.76C204.086 46.5733 204.3 47.5667 204.3 48.74C204.3 48.8733 204.286 48.98 204.26 49.06C204.246 49.14 204.153 49.1867 203.98 49.2H196.9C196.82 49.2 196.76 49.2267 196.72 49.28C196.693 49.3333 196.68 49.4133 196.68 49.52ZM201.42 47.72C201.553 47.72 201.64 47.7067 201.68 47.68C201.733 47.64 201.76 47.56 201.76 47.44C201.76 47.0267 201.666 46.62 201.48 46.22C201.293 45.82 201.02 45.4933 200.66 45.24C200.3 44.9733 199.86 44.84 199.34 44.84C198.806 44.84 198.34 44.9733 197.94 45.24C197.54 45.4933 197.233 45.84 197.02 46.28C196.82 46.7067 196.72 47.1867 196.72 47.72H201.42ZM208.359 49.52C208.359 50.0667 208.486 50.56 208.739 51C208.993 51.4267 209.339 51.7667 209.779 52.02C210.233 52.26 210.726 52.38 211.259 52.38C211.806 52.38 212.299 52.2667 212.739 52.04C213.193 51.8133 213.619 51.4467 214.019 50.94C214.073 50.8733 214.119 50.84 214.159 50.84C214.199 50.8267 214.266 50.8467 214.359 50.9L215.579 51.44C215.753 51.52 215.773 51.64 215.639 51.8C215.239 52.3867 214.806 52.86 214.339 53.22C213.886 53.5667 213.379 53.82 212.819 53.98C212.273 54.1267 211.653 54.2 210.959 54.2C209.946 54.2 209.039 53.9733 208.239 53.52C207.439 53.0667 206.806 52.44 206.339 51.64C205.886 50.8267 205.659 49.8933 205.659 48.84C205.659 47.68 205.893 46.68 206.359 45.84C206.839 45 207.479 44.3533 208.279 43.9C209.079 43.4333 209.959 43.2 210.919 43.2C211.933 43.2 212.813 43.42 213.559 43.86C214.319 44.3 214.913 44.9333 215.339 45.76C215.766 46.5733 215.979 47.5667 215.979 48.74C215.979 48.8733 215.966 48.98 215.939 49.06C215.926 49.14 215.833 49.1867 215.659 49.2H208.579C208.499 49.2 208.439 49.2267 208.399 49.28C208.373 49.3333 208.359 49.4133 208.359 49.52ZM213.099 47.72C213.233 47.72 213.319 47.7067 213.359 47.68C213.413 47.64 213.439 47.56 213.439 47.44C213.439 47.0267 213.346 46.62 213.159 46.22C212.973 45.82 212.699 45.4933 212.339 45.24C211.979 44.9733 211.539 44.84 211.019 44.84C210.486 44.84 210.019 44.9733 209.619 45.24C209.219 45.4933 208.913 45.84 208.699 46.28C208.499 46.7067 208.399 47.1867 208.399 47.72H213.099ZM58.3666 78C58.1132 78 57.9866 77.88 57.9866 77.64V63.5C57.9866 63.2733 58.0866 63.16 58.2866 63.16H60.2666C60.4399 63.16 60.5266 63.26 60.5266 63.46V68.66C60.5266 68.74 60.5466 68.7867 60.5866 68.8C60.6266 68.8133 60.6799 68.7933 60.7466 68.74C61.1866 68.3667 61.5932 68.0733 61.9666 67.86C62.3399 67.6333 62.7132 67.4667 63.0866 67.36C63.4599 67.2533 63.8466 67.2 64.2466 67.2C65.2732 67.2 66.0599 67.48 66.6066 68.04C67.1532 68.6 67.4266 69.3667 67.4266 70.34V77.58C67.4266 77.86 67.2866 78 67.0066 78H65.1666C65.0466 78 64.9599 77.9733 64.9066 77.92C64.8532 77.8667 64.8266 77.7733 64.8266 77.64V70.76C64.8266 70.24 64.6866 69.84 64.4066 69.56C64.1399 69.2667 63.7266 69.12 63.1666 69.12C62.8466 69.12 62.5466 69.1733 62.2666 69.28C61.9999 69.3733 61.7332 69.52 61.4666 69.72C61.1999 69.92 60.9066 70.1733 60.5866 70.48V77.6C60.5866 77.8667 60.4399 78 60.1466 78H58.3666ZM74.5425 78.2C73.5025 78.2 72.5892 77.9667 71.8025 77.5C71.0158 77.0333 70.3958 76.3933 69.9425 75.58C69.5025 74.7533 69.2825 73.8133 69.2825 72.76C69.2825 71.6533 69.5092 70.6867 69.9625 69.86C70.4292 69.02 71.0558 68.3667 71.8425 67.9C72.6425 67.4333 73.5492 67.2 74.5625 67.2C75.6158 67.2 76.5358 67.44 77.3225 67.92C78.1092 68.3867 78.7225 69.04 79.1625 69.88C79.6025 70.7067 79.8225 71.66 79.8225 72.74C79.8225 73.8067 79.5958 74.7533 79.1425 75.58C78.7025 76.3933 78.0892 77.0333 77.3025 77.5C76.5158 77.9667 75.5958 78.2 74.5425 78.2ZM74.5625 76.42C75.1358 76.42 75.6158 76.28 76.0025 76C76.3892 75.7067 76.6825 75.2867 76.8825 74.74C77.0825 74.18 77.1825 73.5 77.1825 72.7C77.1825 71.8867 77.0758 71.2 76.8625 70.64C76.6625 70.08 76.3692 69.6533 75.9825 69.36C75.5958 69.0667 75.1225 68.92 74.5625 68.92C74.0158 68.92 73.5425 69.0667 73.1425 69.36C72.7425 69.6533 72.4358 70.08 72.2225 70.64C72.0225 71.2 71.9225 71.8867 71.9225 72.7C71.9225 73.5 72.0225 74.18 72.2225 74.74C72.4358 75.2867 72.7425 75.7067 73.1425 76C73.5425 76.28 74.0158 76.42 74.5625 76.42ZM85.8952 76.3C86.3618 76.3 86.8018 76.1733 87.2152 75.92C87.6418 75.6667 88.0485 75.3333 88.4352 74.92V67.8C88.4352 67.5333 88.5885 67.4 88.8952 67.4H90.6952C90.9352 67.4 91.0552 67.5267 91.0552 67.78L91.0152 77.68C91.0152 77.8933 90.9218 78 90.7352 78H88.7752C88.5885 78 88.4952 77.9 88.4952 77.7V76.64C88.4952 76.5733 88.4752 76.5333 88.4352 76.52C88.4085 76.4933 88.3618 76.5133 88.2952 76.58C87.6685 77.1667 87.0752 77.5867 86.5152 77.84C85.9552 78.08 85.3752 78.2 84.7752 78.2C84.1752 78.2 83.6418 78.0733 83.1752 77.82C82.7085 77.5667 82.3418 77.2 82.0752 76.72C81.8085 76.24 81.6752 75.68 81.6752 75.04V67.82C81.6752 67.54 81.8152 67.4 82.0952 67.4H83.9352C84.1618 67.4 84.2752 67.5267 84.2752 67.78V74.6C84.2752 75.1067 84.4152 75.52 84.6952 75.84C84.9885 76.1467 85.3885 76.3 85.8952 76.3ZM93.913 78C93.7796 78 93.6863 77.9733 93.633 77.92C93.5796 77.8533 93.553 77.76 93.553 77.64V67.74C93.553 67.5133 93.6463 67.4 93.833 67.4H95.773C95.9596 67.4 96.053 67.5 96.053 67.7V68.92C96.053 69 96.0796 69.0533 96.133 69.08C96.1863 69.0933 96.2463 69.06 96.313 68.98C96.6063 68.5933 96.9196 68.2733 97.253 68.02C97.5996 67.7533 97.9463 67.5533 98.293 67.42C98.653 67.2733 98.9996 67.2 99.333 67.2C99.813 67.2 100.053 67.3067 100.053 67.52V69.44C100.053 69.6267 99.9663 69.7067 99.793 69.68C99.593 69.6267 99.3796 69.5933 99.153 69.58C98.9396 69.5533 98.7396 69.54 98.553 69.54C98.2996 69.54 98.0263 69.5933 97.733 69.7C97.453 69.8067 97.193 69.96 96.953 70.16C96.713 70.3467 96.5196 70.5533 96.373 70.78C96.2263 71.0067 96.153 71.24 96.153 71.48V77.6C96.153 77.8667 95.9996 78 95.693 78H93.913ZM108.06 70.02C107.807 69.6867 107.474 69.4067 107.06 69.18C106.647 68.9533 106.14 68.84 105.54 68.84C104.967 68.84 104.487 68.9533 104.1 69.18C103.714 69.4067 103.52 69.7267 103.52 70.14C103.52 70.34 103.6 70.5333 103.76 70.72C103.92 70.9067 104.274 71.0733 104.82 71.22L107.2 71.86C108.24 72.1133 108.98 72.5133 109.42 73.06C109.874 73.5933 110.1 74.2 110.1 74.88C110.1 75.5733 109.9 76.1667 109.5 76.66C109.114 77.1533 108.567 77.5333 107.86 77.8C107.167 78.0667 106.374 78.2 105.48 78.2C104.334 78.2 103.354 77.9933 102.54 77.58C101.727 77.1533 101.154 76.6267 100.82 76C100.78 75.92 100.76 75.8467 100.76 75.78C100.76 75.7 100.794 75.6333 100.86 75.58L102.04 74.98C102.147 74.9133 102.234 74.8867 102.3 74.9C102.367 74.9133 102.42 74.9467 102.46 75C102.66 75.28 102.887 75.5333 103.14 75.76C103.407 75.9867 103.727 76.1667 104.1 76.3C104.487 76.4333 104.954 76.4933 105.5 76.48C105.914 76.48 106.287 76.4267 106.62 76.32C106.967 76.2133 107.24 76.0667 107.44 75.88C107.64 75.68 107.74 75.44 107.74 75.16C107.74 74.8933 107.627 74.66 107.4 74.46C107.174 74.26 106.767 74.0867 106.18 73.94L104.14 73.46C103.127 73.22 102.38 72.86 101.9 72.38C101.434 71.9 101.2 71.3 101.2 70.58C101.2 69.9133 101.374 69.3267 101.72 68.82C102.08 68.3133 102.587 67.92 103.24 67.64C103.894 67.3467 104.667 67.2 105.56 67.2C106.547 67.2 107.4 67.38 108.12 67.74C108.84 68.1 109.367 68.5467 109.7 69.08C109.754 69.1467 109.787 69.22 109.8 69.3C109.827 69.38 109.794 69.4467 109.7 69.5L108.46 70.12C108.38 70.16 108.307 70.1733 108.24 70.16C108.174 70.1333 108.114 70.0867 108.06 70.02ZM122.088 76.9C121.635 77.3 121.142 77.62 120.608 77.86C120.075 78.0867 119.468 78.2 118.788 78.2C117.762 78.2 116.955 77.9333 116.368 77.4C115.795 76.8533 115.508 76.1467 115.508 75.28C115.508 74.5467 115.728 73.9133 116.168 73.38C116.608 72.8333 117.248 72.4067 118.088 72.1C118.928 71.7933 119.935 71.6133 121.108 71.56L122.108 71.5C122.188 71.4867 122.262 71.46 122.328 71.42C122.395 71.38 122.428 71.3067 122.428 71.2V70.74C122.428 70.1533 122.255 69.7 121.908 69.38C121.562 69.0467 121.082 68.88 120.468 68.88C120.002 68.88 119.562 68.9867 119.148 69.2C118.748 69.4 118.402 69.7333 118.108 70.2C118.068 70.28 118.022 70.3333 117.968 70.36C117.928 70.3867 117.848 70.3867 117.728 70.36L116.048 69.94C115.982 69.9133 115.928 69.8733 115.888 69.82C115.862 69.7667 115.888 69.66 115.968 69.5C116.328 68.74 116.895 68.1667 117.668 67.78C118.455 67.3933 119.428 67.2 120.588 67.2C121.615 67.2 122.442 67.34 123.068 67.62C123.708 67.9 124.175 68.2933 124.468 68.8C124.762 69.2933 124.908 69.88 124.908 70.56V77.6C124.908 77.7467 124.882 77.8533 124.828 77.92C124.788 77.9733 124.702 78 124.568 78H122.868C122.748 78 122.662 77.9533 122.608 77.86C122.555 77.7667 122.522 77.6533 122.508 77.52L122.468 76.92C122.442 76.6933 122.315 76.6867 122.088 76.9ZM122.428 73.16C122.428 72.92 122.328 72.8067 122.128 72.82L121.308 72.88C120.882 72.9067 120.468 72.9733 120.068 73.08C119.682 73.1733 119.335 73.3067 119.028 73.48C118.735 73.64 118.495 73.8467 118.308 74.1C118.135 74.34 118.048 74.6267 118.048 74.96C118.048 75.4133 118.208 75.7733 118.528 76.04C118.862 76.3067 119.308 76.44 119.868 76.44C120.228 76.44 120.562 76.38 120.868 76.26C121.175 76.14 121.442 75.9867 121.668 75.8C121.895 75.6133 122.075 75.42 122.208 75.22C122.355 75.0067 122.428 74.7933 122.428 74.58V73.16ZM131.94 78C131.7 78 131.58 77.88 131.58 77.64V67.74C131.58 67.5133 131.674 67.4 131.86 67.4H133.84C134.027 67.4 134.12 67.5 134.12 67.7V68.74C134.12 68.82 134.14 68.8733 134.18 68.9C134.22 68.9133 134.274 68.8867 134.34 68.82C134.714 68.4867 135.074 68.2 135.42 67.96C135.78 67.72 136.147 67.5333 136.52 67.4C136.907 67.2533 137.314 67.18 137.74 67.18C138.487 67.18 139.1 67.3533 139.58 67.7C140.06 68.0467 140.394 68.4867 140.58 69.02C140.607 69.0733 140.647 69.0933 140.7 69.08C140.754 69.0667 140.807 69.0333 140.86 68.98C141.207 68.6333 141.574 68.3267 141.96 68.06C142.347 67.7933 142.747 67.5867 143.16 67.44C143.574 67.28 143.987 67.2 144.4 67.2C145.347 67.2 146.094 67.4867 146.64 68.06C147.187 68.62 147.46 69.3867 147.46 70.36V77.58C147.46 77.86 147.32 78 147.04 78H145.2C145.08 78 144.994 77.9733 144.94 77.92C144.887 77.8667 144.86 77.7733 144.86 77.64V70.76C144.86 70.24 144.727 69.84 144.46 69.56C144.207 69.2667 143.82 69.12 143.3 69.12C142.994 69.12 142.7 69.18 142.42 69.3C142.14 69.4067 141.887 69.5467 141.66 69.72C141.434 69.8933 141.234 70.0667 141.06 70.24C140.967 70.3333 140.9 70.4267 140.86 70.52C140.834 70.6 140.82 70.7 140.82 70.82V77.58C140.82 77.86 140.68 78 140.4 78H138.56C138.454 78 138.367 77.9733 138.3 77.92C138.247 77.8667 138.22 77.7733 138.22 77.64V70.76C138.22 70.24 138.094 69.84 137.84 69.56C137.587 69.2667 137.194 69.12 136.66 69.12C136.207 69.12 135.787 69.2333 135.4 69.46C135.027 69.6867 134.62 70.0267 134.18 70.48V77.6C134.18 77.8667 134.027 78 133.72 78H131.94ZM154.582 78.2C153.542 78.2 152.628 77.9667 151.842 77.5C151.055 77.0333 150.435 76.3933 149.982 75.58C149.542 74.7533 149.322 73.8133 149.322 72.76C149.322 71.6533 149.548 70.6867 150.002 69.86C150.468 69.02 151.095 68.3667 151.882 67.9C152.682 67.4333 153.588 67.2 154.602 67.2C155.655 67.2 156.575 67.44 157.362 67.92C158.148 68.3867 158.762 69.04 159.202 69.88C159.642 70.7067 159.862 71.66 159.862 72.74C159.862 73.8067 159.635 74.7533 159.182 75.58C158.742 76.3933 158.128 77.0333 157.342 77.5C156.555 77.9667 155.635 78.2 154.582 78.2ZM154.602 76.42C155.175 76.42 155.655 76.28 156.042 76C156.428 75.7067 156.722 75.2867 156.922 74.74C157.122 74.18 157.222 73.5 157.222 72.7C157.222 71.8867 157.115 71.2 156.902 70.64C156.702 70.08 156.408 69.6533 156.022 69.36C155.635 69.0667 155.162 68.92 154.602 68.92C154.055 68.92 153.582 69.0667 153.182 69.36C152.782 69.6533 152.475 70.08 152.262 70.64C152.062 71.2 151.962 71.8867 151.962 72.7C151.962 73.5 152.062 74.18 152.262 74.74C152.475 75.2867 152.782 75.7067 153.182 76C153.582 76.28 154.055 76.42 154.602 76.42ZM162.194 78C161.954 78 161.834 77.88 161.834 77.64V67.74C161.834 67.5133 161.928 67.4 162.114 67.4H164.114C164.288 67.4 164.374 67.5 164.374 67.7V68.74C164.374 68.82 164.394 68.8733 164.434 68.9C164.474 68.9133 164.528 68.8867 164.594 68.82C164.981 68.4867 165.354 68.2 165.714 67.96C166.074 67.72 166.448 67.5333 166.834 67.4C167.221 67.2667 167.641 67.2 168.094 67.2C169.081 67.2 169.854 67.4867 170.414 68.06C170.988 68.62 171.274 69.3667 171.274 70.3V77.58C171.274 77.86 171.134 78 170.854 78H169.014C168.894 78 168.808 77.9733 168.754 77.92C168.701 77.8667 168.674 77.7733 168.674 77.64V70.76C168.674 70.24 168.534 69.84 168.254 69.56C167.974 69.2667 167.554 69.12 166.994 69.12C166.674 69.12 166.374 69.1733 166.094 69.28C165.828 69.3733 165.561 69.52 165.294 69.72C165.028 69.92 164.741 70.1733 164.434 70.48V77.6C164.434 77.8667 164.281 78 163.974 78H162.194ZM177.238 69.22C177.104 69.22 177.038 69.2933 177.038 69.44V74.78C177.038 75.3 177.144 75.66 177.358 75.86C177.571 76.06 177.904 76.16 178.358 76.16H179.538C179.618 76.16 179.684 76.1867 179.738 76.24C179.791 76.2933 179.818 76.36 179.818 76.44L179.798 77.48C179.798 77.6933 179.671 77.8267 179.418 77.88C179.218 77.9067 178.984 77.9333 178.718 77.96C178.451 77.9733 178.184 77.9867 177.918 78C177.664 78 177.431 78 177.218 78C176.324 78 175.638 77.7933 175.158 77.38C174.678 76.9533 174.438 76.3133 174.438 75.46V69.48C174.438 69.3067 174.358 69.22 174.198 69.22H172.858C172.644 69.22 172.538 69.12 172.538 68.92V67.66C172.538 67.4867 172.638 67.4 172.838 67.4H174.318C174.438 67.4 174.498 67.3333 174.498 67.2L174.758 64.12C174.771 63.9067 174.864 63.8 175.038 63.8H176.818C177.004 63.8 177.098 63.9133 177.098 64.14V67.2C177.098 67.32 177.158 67.38 177.278 67.38H179.538C179.738 67.38 179.838 67.4733 179.838 67.66V68.92C179.838 69.12 179.724 69.22 179.498 69.22H177.238ZM182.077 78C181.824 78 181.697 77.88 181.697 77.64V63.5C181.697 63.2733 181.797 63.16 181.997 63.16H183.977C184.151 63.16 184.237 63.26 184.237 63.46V68.66C184.237 68.74 184.257 68.7867 184.297 68.8C184.337 68.8133 184.391 68.7933 184.457 68.74C184.897 68.3667 185.304 68.0733 185.677 67.86C186.051 67.6333 186.424 67.4667 186.797 67.36C187.171 67.2533 187.557 67.2 187.957 67.2C188.984 67.2 189.771 67.48 190.317 68.04C190.864 68.6 191.137 69.3667 191.137 70.34V77.58C191.137 77.86 190.997 78 190.717 78H188.877C188.757 78 188.671 77.9733 188.617 77.92C188.564 77.8667 188.537 77.7733 188.537 77.64V70.76C188.537 70.24 188.397 69.84 188.117 69.56C187.851 69.2667 187.437 69.12 186.877 69.12C186.557 69.12 186.257 69.1733 185.977 69.28C185.711 69.3733 185.444 69.52 185.177 69.72C184.911 69.92 184.617 70.1733 184.297 70.48V77.6C184.297 77.8667 184.151 78 183.857 78H182.077Z" fill="black"/>
<path d="M23.7044 83.5257C20.5147 84.1492 17.9871 83.7686 14.9102 82.4602C5.6523 78.5233 2.95679 69.7927 2.26583 60.3397C1.49787 49.8334 3.22121 38.4115 10.9606 30.6468C15.6466 25.9455 22.7768 22.9973 28.5064 27.7627C30.9789 29.8192 31.4815 31.8961 32.2002 34.7384C32.4411 35.6909 32.7094 32.8236 33.1663 31.9538C35.2955 27.9012 38.0384 24.1665 41.3496 20.9859C50.1107 12.5707 62.8515 4.78705 75.3615 4.33519C82.967 4.06048 86.9821 8.78429 87.0397 15.9566C87.0673 19.386 86.2676 23.044 85.3065 26.3278C85.1502 26.8618 82.3632 30.1774 86.3294 24.5235C88.9581 20.7762 90.8734 18.8484 94.7684 15.8714C104.394 8.51397 117.21 1.93364 129.661 2.31778C136.811 2.53837 147.39 6.71747 148.954 14.7916C150.054 20.468 144.395 25.424 140.501 28.5441C139.957 28.9803 139.438 29.501 138.782 29.7375C138.581 29.81 138.803 29.2882 138.924 29.1124C140.097 27.4167 142.804 24.8402 144.053 23.6995C152.575 15.9175 162.556 10.4199 173.419 6.57992C182.945 3.21265 192.759 1.13205 202.714 3.71008C206.592 4.71422 211.821 6.32994 211.949 11.3535C212.148 19.1594 205.35 26.7968 199.674 31.2719C199.409 31.4808 196.429 33.5651 195.326 33.6019C194.76 33.6207 195.513 32.4015 195.923 32.0107C200.4 27.7436 207.063 25.0406 212.886 23.3727C220.468 21.2014 237.277 19.2199 239.397 30.4337C241.135 39.6269 233.384 48.7989 226.767 54.1312C226.019 54.7335 224.027 55.859 224.877 56.3048C227.44 57.6489 232.853 56.6035 235.533 56.6742C239.431 56.7772 246.732 56.4687 249.029 60.6806C251.203 64.6652 246.186 70.5087 243.716 72.9272C235.955 80.5266 220.082 86.2198 209.846 80.4854C209.616 80.3563 204.174 76.3743 206.181 75.3708C207.906 74.5084 210.999 80.99 211.352 81.764C214.114 87.826 213.034 95.0616 206.834 98.4432C200.135 102.097 189.706 101.105 185.921 93.769C184.688 91.3795 183.748 88.1804 184.273 85.4579C184.848 82.4819 186.852 84.904 186.802 86.5944C186.669 91.1036 183.149 95.3054 180.352 98.4716C176.118 103.265 170.96 108.614 164.838 110.945C155.657 114.441 143.4 112.959 137.276 104.794C136.287 103.475 136.561 102.8 134.648 104.069C130.61 106.748 127.22 110.298 123.396 113.275C117.188 118.109 108.181 126.264 99.4141 124.073C88.9455 121.456 87.5969 109.095 91.3161 100.688C92.1181 98.8749 94.876 94.5513 95.4788 96.44C96.0521 98.2365 93.7894 101.241 92.7652 102.379C87.726 107.973 77.4454 111.484 70.0196 109.553C61.3025 107.286 63.4296 95.6861 65.5586 89.4074C65.9649 88.209 65.7844 88.4369 64.834 89.0949C62.3305 90.8281 59.7918 92.5782 57.0769 93.9679C51.7596 96.6899 42.9532 100.39 37.0591 97.4203C33.0493 95.4001 33.7712 91.6644 32.0866 88.1856C31.2278 86.4124 29.36 84.1199 27.5403 85.9977C25.6829 87.9144 22.8917 93.0351 19.4991 91.6238C16.9712 90.5721 19.1337 86.9335 20.1242 85.5715" stroke="#9B18A6" stroke-width="3" stroke-linecap="round"/>
</svg>
