<svg width="206" height="49" viewBox="0 0 206 49" fill="none" xmlns="http://www.w3.org/2000/svg">
<g clip-path="url(#clip0_113_498)">
<path d="M163.361 19.4516L157.538 0.757874C157.319 0.0546029 156.483 -0.226322 155.89 0.204348L105.693 36.6702C104.705 37.3879 105.48 38.9484 106.641 38.5799L162.66 20.8079C163.224 20.6288 163.538 20.0215 163.361 19.4516Z" fill="#68A2F8" fill-opacity="0.71"/>
<path d="M150.506 39.3515V27.3257C150.506 26.589 151.22 26.0679 151.913 26.2982L188.101 38.3241C189.258 38.7086 188.984 40.4332 187.766 40.4332H151.578C150.986 40.4332 150.506 39.9489 150.506 39.3515Z" fill="#68A2F8"/>
<path d="M84.0574 39.3515V19.7559C84.0574 19.0187 83.3427 18.4975 82.6492 18.729L23.9278 38.3245C22.772 38.7102 23.047 40.4332 24.2642 40.4332H82.9857C83.5776 40.4332 84.0574 39.9489 84.0574 39.3515Z" fill="#68A2F8" fill-opacity="0.41"/>
<path d="M7.84522 17.7831C10.2031 17.7831 12.2715 18.2482 14.0507 19.1784C15.8512 20.1087 17.2338 21.4391 18.1983 23.1698C19.1843 24.8788 19.6773 26.8691 19.6773 29.1406C19.6773 31.4121 19.1843 33.4024 18.1983 35.1114C17.2338 36.7988 15.8512 38.1076 14.0507 39.0379C12.2715 39.9681 10.2031 40.4332 7.84522 40.4332H0V17.7831H7.84522ZM7.68446 36.5716C10.0423 36.5716 11.8643 35.9226 13.1504 34.6246C14.4365 33.3266 15.0795 31.4986 15.0795 29.1406C15.0795 26.7826 14.4365 24.9437 13.1504 23.6241C11.8643 22.2828 10.0423 21.6122 7.68446 21.6122H4.50135V36.5716H7.68446Z" fill="black"/>
<path d="M30.9564 40.7252C29.2416 40.7252 27.6982 40.3467 26.3264 39.5895C24.9545 38.8107 23.8721 37.7182 23.079 36.3121C22.3073 34.9059 21.9215 33.2834 21.9215 31.4446C21.9215 29.6057 22.318 27.9832 23.1111 26.577C23.9257 25.1709 25.0296 24.0892 26.4228 23.332C27.8161 22.5532 29.3702 22.1638 31.085 22.1638C32.7998 22.1638 34.3538 22.5532 35.7471 23.332C37.1404 24.0892 38.2335 25.1709 39.0266 26.577C39.8412 27.9832 40.2484 29.6057 40.2484 31.4446C40.2484 33.2834 39.8305 34.9059 38.9945 36.3121C38.18 37.7182 37.0653 38.8107 35.6506 39.5895C34.2574 40.3467 32.6926 40.7252 30.9564 40.7252ZM30.9564 36.7663C31.7709 36.7663 32.5318 36.5717 33.2392 36.1823C33.968 35.7712 34.5467 35.1655 34.9754 34.365C35.4041 33.5646 35.6185 32.5911 35.6185 31.4446C35.6185 29.7355 35.1683 28.4267 34.2681 27.5181C33.3892 26.5879 32.3068 26.1227 31.0207 26.1227C29.7346 26.1227 28.6521 26.5879 27.7733 27.5181C26.9159 28.4267 26.4872 29.7355 26.4872 31.4446C26.4872 33.1536 26.9051 34.4732 27.7411 35.4035C28.5985 36.3121 29.6703 36.7663 30.9564 36.7663Z" fill="black"/>
<path d="M51.4599 40.7252C49.7451 40.7252 48.2018 40.3467 46.8299 39.5895C45.4581 38.8107 44.3756 37.7182 43.5825 36.3121C42.8108 34.9059 42.425 33.2834 42.425 31.4446C42.425 29.6057 42.8216 27.9832 43.6147 26.577C44.4292 25.1709 45.5331 24.0892 46.9264 23.332C48.3196 22.5532 49.8737 22.1638 51.5885 22.1638C53.3033 22.1638 54.8573 22.5532 56.2506 23.332C57.6439 24.0892 58.7371 25.1709 59.5302 26.577C60.3447 27.9832 60.752 29.6057 60.752 31.4446C60.752 33.2834 60.334 34.9059 59.498 36.3121C58.6835 37.7182 57.5689 38.8107 56.1541 39.5895C54.7609 40.3467 53.1961 40.7252 51.4599 40.7252ZM51.4599 36.7663C52.2744 36.7663 53.0353 36.5717 53.7427 36.1823C54.4715 35.7712 55.0502 35.1655 55.4789 34.365C55.9076 33.5646 56.122 32.5911 56.122 31.4446C56.122 29.7355 55.6719 28.4267 54.7716 27.5181C53.8927 26.5879 52.8103 26.1227 51.5242 26.1227C50.2381 26.1227 49.1556 26.5879 48.2768 27.5181C47.4194 28.4267 46.9907 29.7355 46.9907 31.4446C46.9907 33.1536 47.4087 34.4732 48.2446 35.4035C49.102 36.3121 50.1738 36.7663 51.4599 36.7663Z" fill="black"/>
<path d="M68.5552 25.2466C69.134 24.2947 69.8842 23.5484 70.8059 23.0076C71.749 22.4667 72.8208 22.1963 74.0212 22.1963V26.9664H72.8315C71.4168 26.9664 70.345 27.3018 69.6163 27.9724C68.9089 28.643 68.5552 29.8112 68.5552 31.477V40.4332H64.0539V22.4559H68.5552V25.2466Z" fill="black"/>
<path d="M83.8694 40.7252C82.4118 40.7252 81.1043 40.4657 79.9468 39.9465C78.7893 39.4056 77.8676 38.6809 77.1816 37.7723C76.5172 36.8637 76.1528 35.8578 76.0885 34.7545H80.622C80.7077 35.4467 81.04 36.02 81.6187 36.4743C82.2189 36.9286 82.9584 37.1557 83.8372 37.1557C84.6946 37.1557 85.3591 36.9827 85.8307 36.6365C86.3237 36.2904 86.5702 35.8469 86.5702 35.3061C86.5702 34.722 86.2701 34.2893 85.6699 34.0081C85.0912 33.7052 84.1587 33.3807 82.8726 33.0346C81.5437 32.7101 80.4505 32.3748 79.5931 32.0286C78.7571 31.6825 78.0283 31.1525 77.4067 30.4386C76.8065 29.7247 76.5064 28.762 76.5064 27.5505C76.5064 26.5554 76.7851 25.6468 77.3424 24.8247C77.9212 24.0027 78.7357 23.3537 79.786 22.8777C80.8578 22.4018 82.1117 22.1638 83.5478 22.1638C85.6699 22.1638 87.3633 22.7047 88.6279 23.7863C89.8926 24.8464 90.5893 26.285 90.7179 28.1022H86.4094C86.3451 27.3883 86.045 26.8258 85.5092 26.4148C84.9947 25.9821 84.2981 25.7658 83.4192 25.7658C82.6047 25.7658 81.9724 25.9172 81.5222 26.2201C81.0935 26.523 80.8792 26.9448 80.8792 27.4857C80.8792 28.0914 81.1793 28.5565 81.7795 28.881C82.3796 29.1839 83.3121 29.4976 84.5767 29.8221C85.8628 30.1466 86.9239 30.4819 87.7598 30.828C88.5958 31.1741 89.3139 31.715 89.914 32.4505C90.5357 33.1644 90.8572 34.1163 90.8786 35.3061C90.8786 36.3445 90.5893 37.2747 90.0105 38.0968C89.4532 38.9189 88.6387 39.5679 87.5669 40.0438C86.5166 40.4981 85.2841 40.7252 83.8694 40.7252Z" fill="black"/>
<path d="M99.8145 26.1876V34.8843C99.8145 35.49 99.9538 35.9335 100.232 36.2147C100.533 36.4743 101.026 36.6041 101.712 36.6041H103.801V40.4332H100.972C97.178 40.4332 95.281 38.5727 95.281 34.8518V26.1876H93.1589V22.4559H95.281V18.0102H99.8145V22.4559H103.801V26.1876H99.8145Z" fill="black"/>
<path d="M114.949 40.7252C113.234 40.7252 111.69 40.3467 110.319 39.5895C108.947 38.8107 107.864 37.7182 107.071 36.3121C106.3 34.9059 105.914 33.2834 105.914 31.4446C105.914 29.6057 106.31 27.9832 107.103 26.577C107.918 25.1709 109.022 24.0892 110.415 23.332C111.808 22.5532 113.362 22.1638 115.077 22.1638C116.792 22.1638 118.346 22.5532 119.739 23.332C121.133 24.0892 122.226 25.1709 123.019 26.577C123.833 27.9832 124.241 29.6057 124.241 31.4446C124.241 33.2834 123.823 34.9059 122.987 36.3121C122.172 37.7182 121.058 38.8107 119.643 39.5895C118.25 40.3467 116.685 40.7252 114.949 40.7252ZM114.949 36.7663C115.763 36.7663 116.524 36.5717 117.231 36.1823C117.96 35.7712 118.539 35.1655 118.968 34.365C119.396 33.5646 119.611 32.5911 119.611 31.4446C119.611 29.7355 119.161 28.4267 118.26 27.5181C117.381 26.5879 116.299 26.1227 115.013 26.1227C113.727 26.1227 112.644 26.5879 111.765 27.5181C110.908 28.4267 110.479 29.7355 110.479 31.4446C110.479 33.1536 110.897 34.4732 111.733 35.4035C112.591 36.3121 113.662 36.7663 114.949 36.7663Z" fill="black"/>
<path d="M132.044 25.0519C132.623 24.2298 133.416 23.5484 134.423 23.0076C135.452 22.4451 136.62 22.1638 137.928 22.1638C139.45 22.1638 140.822 22.5424 142.043 23.2996C143.287 24.0568 144.262 25.1384 144.969 26.5446C145.698 27.9291 146.062 29.5408 146.062 31.3796C146.062 33.2185 145.698 34.8518 144.969 36.2796C144.262 37.6858 143.287 38.7783 142.043 39.5571C140.822 40.3359 139.45 40.7252 137.928 40.7252C136.62 40.7252 135.463 40.4548 134.455 39.914C133.469 39.3732 132.666 38.6917 132.044 37.8696V49H127.543V22.4559H132.044V25.0519ZM141.465 31.3796C141.465 30.298 141.24 29.3677 140.789 28.5889C140.361 27.7885 139.782 27.1828 139.053 26.7717C138.346 26.3607 137.574 26.1552 136.738 26.1552C135.924 26.1552 135.152 26.3715 134.423 26.8042C133.716 27.2152 133.137 27.821 132.687 28.6214C132.258 29.4218 132.044 30.3629 132.044 31.4446C132.044 32.5262 132.258 33.4673 132.687 34.2677C133.137 35.0681 133.716 35.6847 134.423 36.1173C135.152 36.5284 135.924 36.7339 136.738 36.7339C137.574 36.7339 138.346 36.5176 139.053 36.0849C139.782 35.6522 140.361 35.0357 140.789 34.2353C141.24 33.4348 141.465 32.4829 141.465 31.3796Z" fill="black"/>
<path d="M166.872 21.4499V27.1287H174.427V30.7306H166.872V36.7339H175.392V40.4332H162.37V17.7506H175.392V21.4499H166.872Z" fill="black"/>
<path d="M178.325 31.3796C178.325 29.5624 178.679 27.9508 179.386 26.5446C180.115 25.1384 181.101 24.0568 182.344 23.2996C183.588 22.5424 184.97 22.1638 186.492 22.1638C187.649 22.1638 188.753 22.4234 189.804 22.9426C190.854 23.4402 191.69 24.1108 192.312 24.9545V16.4202H196.877V40.4332H192.312V37.7723C191.754 38.6593 190.972 39.3732 189.964 39.914C188.957 40.4548 187.789 40.7252 186.46 40.7252C184.959 40.7252 183.588 40.3359 182.344 39.5571C181.101 38.7783 180.115 37.6858 179.386 36.2796C178.679 34.8518 178.325 33.2185 178.325 31.3796ZM192.344 31.4446C192.344 30.3413 192.129 29.4002 191.701 28.6214C191.272 27.821 190.693 27.2152 189.964 26.8042C189.236 26.3715 188.453 26.1552 187.617 26.1552C186.781 26.1552 186.01 26.3607 185.302 26.7717C184.595 27.1828 184.016 27.7885 183.566 28.5889C183.137 29.3677 182.923 30.298 182.923 31.3796C182.923 32.4613 183.137 33.4132 183.566 34.2353C184.016 35.0357 184.595 35.6522 185.302 36.0849C186.031 36.5176 186.803 36.7339 187.617 36.7339C188.453 36.7339 189.236 36.5284 189.964 36.1173C190.693 35.6847 191.272 35.0789 191.701 34.3001C192.129 33.4997 192.344 32.5479 192.344 31.4446Z" fill="black"/>
<path d="M203.267 40.6604C202.453 40.6604 201.777 40.4116 201.241 39.914C200.727 39.3948 200.47 38.7566 200.47 37.9995C200.47 37.2423 200.727 36.6149 201.241 36.1173C201.777 35.5981 202.453 35.3385 203.267 35.3385C204.06 35.3385 204.714 35.5981 205.228 36.1173C205.743 36.6149 206 37.2423 206 37.9995C206 38.7566 205.743 39.3948 205.228 39.914C204.714 40.4116 204.06 40.6604 203.267 40.6604Z" fill="black"/>
</g>
<defs>
<clipPath id="clip0_113_498">
<rect width="206" height="49" fill="white"/>
</clipPath>
</defs>
</svg>
