<svg width="204" height="204" viewBox="0 0 204 204" fill="none" xmlns="http://www.w3.org/2000/svg">
<rect x="0.5" y="0.5" width="203" height="203" fill="#EDE7E2" stroke="black"/>
<path d="M36.2091 20.16C36.3691 20.16 36.4491 20.2533 36.4491 20.44V34.7C36.4491 34.7933 36.4158 34.8667 36.3491 34.92C36.2958 34.9733 36.2158 35 36.1091 35H34.4491C34.3558 35 34.2758 34.9933 34.2091 34.98C34.1425 34.9533 34.0625 34.8867 33.9691 34.78L27.1291 25.06C27.0758 24.98 27.0225 24.9467 26.9691 24.96C26.9291 24.9733 26.9091 25.0133 26.9091 25.08V34.68C26.9225 34.8933 26.8091 35 26.5691 35H24.8091C24.5691 35 24.4491 34.8933 24.4491 34.68V20.5C24.4491 20.2733 24.5558 20.16 24.7691 20.16H26.7691C26.9025 20.16 27.0025 20.18 27.0691 20.22C27.1358 20.2467 27.2091 20.3133 27.2891 20.42L33.7291 29.7C33.8091 29.8067 33.8758 29.8533 33.9291 29.84C33.9958 29.8133 34.0291 29.7467 34.0291 29.64V20.48C34.0291 20.2667 34.1358 20.16 34.3491 20.16H36.2091ZM44.0054 35.2C42.9654 35.2 42.0521 34.9667 41.2654 34.5C40.4787 34.0333 39.8587 33.3933 39.4054 32.58C38.9654 31.7533 38.7454 30.8133 38.7454 29.76C38.7454 28.6533 38.9721 27.6867 39.4254 26.86C39.8921 26.02 40.5187 25.3667 41.3054 24.9C42.1054 24.4333 43.0121 24.2 44.0254 24.2C45.0787 24.2 45.9987 24.44 46.7854 24.92C47.5721 25.3867 48.1854 26.04 48.6254 26.88C49.0654 27.7067 49.2854 28.66 49.2854 29.74C49.2854 30.8067 49.0587 31.7533 48.6054 32.58C48.1654 33.3933 47.5521 34.0333 46.7654 34.5C45.9787 34.9667 45.0587 35.2 44.0054 35.2ZM44.0254 33.42C44.5987 33.42 45.0787 33.28 45.4654 33C45.8521 32.7067 46.1454 32.2867 46.3454 31.74C46.5454 31.18 46.6454 30.5 46.6454 29.7C46.6454 28.8867 46.5387 28.2 46.3254 27.64C46.1254 27.08 45.8321 26.6533 45.4454 26.36C45.0587 26.0667 44.5854 25.92 44.0254 25.92C43.4787 25.92 43.0054 26.0667 42.6054 26.36C42.2054 26.6533 41.8987 27.08 41.6854 27.64C41.4854 28.2 41.3854 28.8867 41.3854 29.7C41.3854 30.5 41.4854 31.18 41.6854 31.74C41.8987 32.2867 42.2054 32.7067 42.6054 33C43.0054 33.28 43.4787 33.42 44.0254 33.42ZM51.658 35C51.498 35 51.3914 34.9733 51.338 34.92C51.2847 34.8533 51.258 34.7467 51.258 34.6V20.5C51.258 20.2733 51.358 20.16 51.558 20.16H53.578C53.7647 20.16 53.858 20.2733 53.858 20.5V25.24C53.858 25.3867 53.8847 25.4667 53.938 25.48C54.0047 25.4933 54.0847 25.46 54.178 25.38C54.3647 25.1933 54.5914 25.0133 54.858 24.84C55.138 24.6667 55.4647 24.52 55.838 24.4C56.2114 24.2667 56.638 24.2 57.118 24.2C58.0514 24.2 58.8314 24.4333 59.458 24.9C60.0847 25.3533 60.5514 25.9933 60.858 26.82C61.178 27.6333 61.338 28.5733 61.338 29.64C61.338 31.3333 60.938 32.6867 60.138 33.7C59.3514 34.7 58.2314 35.2 56.778 35.2C56.258 35.2 55.7847 35.12 55.358 34.96C54.9447 34.7867 54.5914 34.5733 54.298 34.32C54.0047 34.0667 53.7647 33.8267 53.578 33.6C53.5247 33.5333 53.478 33.5067 53.438 33.52C53.398 33.52 53.3714 33.5667 53.358 33.66L53.158 34.62C53.1047 34.8733 52.9647 35 52.738 35H51.658ZM53.858 31.36C53.858 31.7867 53.9647 32.1667 54.178 32.5C54.3914 32.82 54.6714 33.08 55.018 33.28C55.3647 33.4667 55.738 33.56 56.138 33.56C56.6447 33.56 57.0847 33.4267 57.458 33.16C57.8447 32.8933 58.1447 32.48 58.358 31.92C58.5714 31.3467 58.678 30.6 58.678 29.68C58.678 28.4 58.4714 27.4533 58.058 26.84C57.6447 26.2133 57.038 25.9 56.238 25.9C55.7447 25.9 55.2914 26.0133 54.878 26.24C54.478 26.4667 54.138 26.76 53.858 27.12V31.36ZM68.107 35.2C67.067 35.2 66.1536 34.9667 65.367 34.5C64.5803 34.0333 63.9603 33.3933 63.507 32.58C63.067 31.7533 62.847 30.8133 62.847 29.76C62.847 28.6533 63.0736 27.6867 63.527 26.86C63.9936 26.02 64.6203 25.3667 65.407 24.9C66.207 24.4333 67.1136 24.2 68.127 24.2C69.1803 24.2 70.1003 24.44 70.887 24.92C71.6736 25.3867 72.287 26.04 72.727 26.88C73.167 27.7067 73.387 28.66 73.387 29.74C73.387 30.8067 73.1603 31.7533 72.707 32.58C72.267 33.3933 71.6536 34.0333 70.867 34.5C70.0803 34.9667 69.1603 35.2 68.107 35.2ZM68.127 33.42C68.7003 33.42 69.1803 33.28 69.567 33C69.9536 32.7067 70.247 32.2867 70.447 31.74C70.647 31.18 70.747 30.5 70.747 29.7C70.747 28.8867 70.6403 28.2 70.427 27.64C70.227 27.08 69.9336 26.6533 69.547 26.36C69.1603 26.0667 68.687 25.92 68.127 25.92C67.5803 25.92 67.107 26.0667 66.707 26.36C66.307 26.6533 66.0003 27.08 65.787 27.64C65.587 28.2 65.487 28.8867 65.487 29.7C65.487 30.5 65.587 31.18 65.787 31.74C66.0003 32.2867 66.307 32.7067 66.707 33C67.107 33.28 67.5803 33.42 68.127 33.42ZM82.7796 35C82.6729 35 82.5796 34.9733 82.4996 34.92C82.4329 34.8667 82.3996 34.7733 82.3996 34.64V33.98C82.3996 33.8867 82.3729 33.8333 82.3196 33.82C82.2663 33.8067 82.2063 33.8333 82.1396 33.9C81.9396 34.0867 81.7063 34.28 81.4396 34.48C81.1729 34.68 80.8463 34.8533 80.4596 35C80.0863 35.1333 79.6396 35.2 79.1196 35.2C78.3063 35.2 77.5796 35 76.9396 34.6C76.2996 34.2 75.7929 33.6 75.4196 32.8C75.0463 32 74.8596 31 74.8596 29.8C74.8596 28.68 75.0529 27.7 75.4396 26.86C75.8396 26.02 76.3796 25.3667 77.0596 24.9C77.7396 24.4333 78.4996 24.2 79.3396 24.2C79.9263 24.2 80.4263 24.2933 80.8396 24.48C81.2663 24.6667 81.6596 24.9267 82.0196 25.26C82.1396 25.34 82.2263 25.3733 82.2796 25.36C82.3329 25.3333 82.3596 25.2467 82.3596 25.1V20.48C82.3596 20.2667 82.4529 20.16 82.6396 20.16H84.6596C84.8596 20.16 84.9596 20.2733 84.9596 20.5V34.62C84.9596 34.7533 84.9263 34.8533 84.8596 34.92C84.8063 34.9733 84.6996 35 84.5396 35H82.7796ZM82.3596 27.02C82.0129 26.6733 81.6663 26.4067 81.3196 26.22C80.9863 26.02 80.5996 25.92 80.1596 25.92C79.6529 25.92 79.1929 26.06 78.7796 26.34C78.3796 26.6067 78.0663 27.0267 77.8396 27.6C77.6129 28.16 77.4996 28.88 77.4996 29.76C77.4996 30.6533 77.6129 31.38 77.8396 31.94C78.0663 32.4867 78.3729 32.8867 78.7596 33.14C79.1596 33.3933 79.6063 33.52 80.0996 33.52C80.5263 33.52 80.9063 33.42 81.2396 33.22C81.5863 33.02 81.8596 32.7667 82.0596 32.46C82.2596 32.1533 82.3596 31.8467 82.3596 31.54V27.02ZM88.3285 38.3C87.9285 38.3 87.6285 38.28 87.4285 38.24C87.2285 38.2133 87.1285 38.12 87.1285 37.96V36.68C87.1285 36.6 87.1685 36.5267 87.2485 36.46C87.3285 36.4067 87.4818 36.38 87.7085 36.38H89.0285C89.2952 36.38 89.5352 36.3067 89.7485 36.16C89.9752 36.0133 90.1552 35.8333 90.2885 35.62C90.4352 35.4067 90.5285 35.1867 90.5685 34.96C90.6218 34.72 90.6085 34.5067 90.5285 34.32L86.6885 24.84C86.6485 24.72 86.6552 24.62 86.7085 24.54C86.7618 24.4467 86.8552 24.4 86.9885 24.4H89.0685C89.1618 24.4 89.2418 24.4267 89.3085 24.48C89.3885 24.5333 89.4418 24.6067 89.4685 24.7L91.9485 31.28C91.9885 31.4 92.0418 31.46 92.1085 31.46C92.1752 31.46 92.2352 31.3867 92.2885 31.24L94.7485 24.68C94.7885 24.6 94.8352 24.5333 94.8885 24.48C94.9552 24.4267 95.0352 24.4 95.1285 24.4H96.5885C96.6952 24.4 96.7752 24.4467 96.8285 24.54C96.8818 24.62 96.8818 24.7067 96.8285 24.8L92.6285 35.32C92.3752 35.9467 92.1085 36.4533 91.8285 36.84C91.5618 37.2267 91.2618 37.5267 90.9285 37.74C90.5952 37.9533 90.2152 38.1 89.7885 38.18C89.3752 38.26 88.8885 38.3 88.3285 38.3ZM107.422 24.2C108.222 24.2 108.916 24.34 109.502 24.62C110.089 24.8867 110.569 25.24 110.942 25.68C111.329 26.1067 111.622 26.56 111.822 27.04C111.902 27.28 111.836 27.4067 111.622 27.42L109.862 27.64C109.729 27.6667 109.636 27.6067 109.582 27.46C109.409 27.1667 109.229 26.9067 109.042 26.68C108.856 26.4533 108.642 26.2733 108.402 26.14C108.162 26.0067 107.869 25.94 107.522 25.94C106.989 25.94 106.516 26.0867 106.102 26.38C105.702 26.66 105.389 27.08 105.162 27.64C104.949 28.2 104.842 28.8867 104.842 29.7C104.842 30.5267 104.956 31.22 105.182 31.78C105.422 32.34 105.749 32.7667 106.162 33.06C106.576 33.34 107.069 33.48 107.642 33.48C108.242 33.48 108.736 33.3267 109.122 33.02C109.509 32.7 109.869 32.26 110.202 31.7C110.242 31.6467 110.282 31.6133 110.322 31.6C110.362 31.5867 110.429 31.5933 110.522 31.62L111.782 31.96C111.916 32 111.956 32.1133 111.902 32.3C111.769 32.6067 111.576 32.9333 111.322 33.28C111.082 33.6267 110.782 33.9467 110.422 34.24C110.062 34.52 109.629 34.7533 109.122 34.94C108.629 35.1133 108.062 35.2 107.422 35.2C106.409 35.2 105.509 34.9733 104.722 34.52C103.936 34.0533 103.316 33.4133 102.862 32.6C102.422 31.7733 102.202 30.82 102.202 29.74C102.202 28.6467 102.429 27.6867 102.882 26.86C103.336 26.02 103.956 25.3667 104.742 24.9C105.529 24.4333 106.422 24.2 107.422 24.2ZM119.539 33.9C119.086 34.3 118.593 34.62 118.059 34.86C117.526 35.0867 116.919 35.2 116.239 35.2C115.213 35.2 114.406 34.9333 113.819 34.4C113.246 33.8533 112.959 33.1467 112.959 32.28C112.959 31.5467 113.179 30.9133 113.619 30.38C114.059 29.8333 114.699 29.4067 115.539 29.1C116.379 28.7933 117.386 28.6133 118.559 28.56L119.559 28.5C119.639 28.4867 119.713 28.46 119.779 28.42C119.846 28.38 119.879 28.3067 119.879 28.2V27.74C119.879 27.1533 119.706 26.7 119.359 26.38C119.013 26.0467 118.533 25.88 117.919 25.88C117.453 25.88 117.013 25.9867 116.599 26.2C116.199 26.4 115.853 26.7333 115.559 27.2C115.519 27.28 115.473 27.3333 115.419 27.36C115.379 27.3867 115.299 27.3867 115.179 27.36L113.499 26.94C113.433 26.9133 113.379 26.8733 113.339 26.82C113.313 26.7667 113.339 26.66 113.419 26.5C113.779 25.74 114.346 25.1667 115.119 24.78C115.906 24.3933 116.879 24.2 118.039 24.2C119.066 24.2 119.893 24.34 120.519 24.62C121.159 24.9 121.626 25.2933 121.919 25.8C122.213 26.2933 122.359 26.88 122.359 27.56V34.6C122.359 34.7467 122.333 34.8533 122.279 34.92C122.239 34.9733 122.153 35 122.019 35H120.319C120.199 35 120.113 34.9533 120.059 34.86C120.006 34.7667 119.973 34.6533 119.959 34.52L119.919 33.92C119.893 33.6933 119.766 33.6867 119.539 33.9ZM119.879 30.16C119.879 29.92 119.779 29.8067 119.579 29.82L118.759 29.88C118.333 29.9067 117.919 29.9733 117.519 30.08C117.133 30.1733 116.786 30.3067 116.479 30.48C116.186 30.64 115.946 30.8467 115.759 31.1C115.586 31.34 115.499 31.6267 115.499 31.96C115.499 32.4133 115.659 32.7733 115.979 33.04C116.313 33.3067 116.759 33.44 117.319 33.44C117.679 33.44 118.013 33.38 118.319 33.26C118.626 33.14 118.893 32.9867 119.119 32.8C119.346 32.6133 119.526 32.42 119.659 32.22C119.806 32.0067 119.879 31.7933 119.879 31.58V30.16ZM125.212 35C125.078 35 124.985 34.9733 124.932 34.92C124.878 34.8533 124.852 34.76 124.852 34.64V24.74C124.852 24.5133 124.945 24.4 125.132 24.4H127.072C127.258 24.4 127.352 24.5 127.352 24.7V25.92C127.352 26 127.378 26.0533 127.432 26.08C127.485 26.0933 127.545 26.06 127.612 25.98C127.905 25.5933 128.218 25.2733 128.552 25.02C128.898 24.7533 129.245 24.5533 129.592 24.42C129.952 24.2733 130.298 24.2 130.632 24.2C131.112 24.2 131.352 24.3067 131.352 24.52V26.44C131.352 26.6267 131.265 26.7067 131.092 26.68C130.892 26.6267 130.678 26.5933 130.452 26.58C130.238 26.5533 130.038 26.54 129.852 26.54C129.598 26.54 129.325 26.5933 129.032 26.7C128.752 26.8067 128.492 26.96 128.252 27.16C128.012 27.3467 127.818 27.5533 127.672 27.78C127.525 28.0067 127.452 28.24 127.452 28.48V34.6C127.452 34.8667 127.298 35 126.992 35H125.212ZM134.922 30.52C134.922 31.0667 135.049 31.56 135.302 32C135.555 32.4267 135.902 32.7667 136.342 33.02C136.795 33.26 137.289 33.38 137.822 33.38C138.369 33.38 138.862 33.2667 139.302 33.04C139.755 32.8133 140.182 32.4467 140.582 31.94C140.635 31.8733 140.682 31.84 140.722 31.84C140.762 31.8267 140.829 31.8467 140.922 31.9L142.142 32.44C142.315 32.52 142.335 32.64 142.202 32.8C141.802 33.3867 141.369 33.86 140.902 34.22C140.449 34.5667 139.942 34.82 139.382 34.98C138.835 35.1267 138.215 35.2 137.522 35.2C136.509 35.2 135.602 34.9733 134.802 34.52C134.002 34.0667 133.369 33.44 132.902 32.64C132.449 31.8267 132.222 30.8933 132.222 29.84C132.222 28.68 132.455 27.68 132.922 26.84C133.402 26 134.042 25.3533 134.842 24.9C135.642 24.4333 136.522 24.2 137.482 24.2C138.495 24.2 139.375 24.42 140.122 24.86C140.882 25.3 141.475 25.9333 141.902 26.76C142.329 27.5733 142.542 28.5667 142.542 29.74C142.542 29.8733 142.529 29.98 142.502 30.06C142.489 30.14 142.395 30.1867 142.222 30.2H135.142C135.062 30.2 135.002 30.2267 134.962 30.28C134.935 30.3333 134.922 30.4133 134.922 30.52ZM139.662 28.72C139.795 28.72 139.882 28.7067 139.922 28.68C139.975 28.64 140.002 28.56 140.002 28.44C140.002 28.0267 139.909 27.62 139.722 27.22C139.535 26.82 139.262 26.4933 138.902 26.24C138.542 25.9733 138.102 25.84 137.582 25.84C137.049 25.84 136.582 25.9733 136.182 26.24C135.782 26.4933 135.475 26.84 135.262 27.28C135.062 27.7067 134.962 28.1867 134.962 28.72H139.662ZM150.922 27.02C150.668 26.6867 150.335 26.4067 149.922 26.18C149.508 25.9533 149.002 25.84 148.402 25.84C147.828 25.84 147.348 25.9533 146.962 26.18C146.575 26.4067 146.382 26.7267 146.382 27.14C146.382 27.34 146.462 27.5333 146.622 27.72C146.782 27.9067 147.135 28.0733 147.682 28.22L150.062 28.86C151.102 29.1133 151.842 29.5133 152.282 30.06C152.735 30.5933 152.962 31.2 152.962 31.88C152.962 32.5733 152.762 33.1667 152.362 33.66C151.975 34.1533 151.428 34.5333 150.722 34.8C150.028 35.0667 149.235 35.2 148.342 35.2C147.195 35.2 146.215 34.9933 145.402 34.58C144.588 34.1533 144.015 33.6267 143.682 33C143.642 32.92 143.622 32.8467 143.622 32.78C143.622 32.7 143.655 32.6333 143.722 32.58L144.902 31.98C145.008 31.9133 145.095 31.8867 145.162 31.9C145.228 31.9133 145.282 31.9467 145.322 32C145.522 32.28 145.748 32.5333 146.002 32.76C146.268 32.9867 146.588 33.1667 146.962 33.3C147.348 33.4333 147.815 33.4933 148.362 33.48C148.775 33.48 149.148 33.4267 149.482 33.32C149.828 33.2133 150.102 33.0667 150.302 32.88C150.502 32.68 150.602 32.44 150.602 32.16C150.602 31.8933 150.488 31.66 150.262 31.46C150.035 31.26 149.628 31.0867 149.042 30.94L147.002 30.46C145.988 30.22 145.242 29.86 144.762 29.38C144.295 28.9 144.062 28.3 144.062 27.58C144.062 26.9133 144.235 26.3267 144.582 25.82C144.942 25.3133 145.448 24.92 146.102 24.64C146.755 24.3467 147.528 24.2 148.422 24.2C149.408 24.2 150.262 24.38 150.982 24.74C151.702 25.1 152.228 25.5467 152.562 26.08C152.615 26.1467 152.648 26.22 152.662 26.3C152.688 26.38 152.655 26.4467 152.562 26.5L151.322 27.12C151.242 27.16 151.168 27.1733 151.102 27.16C151.035 27.1333 150.975 27.0867 150.922 27.02ZM161.71 34.56C161.71 34.72 161.67 34.8333 161.59 34.9C161.523 34.9667 161.403 35 161.23 35H159.49C159.343 35 159.243 34.9733 159.19 34.92C159.136 34.8533 159.11 34.76 159.11 34.64V24.74C159.11 24.5133 159.21 24.4 159.41 24.4H161.43C161.616 24.4 161.71 24.5067 161.71 24.72V34.56ZM161.75 22.44C161.75 22.7467 161.59 22.9 161.27 22.9H159.45C159.303 22.9 159.203 22.8667 159.15 22.8C159.096 22.7333 159.07 22.6333 159.07 22.5V20.54C159.07 20.2867 159.176 20.16 159.39 20.16H161.45C161.65 20.16 161.75 20.2733 161.75 20.5V22.44ZM170.107 24.4C170.213 24.4 170.293 24.4333 170.347 24.5C170.4 24.5533 170.427 24.62 170.427 24.7V25.96C170.427 26.1333 170.327 26.22 170.127 26.22H168.267C168.133 26.22 168.067 26.2867 168.067 26.42V34.66C168.067 34.8867 167.967 35 167.767 35H165.747C165.56 35 165.467 34.8933 165.467 34.68V26.4C165.467 26.28 165.42 26.22 165.327 26.22H163.707C163.507 26.22 163.407 26.1333 163.407 25.96V24.7C163.407 24.62 163.427 24.5533 163.467 24.5C163.52 24.4333 163.607 24.4 163.727 24.4H165.247C165.393 24.4 165.467 24.3133 165.467 24.14V22.84C165.467 21.9867 165.7 21.3267 166.167 20.86C166.647 20.3933 167.333 20.16 168.227 20.16H170.127C170.38 20.16 170.507 20.28 170.507 20.52L170.527 21.64C170.527 21.72 170.5 21.7867 170.447 21.84C170.407 21.8933 170.34 21.92 170.247 21.92H169.067C168.72 21.92 168.453 22.04 168.267 22.28C168.093 22.52 168.007 22.8267 168.007 23.2V24.2C168.007 24.3333 168.08 24.4 168.227 24.4H170.107ZM179.278 20.16C179.464 20.16 179.558 20.2667 179.558 20.48V34.56C179.558 34.72 179.518 34.8333 179.438 34.9C179.371 34.9667 179.251 35 179.078 35H176.998C176.838 35 176.731 34.9733 176.678 34.92C176.624 34.8533 176.598 34.76 176.598 34.64V20.5C176.598 20.2733 176.698 20.16 176.898 20.16H179.278ZM78.487 58.56C78.487 58.72 78.4536 58.8333 78.387 58.9C78.3203 58.9667 78.2003 59 78.027 59H76.267C76.0003 59 75.867 58.88 75.867 58.64L75.927 44.5C75.927 44.2733 76.027 44.16 76.227 44.16H78.207C78.3936 44.16 78.487 44.2667 78.487 44.48V58.56ZM83.1837 54.52C83.1837 55.0667 83.3103 55.56 83.5637 56C83.817 56.4267 84.1637 56.7667 84.6037 57.02C85.057 57.26 85.5503 57.38 86.0837 57.38C86.6303 57.38 87.1237 57.2667 87.5637 57.04C88.017 56.8133 88.4437 56.4467 88.8437 55.94C88.897 55.8733 88.9437 55.84 88.9837 55.84C89.0237 55.8267 89.0903 55.8467 89.1837 55.9L90.4037 56.44C90.577 56.52 90.597 56.64 90.4637 56.8C90.0637 57.3867 89.6303 57.86 89.1637 58.22C88.7103 58.5667 88.2037 58.82 87.6437 58.98C87.097 59.1267 86.477 59.2 85.7837 59.2C84.7703 59.2 83.8637 58.9733 83.0637 58.52C82.2637 58.0667 81.6303 57.44 81.1637 56.64C80.7103 55.8267 80.4837 54.8933 80.4837 53.84C80.4837 52.68 80.717 51.68 81.1837 50.84C81.6637 50 82.3037 49.3533 83.1037 48.9C83.9037 48.4333 84.7837 48.2 85.7437 48.2C86.757 48.2 87.637 48.42 88.3837 48.86C89.1437 49.3 89.737 49.9333 90.1637 50.76C90.5903 51.5733 90.8037 52.5667 90.8037 53.74C90.8037 53.8733 90.7903 53.98 90.7637 54.06C90.7503 54.14 90.657 54.1867 90.4837 54.2H83.4037C83.3237 54.2 83.2637 54.2267 83.2237 54.28C83.197 54.3333 83.1837 54.4133 83.1837 54.52ZM87.9237 52.72C88.057 52.72 88.1437 52.7067 88.1837 52.68C88.237 52.64 88.2637 52.56 88.2637 52.44C88.2637 52.0267 88.1703 51.62 87.9837 51.22C87.797 50.82 87.5237 50.4933 87.1637 50.24C86.8037 49.9733 86.3637 49.84 85.8437 49.84C85.3103 49.84 84.8437 49.9733 84.4437 50.24C84.0437 50.4933 83.737 50.84 83.5237 51.28C83.3237 51.7067 83.2237 52.1867 83.2237 52.72H87.9237ZM98.5434 57.9C98.09 58.3 97.5967 58.62 97.0634 58.86C96.53 59.0867 95.9234 59.2 95.2434 59.2C94.2167 59.2 93.41 58.9333 92.8234 58.4C92.25 57.8533 91.9634 57.1467 91.9634 56.28C91.9634 55.5467 92.1834 54.9133 92.6234 54.38C93.0634 53.8333 93.7034 53.4067 94.5434 53.1C95.3834 52.7933 96.39 52.6133 97.5634 52.56L98.5634 52.5C98.6434 52.4867 98.7167 52.46 98.7834 52.42C98.85 52.38 98.8834 52.3067 98.8834 52.2V51.74C98.8834 51.1533 98.71 50.7 98.3634 50.38C98.0167 50.0467 97.5367 49.88 96.9234 49.88C96.4567 49.88 96.0167 49.9867 95.6034 50.2C95.2034 50.4 94.8567 50.7333 94.5634 51.2C94.5234 51.28 94.4767 51.3333 94.4234 51.36C94.3834 51.3867 94.3034 51.3867 94.1834 51.36L92.5034 50.94C92.4367 50.9133 92.3834 50.8733 92.3434 50.82C92.3167 50.7667 92.3434 50.66 92.4234 50.5C92.7834 49.74 93.35 49.1667 94.1234 48.78C94.91 48.3933 95.8834 48.2 97.0434 48.2C98.07 48.2 98.8967 48.34 99.5234 48.62C100.163 48.9 100.63 49.2933 100.923 49.8C101.217 50.2933 101.363 50.88 101.363 51.56V58.6C101.363 58.7467 101.337 58.8533 101.283 58.92C101.243 58.9733 101.157 59 101.023 59H99.3234C99.2034 59 99.1167 58.9533 99.0634 58.86C99.01 58.7667 98.9767 58.6533 98.9634 58.52L98.9234 57.92C98.8967 57.6933 98.77 57.6867 98.5434 57.9ZM98.8834 54.16C98.8834 53.92 98.7834 53.8067 98.5834 53.82L97.7634 53.88C97.3367 53.9067 96.9234 53.9733 96.5234 54.08C96.1367 54.1733 95.79 54.3067 95.4834 54.48C95.19 54.64 94.95 54.8467 94.7634 55.1C94.59 55.34 94.5034 55.6267 94.5034 55.96C94.5034 56.4133 94.6634 56.7733 94.9834 57.04C95.3167 57.3067 95.7634 57.44 96.3234 57.44C96.6834 57.44 97.0167 57.38 97.3234 57.26C97.63 57.14 97.8967 56.9867 98.1234 56.8C98.35 56.6133 98.53 56.42 98.6634 56.22C98.81 56.0067 98.8834 55.7933 98.8834 55.58V54.16ZM112.843 48.4C112.963 48.4 113.043 48.44 113.083 48.52C113.123 48.6 113.123 48.6933 113.083 48.8L109.103 58.62C108.997 58.8733 108.803 59 108.523 59H107.343C107.05 59 106.85 58.88 106.743 58.64L102.763 48.82C102.723 48.7 102.73 48.6 102.783 48.52C102.837 48.44 102.923 48.4 103.043 48.4H105.143C105.237 48.4 105.317 48.4267 105.383 48.48C105.463 48.5333 105.517 48.6067 105.543 48.7L108.123 55.26C108.217 55.5133 108.323 55.5067 108.443 55.24L111.003 48.68C111.043 48.6 111.09 48.5333 111.143 48.48C111.21 48.4267 111.29 48.4 111.383 48.4H112.843ZM116.367 54.52C116.367 55.0667 116.494 55.56 116.747 56C117.001 56.4267 117.347 56.7667 117.787 57.02C118.241 57.26 118.734 57.38 119.267 57.38C119.814 57.38 120.307 57.2667 120.747 57.04C121.201 56.8133 121.627 56.4467 122.027 55.94C122.081 55.8733 122.127 55.84 122.167 55.84C122.207 55.8267 122.274 55.8467 122.367 55.9L123.587 56.44C123.761 56.52 123.781 56.64 123.647 56.8C123.247 57.3867 122.814 57.86 122.347 58.22C121.894 58.5667 121.387 58.82 120.827 58.98C120.281 59.1267 119.661 59.2 118.967 59.2C117.954 59.2 117.047 58.9733 116.247 58.52C115.447 58.0667 114.814 57.44 114.347 56.64C113.894 55.8267 113.667 54.8933 113.667 53.84C113.667 52.68 113.901 51.68 114.367 50.84C114.847 50 115.487 49.3533 116.287 48.9C117.087 48.4333 117.967 48.2 118.927 48.2C119.941 48.2 120.821 48.42 121.567 48.86C122.327 49.3 122.921 49.9333 123.347 50.76C123.774 51.5733 123.987 52.5667 123.987 53.74C123.987 53.8733 123.974 53.98 123.947 54.06C123.934 54.14 123.841 54.1867 123.667 54.2H116.587C116.507 54.2 116.447 54.2267 116.407 54.28C116.381 54.3333 116.367 54.4133 116.367 54.52ZM121.107 52.72C121.241 52.72 121.327 52.7067 121.367 52.68C121.421 52.64 121.447 52.56 121.447 52.44C121.447 52.0267 121.354 51.62 121.167 51.22C120.981 50.82 120.707 50.4933 120.347 50.24C119.987 49.9733 119.547 49.84 119.027 49.84C118.494 49.84 118.027 49.9733 117.627 50.24C117.227 50.4933 116.921 50.84 116.707 51.28C116.507 51.7067 116.407 52.1867 116.407 52.72H121.107ZM128.427 58.58C128.427 58.86 128.26 59 127.927 59H125.907C125.64 59 125.507 58.88 125.507 58.64V56.38C125.507 56.1533 125.6 56.04 125.787 56.04H128.147C128.334 56.04 128.427 56.14 128.427 56.34V58.58Z" fill="black"/>
<path d="M50.0894 84.7793C63.4913 82.0381 79.1027 82.9079 92.5065 82.6466C100.185 82.497 118.187 81.9026 127.341 83.4102C133.884 84.4879 132.245 87.81 131.659 92.7836C129.712 109.283 129.156 125.824 128.289 142.415C127.933 149.223 127.166 161.069 127.209 168.376C127.222 170.6 127.268 172.839 127.604 175.037C128.947 183.823 128.029 173.882 130.184 180.04" stroke="black" stroke-width="3" stroke-linecap="round"/>
<path d="M48.1937 81.9355C48.5351 80.7405 49.9715 84.5593 49.9841 84.7265C51.129 99.9226 49.8559 115.935 49.6944 131.067C49.5223 147.2 50.2472 163.049 50.5633 179.092" stroke="black" stroke-width="3" stroke-linecap="round"/>
<path d="M85.6345 82.4097C85.0853 82.9588 84.4301 83.5094 84.0547 84.2001C83.8169 84.6376 83.7472 85.0761 83.7387 85.5692C83.5674 95.5041 83.7242 105.499 83.8177 115.427C83.9348 127.86 82.5113 142.648 86.0031 154.869C86.543 156.759 86.7768 158.19 86.5823 160.135" stroke="black" stroke-width="3" stroke-linecap="round"/>
<path d="M53.8809 174.827C55.4556 176.227 56.0373 174.032 54.7234 177.67C54.5241 178.222 54.1331 178.377 53.8019 178.803C52.7242 180.188 57.0067 177.32 58.4359 176.301C67.8306 169.602 77.6233 163.667 87.5302 157.765" stroke="black" stroke-width="3" stroke-linecap="round"/>
</svg>
