<svg width="204" height="204" viewBox="0 0 204 204" fill="none" xmlns="http://www.w3.org/2000/svg">
<rect x="0.5" y="0.5" width="203" height="203" fill="#EDE7E2" stroke="black"/>
<path d="M27.9934 20.48C27.9934 20.3867 28.0201 20.3133 28.0734 20.26C28.1268 20.1933 28.2134 20.16 28.3334 20.16H39.5734C39.6934 20.16 39.7801 20.1933 39.8334 20.26C39.8868 20.3133 39.9134 20.3867 39.9134 20.48V22.04C39.9134 22.2267 39.8068 22.32 39.5934 22.32H35.7534C35.6068 22.32 35.5334 22.3867 35.5334 22.52V34.66C35.5334 34.8867 35.4334 35 35.2334 35H32.8534C32.6668 35 32.5734 34.8933 32.5734 34.68V22.56C32.5734 22.4 32.5001 22.32 32.3534 22.32H28.3334C28.1068 22.32 27.9934 22.2267 27.9934 22.04V20.48ZM42.2923 35C42.039 35 41.9123 34.88 41.9123 34.64V20.5C41.9123 20.2733 42.0123 20.16 42.2123 20.16H44.1923C44.3657 20.16 44.4523 20.26 44.4523 20.46V25.66C44.4523 25.74 44.4723 25.7867 44.5123 25.8C44.5523 25.8133 44.6057 25.7933 44.6723 25.74C45.1123 25.3667 45.519 25.0733 45.8923 24.86C46.2657 24.6333 46.639 24.4667 47.0123 24.36C47.3857 24.2533 47.7723 24.2 48.1723 24.2C49.199 24.2 49.9857 24.48 50.5323 25.04C51.079 25.6 51.3523 26.3667 51.3523 27.34V34.58C51.3523 34.86 51.2123 35 50.9323 35H49.0923C48.9723 35 48.8857 34.9733 48.8323 34.92C48.779 34.8667 48.7523 34.7733 48.7523 34.64V27.76C48.7523 27.24 48.6123 26.84 48.3323 26.56C48.0657 26.2667 47.6523 26.12 47.0923 26.12C46.7723 26.12 46.4723 26.1733 46.1923 26.28C45.9257 26.3733 45.659 26.52 45.3923 26.72C45.1257 26.92 44.8323 27.1733 44.5123 27.48V34.6C44.5123 34.8667 44.3657 35 44.0723 35H42.2923ZM55.9083 30.52C55.9083 31.0667 56.0349 31.56 56.2883 32C56.5416 32.4267 56.8883 32.7667 57.3283 33.02C57.7816 33.26 58.2749 33.38 58.8083 33.38C59.3549 33.38 59.8483 33.2667 60.2883 33.04C60.7416 32.8133 61.1683 32.4467 61.5683 31.94C61.6216 31.8733 61.6683 31.84 61.7083 31.84C61.7483 31.8267 61.8149 31.8467 61.9083 31.9L63.1283 32.44C63.3016 32.52 63.3216 32.64 63.1883 32.8C62.7883 33.3867 62.3549 33.86 61.8883 34.22C61.4349 34.5667 60.9283 34.82 60.3683 34.98C59.8216 35.1267 59.2016 35.2 58.5083 35.2C57.4949 35.2 56.5883 34.9733 55.7883 34.52C54.9883 34.0667 54.3549 33.44 53.8883 32.64C53.4349 31.8267 53.2083 30.8933 53.2083 29.84C53.2083 28.68 53.4416 27.68 53.9083 26.84C54.3883 26 55.0283 25.3533 55.8283 24.9C56.6283 24.4333 57.5083 24.2 58.4683 24.2C59.4816 24.2 60.3616 24.42 61.1083 24.86C61.8683 25.3 62.4616 25.9333 62.8883 26.76C63.3149 27.5733 63.5283 28.5667 63.5283 29.74C63.5283 29.8733 63.5149 29.98 63.4883 30.06C63.4749 30.14 63.3816 30.1867 63.2083 30.2H56.1283C56.0483 30.2 55.9883 30.2267 55.9483 30.28C55.9216 30.3333 55.9083 30.4133 55.9083 30.52ZM60.6483 28.72C60.7816 28.72 60.8683 28.7067 60.9083 28.68C60.9616 28.64 60.9883 28.56 60.9883 28.44C60.9883 28.0267 60.8949 27.62 60.7083 27.22C60.5216 26.82 60.2483 26.4933 59.8883 26.24C59.5283 25.9733 59.0883 25.84 58.5683 25.84C58.0349 25.84 57.5683 25.9733 57.1683 26.24C56.7683 26.4933 56.4616 26.84 56.2483 27.28C56.0483 27.7067 55.9483 28.1867 55.9483 28.72H60.6483ZM69.9277 20.5C69.9277 20.2733 70.0277 20.16 70.2277 20.16H72.6077C72.7943 20.16 72.8877 20.2667 72.8877 20.48V32.56C72.8877 32.72 72.961 32.8 73.1077 32.8H79.6677C79.881 32.8 79.9877 32.8933 79.9877 33.08V34.7C79.9877 34.78 79.961 34.8533 79.9077 34.92C79.8543 34.9733 79.7677 35 79.6477 35H70.3077C70.161 35 70.061 34.9733 70.0077 34.92C69.9543 34.8533 69.9277 34.76 69.9277 34.64V20.5ZM86.2222 35.2C85.1822 35.2 84.2689 34.9667 83.4822 34.5C82.6955 34.0333 82.0755 33.3933 81.6222 32.58C81.1822 31.7533 80.9622 30.8133 80.9622 29.76C80.9622 28.6533 81.1889 27.6867 81.6422 26.86C82.1089 26.02 82.7355 25.3667 83.5222 24.9C84.3222 24.4333 85.2289 24.2 86.2422 24.2C87.2955 24.2 88.2155 24.44 89.0022 24.92C89.7889 25.3867 90.4022 26.04 90.8422 26.88C91.2822 27.7067 91.5022 28.66 91.5022 29.74C91.5022 30.8067 91.2755 31.7533 90.8222 32.58C90.3822 33.3933 89.7689 34.0333 88.9822 34.5C88.1955 34.9667 87.2755 35.2 86.2222 35.2ZM86.2422 33.42C86.8155 33.42 87.2955 33.28 87.6822 33C88.0689 32.7067 88.3622 32.2867 88.5622 31.74C88.7622 31.18 88.8622 30.5 88.8622 29.7C88.8622 28.8867 88.7555 28.2 88.5422 27.64C88.3422 27.08 88.0489 26.6533 87.6622 26.36C87.2755 26.0667 86.8022 25.92 86.2422 25.92C85.6955 25.92 85.2222 26.0667 84.8222 26.36C84.4222 26.6533 84.1155 27.08 83.9022 27.64C83.7022 28.2 83.6022 28.8867 83.6022 29.7C83.6022 30.5 83.7022 31.18 83.9022 31.74C84.1155 32.2867 84.4222 32.7067 84.8222 33C85.2222 33.28 85.6955 33.42 86.2422 33.42ZM93.8348 35C93.5948 35 93.4748 34.88 93.4748 34.64V24.74C93.4748 24.5133 93.5682 24.4 93.7548 24.4H95.7548C95.9282 24.4 96.0148 24.5 96.0148 24.7V25.74C96.0148 25.82 96.0348 25.8733 96.0748 25.9C96.1148 25.9133 96.1682 25.8867 96.2348 25.82C96.6215 25.4867 96.9948 25.2 97.3548 24.96C97.7148 24.72 98.0882 24.5333 98.4748 24.4C98.8615 24.2667 99.2815 24.2 99.7348 24.2C100.722 24.2 101.495 24.4867 102.055 25.06C102.628 25.62 102.915 26.3667 102.915 27.3V34.58C102.915 34.86 102.775 35 102.495 35H100.655C100.535 35 100.448 34.9733 100.395 34.92C100.342 34.8667 100.315 34.7733 100.315 34.64V27.76C100.315 27.24 100.175 26.84 99.8948 26.56C99.6148 26.2667 99.1948 26.12 98.6348 26.12C98.3148 26.12 98.0148 26.1733 97.7348 26.28C97.4682 26.3733 97.2015 26.52 96.9348 26.72C96.6682 26.92 96.3815 27.1733 96.0748 27.48V34.6C96.0748 34.8667 95.9215 35 95.6148 35H93.8348ZM115.631 24.04C115.751 24.04 115.844 24.0733 115.911 24.14C115.991 24.1933 116.031 24.2933 116.031 24.44V25.56C116.031 25.7333 115.991 25.8533 115.911 25.92C115.844 25.9867 115.737 26.0133 115.591 26C115.404 25.9733 115.224 25.9667 115.051 25.98C114.891 25.98 114.744 26 114.611 26.04C114.264 26.12 114.131 26.2733 114.211 26.5C114.251 26.62 114.297 26.7667 114.351 26.94C114.417 27.1133 114.451 27.32 114.451 27.56C114.451 28.16 114.277 28.7067 113.931 29.2C113.597 29.6933 113.084 30.0867 112.391 30.38C111.697 30.6733 110.831 30.82 109.791 30.82C109.204 30.82 108.737 30.8533 108.391 30.92C108.057 30.9867 107.817 31.08 107.671 31.2C107.524 31.3067 107.451 31.4267 107.451 31.56C107.451 31.7467 107.564 31.88 107.791 31.96C108.031 32.0267 108.397 32.08 108.891 32.12L111.651 32.28C112.957 32.3467 113.911 32.64 114.511 33.16C115.111 33.6667 115.411 34.3267 115.411 35.14C115.411 36.14 114.937 36.9467 113.991 37.56C113.057 38.1867 111.697 38.5 109.911 38.5C108.057 38.5 106.657 38.2733 105.711 37.82C104.777 37.38 104.311 36.72 104.311 35.84C104.311 35.3733 104.484 34.98 104.831 34.66C105.177 34.34 105.637 34.06 106.211 33.82C106.384 33.7533 106.384 33.68 106.211 33.6C105.904 33.4533 105.644 33.2733 105.431 33.06C105.231 32.8333 105.131 32.56 105.131 32.24C105.131 31.9867 105.211 31.76 105.371 31.56C105.531 31.3467 105.744 31.1533 106.011 30.98C106.291 30.8067 106.604 30.6533 106.951 30.52C107.017 30.4933 107.057 30.46 107.071 30.42C107.097 30.3667 107.064 30.32 106.971 30.28C106.371 29.9867 105.911 29.62 105.591 29.18C105.271 28.7267 105.111 28.1933 105.111 27.58C105.111 26.5667 105.524 25.76 106.351 25.16C107.191 24.5467 108.404 24.24 109.991 24.24C110.711 24.24 111.324 24.32 111.831 24.48C112.351 24.64 112.777 24.86 113.111 25.14C113.204 25.2067 113.297 25.24 113.391 25.24C113.484 25.2267 113.564 25.1867 113.631 25.12C113.791 24.9333 113.984 24.76 114.211 24.6C114.437 24.4267 114.677 24.2933 114.931 24.2C115.184 24.0933 115.417 24.04 115.631 24.04ZM109.771 29.46C110.557 29.46 111.137 29.2867 111.511 28.94C111.884 28.5933 112.071 28.1467 112.071 27.6C112.071 27 111.884 26.52 111.511 26.16C111.137 25.8 110.557 25.62 109.771 25.62C109.037 25.62 108.471 25.8 108.071 26.16C107.671 26.52 107.471 27 107.471 27.6C107.471 28.1467 107.671 28.5933 108.071 28.94C108.471 29.2867 109.037 29.46 109.771 29.46ZM108.191 34.16C107.937 34.1467 107.677 34.2 107.411 34.32C107.157 34.4267 106.937 34.5867 106.751 34.8C106.577 35 106.491 35.2333 106.491 35.5C106.491 35.8467 106.611 36.1467 106.851 36.4C107.104 36.6533 107.497 36.84 108.031 36.96C108.564 37.0933 109.257 37.16 110.111 37.16C111.084 37.16 111.824 37.02 112.331 36.74C112.837 36.4733 113.091 36.08 113.091 35.56C113.091 35.2133 112.951 34.9267 112.671 34.7C112.404 34.4733 111.971 34.3467 111.371 34.32L108.191 34.16ZM128.212 35.2C126.892 35.2 125.739 34.8933 124.752 34.28C123.779 33.6533 123.025 32.7733 122.492 31.64C121.959 30.5067 121.692 29.1733 121.692 27.64C121.692 26.0533 121.972 24.6867 122.532 23.54C123.092 22.3933 123.872 21.5133 124.872 20.9C125.872 20.2733 127.039 19.96 128.372 19.96C129.399 19.96 130.325 20.16 131.152 20.56C131.979 20.96 132.652 21.4733 133.172 22.1C133.705 22.7267 134.032 23.4 134.152 24.12C134.192 24.2933 134.199 24.4067 134.172 24.46C134.145 24.5133 134.072 24.5533 133.952 24.58L131.732 24.92C131.625 24.92 131.552 24.9 131.512 24.86C131.485 24.82 131.459 24.7467 131.432 24.64C131.352 24.1733 131.172 23.7467 130.892 23.36C130.625 22.9733 130.272 22.6667 129.832 22.44C129.392 22.2 128.885 22.08 128.312 22.08C127.565 22.08 126.925 22.2733 126.392 22.66C125.872 23.0467 125.472 23.64 125.192 24.44C124.925 25.24 124.792 26.2667 124.792 27.52C124.792 28.84 124.932 29.9067 125.212 30.72C125.492 31.5333 125.905 32.1333 126.452 32.52C126.999 32.8933 127.645 33.08 128.392 33.08C128.899 33.08 129.339 33 129.712 32.84C130.099 32.68 130.425 32.4733 130.692 32.22C130.959 31.9533 131.165 31.66 131.312 31.34C131.472 31.0067 131.579 30.6733 131.632 30.34L131.652 29.54C131.705 29.3667 131.645 29.28 131.472 29.28H128.752C128.659 29.28 128.585 29.26 128.532 29.22C128.492 29.18 128.472 29.1 128.472 28.98V27.7C128.472 27.54 128.565 27.46 128.752 27.46L133.952 27.48C134.112 27.48 134.232 27.52 134.312 27.6C134.392 27.6667 134.432 27.76 134.432 27.88V34.72C134.432 34.8133 134.405 34.8867 134.352 34.94C134.312 34.98 134.252 35 134.172 35H133.592C133.485 35 133.392 34.98 133.312 34.94C133.245 34.9 133.179 34.82 133.112 34.7L132.672 33.12C132.645 33.0667 132.612 33.04 132.572 33.04C132.545 33.04 132.512 33.0733 132.472 33.14C132.219 33.4733 131.905 33.8 131.532 34.12C131.172 34.44 130.719 34.7 130.172 34.9C129.639 35.1 128.985 35.2 128.212 35.2ZM142.713 33.9C142.26 34.3 141.767 34.62 141.233 34.86C140.7 35.0867 140.093 35.2 139.413 35.2C138.387 35.2 137.58 34.9333 136.993 34.4C136.42 33.8533 136.133 33.1467 136.133 32.28C136.133 31.5467 136.353 30.9133 136.793 30.38C137.233 29.8333 137.873 29.4067 138.713 29.1C139.553 28.7933 140.56 28.6133 141.733 28.56L142.733 28.5C142.813 28.4867 142.887 28.46 142.953 28.42C143.02 28.38 143.053 28.3067 143.053 28.2V27.74C143.053 27.1533 142.88 26.7 142.533 26.38C142.187 26.0467 141.707 25.88 141.093 25.88C140.627 25.88 140.187 25.9867 139.773 26.2C139.373 26.4 139.027 26.7333 138.733 27.2C138.693 27.28 138.647 27.3333 138.593 27.36C138.553 27.3867 138.473 27.3867 138.353 27.36L136.673 26.94C136.607 26.9133 136.553 26.8733 136.513 26.82C136.487 26.7667 136.513 26.66 136.593 26.5C136.953 25.74 137.52 25.1667 138.293 24.78C139.08 24.3933 140.053 24.2 141.213 24.2C142.24 24.2 143.067 24.34 143.693 24.62C144.333 24.9 144.8 25.2933 145.093 25.8C145.387 26.2933 145.533 26.88 145.533 27.56V34.6C145.533 34.7467 145.507 34.8533 145.453 34.92C145.413 34.9733 145.327 35 145.193 35H143.493C143.373 35 143.287 34.9533 143.233 34.86C143.18 34.7667 143.147 34.6533 143.133 34.52L143.093 33.92C143.067 33.6933 142.94 33.6867 142.713 33.9ZM143.053 30.16C143.053 29.92 142.953 29.8067 142.753 29.82L141.933 29.88C141.507 29.9067 141.093 29.9733 140.693 30.08C140.307 30.1733 139.96 30.3067 139.653 30.48C139.36 30.64 139.12 30.8467 138.933 31.1C138.76 31.34 138.673 31.6267 138.673 31.96C138.673 32.4133 138.833 32.7733 139.153 33.04C139.487 33.3067 139.933 33.44 140.493 33.44C140.853 33.44 141.187 33.38 141.493 33.26C141.8 33.14 142.067 32.9867 142.293 32.8C142.52 32.6133 142.7 32.42 142.833 32.22C142.98 32.0067 143.053 31.7933 143.053 31.58V30.16ZM148.386 35C148.146 35 148.026 34.88 148.026 34.64V24.74C148.026 24.5133 148.119 24.4 148.306 24.4H150.286C150.472 24.4 150.566 24.5 150.566 24.7V25.74C150.566 25.82 150.586 25.8733 150.626 25.9C150.666 25.9133 150.719 25.8867 150.786 25.82C151.159 25.4867 151.519 25.2 151.866 24.96C152.226 24.72 152.592 24.5333 152.966 24.4C153.352 24.2533 153.759 24.18 154.186 24.18C154.932 24.18 155.546 24.3533 156.026 24.7C156.506 25.0467 156.839 25.4867 157.026 26.02C157.052 26.0733 157.092 26.0933 157.146 26.08C157.199 26.0667 157.252 26.0333 157.306 25.98C157.652 25.6333 158.019 25.3267 158.406 25.06C158.792 24.7933 159.192 24.5867 159.606 24.44C160.019 24.28 160.432 24.2 160.846 24.2C161.792 24.2 162.539 24.4867 163.086 25.06C163.632 25.62 163.906 26.3867 163.906 27.36V34.58C163.906 34.86 163.766 35 163.486 35H161.646C161.526 35 161.439 34.9733 161.386 34.92C161.332 34.8667 161.306 34.7733 161.306 34.64V27.76C161.306 27.24 161.172 26.84 160.906 26.56C160.652 26.2667 160.266 26.12 159.746 26.12C159.439 26.12 159.146 26.18 158.866 26.3C158.586 26.4067 158.332 26.5467 158.106 26.72C157.879 26.8933 157.679 27.0667 157.506 27.24C157.412 27.3333 157.346 27.4267 157.306 27.52C157.279 27.6 157.266 27.7 157.266 27.82V34.58C157.266 34.86 157.126 35 156.846 35H155.006C154.899 35 154.812 34.9733 154.746 34.92C154.692 34.8667 154.666 34.7733 154.666 34.64V27.76C154.666 27.24 154.539 26.84 154.286 26.56C154.032 26.2667 153.639 26.12 153.106 26.12C152.652 26.12 152.232 26.2333 151.846 26.46C151.472 26.6867 151.066 27.0267 150.626 27.48V34.6C150.626 34.8667 150.472 35 150.166 35H148.386ZM168.467 30.52C168.467 31.0667 168.594 31.56 168.847 32C169.1 32.4267 169.447 32.7667 169.887 33.02C170.34 33.26 170.834 33.38 171.367 33.38C171.914 33.38 172.407 33.2667 172.847 33.04C173.3 32.8133 173.727 32.4467 174.127 31.94C174.18 31.8733 174.227 31.84 174.267 31.84C174.307 31.8267 174.374 31.8467 174.467 31.9L175.687 32.44C175.86 32.52 175.88 32.64 175.747 32.8C175.347 33.3867 174.914 33.86 174.447 34.22C173.994 34.5667 173.487 34.82 172.927 34.98C172.38 35.1267 171.76 35.2 171.067 35.2C170.054 35.2 169.147 34.9733 168.347 34.52C167.547 34.0667 166.914 33.44 166.447 32.64C165.994 31.8267 165.767 30.8933 165.767 29.84C165.767 28.68 166 27.68 166.467 26.84C166.947 26 167.587 25.3533 168.387 24.9C169.187 24.4333 170.067 24.2 171.027 24.2C172.04 24.2 172.92 24.42 173.667 24.86C174.427 25.3 175.02 25.9333 175.447 26.76C175.874 27.5733 176.087 28.5667 176.087 29.74C176.087 29.8733 176.074 29.98 176.047 30.06C176.034 30.14 175.94 30.1867 175.767 30.2H168.687C168.607 30.2 168.547 30.2267 168.507 30.28C168.48 30.3333 168.467 30.4133 168.467 30.52ZM173.207 28.72C173.34 28.72 173.427 28.7067 173.467 28.68C173.52 28.64 173.547 28.56 173.547 28.44C173.547 28.0267 173.454 27.62 173.267 27.22C173.08 26.82 172.807 26.4933 172.447 26.24C172.087 25.9733 171.647 25.84 171.127 25.84C170.594 25.84 170.127 25.9733 169.727 26.24C169.327 26.4933 169.02 26.84 168.807 27.28C168.607 27.7067 168.507 28.1867 168.507 28.72H173.207Z" fill="black"/>
<path d="M5.68868 170.97C5.61255 171.579 7.32238 167.506 7.83199 166.616C12.931 157.708 17.2178 144.786 27.8213 141.708C37.2273 138.977 46.3924 135.21 55.6393 131.984" stroke="black" stroke-width="3" stroke-linecap="round"/>
<path d="M196.151 163.254C194.304 159.744 191.429 156.624 189.202 153.372C186.586 149.552 184.182 145.783 182.14 141.64C181.167 139.666 180.058 138.547 178.192 137.421C174.469 135.175 171.398 134.612 167.182 134.015C159.357 132.906 152.35 130.723 144.982 127.923" stroke="black" stroke-width="3" stroke-linecap="round"/>
<path d="M75.1323 125.08C75.6758 124.741 78.0256 122.383 76.7116 123.885C72.7811 128.377 66.6083 130.776 61.6406 133.834C59.1009 135.398 58.6992 135.207 59.7455 137.038C59.9956 137.475 61.789 138.069 62.1144 138.279C65.4571 140.432 68.17 142.28 72.064 143.355C76.0265 144.449 78.4027 146.482 76.8921 150.259C75.7879 153.019 68.468 162.549 71.2969 164.247C81.1796 170.176 85.7206 183.772 90.1581 193.712" stroke="black" stroke-width="3" stroke-linecap="round"/>
<path d="M133.611 121.425C133.245 121.38 133.228 119.909 135.078 122.08C136.426 123.663 137.675 125.321 138.936 126.976C139.945 128.3 147.615 136.292 146.651 138.256C146.509 138.546 144.466 139.337 144.147 139.542C141.352 141.339 138.424 142.729 135.371 144.054C134.279 144.528 133.178 144.98 132.077 145.431C131.322 145.74 130.019 145.587 129.821 146.378C129.683 146.931 130.947 146.687 131.4 147.032C133.927 148.962 136.241 151.221 138.575 153.372C139.402 154.135 142.06 155.959 142.455 157.343C143.434 160.77 140.059 167.161 138.868 170.045C134.336 181.025 127.651 191.107 121.834 201.428" stroke="black" stroke-width="3" stroke-linecap="round"/>
<path d="M89.3458 125.487C86.726 125.487 94.5924 125.406 97.1971 125.126C101.59 124.652 113.073 121.97 110.689 130.134C109.681 133.586 107.753 137.233 105.612 140.129C103.201 143.391 102.043 145.381 98.0996 142.001C95.7863 140.019 94.106 137.073 92.3916 134.601C91.4588 133.257 90.0466 131.26 89.233 129.796C87.8624 127.329 88.9397 128.088 88.9397 126.299" stroke="#E25151" stroke-width="3" stroke-linecap="round"/>
<path d="M93.0008 132.39C92.766 132.351 94.8849 130.858 95.1216 130.676C99.1962 127.541 96.8463 129.578 97.7612 132.323C98.42 134.299 103.446 123.851 101.755 131.488C101.31 133.495 101.679 136.873 103.514 133.857C105.356 130.831 98.7308 144.076 101.529 138.324C102.752 135.809 103.113 138.514 102.657 139.835C102.328 140.791 97.9418 136.295 97.6259 135.887C96.4489 134.37 96.6014 132.053 94.7831 131.172C91.8682 129.759 92.3897 128.43 95.6179 128.735C99.3314 129.087 101.939 129.891 104.891 127.156C108.283 124.012 104.548 132.094 104.146 133.609C103.909 134.504 103.304 140.726 101.664 138.956C99.6872 136.82 97.7061 135.113 95.5277 133.202C95.0918 132.82 92.0664 128.941 93.249 130.63C95.3784 133.672 98.2756 136.142 100.717 138.888" stroke="#E25151" stroke-width="3" stroke-linecap="round"/>
<path d="M97.4679 142.137C97.0035 141.7 96.6391 141.166 96.0691 141.776C92.5191 145.573 92.3335 149.84 92.8428 154.952C93.8197 164.754 96.4978 174.354 97.9191 184.101C98.5048 188.117 98.8177 192.01 100.311 195.742" stroke="#E25151" stroke-width="3" stroke-linecap="round"/>
<path d="M106.808 141.731C106.808 142.777 107.111 142.8 107.959 143.648C111.433 147.123 110.298 156.237 110.26 160.186C110.151 171.562 109.224 182.824 108.027 194.118" stroke="#E25151" stroke-width="3" stroke-linecap="round"/>
<path d="M98.2801 154.32C98.9419 153.41 99.8416 150.812 99.9496 149.762C100.096 148.343 97.3438 153.159 97.1069 153.643C96.4113 155.065 98.3537 150.622 98.2801 149.04C98.2231 147.814 96.9678 149.507 96.8813 149.853C96.8617 149.931 99.7155 148.964 100.22 149.492C101.726 151.064 99.4374 155.779 99.4533 157.704C99.4785 160.758 102.917 154.873 103.086 154.523C103.165 154.359 105.387 149.066 104.078 152.222C102.245 156.644 100.48 161.137 99.1375 165.736C98.7557 167.043 98.4395 170.209 99.1149 166.706C99.7498 163.413 100.039 160.055 101.303 156.914C103.372 151.775 98.4142 164.477 97.3551 164.36C96.07 164.217 100.184 149.75 101.484 148.499C101.983 148.018 101.445 149.888 101.348 150.575C100.756 154.782 100.973 152.893 100.401 157.569C100.048 160.452 98.1774 168.842 99.4533 166.232C100.858 163.359 101.79 160.233 103.198 157.343C105.27 153.094 104.45 156.566 103.74 158.832C102.233 163.64 100.477 168.366 99.1374 173.226C98.7228 174.731 100.605 170.467 101.213 169.03C107.762 153.545 99.6977 177.042 100.536 177.964C100.888 178.351 102.859 174.249 103.514 174.647C105.052 175.583 102.448 183.221 102.116 184.642C101.474 187.388 103.072 182.567 103.221 182.273C105.474 177.833 104.163 184.609 103.92 185.387C102.545 189.796 102.6 186.744 102.567 186.808C102.292 187.338 100.459 190.756 100.717 191.185C100.891 191.475 101.249 190.736 101.574 190.643C102.218 190.459 102.523 190.714 102.837 191.298C103.093 191.772 103.767 195.355 103.153 192.9" stroke="#E25151" stroke-width="3" stroke-linecap="round"/>
<path d="M70 121.162C70 125.195 73.1003 113.575 73.8234 109.599C75.7979 98.7417 77.4046 86.9852 74.0926 76.2096C73.2204 73.3717 72.0944 70.828 71.454 68" stroke="#FFCA7B" stroke-width="3" stroke-linecap="round"/>
<path d="M131 114C130.226 113.967 129.725 113.682 129.02 113.52C128.722 113.452 128.265 113.07 128.164 112.788C123.33 99.233 122.503 83.0375 120 69" stroke="#FFCA7B" stroke-width="3" stroke-linecap="round"/>
<path d="M78 69.8982C73.6503 80.5414 49.0919 61.0771 54.8773 52.3658C56.1446 50.4577 59.333 50.8118 61.2595 51.8338C61.5402 51.9827 61.0047 51.9358 61.1582 51.4227C61.3515 50.7766 62.6498 51.4991 62.9563 51.6161" stroke="#FFCA7B" stroke-width="3" stroke-linecap="round"/>
<path d="M117.696 47.6807C114.346 48.4838 125.913 46.9838 127.083 47.0001C135.267 47.1145 135.186 51.2514 131.979 57.7381C128.451 64.8711 123.21 71.0172 114.769 69.4843C113.813 69.3107 112.467 71.0965 113.053 71.8285C113.305 72.1436 113.219 73.2423 113.255 73.5929C113.881 79.7604 114.4 86.0126 114.92 92.1952C115.54 99.5612 116.488 109.522 112.271 116.116C109.367 120.655 101.189 120.769 96.3733 120.981C91.3813 121.201 86.6963 119.497 82.6459 116.62C79.3756 114.297 81.5389 108.915 81.9646 105.706C82.893 98.7082 82.1356 92.56 78.8356 86.297C76.9822 82.7794 75 80.2788 75 76.2648" stroke="#FFCA7B" stroke-width="3" stroke-linecap="round"/>
<path d="M65.9529 52C65.4004 51.42 66.1382 51.5631 66.339 50.9868C66.759 49.7812 65.1534 49.6463 64.4638 49.0616C60.162 45.4141 66.3481 37.9174 70.0894 42.3743C72.2369 44.9325 70.2891 49.0089 67.3318 50.0749C64.8812 50.9582 64.814 49.257 63.471 48.3524" stroke="#CC9966" stroke-width="3" stroke-linecap="round"/>
<path d="M112 53C111.317 52.4693 110.474 52.43 109.768 51.9912C106.133 49.7342 103.515 41.4804 105.941 37.8934C108.297 34.41 110.681 42.1666 110.724 43.1895C110.91 47.537 108.963 48.5001 105.782 50.2763" stroke="#CC9966" stroke-width="3" stroke-linecap="round"/>
<path d="M88.5778 112C88.4326 111.993 87.9513 112.025 88.1164 111.553C88.2582 111.148 88.5873 110.641 88.7744 110.342C88.8432 110.232 89.054 109.911 88.987 110.024C88.6749 110.55 88.3254 111.01 88 111.513" stroke="#CC9966" stroke-width="3" stroke-linecap="round"/>
<path d="M107 111.98C105.488 112.24 106.816 109.871 105.961 110.005C105.635 110.057 105.006 110.423 105 110.753C104.993 111.115 105.702 111.111 105.948 111.177" stroke="#CC9966" stroke-width="3" stroke-linecap="round"/>
<path d="M120.267 112.997C119.504 111.823 120.565 109.228 121.103 108.199C121.571 107.307 122.127 106.528 122.222 105.476C122.368 103.853 122.195 102.17 122.098 100.546C122.084 100.317 121.954 99.6164 121.94 100.276C121.911 101.612 121.799 102.932 121.736 104.268C121.638 106.354 121.726 108.368 121.448 110.454C121.212 112.224 121.203 113.161 122.29 114.5C123.046 115.432 125.307 116.21 126.454 115.949C127.82 115.637 126.237 114.775 125.883 114.488C125.565 114.23 125.562 113.857 125.442 113.484C125.214 112.771 124.83 112.065 124.471 111.422C124.087 110.735 123.547 110.14 123.194 109.438C122.761 108.577 122.879 107.552 122.911 106.612" stroke="#CC9966" stroke-width="3" stroke-linecap="round"/>
<path d="M75.6422 120.111C75.6617 120.262 75.7711 120.164 75.8592 120.111C76.4996 119.724 77.9976 120.462 78.4101 120.61C79.9602 121.169 81.9255 121.956 83.3596 122.744C84.2888 123.255 85.8429 124.103 85.9927 125.321C86.0781 126.015 85.397 125.966 84.9078 125.979C81.9761 126.059 78.4929 125.999 76.1113 124.14C75.4351 123.613 74.7743 123.451 74.0764 123.051C73.6244 122.791 75.3202 121.637 75.4311 121.541" stroke="#CC9966" stroke-width="3" stroke-linecap="round"/>
<path d="M76 122C76.2131 122 76.2001 122 77 122" stroke="#CC9966" stroke-width="3" stroke-linecap="round"/>
<path d="M77.1887 121.061C76.2521 120.735 79.0584 121.821 80 122" stroke="#CC9966" stroke-width="3" stroke-linecap="round"/>
<path d="M111 86.8025C110.093 86.6946 107.806 85.3623 108.402 84.1973C108.778 83.4608 109.584 85.0043 109.621 85.2668C109.737 86.0745 108.927 86.1117 108.453 85.5849C108.334 85.4524 108.239 84.9267 108.345 85.0694C108.62 85.4403 107.028 86.9577 107 87" stroke="#CC9966" stroke-width="3" stroke-linecap="round"/>
<path d="M109.79 87.1773C107.191 88.694 106.338 81.7739 107.526 80.16C107.954 79.5795 109.272 78.805 110.014 79.0448C111.445 79.5067 112.334 82.6003 112.703 83.8566C113.145 85.3656 113.166 86.8959 112.266 88.2174C111.697 89.054 110.932 89.2315 110.109 88.6935C109.044 87.9983 108.162 86.8207 107.349 85.824" stroke="#CC9966" stroke-width="3" stroke-linecap="round"/>
<path d="M115.767 66.2943C115.723 66.5157 115.405 66.6598 115.244 66.5034C114.275 65.5609 116.432 62.9684 117.56 64.445C117.79 64.7461 118.38 67.3703 118.624 66.6994C118.874 66.0131 119.642 66.7468 120 67" stroke="#CC9966" stroke-width="3" stroke-linecap="round"/>
<path d="M80.1909 68.1764C78.8975 67.0703 84.5746 64.217 85.2275 64.0838C87.3706 63.6462 88.6843 64.9785 89.4931 66.7812C89.8276 67.5267 90.4405 69.2536 89.4988 69.8797C89.4949 69.8823 88.9602 70.1452 88.9849 69.8855C88.9969 69.7591 89.4726 69.9918 89.3503 69.9669C89.0327 69.9022 88.8874 69.498 88.6137 69.3216C87.2589 68.4485 85.7192 67.7412 84.1825 67.2811C82.9061 66.8989 82.1793 67.0531 81.0304 67.5892C80.0356 68.0534 80.0598 67.8104 80.8077 67.0951C81.7954 66.1502 83.2262 64.6362 84.6907 64.607C85.0407 64.6 85.0648 64.8147 84.9191 65.0372" stroke="#CC9966" stroke-width="3" stroke-linecap="round"/>
<path d="M82.1417 75C81.6472 74.8441 82.5972 74.2077 82.7064 74.1774C83.5323 73.9485 84.5286 73.9913 85.361 74.0335C85.7917 74.0553 86.2227 74.0914 86.6476 74.1569C87.5667 74.2985 86.3921 74.3342 86.438 74.3522" stroke="black" stroke-width="3" stroke-linecap="round"/>
<path d="M101.543 75.3183C101.338 75.3029 100.675 75.1155 101.195 74.826C102.267 74.2292 103.565 73.8668 104.714 74.0459C105.895 74.2299 105.964 74.7682 106 76" stroke="black" stroke-width="3" stroke-linecap="round"/>
<path d="M74.383 51C67.5105 51 88.1317 51 95 51" stroke="#FFCA7B" stroke-width="3" stroke-linecap="round"/>
<path d="M60.0166 60.2299C59.868 60.189 60.7573 59.3385 61.061 59.3764C61.9659 59.4896 61.8812 60.1272 63.0269 59.5708C64.0138 59.0915 64.9147 58.1242 65.7096 57.4921C66.0099 57.2533 66.9051 56.777 66.8768 57.1204C66.7617 58.5204 65.5994 59.8291 65.2693 61.2016C64.85 62.9451 68.7355 61.3184 69.6312 61.1255C71.9383 60.6289 74.0157 60.0132 76.1945 59.2159C77.2495 58.8298 77.9252 58.5568 79 58.5568" stroke="#FFCA7B" stroke-width="3" stroke-linecap="round"/>
<path d="M101 59C105.441 56.7044 110.017 59.5624 114.653 58.1071C116.334 57.5796 117.857 56.7174 119.61 56.4643C121.13 56.2448 121.367 56.362 122.815 56.5238C124.411 56.7021 125.454 56.2022 127 56" stroke="#FFCA7B" stroke-width="3" stroke-linecap="round"/>
<path d="M85.6565 93.6664C85.4503 93.7714 84.8807 94.1334 85.0223 93.948C87.0319 91.3175 89.0357 88.6745 91 86" stroke="#FFCA7B" stroke-width="3" stroke-linecap="round"/>
<path d="M88.063 104C88.0509 103.874 87.9805 103.794 88.0052 103.658C88.073 103.287 88.2808 102.918 88.4217 102.613C90.2209 98.7043 92.1398 94.8695 94 91" stroke="#FFCA7B" stroke-width="3" stroke-linecap="round"/>
<path d="M106.739 102.993C106.957 103.021 107.03 102.966 106.989 102.726C106.696 101.028 105.989 99.3329 105.47 97.7021C104.427 94.4263 103.445 91.1186 102 88" stroke="#FFCA7B" stroke-width="3" stroke-linecap="round"/>
</svg>
