<svg width="204" height="204" viewBox="0 0 204 204" fill="none" xmlns="http://www.w3.org/2000/svg">
<rect x="0.5" y="0.5" width="203" height="203" fill="#EDE7E2" stroke="black"/>
<path d="M43.7271 23.4C43.4071 23.0533 43.0138 22.7467 42.5471 22.48C42.0804 22.2133 41.4404 22.08 40.6271 22.08C39.7338 22.08 39.0538 22.2533 38.5871 22.6C38.1204 22.9467 37.8871 23.4067 37.8871 23.98C37.8871 24.1667 37.9271 24.3667 38.0071 24.58C38.1004 24.7933 38.2738 25.0067 38.5271 25.22C38.7938 25.42 39.1738 25.6 39.6671 25.76L42.7471 26.68C43.9738 27.04 44.8538 27.58 45.3871 28.3C45.9338 29.0067 46.2071 29.8333 46.2071 30.78C46.2071 31.6867 45.9738 32.4733 45.5071 33.14C45.0404 33.8067 44.3804 34.32 43.5271 34.68C42.6738 35.0267 41.6538 35.2 40.4671 35.2C39.6004 35.2 38.7871 35.1 38.0271 34.9C37.2804 34.7 36.6138 34.4067 36.0271 34.02C35.4538 33.6333 34.9871 33.1733 34.6271 32.64C34.5604 32.5333 34.5338 32.44 34.5471 32.36C34.5738 32.2667 34.6404 32.18 34.7471 32.1L36.0071 31.22C36.1671 31.1267 36.2871 31.0867 36.3671 31.1C36.4604 31.1133 36.5404 31.16 36.6071 31.24C36.9404 31.6667 37.2671 32.02 37.5871 32.3C37.9204 32.5667 38.3004 32.7667 38.7271 32.9C39.1538 33.0333 39.6738 33.1 40.2871 33.1C41.2204 33.1 41.9671 32.9467 42.5271 32.64C43.0871 32.32 43.3671 31.8267 43.3671 31.16C43.3671 30.8933 43.3071 30.6533 43.1871 30.44C43.0804 30.2133 42.8938 30.0067 42.6271 29.82C42.3738 29.6333 42.0004 29.46 41.5071 29.3L38.4871 28.38C37.7138 28.14 37.0738 27.82 36.5671 27.42C36.0738 27.0067 35.7004 26.5333 35.4471 26C35.1938 25.4667 35.0671 24.9133 35.0671 24.34C35.0671 23.4867 35.2938 22.7333 35.7471 22.08C36.2004 21.4133 36.8404 20.8933 37.6671 20.52C38.4938 20.1467 39.4604 19.96 40.5671 19.96C41.2871 19.96 41.9604 20.0467 42.5871 20.22C43.2271 20.38 43.8004 20.6133 44.3071 20.92C44.8271 21.2267 45.2538 21.5933 45.5871 22.02C45.6404 22.0867 45.6804 22.16 45.7071 22.24C45.7338 22.3067 45.6938 22.3867 45.5871 22.48L44.1671 23.54C44.1004 23.5933 44.0338 23.6133 43.9671 23.6C43.9138 23.5733 43.8338 23.5067 43.7271 23.4ZM54.1879 33.9C53.7346 34.3 53.2412 34.62 52.7079 34.86C52.1746 35.0867 51.5679 35.2 50.8879 35.2C49.8612 35.2 49.0546 34.9333 48.4679 34.4C47.8946 33.8533 47.6079 33.1467 47.6079 32.28C47.6079 31.5467 47.8279 30.9133 48.2679 30.38C48.7079 29.8333 49.3479 29.4067 50.1879 29.1C51.0279 28.7933 52.0346 28.6133 53.2079 28.56L54.2079 28.5C54.2879 28.4867 54.3612 28.46 54.4279 28.42C54.4946 28.38 54.5279 28.3067 54.5279 28.2V27.74C54.5279 27.1533 54.3546 26.7 54.0079 26.38C53.6612 26.0467 53.1812 25.88 52.5679 25.88C52.1012 25.88 51.6612 25.9867 51.2479 26.2C50.8479 26.4 50.5012 26.7333 50.2079 27.2C50.1679 27.28 50.1212 27.3333 50.0679 27.36C50.0279 27.3867 49.9479 27.3867 49.8279 27.36L48.1479 26.94C48.0812 26.9133 48.0279 26.8733 47.9879 26.82C47.9612 26.7667 47.9879 26.66 48.0679 26.5C48.4279 25.74 48.9946 25.1667 49.7679 24.78C50.5546 24.3933 51.5279 24.2 52.6879 24.2C53.7146 24.2 54.5412 24.34 55.1679 24.62C55.8079 24.9 56.2746 25.2933 56.5679 25.8C56.8612 26.2933 57.0079 26.88 57.0079 27.56V34.6C57.0079 34.7467 56.9812 34.8533 56.9279 34.92C56.8879 34.9733 56.8012 35 56.6679 35H54.9679C54.8479 35 54.7612 34.9533 54.7079 34.86C54.6546 34.7667 54.6212 34.6533 54.6079 34.52L54.5679 33.92C54.5412 33.6933 54.4146 33.6867 54.1879 33.9ZM54.5279 30.16C54.5279 29.92 54.4279 29.8067 54.2279 29.82L53.4079 29.88C52.9812 29.9067 52.5679 29.9733 52.1679 30.08C51.7812 30.1733 51.4346 30.3067 51.1279 30.48C50.8346 30.64 50.5946 30.8467 50.4079 31.1C50.2346 31.34 50.1479 31.6267 50.1479 31.96C50.1479 32.4133 50.3079 32.7733 50.6279 33.04C50.9612 33.3067 51.4079 33.44 51.9679 33.44C52.3279 33.44 52.6612 33.38 52.9679 33.26C53.2746 33.14 53.5412 32.9867 53.7679 32.8C53.9946 32.6133 54.1746 32.42 54.3079 32.22C54.4546 32.0067 54.5279 31.7933 54.5279 31.58V30.16ZM62.1002 34.56C62.1002 34.72 62.0669 34.8333 62.0002 34.9C61.9336 34.9667 61.8136 35 61.6402 35H59.8802C59.6136 35 59.4802 34.88 59.4802 34.64L59.5402 20.5C59.5402 20.2733 59.6402 20.16 59.8402 20.16H61.8202C62.0069 20.16 62.1002 20.2667 62.1002 20.48V34.56ZM70.477 33.9C70.0236 34.3 69.5303 34.62 68.997 34.86C68.4636 35.0867 67.857 35.2 67.177 35.2C66.1503 35.2 65.3436 34.9333 64.757 34.4C64.1836 33.8533 63.897 33.1467 63.897 32.28C63.897 31.5467 64.117 30.9133 64.557 30.38C64.997 29.8333 65.637 29.4067 66.477 29.1C67.317 28.7933 68.3236 28.6133 69.497 28.56L70.497 28.5C70.577 28.4867 70.6503 28.46 70.717 28.42C70.7836 28.38 70.817 28.3067 70.817 28.2V27.74C70.817 27.1533 70.6436 26.7 70.297 26.38C69.9503 26.0467 69.4703 25.88 68.857 25.88C68.3903 25.88 67.9503 25.9867 67.537 26.2C67.137 26.4 66.7903 26.7333 66.497 27.2C66.457 27.28 66.4103 27.3333 66.357 27.36C66.317 27.3867 66.237 27.3867 66.117 27.36L64.437 26.94C64.3703 26.9133 64.317 26.8733 64.277 26.82C64.2503 26.7667 64.277 26.66 64.357 26.5C64.717 25.74 65.2836 25.1667 66.057 24.78C66.8436 24.3933 67.817 24.2 68.977 24.2C70.0036 24.2 70.8303 24.34 71.457 24.62C72.097 24.9 72.5636 25.2933 72.857 25.8C73.1503 26.2933 73.297 26.88 73.297 27.56V34.6C73.297 34.7467 73.2703 34.8533 73.217 34.92C73.177 34.9733 73.0903 35 72.957 35H71.257C71.137 35 71.0503 34.9533 70.997 34.86C70.9436 34.7667 70.9103 34.6533 70.897 34.52L70.857 33.92C70.8303 33.6933 70.7036 33.6867 70.477 33.9ZM70.817 30.16C70.817 29.92 70.717 29.8067 70.517 29.82L69.697 29.88C69.2703 29.9067 68.857 29.9733 68.457 30.08C68.0703 30.1733 67.7236 30.3067 67.417 30.48C67.1236 30.64 66.8836 30.8467 66.697 31.1C66.5236 31.34 66.437 31.6267 66.437 31.96C66.437 32.4133 66.597 32.7733 66.917 33.04C67.2503 33.3067 67.697 33.44 68.257 33.44C68.617 33.44 68.9503 33.38 69.257 33.26C69.5636 33.14 69.8303 32.9867 70.057 32.8C70.2836 32.6133 70.4636 32.42 70.597 32.22C70.7436 32.0067 70.817 31.7933 70.817 31.58V30.16ZM76.1493 35C75.9093 35 75.7893 34.88 75.7893 34.64V24.74C75.7893 24.5133 75.8826 24.4 76.0693 24.4H78.0493C78.236 24.4 78.3293 24.5 78.3293 24.7V25.74C78.3293 25.82 78.3493 25.8733 78.3893 25.9C78.4293 25.9133 78.4826 25.8867 78.5493 25.82C78.9226 25.4867 79.2826 25.2 79.6293 24.96C79.9893 24.72 80.356 24.5333 80.7293 24.4C81.116 24.2533 81.5226 24.18 81.9493 24.18C82.696 24.18 83.3093 24.3533 83.7893 24.7C84.2693 25.0467 84.6026 25.4867 84.7893 26.02C84.816 26.0733 84.856 26.0933 84.9093 26.08C84.9626 26.0667 85.016 26.0333 85.0693 25.98C85.416 25.6333 85.7826 25.3267 86.1693 25.06C86.556 24.7933 86.956 24.5867 87.3693 24.44C87.7826 24.28 88.196 24.2 88.6093 24.2C89.556 24.2 90.3026 24.4867 90.8493 25.06C91.396 25.62 91.6693 26.3867 91.6693 27.36V34.58C91.6693 34.86 91.5293 35 91.2493 35H89.4093C89.2893 35 89.2026 34.9733 89.1493 34.92C89.096 34.8667 89.0693 34.7733 89.0693 34.64V27.76C89.0693 27.24 88.936 26.84 88.6693 26.56C88.416 26.2667 88.0293 26.12 87.5093 26.12C87.2026 26.12 86.9093 26.18 86.6293 26.3C86.3493 26.4067 86.096 26.5467 85.8693 26.72C85.6426 26.8933 85.4426 27.0667 85.2693 27.24C85.176 27.3333 85.1093 27.4267 85.0693 27.52C85.0426 27.6 85.0293 27.7 85.0293 27.82V34.58C85.0293 34.86 84.8893 35 84.6093 35H82.7693C82.6626 35 82.576 34.9733 82.5093 34.92C82.456 34.8667 82.4293 34.7733 82.4293 34.64V27.76C82.4293 27.24 82.3026 26.84 82.0493 26.56C81.796 26.2667 81.4026 26.12 80.8693 26.12C80.416 26.12 79.996 26.2333 79.6093 26.46C79.236 26.6867 78.8293 27.0267 78.3893 27.48V34.6C78.3893 34.8667 78.236 35 77.9293 35H76.1493ZM96.6705 34.56C96.6705 34.72 96.6305 34.8333 96.5505 34.9C96.4839 34.9667 96.3639 35 96.1905 35H94.4505C94.3039 35 94.2039 34.9733 94.1505 34.92C94.0972 34.8533 94.0705 34.76 94.0705 34.64V24.74C94.0705 24.5133 94.1705 24.4 94.3705 24.4H96.3905C96.5772 24.4 96.6705 24.5067 96.6705 24.72V34.56ZM96.7105 22.44C96.7105 22.7467 96.5505 22.9 96.2305 22.9H94.4105C94.2639 22.9 94.1639 22.8667 94.1105 22.8C94.0572 22.7333 94.0305 22.6333 94.0305 22.5V20.54C94.0305 20.2867 94.1372 20.16 94.3505 20.16H96.4105C96.6105 20.16 96.7105 20.2733 96.7105 20.5V22.44ZM102.827 20.48C102.827 20.3867 102.854 20.3133 102.907 20.26C102.961 20.1933 103.047 20.16 103.167 20.16H114.407C114.527 20.16 114.614 20.1933 114.667 20.26C114.721 20.3133 114.747 20.3867 114.747 20.48V22.04C114.747 22.2267 114.641 22.32 114.427 22.32H110.587C110.441 22.32 110.367 22.3867 110.367 22.52V34.66C110.367 34.8867 110.267 35 110.067 35H107.687C107.501 35 107.407 34.8933 107.407 34.68V22.56C107.407 22.4 107.334 22.32 107.187 22.32H103.167C102.941 22.32 102.827 22.2267 102.827 22.04V20.48ZM120.614 33.9C120.16 34.3 119.667 34.62 119.134 34.86C118.6 35.0867 117.994 35.2 117.314 35.2C116.287 35.2 115.48 34.9333 114.894 34.4C114.32 33.8533 114.034 33.1467 114.034 32.28C114.034 31.5467 114.254 30.9133 114.694 30.38C115.134 29.8333 115.774 29.4067 116.614 29.1C117.454 28.7933 118.46 28.6133 119.634 28.56L120.634 28.5C120.714 28.4867 120.787 28.46 120.854 28.42C120.92 28.38 120.954 28.3067 120.954 28.2V27.74C120.954 27.1533 120.78 26.7 120.434 26.38C120.087 26.0467 119.607 25.88 118.994 25.88C118.527 25.88 118.087 25.9867 117.674 26.2C117.274 26.4 116.927 26.7333 116.634 27.2C116.594 27.28 116.547 27.3333 116.494 27.36C116.454 27.3867 116.374 27.3867 116.254 27.36L114.574 26.94C114.507 26.9133 114.454 26.8733 114.414 26.82C114.387 26.7667 114.414 26.66 114.494 26.5C114.854 25.74 115.42 25.1667 116.194 24.78C116.98 24.3933 117.954 24.2 119.114 24.2C120.14 24.2 120.967 24.34 121.594 24.62C122.234 24.9 122.7 25.2933 122.994 25.8C123.287 26.2933 123.434 26.88 123.434 27.56V34.6C123.434 34.7467 123.407 34.8533 123.354 34.92C123.314 34.9733 123.227 35 123.094 35H121.394C121.274 35 121.187 34.9533 121.134 34.86C121.08 34.7667 121.047 34.6533 121.034 34.52L120.994 33.92C120.967 33.6933 120.84 33.6867 120.614 33.9ZM120.954 30.16C120.954 29.92 120.854 29.8067 120.654 29.82L119.834 29.88C119.407 29.9067 118.994 29.9733 118.594 30.08C118.207 30.1733 117.86 30.3067 117.554 30.48C117.26 30.64 117.02 30.8467 116.834 31.1C116.66 31.34 116.574 31.6267 116.574 31.96C116.574 32.4133 116.734 32.7733 117.054 33.04C117.387 33.3067 117.834 33.44 118.394 33.44C118.754 33.44 119.087 33.38 119.394 33.26C119.7 33.14 119.967 32.9867 120.194 32.8C120.42 32.6133 120.6 32.42 120.734 32.22C120.88 32.0067 120.954 31.7933 120.954 31.58V30.16ZM130.606 24.2C131.406 24.2 132.099 24.34 132.686 24.62C133.273 24.8867 133.753 25.24 134.126 25.68C134.513 26.1067 134.806 26.56 135.006 27.04C135.086 27.28 135.019 27.4067 134.806 27.42L133.046 27.64C132.913 27.6667 132.819 27.6067 132.766 27.46C132.593 27.1667 132.413 26.9067 132.226 26.68C132.039 26.4533 131.826 26.2733 131.586 26.14C131.346 26.0067 131.053 25.94 130.706 25.94C130.173 25.94 129.699 26.0867 129.286 26.38C128.886 26.66 128.573 27.08 128.346 27.64C128.133 28.2 128.026 28.8867 128.026 29.7C128.026 30.5267 128.139 31.22 128.366 31.78C128.606 32.34 128.933 32.7667 129.346 33.06C129.759 33.34 130.253 33.48 130.826 33.48C131.426 33.48 131.919 33.3267 132.306 33.02C132.693 32.7 133.053 32.26 133.386 31.7C133.426 31.6467 133.466 31.6133 133.506 31.6C133.546 31.5867 133.613 31.5933 133.706 31.62L134.966 31.96C135.099 32 135.139 32.1133 135.086 32.3C134.953 32.6067 134.759 32.9333 134.506 33.28C134.266 33.6267 133.966 33.9467 133.606 34.24C133.246 34.52 132.813 34.7533 132.306 34.94C131.813 35.1133 131.246 35.2 130.606 35.2C129.593 35.2 128.693 34.9733 127.906 34.52C127.119 34.0533 126.499 33.4133 126.046 32.6C125.606 31.7733 125.386 30.82 125.386 29.74C125.386 28.6467 125.613 27.6867 126.066 26.86C126.519 26.02 127.139 25.3667 127.926 24.9C128.713 24.4333 129.606 24.2 130.606 24.2ZM140.451 26.22C140.317 26.22 140.251 26.2933 140.251 26.44V31.78C140.251 32.3 140.357 32.66 140.571 32.86C140.784 33.06 141.117 33.16 141.571 33.16H142.751C142.831 33.16 142.897 33.1867 142.951 33.24C143.004 33.2933 143.031 33.36 143.031 33.44L143.011 34.48C143.011 34.6933 142.884 34.8267 142.631 34.88C142.431 34.9067 142.197 34.9333 141.931 34.96C141.664 34.9733 141.397 34.9867 141.131 35C140.877 35 140.644 35 140.431 35C139.537 35 138.851 34.7933 138.371 34.38C137.891 33.9533 137.651 33.3133 137.651 32.46V26.48C137.651 26.3067 137.571 26.22 137.411 26.22H136.071C135.857 26.22 135.751 26.12 135.751 25.92V24.66C135.751 24.4867 135.851 24.4 136.051 24.4H137.531C137.651 24.4 137.711 24.3333 137.711 24.2L137.971 21.12C137.984 20.9067 138.077 20.8 138.251 20.8H140.031C140.217 20.8 140.311 20.9133 140.311 21.14V24.2C140.311 24.32 140.371 24.38 140.491 24.38H142.751C142.951 24.38 143.051 24.4733 143.051 24.66V25.92C143.051 26.12 142.937 26.22 142.711 26.22H140.451ZM147.51 34.56C147.51 34.72 147.47 34.8333 147.39 34.9C147.324 34.9667 147.204 35 147.03 35H145.29C145.144 35 145.044 34.9733 144.99 34.92C144.937 34.8533 144.91 34.76 144.91 34.64V24.74C144.91 24.5133 145.01 24.4 145.21 24.4H147.23C147.417 24.4 147.51 24.5067 147.51 24.72V34.56ZM147.55 22.44C147.55 22.7467 147.39 22.9 147.07 22.9H145.25C145.104 22.9 145.004 22.8667 144.95 22.8C144.897 22.7333 144.87 22.6333 144.87 22.5V20.54C144.87 20.2867 144.977 20.16 145.19 20.16H147.25C147.45 20.16 147.55 20.2733 147.55 20.5V22.44ZM154.708 24.2C155.508 24.2 156.201 24.34 156.788 24.62C157.374 24.8867 157.854 25.24 158.228 25.68C158.614 26.1067 158.908 26.56 159.108 27.04C159.188 27.28 159.121 27.4067 158.908 27.42L157.148 27.64C157.014 27.6667 156.921 27.6067 156.868 27.46C156.694 27.1667 156.514 26.9067 156.328 26.68C156.141 26.4533 155.928 26.2733 155.688 26.14C155.448 26.0067 155.154 25.94 154.808 25.94C154.274 25.94 153.801 26.0867 153.388 26.38C152.988 26.66 152.674 27.08 152.448 27.64C152.234 28.2 152.128 28.8867 152.128 29.7C152.128 30.5267 152.241 31.22 152.468 31.78C152.708 32.34 153.034 32.7667 153.448 33.06C153.861 33.34 154.354 33.48 154.928 33.48C155.528 33.48 156.021 33.3267 156.408 33.02C156.794 32.7 157.154 32.26 157.488 31.7C157.528 31.6467 157.568 31.6133 157.608 31.6C157.648 31.5867 157.714 31.5933 157.808 31.62L159.068 31.96C159.201 32 159.241 32.1133 159.188 32.3C159.054 32.6067 158.861 32.9333 158.608 33.28C158.368 33.6267 158.068 33.9467 157.708 34.24C157.348 34.52 156.914 34.7533 156.408 34.94C155.914 35.1133 155.348 35.2 154.708 35.2C153.694 35.2 152.794 34.9733 152.008 34.52C151.221 34.0533 150.601 33.4133 150.148 32.6C149.708 31.7733 149.488 30.82 149.488 29.74C149.488 28.6467 149.714 27.6867 150.168 26.86C150.621 26.02 151.241 25.3667 152.028 24.9C152.814 24.4333 153.708 24.2 154.708 24.2ZM167.465 27.02C167.211 26.6867 166.878 26.4067 166.465 26.18C166.051 25.9533 165.545 25.84 164.945 25.84C164.371 25.84 163.891 25.9533 163.505 26.18C163.118 26.4067 162.925 26.7267 162.925 27.14C162.925 27.34 163.005 27.5333 163.165 27.72C163.325 27.9067 163.678 28.0733 164.225 28.22L166.605 28.86C167.645 29.1133 168.385 29.5133 168.825 30.06C169.278 30.5933 169.505 31.2 169.505 31.88C169.505 32.5733 169.305 33.1667 168.905 33.66C168.518 34.1533 167.971 34.5333 167.265 34.8C166.571 35.0667 165.778 35.2 164.885 35.2C163.738 35.2 162.758 34.9933 161.945 34.58C161.131 34.1533 160.558 33.6267 160.225 33C160.185 32.92 160.165 32.8467 160.165 32.78C160.165 32.7 160.198 32.6333 160.265 32.58L161.445 31.98C161.551 31.9133 161.638 31.8867 161.705 31.9C161.771 31.9133 161.825 31.9467 161.865 32C162.065 32.28 162.291 32.5333 162.545 32.76C162.811 32.9867 163.131 33.1667 163.505 33.3C163.891 33.4333 164.358 33.4933 164.905 33.48C165.318 33.48 165.691 33.4267 166.025 33.32C166.371 33.2133 166.645 33.0667 166.845 32.88C167.045 32.68 167.145 32.44 167.145 32.16C167.145 31.8933 167.031 31.66 166.805 31.46C166.578 31.26 166.171 31.0867 165.585 30.94L163.545 30.46C162.531 30.22 161.785 29.86 161.305 29.38C160.838 28.9 160.605 28.3 160.605 27.58C160.605 26.9133 160.778 26.3267 161.125 25.82C161.485 25.3133 161.991 24.92 162.645 24.64C163.298 24.3467 164.071 24.2 164.965 24.2C165.951 24.2 166.805 24.38 167.525 24.74C168.245 25.1 168.771 25.5467 169.105 26.08C169.158 26.1467 169.191 26.22 169.205 26.3C169.231 26.38 169.198 26.4467 169.105 26.5L167.865 27.12C167.785 27.16 167.711 27.1733 167.645 27.16C167.578 27.1333 167.518 27.0867 167.465 27.02Z" fill="black"/>
<path d="M102.976 84.8905C102.855 83.8018 100.931 84.5474 100.546 84.7071C86.3592 90.5942 75.4422 103.731 78.739 119.855C82.7691 139.567 108.724 117.063 114.071 109.983C119.483 102.816 119.091 95.2943 110.525 91.6757C106.214 89.8542 101.49 89.7197 96.9244 89.2917" stroke="#E67D7D" stroke-width="3" stroke-linecap="round"/>
<path d="M72.4428 137.705C73.8524 131.261 62.8283 134.048 60.1409 134.984C53.8717 137.17 46.6564 141.237 43.5906 147.485C39.8653 155.078 49.6645 157.6 55.0826 158.289C64.1322 159.441 73.5905 158.353 82.0246 154.82C87.6341 152.471 97.6477 146.353 90.7505 139.569C82.8022 131.751 67.944 136.02 58.6891 138.53" stroke="#E67D7D" stroke-width="3" stroke-linecap="round"/>
<path d="M48.5114 149.808C47.7787 150.492 48.7809 149.6 49.245 149.411C50.2628 148.994 50.9391 148.818 52.118 148.891C53.0282 148.948 54.5275 149.094 55.3883 149.563C62.0406 153.192 52.6301 148.327 55.6634 150.45C56.3986 150.964 68.493 139.874 65.6883 148.524C65.4461 149.271 64.1543 151.18 64.7714 150.694C66.562 149.285 68.0599 147.533 69.8144 146.079C71.8163 144.42 74.8958 142.016 77.2719 140.73C77.9801 140.347 79.9053 139.895 79.6865 140.669C78.512 144.827 73.5099 148.799 70.823 152.009C67.8434 155.568 74.5578 150.187 74.7046 150.083C78.4483 147.433 82.0383 144.505 85.8909 142.014C87.9594 140.677 87.7098 141.831 86.7773 143.328C84.3264 147.263 73.963 156.637 77.6387 153.812C80.7346 151.433 83.721 148.924 86.9301 146.69C90.7247 144.05 88.9561 146.078 87.0676 147.913C84.1757 150.723 77.4332 158.584 73.1 154.331C69.3782 150.678 65.9425 155.001 61.715 154.026C59.7984 153.583 65.9471 147.522 65.9939 147.47C66.4289 146.984 69.4922 143.657 70.1964 142.671C70.4709 142.287 69.2503 142.885 68.8669 143.16C63.5743 146.966 58.4844 151.029 52.9432 154.484C48.353 157.346 55.2658 149.65 55.9537 148.815C57.6266 146.783 59.251 144.729 61.1801 142.931C61.5594 142.578 62.5357 141.494 62.0359 141.632C58.906 142.496 56.1211 145.291 53.6003 147.164C53.4885 147.247 49.8319 149.511 49.8562 149.441C50.0317 148.937 51.3571 147.575 51.3844 147.546C53.9463 144.834 56.7938 142.45 59.5144 139.905" stroke="#E67D7D" stroke-width="3" stroke-linecap="round"/>
<path d="M102.701 89.2917C105.113 89.0505 107.058 88.358 109.486 87.4579C118.316 84.1852 126.974 80.4426 135.832 77.2496C139.526 75.9181 146.59 72.8794 150.121 76.1035C155.555 81.067 159.682 91.1495 159.595 98.4456C159.523 104.559 154.143 108.904 149.234 111.542C142.311 115.262 134.409 116.606 126.77 118.006C116.785 119.837 107.041 122.041 97.1995 124.501" stroke="#E67D7D" stroke-width="3" stroke-linecap="round"/>
<path d="M116.73 92.0424C116.805 91.3673 117.582 90.5907 118.029 90.2085C120.142 88.4015 122.46 86.7561 124.799 85.2572C125.836 84.5924 127.397 83.4386 126.846 85.2878C126.361 86.9178 123.165 91.3588 125.731 92.3022C129.587 93.72 134.959 88.6379 137.849 86.7395C139.056 85.947 144.983 81.9936 145.765 85.0433C146.26 86.9698 145.686 91.1714 148.302 91.8895C149.599 92.2456 154.267 89.6476 152.734 92.7148C151.329 95.5244 149.742 97.2688 153.865 97.2688" stroke="#E67D7D" stroke-width="3" stroke-linecap="round"/>
<path d="M115.905 112.123C115.446 112.15 114.347 112.879 115.202 112.551C120.346 110.572 125.052 111.138 130.483 110.656C132.597 110.468 134.585 109.604 136.688 109.341C137.746 109.209 138.763 109.573 139.805 109.28C141.571 108.784 143.117 107.75 144.91 107.263C148.007 106.422 150.745 106.476 153.865 106.346" stroke="#E67D7D" stroke-width="3" stroke-linecap="round"/>
<path d="M80.6951 114.048C80.4349 113.702 80.1388 113.052 80.3283 112.612C82.7318 107.03 88.0371 101.662 91.9731 97.1467C96.372 92.1005 90.4798 101.144 90.0476 101.823C87.4905 105.84 84.7081 109.834 82.59 114.11C82.3297 114.635 81.5242 116.004 82.0704 115.791C83.8087 115.112 84.6955 113.136 85.952 111.756C89.7795 107.553 93.0114 103.899 97.0772 99.8669C97.786 99.164 102.845 94.1553 104.871 93.204C105.636 92.8447 104.75 94.9514 104.321 95.6796C103.502 97.0692 99.3588 103.328 98.8499 104.085C94.8365 110.05 90.8681 116.223 86.2882 121.781C81.7096 127.338 95.835 110.972 101.081 106.041C101.842 105.326 104.802 102.301 102.762 105.429C100.532 108.849 98.1633 112.18 95.8547 115.546C94.9861 116.813 92.5123 120.689 93.4707 119.489C96.1438 116.142 98.7039 112.772 101.784 109.77C101.942 109.616 107.494 104.118 105.91 108.119C104.644 111.318 102.704 114.338 101.051 117.349" stroke="#E67D7D" stroke-width="3" stroke-linecap="round"/>
<path d="M87.2968 106.621C85.701 102.791 98.6092 102.615 99.4001 102.495" stroke="#F2D3BC" stroke-width="3" stroke-linecap="round"/>
<path d="M123.607 93.4179C123.425 92.9407 123.172 92.085 123.515 91.6147C124.18 90.7037 126.549 89.1122 127.03 88.7722C129.399 87.0978 135.891 82.7064 137.91 81.3147" stroke="#F2D3BC" stroke-width="3" stroke-linecap="round"/>
<path d="M138.736 89.8418C138.294 89.4 140.138 89.1736 140.233 89.1694C144.528 88.9792 148.21 93.4847 151.389 95.6184" stroke="#F2D3BC" stroke-width="3" stroke-linecap="round"/>
<path d="M123.056 111.573C123.585 112.512 123.625 111.614 124.218 111.298C126.216 110.232 129.968 110.552 131.966 110.442C135.966 110.22 139.742 109.55 143.687 109.097" stroke="#F2D3BC" stroke-width="3" stroke-linecap="round"/>
<path d="M129.933 101.67C129.618 102.405 130.66 101.363 130.835 101.257C134.204 99.2184 140.693 100.957 144.237 101.12" stroke="#F2D3BC" stroke-width="3" stroke-linecap="round"/>
<path d="M51.8123 148.983C49.2878 148.825 55.2092 145.159 57.3138 143.756" stroke="#F2D3BC" stroke-width="3" stroke-linecap="round"/>
<path d="M77.9443 143.756C77.1129 143.731 76.3644 143.705 77.1802 142.87C78.2914 141.732 79.1772 141.734 80.6951 141.556" stroke="#F2D3BC" stroke-width="3" stroke-linecap="round"/>
<path d="M64.4657 151.183C61.7774 151.042 63.8685 149.128 64.7408 147.882" stroke="#F2D3BC" stroke-width="3" stroke-linecap="round"/>
<path d="M85.0962 147.332C81.0831 148.74 77.1853 148.439 72.993 148.708" stroke="#F2D3BC" stroke-width="3" stroke-linecap="round"/>
<path d="M15.365 118.725C15.365 117.265 15.6111 116.081 13.6535 117.685C8.13361 122.21 4.75159 129.426 5.64577 136.604C6.88503 146.553 21.6454 136.689 25.4511 134.282C33.0379 129.483 39.8232 123.517 46.1122 117.151C47.5989 115.645 48.7631 114.425 50.0091 112.826C50.2962 112.457 50.951 111.958 50.6662 111.588C49.969 110.682 48.0256 112.863 47.0749 110.518C45.9848 107.829 47.3239 103.038 43.4379 102.434C38.7382 101.704 33.24 105.652 29.9592 108.486C23.3736 114.173 18.5853 121.784 13.7146 128.902" stroke="black" stroke-width="3" stroke-linecap="round"/>
<path d="M42.5974 102.22C43.8366 102.656 44.0462 102.425 45.4245 101.685C53.6319 97.2803 61.6213 92.2997 69.4782 87.3051C74.6603 84.0108 79.6649 80.4667 84.7753 77.0662C87.6486 75.1544 90.8911 72.6835 94.4029 72.0538C95.4209 71.8712 95.6236 72.1372 94.9836 72.9096C89.76 79.2139 83.0523 84.7549 76.9663 90.1322C65.7687 100.026 53.5656 108.875 42.5974 119" stroke="black" stroke-width="3" stroke-linecap="round"/>
<path d="M50.0243 67.5609C49.7068 68.0689 51.0372 67.6126 51.1857 67.5609C54.1077 66.5446 59.6373 79.6161 60.4771 81.0395" stroke="black" stroke-width="3" stroke-linecap="round"/>
<path d="M54.7006 55.1826C53.76 55.2799 54.0982 55.4851 54.5478 56.069C58.3181 60.9661 60.4972 67.326 63.2279 72.7873" stroke="black" stroke-width="3" stroke-linecap="round"/>
<path d="M66.8038 59.0337C66.4209 59.0816 66.4848 59.5662 66.5899 59.8589C66.8833 60.6763 67.4742 61.2326 67.7972 62.1206C69.7293 67.434 70.452 73.0908 71.7552 78.5639" stroke="black" stroke-width="3" stroke-linecap="round"/>
<path d="M15.6401 163.286C15.8677 164.88 17.5127 166.77 18.2686 167.963C21.3227 172.784 24.2896 178.736 28.9965 182.205C33.2051 185.307 41.0807 186.281 46.2497 186.057C52.4091 185.789 59.6435 180.775 64.6797 178.095C79.6165 170.144 94.4045 161.858 109.058 153.399C125.845 143.709 142.292 133.35 159.534 124.471C166.68 120.79 171.81 118.343 179.156 115.638C183.42 114.068 186.639 113.726 190.862 112.948" stroke="#CC9966" stroke-width="3" stroke-linecap="round"/>
<path d="M19.7662 155.585C20.2708 155.528 20.7407 154.766 20.9735 154.347C21.8521 152.765 17.0439 156.781 21.9668 152.345C35.562 140.095 51.8379 131.924 67.354 122.576" stroke="#CC9966" stroke-width="3" stroke-linecap="round"/>
<path d="M126.77 104.283C127.757 104.732 128.532 106.262 129.062 107.172C129.996 108.773 131.172 104.541 131.446 103.871C132.31 101.762 133.364 103.064 134.197 100.982" stroke="#E67D7D" stroke-width="3" stroke-linecap="round"/>
</svg>
