<svg width="1862" height="1324" viewBox="0 0 1862 1324" fill="none" xmlns="http://www.w3.org/2000/svg">
<path d="M127.5 604.5H356.5V734.5H127.5V604.5ZM356.5 603.5H127.5V473.5H356.5V603.5Z" stroke="black"/>
<path d="M1081.5 842.5L1081.5 1071.5L913.5 1071.5L913.5 842.5L1081.5 842.5ZM1082.5 1071.5L1082.5 842.5L1250.5 842.5L1250.5 1071.5L1082.5 1071.5ZM912.5 842.5L912.5 1071.5L744.5 1071.5L744.5 842.5L912.5 842.5ZM1251.5 1071.5L1251.5 842.5L1419.5 842.5L1419.5 1071.5L1251.5 1071.5Z" stroke="black"/>
<path d="M1081.5 497.5L1081.5 726.5L913.5 726.5L913.5 497.5L1081.5 497.5ZM1082.5 726.5L1082.5 497.5L1250.5 497.5L1250.5 726.5L1082.5 726.5ZM912.5 497.5L912.5 726.5L744.5 726.5L744.5 497.5L912.5 497.5ZM1251.5 726.5L1251.5 497.5L1419.5 497.5L1419.5 726.5L1251.5 726.5Z" stroke="black"/>
<path d="M705 727.5H705.5V727V596.5V596V465V464.5H705H475H474.5V465V596V596.5V675.5V675.704L474.642 675.849L495.642 697.349L496.358 696.651L475.5 675.296V596.5H704.5V726.5H475.5V704.5H474.5V727V727.5H475H705Z" stroke="black"/>
<path d="M127 80V384H724.5V80H127Z" stroke="black"/>
<path d="M209 97L265 97L265 131L252 131L225.5 131L209 131L209 97Z" stroke="#777777"/>
<path d="M246 131L246 147L227 147L227 131" stroke="#E86035"/>
<path d="M265 346L209 346L209 312L222 312L248.5 312L265 312L265 346Z" stroke="#777777"/>
<path d="M228 312L228 296L247 296L247 312" stroke="#E86035"/>
<path d="M590 97L646 97L646 131L633 131L606.5 131L590 131L590 97Z" stroke="#777777"/>
<path d="M627 131L627 147L608 147L608 131" stroke="#E86035"/>
<path d="M646 346L590 346L590 312L603 312L629.5 312L646 312L646 346Z" stroke="#777777"/>
<path d="M609 312L609 296L628 296L628 312" stroke="#E86035"/>
<path d="M544 604V598H633V604H544Z" fill="white" stroke="white"/>
<path d="M788 506V500H877V506H788Z" fill="white" stroke="white"/>
<circle cx="661.5" cy="629.5" r="12.5" fill="#D9D9D9"/>
<circle cx="577.5" cy="689.5" r="12.5" fill="#D9D9D9"/>
<circle cx="788.5" cy="572.5" r="12.5" fill="#D9D9D9"/>
<circle cx="831.5" cy="569.5" r="12.5" fill="#D9D9D9"/>
<circle cx="544.5" cy="658.5" r="12.5" fill="#D9D9D9"/>
<path d="M664 622.323C666 621.63 670 621.596 670 627" stroke="#E86035" stroke-linecap="round"/>
<path d="M664 622.323C666 621.63 670 621.596 670 627" stroke="#E86035" stroke-linecap="round"/>
<path d="M664 622.323C666 621.63 670 621.596 670 627" stroke="#E86035" stroke-linecap="round"/>
<path d="M666.399 613.047C667.299 614.542 667.826 617.73 662.743 618.519" stroke="#E86035" stroke-linecap="round"/>
<path d="M666.399 613.047C667.299 614.542 667.826 617.73 662.743 618.519" stroke="#E86035" stroke-linecap="round"/>
<path d="M666.399 613.047C667.299 614.542 667.826 617.73 662.743 618.519" stroke="#E86035" stroke-linecap="round"/>
<path d="M677.003 617.919C674.648 618.531 669.986 618.404 670.174 613" stroke="#E86035" stroke-linecap="round"/>
<path d="M677.003 617.919C674.648 618.531 669.986 618.404 670.174 613" stroke="#E86035" stroke-linecap="round"/>
<path d="M677.003 617.919C674.648 618.531 669.986 618.404 670.174 613" stroke="#E86035" stroke-linecap="round"/>
<path d="M672.296 627.491C671.838 625.283 672.16 620.97 677.108 621.376" stroke="#E86035" stroke-linecap="round"/>
<path d="M672.296 627.491C671.838 625.283 672.16 620.97 677.108 621.376" stroke="#E86035" stroke-linecap="round"/>
<path d="M672.296 627.491C671.838 625.283 672.16 620.97 677.108 621.376" stroke="#E86035" stroke-linecap="round"/>
<path d="M645 632.5L631 639" stroke="black" stroke-linecap="round"/>
<path d="M643 636L629 642.5" stroke="black" stroke-width="0.5" stroke-linecap="round"/>
<path d="M644.2 658.122L653.636 645.906" stroke="black" stroke-linecap="round"/>
<path d="M644.364 654.094L653.8 641.878" stroke="black" stroke-width="0.5" stroke-linecap="round"/>
<path d="M616.121 663.025L615.215 663.483L614.226 655.018L615.119 654.567L621.35 660.381L620.444 660.839L615.271 655.908L615.216 655.936L616.121 663.025ZM615.046 660.067L618.699 658.22L619.087 658.986L615.433 660.834L615.046 660.067ZM622.755 659.67L621.848 660.129L620.86 651.664L621.752 651.213L627.984 657.026L627.077 657.485L621.905 652.554L621.849 652.582L622.755 659.67ZM621.679 656.712L625.333 654.865L625.72 655.632L622.067 657.479L621.679 656.712ZM629.389 656.316L628.482 656.774L627.494 648.31L628.386 647.858L634.617 653.672L633.711 654.13L628.539 649.199L628.483 649.227L629.389 656.316ZM628.313 653.358L631.966 651.511L632.354 652.278L628.701 654.125L628.313 653.358ZM637.257 652.495C636.918 652.666 636.577 652.758 636.236 652.77C635.894 652.78 635.58 652.704 635.294 652.542C635.006 652.378 634.775 652.122 634.598 651.773C634.443 651.466 634.378 651.187 634.402 650.935C634.426 650.681 634.511 650.449 634.658 650.237C634.805 650.026 634.987 649.832 635.204 649.655C635.422 649.474 635.647 649.305 635.879 649.147C636.183 648.941 636.431 648.776 636.623 648.653C636.816 648.526 636.945 648.412 637.011 648.312C637.079 648.21 637.08 648.093 637.013 647.961L636.999 647.933C636.825 647.589 636.596 647.369 636.311 647.274C636.029 647.177 635.698 647.225 635.319 647.416C634.927 647.615 634.662 647.857 634.526 648.142C634.39 648.426 634.326 648.689 634.334 648.93L633.412 649.046C633.387 648.65 633.445 648.303 633.586 648.004C633.727 647.702 633.918 647.445 634.159 647.233C634.4 647.018 634.655 646.842 634.925 646.706C635.097 646.619 635.305 646.54 635.549 646.469C635.795 646.394 636.054 646.367 636.326 646.386C636.601 646.405 636.872 646.506 637.14 646.689C637.407 646.871 637.649 647.175 637.864 647.601L639.648 651.128L638.825 651.544L638.458 650.819L638.416 650.84C638.419 650.985 638.389 651.156 638.326 651.354C638.263 651.553 638.147 651.753 637.978 651.955C637.809 652.158 637.568 652.337 637.257 652.495ZM637.009 651.692C637.334 651.528 637.576 651.325 637.735 651.085C637.895 650.843 637.982 650.592 637.993 650.332C638.007 650.071 637.958 649.829 637.845 649.606L637.464 648.853C637.45 648.913 637.393 648.99 637.292 649.085C637.192 649.176 637.072 649.273 636.932 649.376C636.793 649.476 636.656 649.571 636.521 649.663C636.387 649.751 636.279 649.823 636.197 649.879C635.997 650.015 635.82 650.162 635.666 650.318C635.513 650.472 635.411 650.639 635.359 650.819C635.309 650.997 635.336 651.19 635.442 651.399C635.587 651.685 635.802 651.847 636.087 651.887C636.374 651.923 636.681 651.858 637.009 651.692ZM640.343 646.732L641.972 649.953L641.149 650.369L637.539 643.23L638.362 642.814L639.687 645.435L639.757 645.4C639.743 645.06 639.82 644.745 639.989 644.456C640.159 644.163 640.454 643.91 640.874 643.697C641.239 643.513 641.596 643.424 641.944 643.432C642.291 643.437 642.616 643.552 642.919 643.775C643.223 643.995 643.491 644.335 643.723 644.795L645.444 648.198L644.621 648.614L642.929 645.267C642.714 644.842 642.437 644.569 642.099 644.448C641.762 644.324 641.399 644.36 641.011 644.556C640.742 644.692 640.529 644.871 640.372 645.093C640.219 645.314 640.135 645.565 640.123 645.846C640.112 646.125 640.186 646.421 640.343 646.732Z" fill="black"/>
<path d="M534 653.5L548 649.144C543.823 642.836 534 645.934 534 653.5Z" fill="#E86035"/>
<path d="M556.5 646.5L548 649.144M548 649.144L534 653.5V653.5C534 645.934 543.823 642.836 548 649.144V649.144Z" stroke="black" stroke-linecap="round"/>
<path d="M565 683.5L579 679.144C574.823 672.836 565 675.934 565 683.5Z" fill="#68A2F8"/>
<path d="M587.5 676.5L579 679.144M579 679.144L565 683.5V683.5C565 675.934 574.823 672.836 579 679.144V679.144Z" stroke="black" stroke-linecap="round"/>
<rect x="127.5" y="825.5" width="462" height="246" stroke="black"/>
<rect x="1004.5" y="58.5" width="415" height="325" stroke="black"/>
<circle cx="198.5" cy="882.5" r="32" stroke="black"/>
<circle cx="443.5" cy="933.5" r="32" stroke="black"/>
<circle cx="491.5" cy="1116.5" r="32.5" fill="#649869"/>
<path fill-rule="evenodd" clip-rule="evenodd" d="M578.971 1121.52C578.99 1121.18 579 1120.84 579 1120.5C579 1110.84 571.165 1103 561.5 1103C551.835 1103 544 1110.84 544 1120.5C544 1122.86 544.467 1125.11 545.314 1127.16C541.985 1131.67 540 1137.34 540 1143.5C540 1158.14 551.193 1170 565 1170C578.807 1170 590 1158.14 590 1143.5C590 1134.35 585.625 1126.28 578.971 1121.52Z" fill="#649869"/>
<circle cx="530.5" cy="868.5" r="32" stroke="black"/>
<path d="M509 1070V960C509 958.343 510.343 957 512 957H542.5C544.157 957 545.5 958.343 545.5 960V1070" stroke="black" stroke-linecap="round"/>
<circle cx="287.5" cy="933.5" r="32" stroke="black"/>
<circle cx="367.5" cy="990.5" r="32" stroke="black"/>
<circle cx="192.5" cy="990.5" r="32" stroke="black"/>
<circle cx="367.5" cy="868.5" r="32" stroke="black"/>
<rect x="778.5" y="161.5" width="197" height="222" stroke="black"/>
<path d="M931.182 295.2C932.926 294.914 934.776 294.827 936.538 294.839C936.582 294.84 938.909 294.933 937.933 295.273C937.387 295.463 936.733 295.476 936.169 295.529C934.91 295.648 933.645 295.704 932.388 295.841C931.875 295.896 931.177 295.924 930.706 296.188C930.602 296.247 930.528 296.372 930.688 296.439C930.947 296.547 931.608 296.571 931.805 296.579C933.02 296.629 934.237 296.603 935.452 296.671C935.665 296.683 936.672 296.728 937.018 296.854C937.162 296.906 936.778 297.069 936.627 297.101C934.011 297.659 931.283 297.581 928.674 298.172C926.662 298.628 932.797 298.023 934.86 297.995C936.054 297.979 937.342 297.925 938.525 298.148C939.761 298.38 937.813 298.869 937.665 298.935" stroke="white" stroke-width="3" stroke-linecap="round"/>
<path d="M936.236 299.1C933.189 299.339 930.093 299.513 927.117 300.144" stroke="white" stroke-width="3" stroke-linecap="round"/>
<path d="M924.7 301.792C924.596 301.796 924.482 301.801 924.382 301.835C923.834 302.017 925.527 301.672 926.097 301.578C929.794 300.969 933.468 300.331 937.207 300.034C937.976 299.973 939.019 299.905 939.801 299.851C940.123 299.829 941.072 299.871 940.765 299.771C940.461 299.673 940.126 299.767 939.807 299.784C939.038 299.825 938.342 299.894 937.573 300.003C933.674 300.557 929.793 301.527 926.058 302.772C925.947 302.809 925.503 302.952 925.331 303.034C925.173 303.11 925.316 303.098 925.423 303.098C926.484 303.098 927.561 302.98 928.615 302.875C932.611 302.479 936.595 301.872 940.579 301.371C940.644 301.363 941.446 301.26 941.653 301.23C941.687 301.225 941.788 301.21 941.754 301.212C941.659 301.218 941.565 301.231 941.47 301.243C939.809 301.452 938.159 301.774 936.517 302.097C932.05 302.976 927.43 303.839 923.125 305.363C923.122 305.364 922.718 305.502 923.021 305.467C923.191 305.447 924.308 305.247 924.309 305.247C926.066 304.939 927.824 304.645 929.583 304.349C932.315 303.891 935.024 303.258 937.768 302.872C938.204 302.811 936.914 303.08 936.486 303.184C934.889 303.573 933.295 303.984 931.707 304.411C929.17 305.092 926.652 305.851 924.181 306.742C923.405 307.022 922.294 307.448 921.52 307.829C921.304 307.935 921.093 308.054 920.894 308.189C920.714 308.31 920.412 308.506 920.842 308.503C922.287 308.493 923.877 307.932 925.273 307.621C927.742 307.072 930.202 306.49 932.665 305.918C934.666 305.453 936.666 304.982 938.666 304.511C939.927 304.214 938.177 304.608 938.15 304.615C934.845 305.411 931.599 306.498 928.469 307.82C927.223 308.345 925.988 308.894 924.803 309.547C924.535 309.695 924.541 309.67 924.7 309.538" stroke="white" stroke-width="3" stroke-linecap="round"/>
<path d="M921.898 310.692C922.169 310.661 921.466 310.436 921.544 310.774C921.666 311.303 922.902 310.747 922.927 310.74C928.574 309.271 945.431 304.552 939.768 305.958C934.303 307.314 928.848 308.834 923.443 310.411C923.405 310.422 923.293 310.455 923.333 310.453C923.412 310.45 923.488 310.425 923.565 310.405C924.064 310.274 924.7 310.08 925.17 309.922C927.562 309.12 929.901 308.16 932.251 307.243C934.051 306.54 935.845 305.81 937.677 305.192C938.241 305.002 938.857 304.898 939.411 304.685C939.89 304.501 938.404 304.892 937.903 305.003C937.047 305.192 936.189 305.369 935.339 305.582C935.215 305.614 935.091 305.647 934.967 305.68C934.846 305.712 934.59 305.884 934.601 305.76C934.621 305.513 936.198 304.928 936.325 304.868C937.45 304.342 938.554 303.779 939.673 303.242C940.073 303.05 941.175 302.396 940.909 302.75C940.756 302.954 939.888 303.123 939.67 303.205C938.874 303.504 938.077 303.804 937.286 304.118C937.266 304.126 935.911 304.603 936.175 304.798C936.583 305.099 937.504 304.965 937.97 304.984C938.585 305.01 939.393 304.986 939.942 305.32C940.526 305.676 939.145 306.302 939.011 306.379C935.459 308.409 931.557 309.784 927.947 311.714C926.722 312.369 925.143 313.058 924.132 314.055C924.101 314.086 924.04 314.178 924.083 314.177C924.228 314.172 924.361 314.096 924.495 314.043C924.933 313.87 926.359 313.226 926.626 313.109C930.65 311.339 934.842 309.594 939.163 308.699C939.28 308.674 939.395 308.636 939.514 308.634C939.757 308.631 939.062 308.812 938.831 308.885C937.124 309.421 935.415 309.931 933.746 310.582C931.844 311.324 929.967 312.146 928.112 312.999C927.677 313.199 926.805 313.609 926.348 313.859C926.186 313.948 925.729 314.205 925.915 314.207C926.324 314.214 926.708 314.006 927.099 313.884C930.356 312.863 925.684 314.307 929.577 313.097C931.697 312.437 933.825 311.791 935.974 311.229C936.133 311.187 938.196 310.491 938.385 310.869C938.576 311.25 936.491 312.336 936.365 312.413C935.298 313.058 934.218 313.682 933.16 314.342C932.959 314.467 932.197 314.934 931.927 315.163C931.687 315.366 931.938 315.293 932.08 315.263C932.752 315.121 937.25 313.352 937.512 313.975C937.698 314.417 935.702 315.547 935.492 315.694C935.004 316.033 934.431 316.429 933.947 316.783C933.7 316.965 933.4 317.107 933.236 317.366C933.162 317.483 933.511 317.318 933.639 317.266C934.39 316.958 934.005 317.095 934.854 316.765C935.493 316.517 936.343 316.069 937.048 316.069C937.229 316.069 936.926 316.425 936.792 316.545C936.25 317.034 935.614 317.478 935.254 318.132C935.137 318.344 935.036 318.823 935.437 318.596C935.571 318.52 935.816 318.192 935.968 318.181C936.201 318.164 935.615 318.488 935.437 318.639C935.273 318.778 934.842 319.255 934.979 319.091C935.324 318.677 935.405 318.143 935.602 317.656C935.66 317.511 935.959 317.053 935.718 316.924C935.317 316.709 934.631 316.932 934.234 317.021C933.6 317.164 932.966 317.397 932.318 317.473C932.175 317.49 931.837 317.557 931.89 317.424C932.073 316.972 932.736 316.932 933.184 316.741C934.603 316.137 935.249 315.927 936.67 315.337C937.002 315.199 937.975 314.837 937.616 314.818C937.104 314.791 936.6 314.959 936.096 315.05C935.169 315.217 934.632 315.334 933.703 315.538C933.057 315.68 931.38 316.363 930.7 315.935C930.251 315.652 931.682 315.009 931.732 314.977" stroke="white" stroke-width="3" stroke-linecap="round"/>
<path d="M927.007 315.306C926.975 315.301 927.056 315.262 927.086 315.251C927.754 315.021 928.44 314.824 929.113 314.616C931.609 313.846 934.109 313.084 936.59 312.266C937.496 311.968 938.684 311.749 939.493 311.21C940.007 310.868 938.374 311.738 937.836 312.04C936.979 312.522 936.142 313.034 935.336 313.597C935.048 313.798 934.14 314.456 935.095 314.122C935.911 313.836 936.708 313.494 937.524 313.206C938.202 312.968 938.999 312.581 939.728 312.535C939.924 312.523 939.088 313.173 939.069 313.188C938.847 313.366 938.606 313.561 938.403 313.762C938.285 313.878 937.944 314.165 938.11 314.165C938.272 314.165 938.811 313.676 938.934 313.594C939.065 313.507 940.157 312.783 939.38 313.005C939.234 313.047 938.299 313.463 938.324 313.048C938.363 312.381 938.901 311.595 939.227 311.039C939.454 310.654 940.567 309.172 939.377 309.498C938.938 309.618 938.516 309.781 938.064 309.852C937.681 309.912 937.148 309.908 937.707 309.507C938.365 309.037 939.066 308.634 939.716 308.152C939.758 308.121 940.509 307.637 940.46 307.487C940.44 307.423 940.324 307.482 940.259 307.499C940.022 307.563 939.791 307.644 939.557 307.719C938.934 307.918 937.089 308.588 937.71 308.384C938.915 307.99 942.404 306.478 941.211 306.904C937.798 308.123 934.482 309.616 931.005 310.661C929.322 311.167 927.619 311.521 925.89 311.821C924.937 311.986 923.988 312.175 923.11 312.599C920.886 313.674 927.726 310.834 929.974 309.812" stroke="white" stroke-width="3" stroke-linecap="round"/>
<path d="M909.867 326.074C910.523 326.757 911.166 327.471 911.845 328.14C912.459 328.745 913.227 329.354 914.057 329.626C915.15 329.984 916.424 329.836 917.549 329.776C920.643 329.611 923.638 328.511 926.519 327.435C927.533 327.056 928.503 326.569 929.516 326.19C929.817 326.076 930.155 326.053 930.443 325.909C930.776 325.742 930.536 325.609 930.364 325.384C929.868 324.736 929.448 324.037 928.985 323.366C928.598 322.807 928.203 322.19 927.443 322.298C926.761 322.396 926.084 322.714 925.444 322.948C923.728 323.578 921.993 324.043 920.225 324.505C918.306 325.007 916.399 325.564 914.433 325.854C913.318 326.018 912.305 326.261 911.24 326.623" stroke="white" stroke-width="3" stroke-linecap="round"/>
<path d="M911.845 326.953C911.797 327 911.55 327.2 911.747 327.16C912.696 326.97 913.573 326.405 914.518 326.165C915.173 325.999 914.125 326.586 914.055 326.629C913.587 326.92 913.078 327.205 912.681 327.593C912.478 327.792 913.197 327.351 913.432 327.191C913.723 326.992 914.138 326.7 914.433 326.507C914.675 326.348 915.258 325.843 915.214 326.129C915.148 326.561 914.478 327.113 914.213 327.438C914.067 327.616 913.661 328.134 913.871 328.039C914.472 327.767 915.016 327.23 915.532 326.83C915.742 326.668 916.184 326.322 916.408 326.156C916.629 325.992 917.106 325.463 917.119 325.738C917.132 326.02 916.24 326.773 916.081 326.959C915.716 327.386 915.159 327.883 914.934 328.411C914.772 328.791 915.575 327.891 915.874 327.606C916.452 327.053 917.043 326.513 917.668 326.013C918.561 325.298 916.162 327.732 915.397 328.582C915.337 328.65 915.156 328.854 915.22 328.79C915.46 328.55 915.692 328.304 915.928 328.06C916.287 327.691 916.63 327.337 916.994 326.974C917.164 326.803 917.293 326.55 917.525 326.483C917.668 326.441 917.397 326.753 917.314 326.876C917.072 327.238 916.932 327.416 916.676 327.777C916.498 328.027 916.009 328.757 916.279 328.61C916.909 328.268 917.466 327.643 917.995 327.172C918.301 326.899 918.733 326.506 919.051 326.235C919.125 326.172 919.66 325.64 919.853 325.665C919.945 325.676 919.779 325.835 919.725 325.909C919.542 326.158 919.349 326.4 919.164 326.647C918.731 327.224 918.1 327.875 917.863 328.57C917.76 328.875 918.471 328.308 918.694 328.076C919.465 327.272 920.177 326.414 920.973 325.634C921.598 325.023 920.795 326.055 920.793 326.058C920.378 326.621 919.889 327.168 919.56 327.789C919.251 328.373 919.76 328.089 920.009 327.877C920.827 327.184 921.487 326.298 922.24 325.536C922.302 325.474 922.721 325.061 922.838 324.957C922.862 324.935 922.827 325.022 922.808 325.048C922.346 325.684 921.887 326.32 921.446 326.971C921.258 327.249 920.735 328.055 921.025 327.886C921.636 327.532 922.133 326.813 922.6 326.306C923.265 325.584 923.941 324.877 924.645 324.194C924.68 324.159 924.783 324.055 924.749 324.09C924.498 324.341 924.339 324.511 924.096 324.798C923.406 325.611 922.736 326.464 922.148 327.355C922.136 327.374 921.754 327.965 921.733 328.106C921.676 328.493 922.311 327.578 922.573 327.288C923.394 326.379 924.218 325.469 925.084 324.603C925.173 324.514 925.445 324.264 925.384 324.374C925.206 324.693 924.974 324.977 924.77 325.28C924.59 325.549 923.649 326.658 923.858 327.065C924.023 327.389 925.675 325.585 925.756 325.5C926.193 325.04 927.388 323.581 927.087 324.139C926.848 324.579 926.489 324.963 926.238 325.402C926.17 325.521 925.69 326.365 926.263 326.153C927.055 325.859 927.721 325.009 928.298 324.422C928.597 324.119 928.009 324.726 927.996 324.743C927.88 324.889 927.403 325.419 927.611 325.64C927.856 325.9 928.502 325.3 928.658 325.173C928.863 325.007 929.37 324.432 928.851 324.926C927.942 325.791 929.081 325.45 929.168 324.926C929.215 324.645 928.77 324.655 928.613 324.621C928.286 324.551 928.239 324.378 928.106 324.111C927.997 323.893 927.963 323.998 927.789 323.943C927.684 323.911 927.854 323.599 927.846 323.522C927.814 323.202 926.768 324.002 926.665 324.084C926.383 324.309 926.566 324.263 926.537 324.151C926.508 324.039 926.275 324.025 926.269 323.949C926.247 323.716 927.922 322.792 926.473 323.461C925.927 323.713 925.396 324.004 924.837 324.227C924.536 324.348 924.501 324.279 924.7 324.047C924.904 323.81 925.156 323.6 925.338 323.345C925.536 323.067 924.757 323.706 924.459 323.873C923.004 324.69 921.342 325.01 919.866 325.762C918.937 326.236 921.877 325.215 922.869 324.896C923.749 324.612 924.624 324.312 925.512 324.053C925.724 323.991 927.095 323.442 927.306 323.742C927.425 323.91 926.99 324.043 927.557 324.01C927.763 323.999 928.82 323.975 928.564 323.559C928.503 323.46 927.967 322.8 928.075 323.107C928.298 323.74 929.098 324.139 929.479 324.682C929.851 325.211 929.916 325.639 929.266 325.127C928.935 324.867 928.573 324.644 928.252 324.371C927.864 324.041 927.61 323.598 927.245 323.247C926.754 322.776 927.441 323.112 927.779 323.177C928.052 323.23 928.308 323.211 928.576 323.147C928.63 323.134 928.574 323.14 928.478 323.199C928.216 323.359 927.992 323.584 927.813 323.833C927.151 324.754 927.713 325.29 928.674 325.445C929.162 325.524 928.815 325.65 928.527 325.817C927.779 326.252 927.03 326.625 926.205 326.892C925.057 327.262 924.014 327.582 922.985 328.213C922.442 328.546 921.792 328.79 921.144 328.732C920.336 328.66 919.516 328.782 918.706 328.796C917.147 328.823 915.643 328.754 914.134 328.381C913.83 328.306 913.625 328.119 913.298 328.106C913.021 328.096 913.261 328.277 913.42 328.326C913.909 328.476 914.293 328.613 914.814 328.634C915.26 328.652 915.64 328.936 916.075 328.888C916.741 328.814 917.529 329.069 918.187 328.83C918.607 328.676 918.974 328.433 919.328 328.164C919.534 328.008 920.161 327.642 919.902 327.642C919.349 327.642 918.849 328.49 918.492 327.777" stroke="white" stroke-width="3" stroke-linecap="round"/>
<path d="M915.415 328.601C915.334 328.745 915.287 328.806 915.129 328.833C914.606 328.92 913.758 328.998 913.288 328.707C913.051 328.56 912.988 328.352 912.864 328.118C912.721 327.849 913.497 328.22 913.658 328.271" stroke="white" stroke-width="3" stroke-linecap="round"/>
<path d="M915.525 328.765C915.485 328.952 915.508 329.024 915.721 329.04C916.623 329.109 917.624 328.996 918.51 328.933C919.822 328.841 921.166 328.765 922.435 328.387C923.532 328.06 924.587 327.558 925.676 327.197C925.89 327.126 926.625 327.015 926.513 326.733" stroke="white" stroke-width="3" stroke-linecap="round"/>
<path d="M922.118 327.667C922.609 327.567 922.995 327.294 923.424 327.032C924.502 326.372 925.632 325.735 926.641 324.969C926.966 324.722 926.606 324.934 926.537 324.981C926.248 325.178 925.968 325.33 925.646 325.469C924.959 325.766 923.948 326.426 923.616 327.108C923.528 327.289 924.017 327.021 924.187 326.913C924.783 326.534 925.292 326.017 925.908 325.671C926.001 325.619 925.634 325.926 925.689 325.799C925.803 325.533 926.623 324.462 925.786 324.56C924.635 324.694 923.516 325.485 922.395 325.79C921.46 326.044 920.352 326.236 919.432 325.811C919.242 325.723 919.154 325.603 918.931 325.64C918.732 325.674 918.34 325.799 918.669 325.515C918.809 325.395 919.06 325.406 919.228 325.372C919.717 325.27 920.17 325.144 920.634 324.975" stroke="white" stroke-width="3" stroke-linecap="round"/>
<path d="M901.956 322.118C901.895 322.235 901.715 322.318 901.737 322.448C901.806 322.866 902.61 323.512 902.896 323.754C903.725 324.455 904.802 324.408 905.796 324.175C907.367 323.807 908.851 323.058 910.233 322.234C911.275 321.613 912.228 320.869 913.23 320.189C914.35 319.43 915.541 318.786 916.67 318.044C917.1 317.761 917.699 317.346 917.775 316.78C917.839 316.304 917.268 316.063 916.92 315.917C915.062 315.136 913.22 315.693 911.424 316.374C909.291 317.184 907.328 318.301 905.356 319.445C904.16 320.139 903.072 320.984 901.932 321.752C901.817 321.83 901.417 321.996 901.48 322.216C901.552 322.468 903.018 321.364 903.122 321.288C904.203 320.505 905.205 319.614 906.296 318.847C906.442 318.744 906.832 318.531 906.504 318.865C905.911 319.467 905.234 319.995 904.569 320.513C903.75 321.151 901.28 322.953 902.255 322.597C902.864 322.375 903.416 321.864 903.925 321.487C905.325 320.448 906.712 319.379 908.176 318.431C908.194 318.42 909.985 317.368 909.995 317.473C910.037 317.885 908.585 318.843 908.372 319.017C906.955 320.178 902.762 323.719 904.239 322.637C906.194 321.206 907.972 319.59 910.014 318.261C910.86 317.71 911.742 317.117 912.669 316.704C912.845 316.626 912.743 316.722 912.675 316.777C912.213 317.155 911.705 317.49 911.222 317.839C908.819 319.577 906.433 321.343 904.01 323.052C903.869 323.152 902.799 323.889 903.681 323.223C905.337 321.972 907.036 320.778 908.781 319.652C909.907 318.926 911.053 318.201 912.284 317.662C912.36 317.629 912.786 317.453 912.919 317.437C913.093 317.414 912.931 317.584 912.913 317.601C912.252 318.253 911.368 318.747 910.612 319.274C909.214 320.247 907.812 321.212 906.489 322.286C906.29 322.448 905.687 322.922 905.903 322.784C906.163 322.616 906.384 322.396 906.629 322.207C907.961 321.179 909.368 320.264 910.819 319.414C911.875 318.797 912.967 318.148 914.1 317.678C914.23 317.624 914.454 317.524 914.225 317.733C913.938 317.994 913.365 318.379 913.099 318.56C911.563 319.606 910.025 320.628 908.552 321.764C908.333 321.933 907.226 322.814 906.879 323.064C906.777 323.138 906.68 323.229 906.559 323.266C906.516 323.279 906.588 323.178 906.617 323.144C907.407 322.198 908.64 321.517 909.669 320.885C910.88 320.141 912.138 319.435 913.407 318.792C913.481 318.754 913.694 318.678 913.652 318.749C913.568 318.887 913.132 319.281 913.078 319.329C912.208 320.096 911.266 320.785 910.331 321.471C909.824 321.844 909.273 322.334 908.683 322.582C907.931 322.899 909.928 321.524 910.581 321.035C912.23 319.8 914.004 318.753 915.666 317.549C916.008 317.302 916.165 317.129 915.8 316.899C915.533 316.731 915.136 316.616 914.824 316.582C914.722 316.571 914.039 316.614 914.451 316.448C915.02 316.218 915.652 315.99 916.258 315.892C916.436 315.864 916.706 315.837 916.807 316.033C916.846 316.107 916.777 316.335 916.838 316.371C916.881 316.397 917.073 316.406 917.042 316.411C916.759 316.46 916.491 316.53 916.218 316.625C915.72 316.797 915.39 316.856 914.879 316.844C914.325 316.832 915.089 316.588 915.257 316.576C915.602 316.551 915.275 316.785 915.172 316.838C914.789 317.037 914.091 317.373 913.652 317.183C913.188 316.983 914.797 316.399 914.647 316.658C914.368 317.139 913.184 317.539 914.021 316.738C914.684 316.103 914.835 316.559 915.565 316.768C915.815 316.84 916.752 316.734 916.917 316.533C916.993 316.441 917.201 316.154 917.106 316.228C916.722 316.527 916.383 316.926 916.05 317.278C916.046 317.283 915.423 318.057 915.336 317.949C915.126 317.686 915.471 317.617 915.666 317.531C916.056 317.359 916.627 316.944 917.061 316.933C917.153 316.931 916.691 317.577 916.652 317.635C916.312 318.137 916.531 317.708 916.838 317.455C917.315 317.06 916.948 317.213 916.6 317.443C915.884 317.915 915.247 318.495 914.537 318.975C914.154 319.233 913.793 319.344 913.353 319.451C913.245 319.477 912.832 319.69 913.078 319.445C913.521 319.002 913.942 318.539 914.299 318.022C914.455 317.796 914.938 317.191 914.836 316.863C914.781 316.687 913.445 316.95 913.6 316.701C913.701 316.538 914.303 316.035 914.259 316.069C913.633 316.556 912.989 316.871 912.4 317.43C910.489 319.247 908.615 321.159 906.443 322.668C905.84 323.086 904.11 324.417 904.596 323.867C904.854 323.576 906.026 323.339 905.637 323.339C905.334 323.339 904.633 323.857 904.371 323.632C904.212 323.496 904.173 323.05 904.319 322.933C904.503 322.786 904.733 322.644 904.969 322.604C905.038 322.592 904.471 322.893 904.361 322.93C904.202 322.984 902.964 323.071 903.189 322.552C903.208 322.509 904.598 322.162 903.559 322.79C903.312 322.939 903.11 322.809 903.128 322.945C903.158 323.164 902.915 322.932 902.945 322.723" stroke="white" stroke-width="3" stroke-linecap="round"/>
<path d="M935.086 328.637C935.152 328.411 935.233 328.211 935.409 328.045C936.697 326.829 938.337 325.689 939.927 324.922C941.425 324.2 941.59 324.873 942.163 326.059C942.683 327.135 943.408 328.644 944.861 328.336C945.738 328.151 946.418 327.497 947.23 327.158C947.796 326.922 948.199 327.053 948.764 327.172C949.564 327.341 950.356 327.257 951.162 327.186C952.194 327.095 952.845 327.229 953.795 327.556" stroke="#9B18A6" stroke-width="3" stroke-linecap="round"/>
<path d="M942.902 317.328C942.841 317.315 942.32 317.253 942.375 317.088C942.495 316.729 943.304 315.668 943.327 315.637C943.967 314.783 945.14 313.301 945.849 312.505C946.448 311.833 947.01 310.909 947.632 311.812C948 312.346 948.307 312.747 949 312.829C951.638 313.14 953.439 310.261 955.125 308.68" stroke="#9B18A6" stroke-width="3" stroke-linecap="round"/>
<path d="M913.05 309.844C912.714 310.329 912.587 310.376 911.96 310.149C910.827 309.739 909.631 309.161 908.782 308.283C907.311 306.762 907.926 304.786 907.424 302.924C906.998 301.347 905.458 302.722 904.504 301.908C903.621 301.155 903.121 300.14 902.074 299.617" stroke="#9B18A6" stroke-width="3" stroke-linecap="round"/>
<path d="M913.799 297.122C913.629 297.113 913.135 297.093 913.434 296.873C913.949 296.494 913.999 296.81 914.011 297.372C914.043 298.805 914.012 300.281 914.344 301.686C914.693 303.163 915.471 302.904 916.561 303.488C918.252 304.394 917.738 306.893 917.541 308.431" stroke="#9B18A6" stroke-width="3" stroke-linecap="round"/>
<path d="M902.573 315C902.521 315.526 902.146 315.434 901.77 315.157C900.472 314.2 900.198 313.289 899.977 311.831C899.928 311.505 899.928 310.74 899.589 310.537C899.344 310.391 898.961 310.605 898.702 310.602C898.302 310.597 898.188 310.209 898 309.927" stroke="#9B18A6" stroke-width="3" stroke-linecap="round"/>
<path d="M912.832 315.377C909.657 315.545 905.892 316.049 903.835 318.751C902.366 320.681 902.308 323.655 904.245 325.32C905.22 326.159 906.466 326.678 907.673 327.082C909.755 327.779 911.948 328.289 914.112 328.66C918.625 329.434 923.492 329.168 927.855 327.771C930.163 327.032 933.432 325.841 934.251 323.244C934.976 320.947 932.848 319.563 931.087 318.747C928.498 317.548 925.712 316.438 922.937 315.752C919.907 315.003 917.077 315.141 914.004 315.446" stroke="black" stroke-width="3" stroke-linecap="round"/>
<path d="M919.451 319.444C919.44 319.253 919.328 319.21 919.168 319.13C918.629 318.861 917.683 318.927 917.138 318.923C915.72 318.914 914.428 319.097 913.104 319.605C911.56 320.198 909.321 321.061 909.033 322.961C908.758 324.768 912.993 324.917 913.943 324.968C916.475 325.104 918.913 324.837 921.328 324.068C922.154 323.804 924.817 323.214 924.679 321.949C924.56 320.848 923.2 320.11 922.285 319.781C920.863 319.271 919.273 319.277 917.796 319.031" stroke="black" stroke-width="3" stroke-linecap="round"/>
<path d="M919.382 313.86C919.303 313.875 918.963 314.001 918.899 313.89C918.839 313.784 918.875 313.34 918.876 313.316C918.919 312.211 919.009 311.092 919.267 310.014C920.059 306.714 921.676 303.377 923.687 300.664C924.957 298.952 926.45 297.374 928.069 295.988C929.798 294.507 931.814 293.167 934.159 293.015C938.458 292.738 941.923 296.288 943.088 300.17C944.163 303.756 943.53 307.478 942.241 310.895C941.252 313.518 939.959 315.899 938.292 318.154C937.543 319.167 936.66 320.076 935.929 321.099" stroke="black" stroke-width="3" stroke-linecap="round"/>
<path d="M903.111 322.271C902.662 321.995 902.545 322.325 902.33 322.769C901.555 324.364 900.782 326.547 902.506 327.81C904.006 328.908 905.714 329.611 907.171 330.805C908.752 332.101 910.466 333.379 911.109 335.371" stroke="black" stroke-width="3" stroke-linecap="round"/>
<path d="M934.412 323.788C934.125 323.788 933.97 323.762 933.734 323.964C932.533 324.994 931.453 326.363 930.727 327.771C930.051 329.084 929.323 330.402 929.191 331.897C929.113 332.785 929.299 333.652 929.241 334.543" stroke="black" stroke-width="3" stroke-linecap="round"/>
<path d="M911.522 335.716C913.355 337.461 915.688 337.546 918.13 337.78C920.815 338.037 923.669 338.357 926.273 337.493C927.621 337.046 928.992 336.503 929.793 335.302" stroke="black" stroke-width="3" stroke-linecap="round"/>
<path d="M931.114 222.93C932.644 222.68 934.268 222.603 935.814 222.614C935.852 222.614 937.894 222.696 937.038 222.994C936.559 223.161 935.984 223.173 935.49 223.219C934.385 223.323 933.275 223.373 932.172 223.492C931.722 223.541 931.11 223.565 930.697 223.798C930.605 223.849 930.541 223.958 930.68 224.017C930.908 224.113 931.488 224.133 931.661 224.14C932.727 224.184 933.794 224.161 934.861 224.221C935.047 224.231 935.931 224.271 936.234 224.381C936.361 224.428 936.024 224.57 935.892 224.598C933.597 225.088 931.203 225.019 928.913 225.538C927.148 225.938 932.531 225.407 934.341 225.383C935.388 225.369 936.519 225.321 937.557 225.517C938.641 225.721 936.932 226.15 936.802 226.208" stroke="white" stroke-width="3" stroke-linecap="round"/>
<path d="M935.549 226.352C932.875 226.562 930.159 226.714 927.547 227.268" stroke="white" stroke-width="3" stroke-linecap="round"/>
<path d="M925.427 228.714C925.335 228.717 925.236 228.722 925.148 228.752C924.667 228.912 926.153 228.609 926.653 228.527C929.896 227.992 933.12 227.433 936.4 227.172C937.075 227.118 937.99 227.058 938.676 227.011C938.959 226.992 939.792 227.028 939.523 226.941C939.256 226.855 938.962 226.937 938.682 226.952C938.007 226.988 937.397 227.049 936.722 227.145C933.301 227.631 929.895 228.481 926.618 229.574C926.521 229.606 926.131 229.732 925.981 229.804C925.841 229.871 925.968 229.86 926.061 229.86C926.992 229.86 927.938 229.756 928.862 229.665C932.368 229.317 935.864 228.785 939.359 228.345C939.416 228.337 940.119 228.248 940.302 228.221C940.332 228.217 940.42 228.203 940.39 228.205C940.307 228.211 940.224 228.222 940.141 228.232C938.683 228.416 937.236 228.698 935.795 228.982C931.876 229.753 927.822 230.51 924.045 231.847C924.042 231.848 923.688 231.969 923.954 231.938C924.103 231.921 925.083 231.745 925.084 231.745C926.625 231.475 928.168 231.217 929.711 230.958C932.109 230.556 934.486 230 936.893 229.662C937.275 229.608 936.143 229.844 935.768 229.935C934.367 230.276 932.968 230.638 931.575 231.012C929.349 231.609 927.14 232.275 924.971 233.058C924.291 233.303 923.316 233.677 922.636 234.011C922.447 234.104 922.262 234.209 922.087 234.327C921.93 234.433 921.665 234.605 922.042 234.603C923.31 234.594 924.704 234.101 925.93 233.829C928.096 233.347 930.255 232.837 932.416 232.335C934.171 231.927 935.926 231.513 937.68 231.1C938.787 230.839 937.252 231.185 937.228 231.191C934.328 231.889 931.48 232.843 928.734 234.003C927.641 234.464 926.557 234.945 925.518 235.518C925.282 235.648 925.287 235.627 925.427 235.51" stroke="white" stroke-width="3" stroke-linecap="round"/>
<path d="M922.968 236.523C923.206 236.496 922.589 236.298 922.658 236.595C922.765 237.059 923.849 236.571 923.871 236.565C928.826 235.276 943.616 231.136 938.647 232.369C933.852 233.559 929.066 234.893 924.323 236.276C924.29 236.286 924.192 236.315 924.227 236.314C924.296 236.31 924.363 236.289 924.43 236.271C924.868 236.156 925.426 235.986 925.839 235.848C927.938 235.144 929.99 234.301 932.052 233.497C933.631 232.88 935.206 232.239 936.813 231.697C937.307 231.53 937.848 231.439 938.334 231.253C938.754 231.091 937.451 231.434 937.011 231.531C936.26 231.697 935.507 231.852 934.761 232.04C934.652 232.067 934.544 232.097 934.435 232.126C934.329 232.154 934.104 232.304 934.113 232.195C934.131 231.979 935.515 231.465 935.626 231.413C936.613 230.952 937.582 230.458 938.564 229.986C938.915 229.818 939.882 229.244 939.649 229.555C939.515 229.734 938.752 229.882 938.561 229.954C937.863 230.216 937.164 230.479 936.47 230.755C936.452 230.762 935.264 231.181 935.495 231.352C935.853 231.616 936.66 231.498 937.07 231.515C937.609 231.538 938.318 231.516 938.8 231.81C939.312 232.122 938.101 232.671 937.983 232.739C934.866 234.52 931.443 235.726 928.276 237.42C927.2 237.995 925.815 238.599 924.928 239.474C924.901 239.501 924.847 239.582 924.886 239.581C925.012 239.576 925.129 239.509 925.247 239.463C925.631 239.312 926.882 238.746 927.116 238.643C930.647 237.091 934.325 235.56 938.117 234.774C938.219 234.753 938.32 234.719 938.425 234.718C938.638 234.715 938.028 234.874 937.825 234.937C936.327 235.408 934.828 235.855 933.364 236.426C931.695 237.077 930.048 237.798 928.42 238.547C928.039 238.723 927.274 239.083 926.873 239.302C926.73 239.38 926.33 239.605 926.492 239.608C926.851 239.613 927.189 239.431 927.531 239.324C930.39 238.427 926.29 239.695 929.706 238.633C931.566 238.054 933.433 237.487 935.318 236.994C935.458 236.957 937.268 236.346 937.434 236.678C937.601 237.013 935.772 237.966 935.661 238.033C934.725 238.599 933.778 239.147 932.85 239.725C932.673 239.835 932.004 240.245 931.768 240.446C931.557 240.624 931.778 240.56 931.902 240.534C932.491 240.409 936.438 238.857 936.668 239.404C936.831 239.792 935.08 240.783 934.895 240.912C934.467 241.209 933.965 241.556 933.54 241.868C933.324 242.027 933.06 242.152 932.916 242.379C932.852 242.482 933.158 242.337 933.27 242.291C933.929 242.021 933.591 242.141 934.336 241.852C934.896 241.634 935.642 241.241 936.261 241.241C936.419 241.241 936.154 241.553 936.036 241.659C935.56 242.087 935.003 242.477 934.687 243.051C934.584 243.237 934.496 243.657 934.847 243.458C934.965 243.392 935.179 243.104 935.313 243.094C935.518 243.079 935.003 243.363 934.847 243.496C934.704 243.617 934.325 244.037 934.445 243.892C934.748 243.529 934.819 243.06 934.992 242.633C935.043 242.506 935.306 242.104 935.094 241.991C934.742 241.803 934.14 241.998 933.792 242.076C933.235 242.202 932.679 242.406 932.11 242.473C931.985 242.487 931.689 242.547 931.736 242.43C931.895 242.033 932.477 241.998 932.871 241.83C934.116 241.3 934.683 241.116 935.929 240.598C936.22 240.477 937.074 240.16 936.759 240.143C936.31 240.12 935.868 240.267 935.426 240.347C934.612 240.493 934.141 240.596 933.326 240.775C932.759 240.9 931.287 241.499 930.691 241.123C930.297 240.875 931.553 240.311 931.596 240.282" stroke="white" stroke-width="3" stroke-linecap="round"/>
<path d="M927.451 240.572C927.423 240.567 927.494 240.533 927.521 240.523C928.106 240.321 928.708 240.149 929.299 239.966C931.489 239.29 933.682 238.622 935.859 237.904C936.654 237.642 937.696 237.451 938.406 236.978C938.857 236.677 937.424 237.44 936.952 237.706C936.2 238.129 935.466 238.578 934.759 239.072C934.506 239.248 933.709 239.826 934.547 239.533C935.263 239.282 935.962 238.981 936.679 238.729C937.273 238.52 937.972 238.18 938.612 238.14C938.784 238.129 938.05 238.7 938.034 238.713C937.84 238.869 937.628 239.041 937.45 239.217C937.346 239.319 937.047 239.57 937.193 239.57C937.334 239.57 937.807 239.141 937.916 239.069C938.031 238.993 938.989 238.358 938.307 238.552C938.179 238.589 937.359 238.955 937.38 238.59C937.415 238.005 937.887 237.315 938.173 236.828C938.371 236.49 939.349 235.19 938.304 235.476C937.919 235.581 937.549 235.724 937.153 235.786C936.816 235.839 936.348 235.835 936.839 235.484C937.416 235.071 938.031 234.718 938.601 234.295C938.638 234.267 939.297 233.843 939.255 233.711C939.237 233.655 939.135 233.706 939.078 233.722C938.87 233.778 938.667 233.849 938.462 233.914C937.915 234.089 936.297 234.677 936.842 234.498C937.899 234.152 940.96 232.826 939.914 233.199C936.919 234.269 934.01 235.579 930.959 236.496C929.482 236.939 927.988 237.25 926.471 237.513C925.634 237.658 924.802 237.824 924.031 238.196C922.081 239.139 928.081 236.648 930.054 235.751" stroke="white" stroke-width="3" stroke-linecap="round"/>
<path d="M912.412 250.019C912.988 250.618 913.552 251.245 914.148 251.832C914.687 252.363 915.36 252.897 916.089 253.136C917.048 253.45 918.166 253.32 919.152 253.267C921.867 253.122 924.495 252.157 927.023 251.213C927.913 250.881 928.764 250.454 929.652 250.121C929.917 250.021 930.213 250.001 930.466 249.874C930.758 249.728 930.548 249.611 930.397 249.414C929.962 248.846 929.593 248.232 929.186 247.644C928.847 247.153 928.501 246.611 927.834 246.706C927.236 246.792 926.641 247.071 926.08 247.277C924.574 247.829 923.052 248.237 921.501 248.642C919.817 249.083 918.143 249.572 916.418 249.826C915.44 249.97 914.551 250.183 913.617 250.501" stroke="white" stroke-width="3" stroke-linecap="round"/>
<path d="M914.147 250.79C914.106 250.832 913.889 251.007 914.062 250.972C914.894 250.806 915.664 250.31 916.493 250.099C917.067 249.954 916.148 250.468 916.086 250.506C915.676 250.761 915.229 251.012 914.881 251.353C914.703 251.527 915.334 251.14 915.54 250.999C915.795 250.825 916.16 250.569 916.418 250.399C916.631 250.26 917.142 249.816 917.104 250.067C917.045 250.446 916.458 250.931 916.225 251.216C916.097 251.373 915.741 251.827 915.925 251.743C916.452 251.505 916.93 251.033 917.382 250.683C917.567 250.54 917.955 250.236 918.151 250.091C918.345 249.948 918.764 249.483 918.775 249.724C918.786 249.972 918.004 250.632 917.864 250.796C917.544 251.17 917.055 251.607 916.857 252.07C916.715 252.403 917.42 251.613 917.682 251.363C918.19 250.879 918.708 250.404 919.257 249.965C920.04 249.339 917.935 251.474 917.264 252.22C917.211 252.279 917.053 252.459 917.109 252.402C917.319 252.192 917.523 251.976 917.73 251.762C918.045 251.438 918.346 251.128 918.665 250.809C918.815 250.659 918.928 250.437 919.131 250.378C919.256 250.341 919.019 250.615 918.946 250.723C918.734 251.04 918.611 251.197 918.386 251.513C918.23 251.733 917.801 252.373 918.038 252.244C918.59 251.944 919.08 251.396 919.543 250.983C919.812 250.743 920.191 250.398 920.47 250.161C920.535 250.105 921.004 249.639 921.174 249.66C921.254 249.67 921.109 249.809 921.062 249.874C920.901 250.093 920.732 250.305 920.569 250.522C920.189 251.028 919.635 251.599 919.428 252.209C919.337 252.477 919.961 251.98 920.156 251.776C920.833 251.07 921.458 250.318 922.157 249.633C922.705 249.097 922.001 250.003 921.999 250.006C921.634 250.499 921.206 250.979 920.917 251.524C920.645 252.036 921.092 251.787 921.311 251.602C922.029 250.993 922.607 250.216 923.268 249.548C923.322 249.493 923.69 249.13 923.793 249.039C923.814 249.02 923.783 249.096 923.766 249.119C923.361 249.677 922.958 250.235 922.572 250.806C922.407 251.05 921.947 251.757 922.202 251.61C922.738 251.299 923.174 250.668 923.584 250.222C924.167 249.59 924.761 248.969 925.378 248.369C925.409 248.34 925.5 248.248 925.469 248.278C925.249 248.498 925.11 248.648 924.896 248.9C924.291 249.613 923.703 250.362 923.188 251.144C923.177 251.16 922.842 251.678 922.824 251.802C922.773 252.141 923.33 251.339 923.56 251.085C924.281 250.287 925.003 249.489 925.764 248.728C925.842 248.65 926.08 248.431 926.026 248.527C925.871 248.807 925.667 249.057 925.488 249.323C925.33 249.558 924.504 250.531 924.687 250.889C924.833 251.173 926.282 249.59 926.353 249.516C926.736 249.112 927.785 247.832 927.521 248.321C927.311 248.708 926.996 249.045 926.776 249.43C926.717 249.534 926.295 250.275 926.797 250.089C927.493 249.831 928.077 249.085 928.584 248.57C928.846 248.304 928.33 248.837 928.319 248.851C928.217 248.98 927.798 249.445 927.981 249.639C928.195 249.866 928.763 249.34 928.9 249.229C929.079 249.083 929.524 248.579 929.068 249.012C928.271 249.771 929.27 249.472 929.347 249.012C929.388 248.765 928.998 248.774 928.859 248.744C928.573 248.683 928.532 248.532 928.415 248.297C928.319 248.105 928.289 248.198 928.136 248.15C928.044 248.121 928.194 247.848 928.187 247.78C928.159 247.499 927.241 248.201 927.151 248.273C926.903 248.471 927.064 248.43 927.038 248.332C927.013 248.234 926.809 248.221 926.803 248.155C926.784 247.95 928.254 247.14 926.982 247.727C926.503 247.948 926.037 248.203 925.547 248.399C925.282 248.505 925.252 248.444 925.426 248.241C925.605 248.033 925.827 247.848 925.986 247.625C926.16 247.381 925.476 247.941 925.215 248.088C923.938 248.805 922.48 249.085 921.185 249.746C920.37 250.161 922.95 249.266 923.82 248.985C924.592 248.736 925.36 248.473 926.139 248.246C926.325 248.192 927.528 247.71 927.713 247.973C927.817 248.12 927.436 248.237 927.933 248.209C928.114 248.198 929.041 248.178 928.817 247.812C928.763 247.726 928.293 247.147 928.388 247.416C928.584 247.971 929.285 248.321 929.62 248.798C929.946 249.262 930.003 249.638 929.432 249.189C929.142 248.96 928.825 248.764 928.543 248.525C928.203 248.235 927.98 247.847 927.66 247.539C927.228 247.125 927.832 247.421 928.128 247.478C928.368 247.524 928.592 247.507 928.827 247.451C928.874 247.44 928.826 247.445 928.742 247.496C928.511 247.638 928.315 247.834 928.158 248.053C927.577 248.861 928.07 249.331 928.913 249.467C929.341 249.537 929.037 249.647 928.784 249.794C928.128 250.176 927.471 250.502 926.747 250.737C925.74 251.062 924.824 251.342 923.922 251.896C923.445 252.188 922.875 252.402 922.307 252.351C921.598 252.288 920.878 252.395 920.167 252.408C918.799 252.431 917.48 252.37 916.156 252.043C915.889 251.977 915.71 251.813 915.422 251.802C915.179 251.793 915.39 251.952 915.529 251.995C915.958 252.127 916.295 252.247 916.753 252.266C917.144 252.281 917.477 252.53 917.859 252.488C918.443 252.423 919.135 252.648 919.712 252.437C920.08 252.303 920.403 252.089 920.713 251.853C920.894 251.716 921.444 251.395 921.217 251.395C920.731 251.395 920.293 252.139 919.98 251.513" stroke="white" stroke-width="3" stroke-linecap="round"/>
<path d="M917.281 252.236C917.209 252.363 917.168 252.416 917.029 252.44C916.57 252.516 915.826 252.585 915.414 252.33C915.206 252.201 915.151 252.018 915.042 251.813C914.916 251.576 915.598 251.902 915.738 251.947" stroke="white" stroke-width="3" stroke-linecap="round"/>
<path d="M917.377 252.381C917.341 252.545 917.362 252.607 917.548 252.622C918.34 252.683 919.218 252.583 919.996 252.528C921.147 252.447 922.326 252.381 923.439 252.049C924.402 251.762 925.328 251.322 926.283 251.004C926.471 250.942 927.116 250.845 927.017 250.597" stroke="white" stroke-width="3" stroke-linecap="round"/>
<path d="M923.161 251.417C923.592 251.329 923.931 251.09 924.307 250.86C925.253 250.281 926.245 249.722 927.13 249.05C927.415 248.833 927.099 249.019 927.039 249.06C926.785 249.233 926.539 249.367 926.257 249.489C925.654 249.749 924.767 250.328 924.476 250.927C924.399 251.085 924.828 250.85 924.977 250.755C925.499 250.423 925.947 249.969 926.487 249.666C926.568 249.62 926.246 249.89 926.294 249.778C926.394 249.545 927.114 248.605 926.38 248.691C925.37 248.808 924.388 249.503 923.405 249.77C922.584 249.993 921.612 250.161 920.805 249.789C920.638 249.712 920.561 249.606 920.365 249.639C920.191 249.668 919.847 249.778 920.135 249.529C920.258 249.423 920.478 249.434 920.625 249.403C921.054 249.314 921.452 249.203 921.86 249.055" stroke="white" stroke-width="3" stroke-linecap="round"/>
<path d="M905.471 246.549C905.418 246.651 905.26 246.723 905.279 246.838C905.34 247.205 906.045 247.771 906.296 247.984C907.023 248.599 907.968 248.558 908.84 248.353C910.219 248.03 911.521 247.373 912.734 246.65C913.648 246.106 914.484 245.452 915.363 244.856C916.346 244.19 917.39 243.625 918.381 242.974C918.759 242.726 919.284 242.362 919.351 241.865C919.407 241.447 918.906 241.236 918.601 241.107C916.971 240.422 915.354 240.911 913.778 241.509C911.907 242.219 910.185 243.2 908.455 244.203C907.405 244.812 906.45 245.553 905.45 246.227C905.349 246.295 904.999 246.441 905.054 246.634C905.117 246.855 906.403 245.887 906.494 245.82C907.443 245.133 908.322 244.351 909.279 243.678C909.407 243.588 909.749 243.401 909.461 243.694C908.941 244.223 908.347 244.686 907.764 245.14C907.045 245.699 904.878 247.281 905.734 246.969C906.268 246.774 906.752 246.325 907.199 245.994C908.427 245.083 909.644 244.145 910.929 243.314C910.945 243.303 912.515 242.381 912.525 242.473C912.562 242.834 911.287 243.675 911.1 243.828C909.857 244.846 906.178 247.953 907.474 247.004C909.19 245.748 910.749 244.33 912.541 243.164C913.283 242.68 914.058 242.161 914.871 241.798C915.025 241.729 914.936 241.813 914.876 241.862C914.471 242.194 914.025 242.488 913.601 242.794C911.493 244.318 909.399 245.868 907.274 247.368C907.149 247.456 906.211 248.102 906.984 247.518C908.438 246.42 909.929 245.373 911.459 244.385C912.447 243.747 913.453 243.112 914.533 242.639C914.599 242.61 914.974 242.456 915.09 242.441C915.242 242.421 915.1 242.57 915.085 242.585C914.504 243.157 913.729 243.591 913.066 244.053C911.839 244.907 910.609 245.753 909.448 246.696C909.273 246.837 908.745 247.254 908.934 247.132C909.162 246.986 909.356 246.792 909.571 246.626C910.74 245.724 911.974 244.921 913.248 244.176C914.174 243.634 915.132 243.065 916.127 242.652C916.241 242.605 916.437 242.518 916.236 242.7C915.984 242.93 915.481 243.268 915.248 243.426C913.9 244.344 912.551 245.241 911.258 246.238C911.066 246.386 910.095 247.159 909.791 247.379C909.701 247.443 909.616 247.523 909.51 247.555C909.472 247.567 909.535 247.479 909.56 247.448C910.254 246.619 911.336 246.021 912.238 245.467C913.301 244.814 914.405 244.195 915.519 243.63C915.583 243.597 915.77 243.53 915.733 243.592C915.659 243.714 915.277 244.059 915.229 244.101C914.466 244.775 913.639 245.379 912.819 245.981C912.374 246.308 911.891 246.737 911.373 246.956C910.713 247.234 912.466 246.027 913.039 245.598C914.486 244.514 916.042 243.596 917.5 242.54C917.8 242.323 917.938 242.171 917.618 241.969C917.383 241.822 917.036 241.721 916.761 241.691C916.672 241.681 916.073 241.719 916.434 241.573C916.934 241.372 917.488 241.171 918.02 241.086C918.176 241.061 918.413 241.037 918.502 241.209C918.535 241.274 918.475 241.474 918.529 241.506C918.567 241.529 918.735 241.536 918.708 241.541C918.459 241.584 918.224 241.646 917.985 241.728C917.547 241.88 917.258 241.931 916.809 241.921C916.324 241.91 916.994 241.696 917.141 241.686C917.444 241.664 917.157 241.869 917.066 241.916C916.731 242.09 916.119 242.385 915.733 242.218C915.326 242.043 916.737 241.531 916.606 241.758C916.362 242.179 915.323 242.531 916.057 241.828C916.639 241.27 916.771 241.671 917.412 241.854C917.631 241.917 918.453 241.825 918.598 241.648C918.665 241.567 918.847 241.316 918.764 241.38C918.427 241.643 918.129 241.993 917.838 242.301C917.834 242.306 917.287 242.986 917.211 242.891C917.026 242.66 917.329 242.599 917.5 242.524C917.843 242.373 918.344 242.008 918.724 241.999C918.805 241.997 918.399 242.564 918.365 242.615C918.067 243.055 918.259 242.679 918.529 242.457C918.948 242.111 918.625 242.245 918.32 242.446C917.691 242.861 917.133 243.369 916.509 243.79C916.174 244.017 915.857 244.115 915.47 244.208C915.376 244.231 915.014 244.418 915.229 244.203C915.618 243.814 915.987 243.408 916.301 242.955C916.438 242.757 916.862 242.226 916.772 241.937C916.724 241.783 915.552 242.014 915.687 241.795C915.776 241.652 916.305 241.211 916.266 241.241C915.717 241.668 915.152 241.944 914.635 242.435C912.958 244.029 911.313 245.707 909.408 247.031C908.879 247.398 907.361 248.565 907.788 248.083C908.014 247.827 909.042 247.62 908.701 247.62C908.435 247.62 907.82 248.074 907.59 247.877C907.451 247.758 907.416 247.366 907.544 247.264C907.705 247.134 907.907 247.01 908.114 246.974C908.175 246.964 907.678 247.228 907.582 247.261C907.442 247.308 906.355 247.384 906.553 246.929C906.57 246.891 907.789 246.587 906.877 247.138C906.661 247.268 906.483 247.154 906.5 247.274C906.526 247.466 906.313 247.262 906.339 247.079" stroke="white" stroke-width="3" stroke-linecap="round"/>
<path d="M934.539 252.268C934.597 252.07 934.668 251.895 934.823 251.749C935.953 250.681 937.392 249.682 938.787 249.009C940.101 248.375 940.246 248.966 940.749 250.006C941.205 250.95 941.841 252.274 943.116 252.004C943.886 251.841 944.482 251.268 945.195 250.971C945.691 250.764 946.045 250.878 946.541 250.983C947.242 251.131 947.937 251.058 948.644 250.995C949.55 250.915 950.121 251.033 950.955 251.319" stroke="#9B18A6" stroke-width="3" stroke-linecap="round"/>
<path d="M941.397 242.346C941.344 242.334 940.887 242.28 940.935 242.135C941.04 241.82 941.749 240.889 941.77 240.862C942.332 240.113 943.361 238.812 943.983 238.114C944.508 237.525 945.002 236.713 945.548 237.506C945.87 237.974 946.139 238.326 946.747 238.398C949.062 238.671 950.642 236.145 952.122 234.758" stroke="#9B18A6" stroke-width="3" stroke-linecap="round"/>
<path d="M915.205 235.779C914.91 236.205 914.799 236.246 914.249 236.047C913.254 235.687 912.205 235.18 911.46 234.409C910.169 233.075 910.709 231.341 910.269 229.708C909.895 228.323 908.544 229.53 907.707 228.816C906.932 228.155 906.493 227.265 905.575 226.806" stroke="#9B18A6" stroke-width="3" stroke-linecap="round"/>
<path d="M915.862 224.617C915.713 224.609 915.279 224.592 915.542 224.398C915.993 224.065 916.038 224.343 916.048 224.836C916.076 226.094 916.049 227.388 916.34 228.621C916.646 229.917 917.329 229.689 918.286 230.202C919.769 230.998 919.318 233.19 919.145 234.539" stroke="#9B18A6" stroke-width="3" stroke-linecap="round"/>
<path d="M906.013 240.303C905.967 240.764 905.638 240.684 905.307 240.441C904.169 239.601 903.929 238.802 903.735 237.522C903.691 237.236 903.692 236.565 903.394 236.387C903.179 236.259 902.844 236.447 902.616 236.444C902.265 236.44 902.165 236.099 902 235.852" stroke="#9B18A6" stroke-width="3" stroke-linecap="round"/>
<path d="M915.014 240.633C912.229 240.781 908.925 241.223 907.12 243.594C905.831 245.288 905.78 247.897 907.479 249.358C908.335 250.094 909.429 250.55 910.487 250.904C912.314 251.515 914.239 251.963 916.137 252.288C920.097 252.967 924.367 252.734 928.195 251.509C930.22 250.86 933.089 249.814 933.807 247.536C934.443 245.521 932.576 244.306 931.031 243.591C928.759 242.539 926.315 241.564 923.88 240.963C921.221 240.306 918.739 240.427 916.042 240.694" stroke="black" stroke-width="3" stroke-linecap="round"/>
<path d="M920.821 244.202C920.811 244.034 920.713 243.997 920.573 243.927C920.1 243.691 919.27 243.749 918.791 243.745C917.548 243.737 916.414 243.898 915.253 244.344C913.898 244.864 911.934 245.621 911.68 247.288C911.439 248.874 915.155 249.004 915.989 249.049C918.21 249.168 920.349 248.934 922.468 248.259C923.193 248.028 925.529 247.51 925.409 246.4C925.304 245.434 924.11 244.786 923.308 244.498C922.061 244.05 920.665 244.055 919.37 243.839" stroke="black" stroke-width="3" stroke-linecap="round"/>
<path d="M920.761 239.302C920.692 239.316 920.393 239.426 920.337 239.329C920.284 239.236 920.316 238.847 920.317 238.825C920.354 237.856 920.433 236.874 920.66 235.928C921.354 233.032 922.773 230.105 924.538 227.725C925.652 226.223 926.963 224.837 928.383 223.621C929.9 222.323 931.669 221.146 933.726 221.013C937.498 220.77 940.538 223.885 941.56 227.291C942.504 230.437 941.948 233.703 940.818 236.701C939.95 239.002 938.815 241.092 937.353 243.07C936.695 243.959 935.92 244.756 935.279 245.654" stroke="black" stroke-width="3" stroke-linecap="round"/>
<path d="M906.484 246.683C906.091 246.44 905.988 246.73 905.799 247.12C905.119 248.519 904.441 250.435 905.953 251.542C907.27 252.506 908.768 253.123 910.047 254.17C911.434 255.307 912.938 256.429 913.502 258.176" stroke="black" stroke-width="3" stroke-linecap="round"/>
<path d="M933.948 248.014C933.697 248.014 933.56 247.991 933.353 248.168C932.299 249.071 931.352 250.273 930.715 251.509C930.122 252.66 929.483 253.817 929.368 255.128C929.299 255.907 929.462 256.668 929.411 257.45" stroke="black" stroke-width="3" stroke-linecap="round"/>
<path d="M913.865 258.479C915.472 260.01 917.519 260.085 919.662 260.29C922.018 260.516 924.522 260.796 926.807 260.038C927.989 259.646 929.192 259.17 929.895 258.116" stroke="black" stroke-width="3" stroke-linecap="round"/>
<path d="M975.5 271H875.5L889 232" stroke="black" stroke-linecap="round"/>
<path d="M877.5 207.5H974.5" stroke="black" stroke-linecap="round"/>
<path d="M975.5 347.5H875.5L886.5 286.5" stroke="black" stroke-linecap="round"/>
<path d="M777.5 224.5H805.5C807.157 224.5 808.5 225.843 808.5 227.5V265.5C808.5 267.157 807.157 268.5 805.5 268.5H777.5" stroke="black" stroke-linecap="round"/>
<path d="M778 296H806C807.657 296 809 297.343 809 299V337C809 338.657 807.657 340 806 340H778" stroke="black" stroke-linecap="round"/>
<path d="M589 1071H655.564C656.174 1071 656.768 1070.81 657.27 1070.47L684 1052" stroke="black" stroke-linecap="round"/>
<path d="M745 1070.5H693" stroke="black" stroke-linecap="round"/>
<path d="M1420 857V714" stroke="black" stroke-linecap="round"/>
<path d="M1420 518V375" stroke="black" stroke-linecap="round"/>
<path d="M127 383.5V473.5" stroke="black" stroke-linecap="round"/>
<path d="M126.5 733.5V827" stroke="black" stroke-linecap="round"/>
<path d="M776.713 544.985L777.297 553.161C777.411 554.752 778.751 555.976 780.346 555.946L800.96 555.557C802.632 555.526 803.956 554.133 803.902 552.461L803.601 543.126C803.546 541.421 802.082 540.105 800.381 540.231L779.484 541.779C777.835 541.901 776.595 543.335 776.713 544.985Z" stroke="black" stroke-linecap="round"/>
<path d="M846.287 551.015L845.703 542.839C845.589 541.248 844.249 540.024 842.654 540.054L822.04 540.443C820.368 540.474 819.044 541.867 819.098 543.539L819.399 552.874C819.454 554.579 820.918 555.895 822.619 555.769L843.516 554.221C845.165 554.099 846.405 552.665 846.287 551.015Z" stroke="black" stroke-linecap="round"/>
<circle cx="788.5" cy="634.5" r="12.5" fill="#D9D9D9"/>
<circle cx="831.5" cy="631.5" r="12.5" fill="#D9D9D9"/>
<path d="M776.713 606.985L777.297 615.161C777.411 616.752 778.751 617.976 780.346 617.946L800.96 617.557C802.632 617.526 803.956 616.133 803.902 614.461L803.601 605.126C803.546 603.421 802.082 602.105 800.381 602.231L779.484 603.779C777.835 603.901 776.595 605.335 776.713 606.985Z" stroke="black" stroke-linecap="round"/>
<path d="M846.287 613.015L845.703 604.839C845.589 603.248 844.249 602.024 842.654 602.054L822.04 602.443C820.368 602.474 819.044 603.867 819.098 605.539L819.399 614.874C819.454 616.579 820.918 617.895 822.619 617.769L843.516 616.221C845.165 616.099 846.405 614.665 846.287 613.015Z" stroke="black" stroke-linecap="round"/>
<circle cx="873.5" cy="569.5" r="12.5" fill="#D9D9D9"/>
<path d="M888.287 551.015L887.703 542.839C887.589 541.248 886.249 540.024 884.654 540.054L864.04 540.443C862.368 540.474 861.044 541.867 861.098 543.539L861.399 552.874C861.454 554.579 862.918 555.895 864.619 555.769L885.516 554.221C887.165 554.099 888.405 552.665 888.287 551.015Z" stroke="black" stroke-linecap="round"/>
<circle cx="873.5" cy="631.5" r="12.5" fill="#D9D9D9"/>
<path d="M888.287 613.015L887.703 604.839C887.589 603.248 886.249 602.024 884.654 602.054L864.04 602.443C862.368 602.474 861.044 603.867 861.098 605.539L861.399 614.874C861.454 616.579 862.918 617.895 864.619 617.769L885.516 616.221C887.165 616.099 888.405 614.665 888.287 613.015Z" stroke="black" stroke-linecap="round"/>
<circle cx="786.5" cy="686.5" r="12.5" fill="#D9D9D9"/>
<circle cx="829.5" cy="683.5" r="12.5" fill="#D9D9D9"/>
<path d="M774.713 658.985L775.297 667.161C775.411 668.752 776.751 669.976 778.346 669.946L798.96 669.557C800.632 669.526 801.956 668.133 801.902 666.461L801.601 657.126C801.546 655.421 800.082 654.105 798.381 654.231L777.484 655.779C775.835 655.901 774.595 657.335 774.713 658.985Z" stroke="black" stroke-linecap="round"/>
<path d="M844.287 665.015L843.703 656.839C843.589 655.248 842.249 654.024 840.654 654.054L820.04 654.443C818.368 654.474 817.044 655.867 817.098 657.539L817.399 666.874C817.454 668.579 818.918 669.895 820.619 669.769L841.516 668.221C843.165 668.099 844.405 666.665 844.287 665.015Z" stroke="black" stroke-linecap="round"/>
<circle cx="871.5" cy="683.5" r="12.5" fill="#D9D9D9"/>
<path d="M886.287 665.015L885.703 656.839C885.589 655.248 884.249 654.024 882.654 654.054L862.04 654.443C860.368 654.474 859.044 655.867 859.098 657.539L859.399 666.874C859.454 668.579 860.918 669.895 862.619 669.769L883.516 668.221C885.165 668.099 886.405 666.665 886.287 665.015Z" stroke="black" stroke-linecap="round"/>
<path d="M871.201 685.045L870.975 684.379L872.99 676.897L868.862 678.298L868.585 677.484L873.809 675.712L874.035 676.377L872.019 683.859L876.148 682.458L876.424 683.272L871.201 685.045ZM877.681 682.845L877.456 682.18L879.275 676.942L879.255 676.883L876.133 677.942L875.857 677.128L880.103 675.687L880.339 676.383L878.598 681.561L878.619 681.62L881.859 680.52L882.135 681.334L877.681 682.845ZM883.317 680.933L883.091 680.267L884.911 675.03L884.891 674.97L881.769 676.03L881.492 675.216L885.739 673.775L885.975 674.47L884.234 679.648L884.254 679.707L887.494 678.608L887.771 679.422L883.317 680.933ZM888.952 679.021L888.727 678.355L890.546 673.117L890.526 673.058L887.404 674.117L887.128 673.304L891.374 671.863L891.61 672.558L889.87 677.736L889.89 677.795L893.13 676.695L893.406 677.509L888.952 679.021ZM894.588 677.108L894.362 676.442L896.182 671.205L896.162 671.146L893.04 672.205L892.763 671.391L897.01 669.95L897.246 670.646L895.505 675.823L895.525 675.883L898.766 674.783L899.042 675.597L894.588 677.108ZM901.043 674.984C900.86 675.046 900.681 675.033 900.506 674.947C900.331 674.861 900.213 674.726 900.151 674.544C900.089 674.361 900.101 674.183 900.187 674.008C900.274 673.833 900.408 673.714 900.591 673.652C900.773 673.59 900.952 673.602 901.127 673.689C901.302 673.775 901.421 673.909 901.483 674.092C901.524 674.213 901.53 674.334 901.503 674.456C901.478 674.577 901.426 674.686 901.345 674.782C901.267 674.875 901.166 674.942 901.043 674.984ZM903.911 674.01C903.729 674.072 903.55 674.06 903.375 673.974C903.2 673.887 903.081 673.753 903.019 673.57C902.958 673.388 902.97 673.209 903.056 673.034C903.142 672.859 903.277 672.741 903.459 672.679C903.642 672.617 903.821 672.629 903.996 672.715C904.171 672.802 904.289 672.936 904.351 673.119C904.392 673.239 904.399 673.361 904.372 673.483C904.347 673.604 904.294 673.713 904.214 673.809C904.135 673.901 904.035 673.968 903.911 674.01ZM906.78 673.037C906.597 673.099 906.419 673.087 906.244 673C906.069 672.914 905.95 672.779 905.888 672.597C905.826 672.414 905.838 672.236 905.925 672.061C906.011 671.886 906.145 671.767 906.328 671.705C906.51 671.643 906.689 671.655 906.864 671.742C907.039 671.828 907.158 671.963 907.22 672.145C907.261 672.266 907.268 672.387 907.24 672.509C907.215 672.631 907.163 672.739 907.083 672.835C907.004 672.928 906.903 672.995 906.78 673.037Z" fill="black"/>
<path d="M707.5 1097V1191" stroke="black" stroke-linecap="round"/>
<path d="M628.5 1097V1191" stroke="black" stroke-linecap="round"/>
<path fill-rule="evenodd" clip-rule="evenodd" d="M766 1120.5C766 1124.97 764.325 1129.05 761.567 1132.14C763.135 1135.95 764 1140.12 764 1144.5C764 1148.54 763.263 1152.41 761.915 1155.98C764.498 1160.15 766 1165.14 766 1170.5C766 1185.14 754.807 1197 741 1197C728.033 1197 717.372 1186.54 716.122 1173.14C705.929 1167.65 699 1156.89 699 1144.5C699 1126.55 713.551 1112 731.5 1112C732.062 1112 732.621 1112.01 733.176 1112.04C736.158 1106.65 741.903 1103 748.5 1103C758.165 1103 766 1110.84 766 1120.5Z" fill="#649869"/>
<path d="M558.5 1253.5V1221.5C558.5 1219.84 559.843 1218.5 561.5 1218.5H600V1207C600 1205.34 601.343 1204 603 1204H790.5C792.157 1204 793.5 1205.34 793.5 1207V1268C793.5 1269.66 792.157 1271 790.5 1271H603C601.343 1271 600 1269.66 600 1268V1256.5H561.5C559.843 1256.5 558.5 1255.16 558.5 1253.5Z" fill="#FFD800"/>
<path d="M600 1256.5H561.5C559.843 1256.5 558.5 1255.16 558.5 1253.5V1221.5C558.5 1219.84 559.843 1218.5 561.5 1218.5H600M600 1256.5V1218.5M600 1256.5V1268C600 1269.66 601.343 1271 603 1271H790.5C792.157 1271 793.5 1269.66 793.5 1268V1207C793.5 1205.34 792.157 1204 790.5 1204H603C601.343 1204 600 1205.34 600 1207V1218.5" stroke="black" stroke-linecap="round"/>
<path d="M847 1253.5V1221.5C847 1219.84 848.343 1218.5 850 1218.5H888.5V1207C888.5 1205.34 889.843 1204 891.5 1204H1079C1080.66 1204 1082 1205.34 1082 1207V1268C1082 1269.66 1080.66 1271 1079 1271H891.5C889.843 1271 888.5 1269.66 888.5 1268V1256.5H850C848.343 1256.5 847 1255.16 847 1253.5Z" fill="#FFD800"/>
<path d="M888.5 1256.5H850C848.343 1256.5 847 1255.16 847 1253.5V1221.5C847 1219.84 848.343 1218.5 850 1218.5H888.5M888.5 1256.5V1218.5M888.5 1256.5V1268C888.5 1269.66 889.843 1271 891.5 1271H1079C1080.66 1271 1082 1269.66 1082 1268V1207C1082 1205.34 1080.66 1204 1079 1204H891.5C889.843 1204 888.5 1205.34 888.5 1207V1218.5" stroke="black" stroke-linecap="round"/>
<!-- <circle r="15" fill="lightgrey"> -->
<circle cx="12.5" cy="30.5" r="12.5" fill="#D9D9D9">
    <animateMotion
      dur="20s"     
      repeatCount="indefinite"
      path="M462.5 690.5H432.5V447H181V417H656H998.5C979.833 428 948.6 452.4 973 462C997.4 471.6 1035.17 454.333 1051 444.5C1039.83 423.833 996.4 392.2 912 431C827.6 469.8 998.833 467.833 1095 462C1088.83 456.167 1026.2 444.5 825 444.5C623.8 444.5 460.833 435.5 404.5 431V784H1219V822H656V1006H695.5V915V753.5H462.5V690.5Z" />

  </circle>
  <path d="M24.5 18.5L16 21.1444M16 21.1444L2 25.5V25.5C2 17.934 11.823 14.8359 16 21.1444V21.1444Z" stroke="black" stroke-linecap="round">
    <animateMotion
      dur="20s"     
      repeatCount="indefinite"
      path="M462.5 690.5H432.5V447H181V417H656H998.5C979.833 428 948.6 452.4 973 462C997.4 471.6 1035.17 454.333 1051 444.5C1039.83 423.833 996.4 392.2 912 431C827.6 469.8 998.833 467.833 1095 462C1088.83 456.167 1026.2 444.5 825 444.5C623.8 444.5 460.833 435.5 404.5 431V784H1219V822H656V1006H695.5V915V753.5H462.5V690.5Z" />
    </path>
  <path  d="M2 25.5L16 21.1444C11.823 14.8359 2 17.934 2 25.5Z" fill="purple">
      <animateMotion
      dur="20s"     
      repeatCount="indefinite"
      path="M462.5 690.5H432.5V447H181V417H656H998.5C979.833 428 948.6 452.4 973 462C997.4 471.6 1035.17 454.333 1051 444.5C1039.83 423.833 996.4 392.2 912 431C827.6 469.8 998.833 467.833 1095 462C1088.83 456.167 1026.2 444.5 825 444.5C623.8 444.5 460.833 435.5 404.5 431V784H1219V822H656V1006H695.5V915V753.5H462.5V690.5Z" />

  </path>

</svg>
