<svg width="204" height="204" viewBox="0 0 204 204" fill="none" xmlns="http://www.w3.org/2000/svg">
<rect x="0.5" y="0.5" width="203" height="203" fill="#EDE7E2" stroke="black"/>
<path d="M53.6748 107.33C53.702 107.251 54.6948 105.41 54.6948 106.193C54.6948 106.711 54.4233 107.306 54.3306 107.811C53.4485 112.613 53.4933 117.691 53.1503 122.542" stroke="black" stroke-width="3" stroke-linecap="round"/>
<path d="M54.1995 102.871C54.6171 103.436 54.6365 103.471 55.2777 103.279C62.6604 101.064 70.9744 100.541 78.6211 100.015C83.5395 99.6762 88.4379 99.9506 93.3237 100.569C97.4271 101.088 101.865 101.637 104.675 105.027C107.494 108.429 105.554 111.968 104.704 115.679C104.339 117.274 104.676 118.655 104.383 120.24C103.963 122.518 103.402 125.012 102.46 127.132C101.995 128.178 98.3915 127.978 97.564 128.05C90.4819 128.666 83.4229 127.556 76.4209 126.579C68.789 125.513 60.9124 124.936 53.4126 123.329" stroke="black" stroke-width="3" stroke-linecap="round"/>
<path d="M56.2977 102.084C56.3502 101.664 57.2727 101.566 57.6092 101.428C59.8308 100.519 64.3607 99.5943 66.0023 99.1697C78.2174 96.0098 90.4183 92.794 102.635 89.64C117.071 85.9128 131.677 82.5056 146.32 79.6877C148.309 79.305 153.332 77.3088 154.917 79.5274" stroke="black" stroke-width="3" stroke-linecap="round"/>
<path d="M120.558 118.083C120.167 117.381 119.595 116.991 119.742 116.087C120.16 113.516 121.872 108.545 124.375 107.242C127.128 105.81 131.421 113.875 130.932 115.927C130.253 118.779 126.221 121.481 123.443 120.065C121.299 118.973 118.856 116.279 119.509 113.887" stroke="black" stroke-width="3" stroke-linecap="round"/>
<path d="M58.6583 148.509C58.0311 149.381 57.8751 149.71 59.0663 149.805C63.824 150.186 68.6379 149.898 73.4046 150.199C78.7535 150.536 84.0958 150.972 89.4477 151.306C94.0721 151.595 98.3829 152.055 102.46 154.279" stroke="black" stroke-width="3" stroke-linecap="round"/>
<path d="M56.5601 148.771C56.8229 148.771 57.1237 148.811 57.376 148.727C58.396 148.387 60.4468 146.728 61.0189 146.352C64.8736 143.815 68.7453 141.271 72.778 139.023C78.9469 135.583 85.9556 133.348 92.4932 130.673" stroke="black" stroke-width="3" stroke-linecap="round"/>
<path d="M104.296 153.23C104.725 153.187 105.192 153.028 105.607 152.909C106.232 152.731 106.874 152.156 107.327 151.845C114.597 146.861 121.907 141.934 129.169 136.939C137.207 131.41 145.005 125.605 152.644 119.541C155.59 117.202 158.532 114.498 161.736 112.575" stroke="black" stroke-width="3" stroke-linecap="round"/>
<path d="M102.985 127.001C102.356 127.394 102.198 127.501 102.198 126.739" stroke="black" stroke-width="3" stroke-linecap="round"/>
<path d="M102.198 126.739C105.179 128.766 110.773 128.516 114.248 127.861C123.847 126.052 132.932 122.892 141.22 117.675C144.914 115.35 149.121 112.301 153.606 111.803C155.816 111.558 159.031 111.961 160.95 111.002" stroke="black" stroke-width="3" stroke-linecap="round"/>
<path d="M57.8715 149.82C57.3849 149.82 57.0846 149.935 57.0846 150.476C57.0846 150.855 57.1584 151.596 57.3469 151.889C57.9833 152.88 59.1636 153.444 60.1737 153.9C63.9032 155.583 67.9945 156.788 71.9911 157.63C81.5537 159.645 91.3194 157.94 100.974 158.155C102.758 158.194 103.816 158.722 103.422 156.873C103.064 155.193 103.355 153.35 103.509 151.656" stroke="black" stroke-width="3" stroke-linecap="round"/>
<path d="M104.558 157.689C111.164 152.584 119.031 148.878 126.08 144.414C132.961 140.057 139.605 135.35 146.174 130.542C150.64 127.273 155.058 124.033 159.813 121.202C160.42 120.84 161.164 120.674 160.425 120.182" stroke="black" stroke-width="3" stroke-linecap="round"/>
<path d="M122.656 99.7235C123.548 100.244 125.921 99.1079 126.313 98.9804C135.041 96.1422 143.744 93.1206 152.615 90.7475C156.507 89.7062 162.139 87.6849 166.195 89.7129C168.501 90.8658 170.837 93.998 171.12 96.6927C171.482 100.13 171.842 103.976 171.689 107.432C171.619 109.008 171.368 110.294 171.966 111.789" stroke="black" stroke-width="3" stroke-linecap="round"/>
<path d="M157.802 121.231L157.278 122.018" stroke="black" stroke-width="3" stroke-linecap="round"/>
<path d="M157.278 122.018C160.275 120.775 162.769 118.2 165.277 116.247C166.665 115.168 171.07 112.793 171.966 111.002" stroke="black" stroke-width="3" stroke-linecap="round"/>
<path d="M126.066 114.936C122.506 116.662 127.307 112.263 124.914 115.985C123.664 117.93 124.675 113.976 125.366 114.907C126.267 116.121 123.282 116.842 123.588 115.577C123.657 115.293 124.52 115.035 124.463 115.49C124.401 115.98 123.977 116.391 123.705 116.772" stroke="black" stroke-width="3" stroke-linecap="round"/>
<path d="M80.6902 144.837C79.881 145.342 79.9351 145.117 80.7777 145.099C87.6602 144.949 94.5876 145.219 101.469 145.361C102.367 145.38 104.866 145.922 104.165 145.361C103.634 144.937 110.47 141.441 111.115 141.165" stroke="black" stroke-width="3" stroke-linecap="round"/>
<path d="M81.4771 143.525C81.114 143.888 82.2352 142.763 82.3951 142.622C84.7337 140.558 90.3643 139.037 93.4402 139.037C96.2563 139.037 99.0084 138.896 101.848 139.066C103.07 139.139 109.732 140.45 110.328 139.853" stroke="black" stroke-width="3" stroke-linecap="round"/>
<path d="M126.59 121.231C126.315 121.575 126.349 121.901 126.313 122.324C126.102 124.859 124.407 127.388 123.428 129.682C121.81 133.474 123.736 135.744 127.523 134.301C130.343 133.227 134.126 129.826 131.399 126.535C129.693 124.476 128.004 123.369 127.377 120.706" stroke="#68A2F8" stroke-width="3" stroke-linecap="round"/>
<path d="M127.115 130.935C126.387 131.026 125.883 130.775 126.386 129.624C127.467 127.154 128.377 130.073 127.377 129.93C126.702 129.833 126.59 131.531 126.372 131.941C125.72 133.162 127.299 129.321 127.567 127.963C127.842 126.56 126.695 125.699 127.698 126.768C127.912 126.997 129.278 128.101 129.155 128.502C128.648 130.148 126.173 130.53 125.395 132.13C124.972 133.001 127.762 131.156 127.843 131.373C128.38 132.805 125.898 132.698 128.805 131.402C131.126 130.367 132.246 127.318 128.951 128.05" stroke="#68A2F8" stroke-width="3" stroke-linecap="round"/>
<path d="M123.443 149.033C118.669 149.033 113.096 160.028 120.878 159.466C122.347 159.36 123.694 158.747 125.133 158.534C126.642 158.31 126.3 159.51 127.159 160.282C129.064 161.997 133.954 160.821 136.12 160.515C138.314 160.205 139.876 159.455 141.919 160.151C145.762 161.461 151.553 157.436 154.917 155.984C155.56 155.706 156.559 155.031 157.015 155.867C157.802 157.308 159.894 154.914 160.425 154.337C161.962 152.667 167.694 146.6 166.545 143.904C166.216 143.133 164.82 142.736 164.184 142.359C162.164 141.162 161.22 139.466 159.755 137.74C157.114 134.63 152.335 136.021 149.147 137.172C147.153 137.892 146.588 137.209 144.804 137.026C143.209 136.863 141.598 137.755 139.967 137.755" stroke="#68A2F8" stroke-width="3" stroke-linecap="round"/>
<path d="M121.082 153.754C122.294 152.543 123.691 151.58 125.104 150.607C126.677 149.524 130.057 147.256 131.807 146.323C134.385 144.948 133.486 146.425 132.463 147.62C130.694 149.683 128.39 151.208 126.007 152.472C124.185 153.438 121.163 154.51 123.734 151.539C125.826 149.123 128.498 147.145 131.224 145.507C131.925 145.085 137.322 142.189 134.736 145.347C132.622 147.927 129.685 150.263 126.619 151.598C121.983 153.617 127.176 148.599 127.96 147.955C130.623 145.767 133.435 143.714 136.324 141.835C136.64 141.63 140.937 138.535 140.346 140.145C138.762 144.454 133.457 148.229 130.058 151.015C128.471 152.316 126.939 153.622 125.454 155.037C124.614 155.836 124.346 155.731 125.119 154.731C128.089 150.886 133.56 147.656 137.81 145.507C142.348 143.212 137.649 147.826 136.441 148.771C134.485 150.3 132.368 151.575 130.146 152.676C128.806 153.339 126.577 154.865 125.017 154.818C123.319 154.767 130.332 147.92 130.699 147.605C131.22 147.159 133.023 145.294 133.963 145.536C134.6 145.7 132.028 148.499 131.909 148.611C130.457 149.97 128.672 150.885 126.998 151.933C126.495 152.248 123.235 155.038 122.569 154.716C121.484 154.192 127.602 148.295 127.96 147.999C129.942 146.361 136.56 142.515 134.138 143.379C131.522 144.314 129.305 147.026 126.649 148.188C125.313 148.772 124.637 149.401 126.007 147.926C127.823 145.971 130.12 144.806 132.448 143.583C134.53 142.49 128.994 146.777 127.231 148.334C126.72 148.786 125.369 150.243 125.993 149.966C127.366 149.355 129.189 146.699 130.321 145.74C132.966 143.499 140.825 136.934 138.845 139.78C137.004 142.426 133.325 143.998 130.962 146.177C129.368 147.647 127.792 149.216 126.007 150.461C125.261 150.982 128.964 147.128 129.286 146.847C132.096 144.402 135.837 140.969 139.471 139.824C140.397 139.533 139.726 140.549 139.617 140.698C138.057 142.824 135.75 144.609 133.73 146.25C131.172 148.328 128.424 150.548 125.425 151.977C124.724 152.31 124.609 151.9 124.317 152.414C123.814 153.298 123.145 154.062 122.394 154.745C120.85 156.148 120.27 156.233 122.845 156.683C125.397 157.129 126.052 159.072 124.754 156.873C124.121 155.8 123.875 155.3 122.758 154.803C121.574 154.277 126.402 151.928 125.512 153.201C124.671 154.402 123.21 155.581 121.782 155.969C119.295 156.644 120.51 153.85 121.782 153.186C122.594 152.762 124.715 152.869 124.084 154.352C123.555 155.594 120.221 157.821 121.49 154.833C122.724 151.927 124.044 151.145 124.492 154.279" stroke="#68A2F8" stroke-width="3" stroke-linecap="round"/>
<path d="M125.541 156.115C125.119 156.597 125.899 156.015 125.978 155.955C127.315 154.939 130.722 154.889 131.938 156.144C133.57 157.829 128.222 159.362 129.913 156.625C131.061 154.765 135.77 148.788 138.102 152.21C140.168 155.243 133.669 156.963 132.157 155.27C130.495 153.409 141.343 149.952 142.619 149.878C144.272 149.782 145.637 150.928 144.411 152.574C143.043 154.41 139.541 156.63 137.213 156.596C134.784 156.56 135.343 154.439 136.645 153.375C138.704 151.694 141.802 150.831 144.426 150.694C145.647 150.631 147.711 151.225 146.699 152.836C145.616 154.56 142.959 155.099 141.118 155.415C136.327 156.239 140.829 152.688 142.91 152.093C143.453 151.938 148.378 150.557 148.185 152.239C147.98 154.023 145.211 154.775 143.843 155.066C142.415 155.369 140.124 155.497 142.313 153.798C145.233 151.531 149.504 149.083 153.212 148.567C155.352 148.269 154.724 150.473 153.941 151.51C152.779 153.048 151.016 153.687 149.118 153.579C147.756 153.502 147.979 152.882 148.855 152.122C150.691 150.531 153.277 149.467 155.675 149.15C160.865 148.463 156.286 153.506 154.043 152.589C152.582 151.991 159.735 145.723 160.104 147.226C160.387 148.375 159.939 149.972 159.055 150.753C158.665 151.097 156.988 151.826 157.394 150.607C157.837 149.279 159.07 147.878 160.017 146.891C160.297 146.6 162.639 144.591 162.319 146.235C162.134 147.187 158.822 152.068 158.924 150.374C158.979 149.464 161.643 142.942 163.223 144.429C163.413 144.608 162.298 145.435 162.057 145.332C161.351 145.03 161.177 143.022 160.891 142.389C160.253 140.976 158.31 140.984 157.132 140.334C155.328 139.339 154.008 138.542 151.901 138.542C149.537 138.542 147.498 138.37 145.314 139.329C143.508 140.122 138.57 143.338 140.054 142.039C142.823 139.616 146.057 139.037 149.555 138.95C151.763 138.895 153.681 137.953 155.82 137.609C157.202 137.387 158.841 139.448 159.667 140.319C161.208 141.945 162.808 143.628 162.261 146.09C161.87 147.85 158.683 149.581 158.793 151.19C158.826 151.679 158.618 152.084 158.618 152.545C158.618 153.75 160.899 151.59 161.751 150.738C161.954 150.535 165.36 145.834 164.534 145.886C162.665 146.003 159.506 151.141 158.341 152.385C155.216 155.721 157.33 152.719 158.764 151.248C159.396 150.6 163.222 146.353 160.396 149.135C158.643 150.861 156.557 151.843 154.567 153.215C154.175 153.486 153.681 154.176 153.198 154.264C149.23 154.986 143.211 159.805 139.02 157.82C137.159 156.938 134.38 156.568 132.419 157.222C131.517 157.523 129.193 157.739 128.31 157.31C126.787 156.569 126.046 156.115 124.23 156.115C123.041 156.115 121.192 157.177 120.179 156.887C119.866 156.798 122.243 154.224 122.335 154.133C125.414 151.095 129.95 150.103 133.934 148.771C138.796 147.146 143.926 146.179 149.059 145.973C149.725 145.946 152.994 145.676 153.518 146.643C154.105 147.726 151.106 147.226 149.875 147.255C149.182 147.272 142.169 147.524 142.983 145.449C143.865 143.201 149.163 141.99 151.274 141.791C152.486 141.677 155.069 142.648 153.591 144.268C152.357 145.622 149.598 145.415 147.966 145.332C147.675 145.317 144.08 145.171 144.848 144.37C146.113 143.053 148.584 141.902 150.4 141.777C151.311 141.714 153.557 142.507 152.148 143.642C150.595 144.893 147.961 145.07 146.058 145.07C145.6 145.07 141.04 144.686 142.881 143.35C143.869 142.633 147.138 140.98 146.145 141.689C144.72 142.707 142.762 143.791 141.132 144.429C138.979 145.271 145.308 142.368 147.544 141.777C150.118 141.095 153.536 140.416 155.165 143.161C157.688 147.415 145.734 148.644 143.376 149.048C143.229 149.073 140.361 149.847 140.987 148.917C142.455 146.734 145.754 145.159 148.127 144.341C149.815 143.76 160.128 140.911 159.784 144.982C159.536 147.918 153.818 148.967 151.507 148.45C149.404 147.98 154.345 144.416 154.83 144.108C155.283 143.82 160.104 141.71 157.482 141.864C155.79 141.964 154.118 141.824 153.343 143.205C152.169 145.298 148.9 145.526 146.844 146.192C144.69 146.889 142.516 147.607 140.448 148.538C140.243 148.63 139.272 149.262 139.005 149.15C138.798 149.062 139.423 148.432 139.53 148.407C140.358 148.212 137.408 154.365 136.98 154.847C135.465 156.553 128.964 158.027 131.195 158.505C132.049 158.688 134.02 157.56 134.954 157.426C137.145 157.113 139.615 156.272 141.832 156.435C143.542 156.561 135.369 157.313 136.936 158.009C137.69 158.344 138.541 157.598 139.296 157.266C142.498 155.861 145.599 154.21 148.71 152.618C151.793 151.04 154.114 149.874 156.258 147.226C157.12 146.162 161.277 142.629 157.802 143.787" stroke="#68A2F8" stroke-width="3" stroke-linecap="round"/>
<path d="M33.9895 20.48C33.9895 20.3867 34.0162 20.3133 34.0695 20.26C34.1229 20.1933 34.2095 20.16 34.3295 20.16H45.5695C45.6895 20.16 45.7762 20.1933 45.8295 20.26C45.8829 20.3133 45.9095 20.3867 45.9095 20.48V22.04C45.9095 22.2267 45.8029 22.32 45.5895 22.32H41.7495C41.6029 22.32 41.5295 22.3867 41.5295 22.52V34.66C41.5295 34.8867 41.4295 35 41.2295 35H38.8495C38.6629 35 38.5695 34.8933 38.5695 34.68V22.56C38.5695 22.4 38.4962 22.32 38.3495 22.32H34.3295C34.1029 22.32 33.9895 22.2267 33.9895 22.04V20.48ZM48.2884 35C48.0351 35 47.9084 34.88 47.9084 34.64V20.5C47.9084 20.2733 48.0084 20.16 48.2084 20.16H50.1884C50.3618 20.16 50.4484 20.26 50.4484 20.46V25.66C50.4484 25.74 50.4684 25.7867 50.5084 25.8C50.5484 25.8133 50.6018 25.7933 50.6684 25.74C51.1084 25.3667 51.5151 25.0733 51.8884 24.86C52.2618 24.6333 52.6351 24.4667 53.0084 24.36C53.3818 24.2533 53.7684 24.2 54.1684 24.2C55.1951 24.2 55.9818 24.48 56.5284 25.04C57.0751 25.6 57.3484 26.3667 57.3484 27.34V34.58C57.3484 34.86 57.2084 35 56.9284 35H55.0884C54.9684 35 54.8818 34.9733 54.8284 34.92C54.7751 34.8667 54.7484 34.7733 54.7484 34.64V27.76C54.7484 27.24 54.6084 26.84 54.3284 26.56C54.0618 26.2667 53.6484 26.12 53.0884 26.12C52.7684 26.12 52.4684 26.1733 52.1884 26.28C51.9218 26.3733 51.6551 26.52 51.3884 26.72C51.1218 26.92 50.8284 27.1733 50.5084 27.48V34.6C50.5084 34.8667 50.3618 35 50.0684 35H48.2884ZM61.9044 30.52C61.9044 31.0667 62.031 31.56 62.2844 32C62.5377 32.4267 62.8844 32.7667 63.3244 33.02C63.7777 33.26 64.271 33.38 64.8044 33.38C65.351 33.38 65.8444 33.2667 66.2844 33.04C66.7377 32.8133 67.1644 32.4467 67.5644 31.94C67.6177 31.8733 67.6644 31.84 67.7044 31.84C67.7444 31.8267 67.811 31.8467 67.9044 31.9L69.1244 32.44C69.2977 32.52 69.3177 32.64 69.1844 32.8C68.7844 33.3867 68.351 33.86 67.8844 34.22C67.431 34.5667 66.9244 34.82 66.3644 34.98C65.8177 35.1267 65.1977 35.2 64.5044 35.2C63.491 35.2 62.5844 34.9733 61.7844 34.52C60.9844 34.0667 60.351 33.44 59.8844 32.64C59.431 31.8267 59.2044 30.8933 59.2044 29.84C59.2044 28.68 59.4377 27.68 59.9044 26.84C60.3844 26 61.0244 25.3533 61.8244 24.9C62.6244 24.4333 63.5044 24.2 64.4644 24.2C65.4777 24.2 66.3577 24.42 67.1044 24.86C67.8644 25.3 68.4577 25.9333 68.8844 26.76C69.311 27.5733 69.5244 28.5667 69.5244 29.74C69.5244 29.8733 69.511 29.98 69.4844 30.06C69.471 30.14 69.3777 30.1867 69.2044 30.2H62.1244C62.0444 30.2 61.9844 30.2267 61.9444 30.28C61.9177 30.3333 61.9044 30.4133 61.9044 30.52ZM66.6444 28.72C66.7777 28.72 66.8644 28.7067 66.9044 28.68C66.9577 28.64 66.9844 28.56 66.9844 28.44C66.9844 28.0267 66.891 27.62 66.7044 27.22C66.5177 26.82 66.2444 26.4933 65.8844 26.24C65.5244 25.9733 65.0844 25.84 64.5644 25.84C64.031 25.84 63.5644 25.9733 63.1644 26.24C62.7644 26.4933 62.4577 26.84 62.2444 27.28C62.0444 27.7067 61.9444 28.1867 61.9444 28.72H66.6444ZM75.9238 20.5C75.9238 20.2733 76.0238 20.16 76.2238 20.16H85.9238C86.0971 20.16 86.1838 20.26 86.1838 20.46V21.98C86.1838 22.2333 86.0638 22.36 85.8238 22.36H79.2238C78.9971 22.36 78.8838 22.4533 78.8838 22.64V26.14C78.8838 26.34 78.9771 26.44 79.1638 26.44H83.7238C83.9238 26.44 84.0238 26.54 84.0238 26.74V28.36C84.0238 28.4267 84.0038 28.4867 83.9638 28.54C83.9238 28.58 83.8504 28.6 83.7438 28.6H79.1438C78.9704 28.6 78.8838 28.68 78.8838 28.84V32.56C78.8838 32.72 78.9571 32.8 79.1038 32.8H86.1037C86.3171 32.8 86.4238 32.8933 86.4238 33.08V34.7C86.4238 34.78 86.3971 34.8533 86.3438 34.92C86.2904 34.9733 86.2038 35 86.0838 35H76.3038C76.0504 35 75.9238 34.88 75.9238 34.64V20.5ZM88.8544 35C88.6144 35 88.4944 34.88 88.4944 34.64V24.74C88.4944 24.5133 88.5877 24.4 88.7744 24.4H90.7544C90.941 24.4 91.0344 24.5 91.0344 24.7V25.74C91.0344 25.82 91.0544 25.8733 91.0944 25.9C91.1344 25.9133 91.1877 25.8867 91.2544 25.82C91.6277 25.4867 91.9877 25.2 92.3344 24.96C92.6944 24.72 93.061 24.5333 93.4344 24.4C93.821 24.2533 94.2277 24.18 94.6544 24.18C95.401 24.18 96.0144 24.3533 96.4944 24.7C96.9744 25.0467 97.3077 25.4867 97.4944 26.02C97.521 26.0733 97.561 26.0933 97.6144 26.08C97.6677 26.0667 97.721 26.0333 97.7744 25.98C98.121 25.6333 98.4877 25.3267 98.8744 25.06C99.261 24.7933 99.661 24.5867 100.074 24.44C100.488 24.28 100.901 24.2 101.314 24.2C102.261 24.2 103.008 24.4867 103.554 25.06C104.101 25.62 104.374 26.3867 104.374 27.36V34.58C104.374 34.86 104.234 35 103.954 35H102.114C101.994 35 101.908 34.9733 101.854 34.92C101.801 34.8667 101.774 34.7733 101.774 34.64V27.76C101.774 27.24 101.641 26.84 101.374 26.56C101.121 26.2667 100.734 26.12 100.214 26.12C99.9077 26.12 99.6144 26.18 99.3344 26.3C99.0544 26.4067 98.801 26.5467 98.5744 26.72C98.3477 26.8933 98.1477 27.0667 97.9744 27.24C97.881 27.3333 97.8144 27.4267 97.7744 27.52C97.7477 27.6 97.7344 27.7 97.7344 27.82V34.58C97.7344 34.86 97.5944 35 97.3144 35H95.4744C95.3677 35 95.281 34.9733 95.2144 34.92C95.161 34.8667 95.1344 34.7733 95.1344 34.64V27.76C95.1344 27.24 95.0077 26.84 94.7544 26.56C94.501 26.2667 94.1077 26.12 93.5744 26.12C93.121 26.12 92.701 26.2333 92.3144 26.46C91.941 26.6867 91.5344 27.0267 91.0944 27.48V34.6C91.0944 34.8667 90.941 35 90.6344 35H88.8544ZM111.496 35.2C110.456 35.2 109.542 34.9667 108.756 34.5C107.969 34.0333 107.349 33.3933 106.896 32.58C106.456 31.7533 106.236 30.8133 106.236 29.76C106.236 28.6533 106.462 27.6867 106.916 26.86C107.382 26.02 108.009 25.3667 108.796 24.9C109.596 24.4333 110.502 24.2 111.516 24.2C112.569 24.2 113.489 24.44 114.276 24.92C115.062 25.3867 115.676 26.04 116.116 26.88C116.556 27.7067 116.776 28.66 116.776 29.74C116.776 30.8067 116.549 31.7533 116.096 32.58C115.656 33.3933 115.042 34.0333 114.256 34.5C113.469 34.9667 112.549 35.2 111.496 35.2ZM111.516 33.42C112.089 33.42 112.569 33.28 112.956 33C113.342 32.7067 113.636 32.2867 113.836 31.74C114.036 31.18 114.136 30.5 114.136 29.7C114.136 28.8867 114.029 28.2 113.816 27.64C113.616 27.08 113.322 26.6533 112.936 26.36C112.549 26.0667 112.076 25.92 111.516 25.92C110.969 25.92 110.496 26.0667 110.096 26.36C109.696 26.6533 109.389 27.08 109.176 27.64C108.976 28.2 108.876 28.8867 108.876 29.7C108.876 30.5 108.976 31.18 109.176 31.74C109.389 32.2867 109.696 32.7067 110.096 33C110.496 33.28 110.969 33.42 111.516 33.42ZM122.316 26.22C122.182 26.22 122.116 26.2933 122.116 26.44V31.78C122.116 32.3 122.222 32.66 122.436 32.86C122.649 33.06 122.982 33.16 123.436 33.16H124.616C124.696 33.16 124.762 33.1867 124.816 33.24C124.869 33.2933 124.896 33.36 124.896 33.44L124.876 34.48C124.876 34.6933 124.749 34.8267 124.496 34.88C124.296 34.9067 124.062 34.9333 123.796 34.96C123.529 34.9733 123.262 34.9867 122.996 35C122.742 35 122.509 35 122.296 35C121.402 35 120.716 34.7933 120.236 34.38C119.756 33.9533 119.516 33.3133 119.516 32.46V26.48C119.516 26.3067 119.436 26.22 119.276 26.22H117.936C117.722 26.22 117.616 26.12 117.616 25.92V24.66C117.616 24.4867 117.716 24.4 117.916 24.4H119.396C119.516 24.4 119.576 24.3333 119.576 24.2L119.836 21.12C119.849 20.9067 119.942 20.8 120.116 20.8H121.896C122.082 20.8 122.176 20.9133 122.176 21.14V24.2C122.176 24.32 122.236 24.38 122.356 24.38H124.616C124.816 24.38 124.916 24.4733 124.916 24.66V25.92C124.916 26.12 124.802 26.22 124.576 26.22H122.316ZM129.376 34.56C129.376 34.72 129.336 34.8333 129.256 34.9C129.189 34.9667 129.069 35 128.896 35H127.156C127.009 35 126.909 34.9733 126.856 34.92C126.802 34.8533 126.776 34.76 126.776 34.64V24.74C126.776 24.5133 126.876 24.4 127.076 24.4H129.096C129.282 24.4 129.376 24.5067 129.376 24.72V34.56ZM129.416 22.44C129.416 22.7467 129.256 22.9 128.936 22.9H127.116C126.969 22.9 126.869 22.8667 126.816 22.8C126.762 22.7333 126.736 22.6333 126.736 22.5V20.54C126.736 20.2867 126.842 20.16 127.056 20.16H129.116C129.316 20.16 129.416 20.2733 129.416 20.5V22.44ZM136.613 35.2C135.573 35.2 134.659 34.9667 133.873 34.5C133.086 34.0333 132.466 33.3933 132.013 32.58C131.573 31.7533 131.353 30.8133 131.353 29.76C131.353 28.6533 131.579 27.6867 132.033 26.86C132.499 26.02 133.126 25.3667 133.913 24.9C134.713 24.4333 135.619 24.2 136.633 24.2C137.686 24.2 138.606 24.44 139.393 24.92C140.179 25.3867 140.793 26.04 141.233 26.88C141.673 27.7067 141.893 28.66 141.893 29.74C141.893 30.8067 141.666 31.7533 141.213 32.58C140.773 33.3933 140.159 34.0333 139.373 34.5C138.586 34.9667 137.666 35.2 136.613 35.2ZM136.633 33.42C137.206 33.42 137.686 33.28 138.073 33C138.459 32.7067 138.753 32.2867 138.953 31.74C139.153 31.18 139.253 30.5 139.253 29.7C139.253 28.8867 139.146 28.2 138.933 27.64C138.733 27.08 138.439 26.6533 138.053 26.36C137.666 26.0667 137.193 25.92 136.633 25.92C136.086 25.92 135.613 26.0667 135.213 26.36C134.813 26.6533 134.506 27.08 134.293 27.64C134.093 28.2 133.993 28.8867 133.993 29.7C133.993 30.5 134.093 31.18 134.293 31.74C134.506 32.2867 134.813 32.7067 135.213 33C135.613 33.28 136.086 33.42 136.633 33.42ZM144.225 35C143.985 35 143.865 34.88 143.865 34.64V24.74C143.865 24.5133 143.959 24.4 144.145 24.4H146.145C146.319 24.4 146.405 24.5 146.405 24.7V25.74C146.405 25.82 146.425 25.8733 146.465 25.9C146.505 25.9133 146.559 25.8867 146.625 25.82C147.012 25.4867 147.385 25.2 147.745 24.96C148.105 24.72 148.479 24.5333 148.865 24.4C149.252 24.2667 149.672 24.2 150.125 24.2C151.112 24.2 151.885 24.4867 152.445 25.06C153.019 25.62 153.305 26.3667 153.305 27.3V34.58C153.305 34.86 153.165 35 152.885 35H151.045C150.925 35 150.839 34.9733 150.785 34.92C150.732 34.8667 150.705 34.7733 150.705 34.64V27.76C150.705 27.24 150.565 26.84 150.285 26.56C150.005 26.2667 149.585 26.12 149.025 26.12C148.705 26.12 148.405 26.1733 148.125 26.28C147.859 26.3733 147.592 26.52 147.325 26.72C147.059 26.92 146.772 27.1733 146.465 27.48V34.6C146.465 34.8667 146.312 35 146.005 35H144.225ZM161.541 33.9C161.088 34.3 160.595 34.62 160.061 34.86C159.528 35.0867 158.921 35.2 158.241 35.2C157.215 35.2 156.408 34.9333 155.821 34.4C155.248 33.8533 154.961 33.1467 154.961 32.28C154.961 31.5467 155.181 30.9133 155.621 30.38C156.061 29.8333 156.701 29.4067 157.541 29.1C158.381 28.7933 159.388 28.6133 160.561 28.56L161.561 28.5C161.641 28.4867 161.715 28.46 161.781 28.42C161.848 28.38 161.881 28.3067 161.881 28.2V27.74C161.881 27.1533 161.708 26.7 161.361 26.38C161.015 26.0467 160.535 25.88 159.921 25.88C159.455 25.88 159.015 25.9867 158.601 26.2C158.201 26.4 157.855 26.7333 157.561 27.2C157.521 27.28 157.475 27.3333 157.421 27.36C157.381 27.3867 157.301 27.3867 157.181 27.36L155.501 26.94C155.435 26.9133 155.381 26.8733 155.341 26.82C155.315 26.7667 155.341 26.66 155.421 26.5C155.781 25.74 156.348 25.1667 157.121 24.78C157.908 24.3933 158.881 24.2 160.041 24.2C161.068 24.2 161.895 24.34 162.521 24.62C163.161 24.9 163.628 25.2933 163.921 25.8C164.215 26.2933 164.361 26.88 164.361 27.56V34.6C164.361 34.7467 164.335 34.8533 164.281 34.92C164.241 34.9733 164.155 35 164.021 35H162.321C162.201 35 162.115 34.9533 162.061 34.86C162.008 34.7667 161.975 34.6533 161.961 34.52L161.921 33.92C161.895 33.6933 161.768 33.6867 161.541 33.9ZM161.881 30.16C161.881 29.92 161.781 29.8067 161.581 29.82L160.761 29.88C160.335 29.9067 159.921 29.9733 159.521 30.08C159.135 30.1733 158.788 30.3067 158.481 30.48C158.188 30.64 157.948 30.8467 157.761 31.1C157.588 31.34 157.501 31.6267 157.501 31.96C157.501 32.4133 157.661 32.7733 157.981 33.04C158.315 33.3067 158.761 33.44 159.321 33.44C159.681 33.44 160.015 33.38 160.321 33.26C160.628 33.14 160.895 32.9867 161.121 32.8C161.348 32.6133 161.528 32.42 161.661 32.22C161.808 32.0067 161.881 31.7933 161.881 31.58V30.16ZM169.454 34.56C169.454 34.72 169.42 34.8333 169.354 34.9C169.287 34.9667 169.167 35 168.994 35H167.234C166.967 35 166.834 34.88 166.834 34.64L166.894 20.5C166.894 20.2733 166.994 20.16 167.194 20.16H169.174C169.36 20.16 169.454 20.2667 169.454 20.48V34.56ZM77.2134 47.4C76.8934 47.0533 76.5001 46.7467 76.0334 46.48C75.5668 46.2133 74.9268 46.08 74.1134 46.08C73.2201 46.08 72.5401 46.2533 72.0734 46.6C71.6068 46.9467 71.3734 47.4067 71.3734 47.98C71.3734 48.1667 71.4134 48.3667 71.4934 48.58C71.5868 48.7933 71.7601 49.0067 72.0134 49.22C72.2801 49.42 72.6601 49.6 73.1534 49.76L76.2334 50.68C77.4601 51.04 78.3401 51.58 78.8734 52.3C79.4201 53.0067 79.6934 53.8333 79.6934 54.78C79.6934 55.6867 79.4601 56.4733 78.9934 57.14C78.5268 57.8067 77.8668 58.32 77.0134 58.68C76.1601 59.0267 75.1401 59.2 73.9534 59.2C73.0868 59.2 72.2734 59.1 71.5134 58.9C70.7668 58.7 70.1001 58.4067 69.5134 58.02C68.9401 57.6333 68.4734 57.1733 68.1134 56.64C68.0468 56.5333 68.0201 56.44 68.0334 56.36C68.0601 56.2667 68.1268 56.18 68.2334 56.1L69.4934 55.22C69.6534 55.1267 69.7734 55.0867 69.8534 55.1C69.9468 55.1133 70.0268 55.16 70.0934 55.24C70.4268 55.6667 70.7534 56.02 71.0734 56.3C71.4068 56.5667 71.7868 56.7667 72.2134 56.9C72.6401 57.0333 73.1601 57.1 73.7734 57.1C74.7068 57.1 75.4534 56.9467 76.0134 56.64C76.5734 56.32 76.8534 55.8267 76.8534 55.16C76.8534 54.8933 76.7934 54.6533 76.6734 54.44C76.5668 54.2133 76.3801 54.0067 76.1134 53.82C75.8601 53.6333 75.4868 53.46 74.9934 53.3L71.9734 52.38C71.2001 52.14 70.5601 51.82 70.0534 51.42C69.5601 51.0067 69.1868 50.5333 68.9334 50C68.6801 49.4667 68.5534 48.9133 68.5534 48.34C68.5534 47.4867 68.7801 46.7333 69.2334 46.08C69.6868 45.4133 70.3268 44.8933 71.1534 44.52C71.9801 44.1467 72.9468 43.96 74.0534 43.96C74.7734 43.96 75.4468 44.0467 76.0734 44.22C76.7134 44.38 77.2868 44.6133 77.7934 44.92C78.3134 45.2267 78.7401 45.5933 79.0734 46.02C79.1268 46.0867 79.1668 46.16 79.1934 46.24C79.2201 46.3067 79.1801 46.3867 79.0734 46.48L77.6534 47.54C77.5868 47.5933 77.5201 47.6133 77.4534 47.6C77.4001 47.5733 77.3201 47.5067 77.2134 47.4ZM85.2259 50.22C85.0926 50.22 85.0259 50.2933 85.0259 50.44V55.78C85.0259 56.3 85.1326 56.66 85.3459 56.86C85.5593 57.06 85.8926 57.16 86.3459 57.16H87.5259C87.6059 57.16 87.6726 57.1867 87.7259 57.24C87.7793 57.2933 87.8059 57.36 87.8059 57.44L87.7859 58.48C87.7859 58.6933 87.6593 58.8267 87.4059 58.88C87.2059 58.9067 86.9726 58.9333 86.7059 58.96C86.4393 58.9733 86.1726 58.9867 85.9059 59C85.6526 59 85.4193 59 85.2059 59C84.3126 59 83.6259 58.7933 83.1459 58.38C82.6659 57.9533 82.4259 57.3133 82.4259 56.46V50.48C82.4259 50.3067 82.3459 50.22 82.1859 50.22H80.8459C80.6326 50.22 80.5259 50.12 80.5259 49.92V48.66C80.5259 48.4867 80.6259 48.4 80.8259 48.4H82.3059C82.4259 48.4 82.4859 48.3333 82.4859 48.2L82.7459 45.12C82.7593 44.9067 82.8526 44.8 83.0259 44.8H84.8059C84.9926 44.8 85.0859 44.9133 85.0859 45.14V48.2C85.0859 48.32 85.1459 48.38 85.2659 48.38H87.5259C87.7259 48.38 87.8259 48.4733 87.8259 48.66V49.92C87.8259 50.12 87.7126 50.22 87.4859 50.22H85.2259ZM95.5258 57.9C95.0724 58.3 94.5791 58.62 94.0458 58.86C93.5124 59.0867 92.9058 59.2 92.2258 59.2C91.1991 59.2 90.3924 58.9333 89.8058 58.4C89.2324 57.8533 88.9458 57.1467 88.9458 56.28C88.9458 55.5467 89.1658 54.9133 89.6058 54.38C90.0458 53.8333 90.6858 53.4067 91.5258 53.1C92.3658 52.7933 93.3724 52.6133 94.5458 52.56L95.5458 52.5C95.6258 52.4867 95.6991 52.46 95.7658 52.42C95.8324 52.38 95.8658 52.3067 95.8658 52.2V51.74C95.8658 51.1533 95.6924 50.7 95.3458 50.38C94.9991 50.0467 94.5191 49.88 93.9058 49.88C93.4391 49.88 92.9991 49.9867 92.5858 50.2C92.1858 50.4 91.8391 50.7333 91.5458 51.2C91.5058 51.28 91.4591 51.3333 91.4058 51.36C91.3658 51.3867 91.2858 51.3867 91.1658 51.36L89.4858 50.94C89.4191 50.9133 89.3658 50.8733 89.3258 50.82C89.2991 50.7667 89.3258 50.66 89.4058 50.5C89.7658 49.74 90.3324 49.1667 91.1058 48.78C91.8924 48.3933 92.8658 48.2 94.0258 48.2C95.0524 48.2 95.8791 48.34 96.5058 48.62C97.1458 48.9 97.6124 49.2933 97.9058 49.8C98.1991 50.2933 98.3458 50.88 98.3458 51.56V58.6C98.3458 58.7467 98.3191 58.8533 98.2658 58.92C98.2258 58.9733 98.1391 59 98.0058 59H96.3058C96.1858 59 96.0991 58.9533 96.0458 58.86C95.9924 58.7667 95.9591 58.6533 95.9458 58.52L95.9058 57.92C95.8791 57.6933 95.7524 57.6867 95.5258 57.9ZM95.8658 54.16C95.8658 53.92 95.7658 53.8067 95.5658 53.82L94.7458 53.88C94.3191 53.9067 93.9058 53.9733 93.5058 54.08C93.1191 54.1733 92.7724 54.3067 92.4658 54.48C92.1724 54.64 91.9324 54.8467 91.7458 55.1C91.5724 55.34 91.4858 55.6267 91.4858 55.96C91.4858 56.4133 91.6458 56.7733 91.9658 57.04C92.2991 57.3067 92.7458 57.44 93.3058 57.44C93.6658 57.44 93.9991 57.38 94.3058 57.26C94.6124 57.14 94.8791 56.9867 95.1058 56.8C95.3324 56.6133 95.5124 56.42 95.6458 56.22C95.7924 56.0067 95.8658 55.7933 95.8658 55.58V54.16ZM103.058 48.4C103.311 48.4 103.438 48.52 103.438 48.76V49.44C103.438 49.5333 103.465 49.5867 103.518 49.6C103.571 49.6 103.631 49.5667 103.698 49.5C103.898 49.3133 104.125 49.12 104.378 48.92C104.645 48.72 104.965 48.5533 105.338 48.42C105.711 48.2733 106.165 48.2 106.698 48.2C107.498 48.2 108.211 48.4 108.838 48.8C109.465 49.1867 109.965 49.78 110.338 50.58C110.711 51.3667 110.898 52.3667 110.898 53.58C110.898 54.8333 110.711 55.88 110.338 56.72C109.965 57.5467 109.445 58.1667 108.778 58.58C108.125 58.9933 107.371 59.2 106.518 59.2C105.971 59.2 105.471 59.1133 105.018 58.94C104.565 58.7667 104.158 58.5133 103.798 58.18C103.665 58.06 103.571 58.0067 103.518 58.02C103.465 58.0333 103.438 58.1267 103.438 58.3V61.98C103.438 62.1933 103.345 62.3 103.158 62.3H101.118C100.931 62.3 100.838 62.1933 100.838 61.98V48.8C100.838 48.6533 100.865 48.5533 100.918 48.5C100.971 48.4333 101.078 48.4 101.238 48.4H103.058ZM103.438 56.4C103.745 56.7333 104.071 57 104.418 57.2C104.778 57.4 105.178 57.5 105.618 57.5C106.151 57.5 106.611 57.3667 106.998 57.1C107.398 56.82 107.705 56.3933 107.918 55.82C108.145 55.2333 108.258 54.48 108.258 53.56C108.258 52.6533 108.145 51.9333 107.918 51.4C107.705 50.8667 107.398 50.4867 106.998 50.26C106.611 50.02 106.178 49.9 105.698 49.9C105.258 49.9 104.865 49.9933 104.518 50.18C104.185 50.3533 103.918 50.58 103.718 50.86C103.531 51.14 103.438 51.4333 103.438 51.74V56.4ZM115.548 58.56C115.548 58.72 115.514 58.8333 115.448 58.9C115.381 58.9667 115.261 59 115.088 59H113.328C113.061 59 112.928 58.88 112.928 58.64L112.988 44.5C112.988 44.2733 113.088 44.16 113.288 44.16H115.268C115.454 44.16 115.548 44.2667 115.548 44.48V58.56ZM120.244 54.52C120.244 55.0667 120.371 55.56 120.624 56C120.878 56.4267 121.224 56.7667 121.664 57.02C122.118 57.26 122.611 57.38 123.144 57.38C123.691 57.38 124.184 57.2667 124.624 57.04C125.078 56.8133 125.504 56.4467 125.904 55.94C125.958 55.8733 126.004 55.84 126.044 55.84C126.084 55.8267 126.151 55.8467 126.244 55.9L127.464 56.44C127.638 56.52 127.658 56.64 127.524 56.8C127.124 57.3867 126.691 57.86 126.224 58.22C125.771 58.5667 125.264 58.82 124.704 58.98C124.158 59.1267 123.538 59.2 122.844 59.2C121.831 59.2 120.924 58.9733 120.124 58.52C119.324 58.0667 118.691 57.44 118.224 56.64C117.771 55.8267 117.544 54.8933 117.544 53.84C117.544 52.68 117.778 51.68 118.244 50.84C118.724 50 119.364 49.3533 120.164 48.9C120.964 48.4333 121.844 48.2 122.804 48.2C123.818 48.2 124.698 48.42 125.444 48.86C126.204 49.3 126.798 49.9333 127.224 50.76C127.651 51.5733 127.864 52.5667 127.864 53.74C127.864 53.8733 127.851 53.98 127.824 54.06C127.811 54.14 127.718 54.1867 127.544 54.2H120.464C120.384 54.2 120.324 54.2267 120.284 54.28C120.258 54.3333 120.244 54.4133 120.244 54.52ZM124.984 52.72C125.118 52.72 125.204 52.7067 125.244 52.68C125.298 52.64 125.324 52.56 125.324 52.44C125.324 52.0267 125.231 51.62 125.044 51.22C124.858 50.82 124.584 50.4933 124.224 50.24C123.864 49.9733 123.424 49.84 122.904 49.84C122.371 49.84 121.904 49.9733 121.504 50.24C121.104 50.4933 120.798 50.84 120.584 51.28C120.384 51.7067 120.284 52.1867 120.284 52.72H124.984ZM130.124 59C129.991 59 129.897 58.9733 129.844 58.92C129.791 58.8533 129.764 58.76 129.764 58.64V48.74C129.764 48.5133 129.857 48.4 130.044 48.4H131.984C132.171 48.4 132.264 48.5 132.264 48.7V49.92C132.264 50 132.291 50.0533 132.344 50.08C132.397 50.0933 132.457 50.06 132.524 49.98C132.817 49.5933 133.131 49.2733 133.464 49.02C133.811 48.7533 134.157 48.5533 134.504 48.42C134.864 48.2733 135.211 48.2 135.544 48.2C136.024 48.2 136.264 48.3067 136.264 48.52V50.44C136.264 50.6267 136.177 50.7067 136.004 50.68C135.804 50.6267 135.591 50.5933 135.364 50.58C135.151 50.5533 134.951 50.54 134.764 50.54C134.511 50.54 134.237 50.5933 133.944 50.7C133.664 50.8067 133.404 50.96 133.164 51.16C132.924 51.3467 132.731 51.5533 132.584 51.78C132.437 52.0067 132.364 52.24 132.364 52.48V58.6C132.364 58.8667 132.211 59 131.904 59H130.124Z" fill="black"/>
</svg>
