<svg width="136" height="137" viewBox="0 0 136 137" fill="none" xmlns="http://www.w3.org/2000/svg">
<path d="M14.5261 14.2797C41.0154 8.18304 68.7039 9.08502 94.8373 16.9811C96.3833 17.4472 98.3939 16.5151 98.8675 15.0837C99.3397 13.6507 98.2039 11.6929 96.5824 11.2057C69.44 3.00493 40.6836 2.06977 13.1731 8.40024C12.6648 6.19506 12.158 3.98987 11.6512 1.78469C11.4446 0.894774 11.0645 0.133067 10.0177 0.0199416C8.9724 -0.0916751 8.33286 0.2658 7.75668 1.07879C5.07185 4.86773 2.58762 8.72001 0.30853 12.616C-0.358153 13.7594 0.0958558 15.1184 1.28291 15.6644C5.33731 17.5347 9.23786 19.5619 12.974 21.7294C13.7749 22.1939 14.4069 22.2377 15.1656 21.6977C15.9228 21.1577 15.9137 20.3161 15.7086 19.4246C15.3164 17.7082 14.9213 15.9947 14.5261 14.2797Z" fill="#868686"/>
<path d="M123.736 58.498C122.484 55.065 118.898 52.7573 114.809 52.7573C113.64 52.7573 112.509 52.9519 111.45 53.338C110.876 53.5477 109.482 54.2807 108.149 55.2958C106.452 51.5506 102.681 49.086 98.5269 49.086C97.296 49.086 96.0818 49.3002 94.9144 49.724C92.6278 50.5566 90.7393 52.1147 89.4964 54.1691C86.8719 50.8206 82.5174 49.4224 78.4615 50.8975C75.8128 51.8613 73.751 53.795 72.6514 56.3426L62.1277 30.3555C60.4309 25.6948 56.4398 22.6841 51.9616 22.6841C50.7474 22.6841 49.5256 22.9044 48.3325 23.3388C42.6733 25.4007 40.0684 31.5245 42.2901 37.6287L59.7838 82.666C58.8652 83.7053 57.5424 85.4745 56.0537 88.3042C50.9042 98.0978 54.5423 115.931 67.9967 125.859C77.6153 132.958 86.4828 136.263 95.9039 136.263C101.424 136.263 107.173 135.15 113.468 132.856C131.371 126.341 134.09 115.178 135.339 104.305C136.546 93.8458 124.261 59.937 123.736 58.498ZM130.844 103.79C129.666 114.029 127.43 122.963 111.922 128.607C106.127 130.715 100.89 131.741 95.9054 131.741C87.3833 131.741 79.6048 128.804 70.6845 122.221C62.6511 116.293 54.5167 100.953 60.0613 90.4113C60.6586 89.2725 61.2137 88.3509 61.7024 87.6134L67.4175 102.321C67.8685 103.487 69.1792 104.062 70.3451 103.611C71.5081 103.158 72.0858 101.848 71.6348 100.683L46.5286 36.0374C45.162 32.2832 46.5406 28.8095 49.8816 27.5938C53.1788 26.3961 56.5545 28.2695 57.9059 31.9815L73.7706 71.1529C74.2035 72.2284 75.3815 72.803 76.5022 72.4757C77.6153 72.1514 78.3016 71.0353 78.0935 69.895L76.8476 63.1241C76.8234 62.9989 76.7918 62.8782 76.748 62.759C76.1794 61.1979 76.2035 59.5584 76.8099 58.1435C77.4072 56.7468 78.5444 55.685 80.0151 55.151C82.9548 54.0801 85.8719 55.7378 87.062 59.0063L88.6111 63.2568C89.0379 64.4303 90.3381 65.0366 91.5101 64.6083C92.6821 64.1799 93.2899 62.8827 92.8615 61.7093L92.8585 61.6987C92.311 60.1873 92.3849 58.5538 93.0621 57.0953C93.7424 55.6352 94.9536 54.5266 96.465 53.976C97.1331 53.7332 97.8285 53.611 98.5299 53.611C101.058 53.611 103.335 55.2083 104.201 57.5825C104.201 57.5825 107.25 65.1633 107.919 66.7969C108.589 68.4304 109.648 68.6898 110.779 68.266C111.91 67.8421 112.315 66.6762 111.805 65.2448C111.298 63.8119 109.836 59.8359 109.836 59.8359C110.535 59.1119 112.002 57.9535 113.004 57.59C113.563 57.3864 114.17 57.2823 114.812 57.2823C116.972 57.2823 118.892 58.4196 119.488 60.0471C122.95 69.5662 131.743 95.9831 130.844 103.79Z" fill="#868686"/>
</svg>
