<svg width="136" height="137" viewBox="0 0 136 137" fill="none" xmlns="http://www.w3.org/2000/svg">
<path d="M120.897 14.2797C94.4074 8.18304 66.719 9.08502 40.5856 16.9811C39.0395 17.4472 37.0289 16.5151 36.5553 15.0837C36.0832 13.6507 37.219 11.6929 38.8404 11.2057C65.9829 3.00493 94.7393 2.06977 122.25 8.40024C122.758 6.19506 123.265 3.98987 123.772 1.78469C123.978 0.894774 124.358 0.133067 125.405 0.0199416C126.45 -0.0916751 127.09 0.2658 127.666 1.07879C130.351 4.86773 132.835 8.72001 135.114 12.616C135.781 13.7594 135.327 15.1184 134.14 15.6644C130.086 17.5347 126.185 19.5619 122.449 21.7294C121.648 22.1939 121.016 22.2377 120.257 21.6977C119.5 21.1577 119.509 20.3161 119.714 19.4246C120.106 17.7082 120.502 15.9947 120.897 14.2797Z" fill="#68A2F8"/>
<path d="M11.6872 58.498C12.9391 55.065 16.5245 52.7573 20.6135 52.7573C21.7825 52.7573 22.9138 52.9519 23.9726 53.338C24.5473 53.5477 25.941 54.2807 27.2744 55.2958C28.9712 51.5506 32.7421 49.086 36.896 49.086C38.1268 49.086 39.341 49.3002 40.5085 49.724C42.7951 50.5566 44.6835 52.1147 45.9264 54.1691C48.5509 50.8206 52.9055 49.4224 56.9614 50.8975C59.61 51.8613 61.6719 53.795 62.7715 56.3426L73.2951 30.3555C74.992 25.6948 78.983 22.6841 83.4613 22.6841C84.6755 22.6841 85.8972 22.9044 87.0903 23.3388C92.7496 25.4007 95.3545 31.5245 93.1327 37.6287L75.6391 82.666C76.5576 83.7053 77.8804 85.4745 79.3692 88.3042C84.5186 98.0978 80.8805 115.931 67.4262 125.859C57.8075 132.958 48.94 136.263 39.519 136.263C33.9985 136.263 28.2502 135.15 21.9545 132.856C4.05204 126.341 1.33252 115.178 0.0836163 104.305C-1.12305 93.8458 11.1623 59.937 11.6872 58.498ZM4.57846 103.79C5.75647 114.029 7.99332 122.963 23.5005 128.607C29.2955 130.715 34.5324 131.741 39.5175 131.741C48.0396 131.741 55.8181 128.804 64.7383 122.221C72.7717 116.293 80.9062 100.953 75.3615 90.4113C74.7642 89.2725 74.2092 88.3509 73.7205 87.6134L68.0054 102.321C67.5544 103.487 66.2437 104.062 65.0777 103.611C63.9148 103.158 63.3371 101.848 63.7881 100.683L88.8943 36.0374C90.2608 32.2832 88.8822 28.8095 85.5413 27.5938C82.2441 26.3961 78.8684 28.2695 77.5169 31.9815L61.6523 71.1529C61.2194 72.2284 60.0414 72.803 58.9207 72.4757C57.8075 72.1514 57.1212 71.0353 57.3294 69.895L58.5753 63.1241C58.5994 62.9989 58.6311 62.8782 58.6748 62.759C59.2435 61.1979 59.2193 59.5584 58.613 58.1435C58.0157 56.7468 56.8784 55.685 55.4078 55.151C52.468 54.0801 49.5509 55.7378 48.3608 59.0063L46.8118 63.2568C46.3849 64.4303 45.0847 65.0366 43.9128 64.6083C42.7408 64.1799 42.1329 62.8827 42.5613 61.7093L42.5643 61.6987C43.1118 60.1873 43.0379 58.5538 42.3607 57.0953C41.6804 55.6352 40.4692 54.5266 38.9579 53.976C38.2897 53.7332 37.5944 53.611 36.893 53.611C34.365 53.611 32.0874 55.2083 31.2217 57.5825C31.2217 57.5825 28.1733 65.1633 27.5036 66.7969C26.8339 68.4304 25.7751 68.6898 24.6438 68.266C23.5126 67.8421 23.1083 66.6762 23.6181 65.2448C24.1249 63.8119 25.5865 59.8359 25.5865 59.8359C24.8882 59.1119 23.4206 57.9535 22.419 57.59C21.8594 57.3864 21.2531 57.2823 20.6105 57.2823C18.4506 57.2823 16.5305 58.4196 15.9347 60.0471C12.4731 69.5662 3.67949 95.9831 4.57846 103.79Z" fill="#68A2F8"/>
</svg>
