<svg width="60" height="60" viewBox="0 0 60 60" fill="none" xmlns="http://www.w3.org/2000/svg">
<path fill-rule="evenodd" clip-rule="evenodd" d="M34 20C36.0425 20 37.7989 21.2247 38.575 22.9797C38.8483 23.5975 39 24.281 39 25V25.0298L42.7997 22.9314C44.7992 21.8272 47.25 23.2734 47.25 25.5575V34.4425C47.25 36.7266 44.7992 38.1728 42.7997 37.0686L39 34.9702V35C39 35.719 38.8483 36.4025 38.575 37.0203C37.7989 38.7753 36.0425 40 34 40H20C17.2386 40 15 37.7614 15 35V25C15 22.2386 17.2386 20 20 20H34ZM43.7666 35.3179L39 32.6855V27.3145L43.7666 24.6822C44.4331 24.3141 45.25 24.7962 45.25 25.5575V34.4425C45.25 35.2038 44.4331 35.6859 43.7666 35.3179ZM37 25C37 23.3431 35.6569 22 34 22H20C18.3431 22 17 23.3431 17 25V35C17 36.6569 18.3431 38 20 38H34C35.6569 38 37 36.6569 37 35V25Z" fill="#111111"/>
</svg>
