<svg width="60" height="60" viewBox="0 0 60 60" fill="none" xmlns="http://www.w3.org/2000/svg">
<path fill-rule="evenodd" clip-rule="evenodd" d="M30 37C33.866 37 37 33.866 37 30C37 26.134 33.866 23 30 23C26.134 23 23 26.134 23 30C23 33.866 26.134 37 30 37ZM30 35C32.7614 35 35 32.7614 35 30C35 27.2386 32.7614 25 30 25C27.2386 25 25 27.2386 25 30C25 32.7614 27.2386 35 30 35Z" fill="#111111"/>
<path d="M39 23C39.5523 23 40 22.5523 40 22C40 21.4477 39.5523 21 39 21C38.4477 21 38 21.4477 38 22C38 22.5523 38.4477 23 39 23Z" fill="#111111"/>
<path fill-rule="evenodd" clip-rule="evenodd" d="M23 14C18.0294 14 14 18.0294 14 23V37C14 41.9706 18.0294 46 23 46H37C41.9706 46 46 41.9706 46 37V23C46 18.0294 41.9706 14 37 14H23ZM37 16H23C19.134 16 16 19.134 16 23V37C16 40.866 19.134 44 23 44H37C40.866 44 44 40.866 44 37V23C44 19.134 40.866 16 37 16Z" fill="#111111"/>
</svg>
