<svg width="60" height="60" viewBox="0 0 60 60" fill="none" xmlns="http://www.w3.org/2000/svg">
<path fill-rule="evenodd" clip-rule="evenodd" d="M34.9122 20.2077C37.4006 22.0768 39.7528 24.08 42.8986 24.6991V22.8143C38.86 21.8505 35.7346 18.4809 35.0515 14.4H33.0502C32.9951 19.1458 33.0205 23.8802 33.0459 28.6329C33.0602 31.3126 33.0746 33.9981 33.0746 36.6946C33.0746 40.5981 29.9102 43.7624 26.0068 43.7624C22.1034 43.7624 18.939 40.5981 18.939 36.6946C18.939 33.0361 21.7187 30.0269 25.2813 29.6636V27.8184C20.7023 28.1876 17.1014 32.0206 17.1014 36.6946C17.1014 41.6129 21.0885 45.6 26.0068 45.6C30.9251 45.6 34.9122 41.6129 34.9122 36.6946V20.2077ZM38.7122 25.2142C40.2512 26.0245 41.9585 26.5584 43.7679 26.7499C44.3298 26.8094 44.7986 26.353 44.7986 25.7879V22.1252C44.7986 21.5941 44.3813 21.1622 43.858 21.0724C40.1315 20.4329 37.2185 17.282 36.8514 13.5268C36.7966 12.9665 36.3507 12.5 35.7877 12.5H32.1603C31.6144 12.5 31.1692 12.9378 31.1617 13.4837C31.0919 18.5443 31.119 23.6073 31.146 28.6698C31.1603 31.345 31.1746 34.0201 31.1746 36.6946C31.1746 39.5487 28.8609 41.8624 26.0068 41.8624C23.1527 41.8624 20.839 39.5487 20.839 36.6946C20.839 33.8405 23.1527 31.5268 26.0068 31.5268C26.6125 31.5268 27.1813 31.0819 27.1813 30.4762V26.8501C27.1813 26.1531 26.6035 25.8893 26.0068 25.8893C20.0391 25.8893 15.2014 30.727 15.2014 36.6946C15.2014 42.6623 20.0391 47.5 26.0068 47.5C31.9744 47.5 36.8122 42.6623 36.8122 36.6946V24.0111C37.4104 24.4604 38.0455 24.8633 38.7122 25.2142Z" fill="#111111"/>
</svg>
